G04*
G04 #@! TF.GenerationSoftware,Altium Limited,Altium Designer,25.2.1 (25)*
G04*
G04 Layer_Physical_Order=2*
G04 Layer_Color=16711680*
%FSLAX25Y25*%
%MOIN*%
G70*
G04*
G04 #@! TF.SameCoordinates,2B78703E-072C-4945-A0C2-5BE418C1B0F6*
G04*
G04*
G04 #@! TF.FilePolarity,Positive*
G04*
G01*
G75*
%ADD10C,0.00787*%
%ADD22C,0.04724*%
%ADD61C,0.01968*%
%ADD62C,0.03740*%
%ADD63C,0.01968*%
%ADD64R,0.05394X0.05394*%
%ADD65C,0.05394*%
%ADD66C,0.02362*%
%ADD67O,0.07874X0.03543*%
%ADD68O,0.06693X0.03543*%
G36*
X84266Y156003D02*
X89764Y155412D01*
X95205Y154430D01*
X100563Y153062D01*
X105810Y151316D01*
X110918Y149200D01*
X115863Y146725D01*
X120618Y143904D01*
X125160Y140750D01*
X129466Y137280D01*
X133513Y133513D01*
X137280Y129466D01*
X140750Y125160D01*
X143904Y120618D01*
X146725Y115863D01*
X149200Y110918D01*
X151316Y105810D01*
X153062Y100563D01*
X154430Y95205D01*
X155412Y89764D01*
X156003Y84266D01*
X156200Y78740D01*
X156003Y73214D01*
X155412Y67716D01*
X154430Y62275D01*
X153062Y56917D01*
X151316Y51671D01*
X149200Y46562D01*
X146725Y41618D01*
X143904Y36862D01*
X140750Y32320D01*
X137280Y28015D01*
X133513Y23968D01*
X129466Y20200D01*
X125160Y16730D01*
X120618Y13577D01*
X115863Y10755D01*
X110918Y8280D01*
X105810Y6164D01*
X100563Y4418D01*
X95205Y3050D01*
X89764Y2069D01*
X84266Y1477D01*
X78740Y1280D01*
X73214Y1477D01*
X67716Y2069D01*
X62275Y3050D01*
X56917Y4418D01*
X51671Y6164D01*
X46562Y8280D01*
X41618Y10755D01*
X36862Y13577D01*
X32320Y16730D01*
X28015Y20200D01*
X23968Y23968D01*
X20200Y28015D01*
X16730Y32320D01*
X13577Y36862D01*
X10755Y41618D01*
X8280Y46562D01*
X6164Y51671D01*
X4418Y56917D01*
X3050Y62275D01*
X2069Y67716D01*
X1477Y73214D01*
X1280Y78740D01*
X1477Y84266D01*
X2069Y89764D01*
X3050Y95205D01*
X4418Y100563D01*
X6164Y105810D01*
X8280Y110918D01*
X10755Y115863D01*
X13577Y120618D01*
X16730Y125160D01*
X20200Y129466D01*
X23968Y133513D01*
X28015Y137280D01*
X32320Y140750D01*
X36862Y143904D01*
X41618Y146725D01*
X46562Y149200D01*
X51671Y151316D01*
X56917Y153062D01*
X62275Y154430D01*
X67716Y155412D01*
X73214Y156003D01*
X78740Y156200D01*
X84266Y156003D01*
D02*
G37*
%LPC*%
G36*
X88974Y150591D02*
X88191D01*
X87800Y150428D01*
X62791D01*
X62399Y150591D01*
X61616D01*
X61225Y150428D01*
X56673D01*
X55982Y150291D01*
X55396Y149899D01*
X44982Y139486D01*
X44591Y138900D01*
X44453Y138209D01*
Y134641D01*
X44291Y134250D01*
Y133467D01*
X44591Y132743D01*
X45145Y132190D01*
X45868Y131890D01*
X46651D01*
X47375Y132190D01*
X47929Y132743D01*
X48228Y133467D01*
Y134250D01*
X48066Y134641D01*
Y137461D01*
X50188Y139582D01*
X50650Y139391D01*
Y139305D01*
X50887Y138419D01*
X51346Y137624D01*
X51995Y136976D01*
X52789Y136517D01*
X53675Y136279D01*
X54593D01*
X55479Y136517D01*
X56273Y136976D01*
X56922Y137624D01*
X57381Y138419D01*
X57618Y139305D01*
Y140223D01*
X57381Y141109D01*
X56922Y141903D01*
X56273Y142552D01*
X55479Y143011D01*
X54593Y143248D01*
X54507D01*
X54315Y143710D01*
X57421Y146816D01*
X61225D01*
X61616Y146653D01*
X62399D01*
X62791Y146816D01*
X87800D01*
X88191Y146653D01*
X88974D01*
X89698Y146953D01*
X90251Y147507D01*
X90551Y148231D01*
Y149014D01*
X90251Y149737D01*
X89698Y150291D01*
X88974Y150591D01*
D02*
G37*
G36*
X116732Y136441D02*
X116732Y136441D01*
X114770D01*
X114309Y136349D01*
X113918Y136088D01*
X113918Y136088D01*
X112835Y135005D01*
X112198D01*
X111474Y134705D01*
X110920Y134151D01*
X110892Y134146D01*
X110563Y134475D01*
X109840Y134774D01*
X109442D01*
X108129Y136088D01*
X107738Y136349D01*
X107278Y136441D01*
X107278Y136441D01*
X105457D01*
X105457Y136441D01*
X104996Y136349D01*
X104605Y136088D01*
X104605Y136088D01*
X103085Y134568D01*
X102824Y134177D01*
X102733Y133716D01*
X102733Y133716D01*
Y110870D01*
X102233Y110626D01*
X102036Y110758D01*
X101575Y110850D01*
X101575Y110850D01*
X89961D01*
X89500Y110758D01*
X89109Y110497D01*
X88848Y110236D01*
X88191D01*
X87468Y109936D01*
X86914Y109383D01*
X86614Y108659D01*
Y107876D01*
X86914Y107153D01*
X87468Y106599D01*
X88191Y106299D01*
X88974D01*
X89698Y106599D01*
X90251Y107153D01*
X90551Y107876D01*
Y108441D01*
X94264D01*
X94599Y107941D01*
X94488Y107675D01*
Y107018D01*
X69424Y81954D01*
X69163Y81563D01*
X69071Y81102D01*
X69071Y81102D01*
Y66191D01*
X64658Y61778D01*
X64196Y61969D01*
Y98258D01*
X68361Y102422D01*
X68506Y102362D01*
X69289D01*
X69556Y102473D01*
X70056Y102138D01*
Y93800D01*
X69147Y92891D01*
X69092Y92913D01*
X68309D01*
X67586Y92614D01*
X67032Y92060D01*
X66732Y91337D01*
Y90553D01*
X67032Y89830D01*
X67586Y89276D01*
X68309Y88976D01*
X69092D01*
X69816Y89276D01*
X70370Y89830D01*
X70669Y90553D01*
Y91008D01*
X72111Y92450D01*
X72111Y92450D01*
X72372Y92840D01*
X72464Y93301D01*
X72464Y93301D01*
Y108459D01*
X72464Y108459D01*
X72372Y108920D01*
X72111Y109310D01*
X72111Y109310D01*
X70728Y110694D01*
X70337Y110955D01*
X69876Y111047D01*
X69876Y111047D01*
X67520D01*
X67059Y110955D01*
X66668Y110694D01*
X66668Y110694D01*
X56368Y100394D01*
X55711D01*
X54987Y100094D01*
X54434Y99540D01*
X54328Y99286D01*
X53738Y99168D01*
X49051Y103856D01*
Y118312D01*
X49213Y118703D01*
Y119486D01*
X48913Y120210D01*
X48552Y120571D01*
X48913Y120932D01*
X49213Y121656D01*
Y122439D01*
X48913Y123162D01*
X48359Y123716D01*
X47636Y124016D01*
X46852D01*
X46461Y123854D01*
X40739D01*
X40048Y123716D01*
X39462Y123325D01*
X10534Y94396D01*
X10142Y93810D01*
X10005Y93119D01*
Y72835D01*
X10142Y72143D01*
X10534Y71557D01*
X16776Y65315D01*
Y60245D01*
X16914Y59554D01*
X17305Y58968D01*
X19707Y56566D01*
Y56109D01*
X20007Y55386D01*
X20560Y54832D01*
X21284Y54533D01*
X22067D01*
X22458Y54695D01*
X48078D01*
X48320Y54195D01*
X48274Y54126D01*
X48213Y53819D01*
Y37874D01*
X48274Y37567D01*
X48448Y37306D01*
X48709Y37132D01*
X49016Y37071D01*
X89173D01*
X89480Y37132D01*
X89741Y37306D01*
X89915Y37567D01*
X89976Y37874D01*
Y53819D01*
X89915Y54126D01*
X89741Y54387D01*
X89480Y54561D01*
X89173Y54622D01*
X71557D01*
X71405Y55122D01*
X71558Y55224D01*
X74542Y58208D01*
X74934Y58371D01*
X75488Y58924D01*
X75787Y59648D01*
Y60431D01*
X75488Y61154D01*
X74934Y61708D01*
X74211Y62008D01*
X73427D01*
X72704Y61708D01*
X72150Y61154D01*
X71988Y60763D01*
X69532Y58307D01*
X65247D01*
X65056Y58769D01*
X71127Y64841D01*
X71388Y65231D01*
X71480Y65692D01*
X71480Y65692D01*
Y67454D01*
X71980Y67661D01*
X80847Y58794D01*
X80847Y58794D01*
X81238Y58533D01*
X81699Y58441D01*
X81699Y58441D01*
X84252D01*
X84252Y58441D01*
X84713Y58533D01*
X85103Y58794D01*
X86349Y60039D01*
X87006D01*
X87729Y60339D01*
X88283Y60893D01*
X88583Y61616D01*
Y62399D01*
X88283Y63123D01*
X87729Y63677D01*
X87006Y63976D01*
X86223D01*
X85499Y63677D01*
X84945Y63123D01*
X84896Y63003D01*
X84396D01*
X84346Y63123D01*
X83792Y63677D01*
X83069Y63976D01*
X82412D01*
X76992Y69397D01*
Y73224D01*
X77456Y73688D01*
X77756Y74412D01*
Y75195D01*
X77456Y75918D01*
X76903Y76472D01*
X76179Y76772D01*
X75396D01*
X74672Y76472D01*
X74213Y76012D01*
X73753Y76472D01*
X73029Y76772D01*
X72246D01*
X71980Y76661D01*
X71480Y76995D01*
Y80603D01*
X96191Y105315D01*
X96848D01*
X97572Y105615D01*
X98125Y106168D01*
X98425Y106892D01*
Y107675D01*
X98315Y107941D01*
X98649Y108441D01*
X101076D01*
X101158Y108359D01*
Y90877D01*
X101158Y90877D01*
X101143D01*
X101267Y90250D01*
X101295Y90109D01*
X101728Y89462D01*
X101740Y89470D01*
X101740Y89470D01*
X104056Y87155D01*
X103646Y86745D01*
X103347Y86022D01*
Y85238D01*
X103646Y84515D01*
X104200Y83961D01*
X104923Y83661D01*
X105707D01*
X106430Y83961D01*
X106984Y84515D01*
X107283Y85238D01*
Y85785D01*
X107783Y85992D01*
X117526Y76249D01*
X117409Y75659D01*
X116995Y75488D01*
X116441Y74934D01*
X116142Y74211D01*
Y73427D01*
X116441Y72704D01*
X116995Y72150D01*
X117387Y71988D01*
X120174Y69201D01*
X119967Y68701D01*
X119872D01*
X119221Y68431D01*
X118722Y67933D01*
X118453Y67282D01*
Y66577D01*
X118722Y65926D01*
X119221Y65427D01*
X119872Y65158D01*
X120577D01*
X121228Y65427D01*
X121726Y65926D01*
X121996Y66577D01*
Y66671D01*
X122496Y66878D01*
X125232Y64143D01*
X125818Y63752D01*
X126509Y63614D01*
X129552D01*
Y57533D01*
X129237Y57217D01*
X128937Y56494D01*
Y55711D01*
X129237Y54987D01*
X129790Y54434D01*
X130514Y54134D01*
X131297D01*
X131656Y54282D01*
X132038Y53900D01*
X131890Y53541D01*
Y52758D01*
X132190Y52034D01*
X132743Y51481D01*
X133467Y51181D01*
X134250D01*
X134973Y51481D01*
X135527Y52034D01*
X135827Y52758D01*
Y53415D01*
X137087Y54675D01*
X137087Y54675D01*
X137348Y55066D01*
X137440Y55527D01*
Y75379D01*
X137440Y75379D01*
X137348Y75840D01*
X137087Y76231D01*
X137087Y76231D01*
X134710Y78607D01*
X134319Y78869D01*
X133858Y78960D01*
X133858Y78960D01*
X129357D01*
X112425Y95892D01*
Y106309D01*
X116005Y110536D01*
X116011Y110536D01*
X116734Y110236D01*
X117517D01*
X117784Y110347D01*
X118284Y110012D01*
Y105649D01*
X117949Y105315D01*
X117719D01*
X116995Y105015D01*
X116441Y104462D01*
X116142Y103738D01*
Y102955D01*
X116441Y102231D01*
X116995Y101678D01*
X117719Y101378D01*
X118502D01*
X119225Y101678D01*
X119779Y102231D01*
X120079Y102955D01*
Y103738D01*
X119991Y103950D01*
X120340Y104299D01*
X120601Y104690D01*
X120692Y105150D01*
Y113681D01*
X120601Y114142D01*
X120340Y114533D01*
X119315Y115558D01*
Y122436D01*
X119779Y122901D01*
X120079Y123624D01*
Y124407D01*
X119779Y125131D01*
X119225Y125685D01*
X118502Y125984D01*
X117719D01*
X116995Y125685D01*
X116441Y125131D01*
X116142Y124407D01*
Y123624D01*
X116441Y122901D01*
X116906Y122436D01*
Y115059D01*
X116906Y115059D01*
X116983Y114673D01*
X116840Y114344D01*
X116763Y114219D01*
X116692Y114156D01*
X116011Y113874D01*
X115457Y113320D01*
X115375Y113122D01*
X115257Y113077D01*
X115078Y113026D01*
X115039Y112995D01*
X114992Y112977D01*
X114856Y112849D01*
X114711Y112734D01*
X111319Y108730D01*
X110850Y108903D01*
Y122932D01*
X111808Y123890D01*
X111808Y123890D01*
X118962Y131044D01*
X118962Y131044D01*
X119223Y131435D01*
X119315Y131896D01*
Y133858D01*
X119315Y133858D01*
X119223Y134319D01*
X118962Y134710D01*
X118962Y134710D01*
X117584Y136088D01*
X117193Y136349D01*
X116732Y136441D01*
D02*
G37*
G36*
X57618Y133248D02*
X50650D01*
Y126279D01*
X57618D01*
Y133248D01*
D02*
G37*
G36*
X90507Y25295D02*
X89808D01*
X89132Y25114D01*
X88526Y24764D01*
X88031Y24270D01*
X87681Y23664D01*
X87500Y22988D01*
Y22288D01*
X87681Y21612D01*
X88031Y21006D01*
X88526Y20511D01*
X89132Y20161D01*
X89808Y19980D01*
X90507D01*
X91183Y20161D01*
X91789Y20511D01*
X92284Y21006D01*
X92634Y21612D01*
X92815Y22288D01*
Y22988D01*
X92634Y23664D01*
X92284Y24270D01*
X91789Y24764D01*
X91183Y25114D01*
X90507Y25295D01*
D02*
G37*
G36*
X63736D02*
X63036D01*
X62360Y25114D01*
X61754Y24764D01*
X61259Y24270D01*
X60909Y23664D01*
X60728Y22988D01*
Y22288D01*
X60909Y21612D01*
X61259Y21006D01*
X61754Y20511D01*
X62360Y20161D01*
X63036Y19980D01*
X63736D01*
X64412Y20161D01*
X65018Y20511D01*
X65512Y21006D01*
X65862Y21612D01*
X66043Y22288D01*
Y22988D01*
X65862Y23664D01*
X65512Y24270D01*
X65018Y24764D01*
X64412Y25114D01*
X63736Y25295D01*
D02*
G37*
%LPD*%
G36*
X45381Y119741D02*
X45276Y119486D01*
Y118703D01*
X45438Y118312D01*
Y103108D01*
X45575Y102416D01*
X45967Y101830D01*
X56265Y91533D01*
Y80507D01*
X56102Y80116D01*
Y79333D01*
X56402Y78609D01*
X56956Y78056D01*
X57679Y77756D01*
X58462D01*
X58926Y77948D01*
X59426Y77642D01*
Y64183D01*
X58961Y63718D01*
X58905Y63584D01*
X58415Y63486D01*
X58225Y63676D01*
X57502Y63976D01*
X56718D01*
X55995Y63676D01*
X55552Y63234D01*
X55076Y63711D01*
X54352Y64010D01*
X53569D01*
X52845Y63711D01*
X52292Y63157D01*
X51992Y62433D01*
Y61650D01*
X52292Y60927D01*
X52845Y60373D01*
X53569Y60073D01*
X53978D01*
X55281Y58769D01*
X55090Y58307D01*
X23009D01*
X22877Y58505D01*
X20389Y60993D01*
Y65844D01*
X20889Y66052D01*
X21247Y65693D01*
X21971Y65394D01*
X22754D01*
X23477Y65693D01*
X24031Y66247D01*
X24331Y66971D01*
Y67754D01*
X24031Y68477D01*
X23477Y69031D01*
X22754Y69331D01*
X21971D01*
X21247Y69031D01*
X20693Y68477D01*
X20394Y67754D01*
Y67441D01*
X19894Y67290D01*
X19860Y67340D01*
X13617Y73583D01*
Y85401D01*
X14117Y85735D01*
X14372Y85630D01*
X15155D01*
X15547Y85792D01*
X19958D01*
X21397Y84353D01*
X21983Y83961D01*
X22674Y83824D01*
X30512D01*
X30674Y83691D01*
Y69681D01*
X30512Y69289D01*
Y68506D01*
X30812Y67783D01*
X31365Y67229D01*
X32089Y66929D01*
X32872D01*
X33595Y67229D01*
X34149Y67783D01*
X34449Y68506D01*
Y69289D01*
X34287Y69681D01*
Y86815D01*
X34449Y87207D01*
Y87990D01*
X34287Y88381D01*
Y98661D01*
X35860Y100235D01*
X36003Y100197D01*
X36832D01*
X37633Y100411D01*
X38351Y100826D01*
X38938Y101413D01*
X39352Y102131D01*
X39567Y102932D01*
Y103761D01*
X39352Y104562D01*
X38938Y105280D01*
X38351Y105867D01*
X37633Y106281D01*
X36832Y106496D01*
X36003D01*
X35202Y106281D01*
X34483Y105867D01*
X33897Y105280D01*
X33482Y104562D01*
X33268Y103761D01*
Y102932D01*
X33306Y102790D01*
X31203Y100687D01*
X30812Y100101D01*
X30674Y99410D01*
Y88381D01*
X30649Y88322D01*
X29764Y87436D01*
X23448D01*
X23116Y87809D01*
X23222Y88344D01*
X23477Y88449D01*
X24031Y89003D01*
X24331Y89727D01*
Y90510D01*
X24031Y91233D01*
X23477Y91787D01*
X22754Y92087D01*
X21971D01*
X21247Y91787D01*
X20693Y91233D01*
X20394Y90510D01*
Y89727D01*
X20179Y89405D01*
X15547D01*
X15155Y89567D01*
X14372D01*
X14117Y89461D01*
X13617Y89796D01*
Y92371D01*
X41488Y120241D01*
X45047D01*
X45381Y119741D01*
D02*
G37*
D10*
X102403Y90628D02*
G03*
X102592Y90322I747J249D01*
G01*
X102362Y90877D02*
G03*
X102403Y90628I787J0D01*
G01*
X105315Y87272D02*
G03*
X105087Y87826I-787J0D01*
G01*
X101575Y109646D02*
X102362Y108858D01*
X89961Y109646D02*
X101575D01*
X88583Y108268D02*
X89961Y109646D01*
X53961Y61793D02*
Y62042D01*
X58876Y60241D02*
X62531D01*
X60630Y62603D02*
Y99404D01*
X57087Y58666D02*
X63250D01*
X62992Y60702D02*
Y98757D01*
X53961Y61793D02*
X57087Y58666D01*
X63250D02*
X70276Y65692D01*
X57110Y62008D02*
X58876Y60241D01*
X62531D02*
X62992Y60702D01*
X35827Y131496D02*
X48802D01*
X33465Y133858D02*
X35827Y131496D01*
X68701Y90945D02*
X68903D01*
X71260Y93301D01*
X65945Y73819D02*
Y79232D01*
X71850Y85138D01*
Y90551D01*
X69876Y109843D02*
X71260Y108459D01*
Y93301D02*
Y108459D01*
X118110Y103347D02*
Y103773D01*
X119488Y105150D01*
Y113681D01*
X118110Y115059D02*
X119488Y113681D01*
X118110Y115059D02*
Y124016D01*
X48802Y131496D02*
X52149Y134843D01*
X71850D01*
X116732Y135236D02*
X118110Y133858D01*
Y131896D02*
Y133858D01*
X114770Y135236D02*
X116732D01*
X133858Y77756D02*
X136235Y75379D01*
Y55527D02*
Y75379D01*
X111221Y95393D02*
X128858Y77756D01*
X133858D01*
X133661Y72215D02*
Y74797D01*
X132278Y76181D02*
X133661Y74797D01*
X128206Y76181D02*
X132278D01*
X109646Y94741D02*
X128206Y76181D01*
X133858Y53150D02*
X136235Y55527D01*
X109646Y123431D02*
X110956Y124741D01*
X108071Y125197D02*
X113548Y130674D01*
X111221Y95393D02*
Y106751D01*
X108071Y94089D02*
Y125197D01*
X111221Y106751D02*
X115629Y111955D01*
X108071Y94089D02*
X128150Y74010D01*
Y73819D02*
Y74010D01*
X109646Y94741D02*
Y123431D01*
X115629Y111955D02*
X117126Y112205D01*
X102362Y90877D02*
Y108858D01*
X105315Y85630D02*
Y87272D01*
X102592Y90322D02*
X105087Y87826D01*
X103937Y91541D02*
Y133716D01*
Y91541D02*
X124022Y71457D01*
X129128D01*
X103937Y133716D02*
X105457Y135236D01*
X106299Y92762D02*
X125000Y74062D01*
Y73819D02*
Y74062D01*
X106299Y92762D02*
Y132738D01*
X70276Y81102D02*
X96457Y107283D01*
X70276Y65692D02*
Y81102D01*
X62992Y98757D02*
X68566Y104331D01*
X68898D01*
X60630Y99404D02*
X68707Y107480D01*
X68898D01*
X67520Y109843D02*
X69876D01*
X56102Y98425D02*
X67520Y109843D01*
X72638Y68707D02*
Y74803D01*
Y68707D02*
X81699Y59646D01*
X84252D01*
X86614Y62008D01*
X75787Y68898D02*
X82677Y62008D01*
X75787Y68898D02*
Y74803D01*
X133661Y72215D02*
X133873Y72004D01*
X131299Y73628D02*
Y73819D01*
X129128Y71457D02*
X131299Y73628D01*
X110956Y124741D02*
X110956D01*
X118110Y131896D01*
X105457Y135236D02*
X107278D01*
X112589Y133056D02*
X114770Y135236D01*
X112589Y133036D02*
Y133056D01*
X115748Y132854D02*
Y132874D01*
X113568Y130674D02*
X115748Y132854D01*
X113548Y130674D02*
X113568D01*
X107278Y135236D02*
X109448Y133066D01*
Y132806D02*
Y133066D01*
D22*
X36417Y103347D02*
D03*
D61*
X47244Y103108D02*
Y119095D01*
Y103108D02*
X58071Y92281D01*
Y79724D02*
Y92281D01*
X40739Y122047D02*
X47244D01*
X11811Y93119D02*
X40739Y122047D01*
X11811Y72835D02*
Y93119D01*
X18583Y60245D02*
Y66063D01*
X11811Y72835D02*
X18583Y66063D01*
X32928Y59870D02*
X51017D01*
X32834Y59964D02*
X32928Y59870D01*
X32556Y59964D02*
X32834D01*
X32480Y60039D02*
X32556Y59964D01*
X47181Y63707D02*
Y66992D01*
X51017Y59870D02*
X51358Y59529D01*
X52090D02*
X52165Y59454D01*
X51358Y59529D02*
X52090D01*
X47181Y63707D02*
X51017Y59870D01*
X21675Y56501D02*
X70281D01*
X43307Y70866D02*
X47181Y66992D01*
X70281Y56501D02*
X73819Y60039D01*
X21600Y56576D02*
X21675Y56501D01*
X21600Y56576D02*
Y57227D01*
X18583Y60245D02*
X21600Y57227D01*
X32480Y99410D02*
X36417Y103347D01*
X46260Y133858D02*
Y138209D01*
X56673Y148622D01*
X62008D01*
X88583D01*
X130905Y56102D02*
Y56209D01*
X131358Y56662D01*
Y65420D01*
X126509D02*
X131358D01*
X118110Y73819D02*
X126509Y65420D01*
X144685Y103347D02*
Y117126D01*
X122047Y139764D02*
X144685Y117126D01*
Y103347D02*
X150591D01*
X134843Y93504D02*
X144685Y103347D01*
X32480Y87598D02*
Y99410D01*
X43307Y70866D02*
Y70973D01*
X45276Y72941D01*
Y85630D01*
X20706Y87598D02*
X22674Y85630D01*
X30512D02*
X32480Y87598D01*
X22674Y85630D02*
X30512D01*
X14764Y87598D02*
X20706D01*
X32480Y68898D02*
Y87598D01*
D62*
X63386Y22638D02*
D03*
X90158D02*
D03*
D63*
X120224Y66929D02*
D03*
D64*
X54134Y129764D02*
D03*
D65*
Y139764D02*
D03*
D66*
X22362Y90118D02*
D03*
Y67362D02*
D03*
X47244Y122047D02*
D03*
Y119095D02*
D03*
X57110Y62008D02*
D03*
X60630Y62603D02*
D03*
X52165Y59454D02*
D03*
X53961Y62042D02*
D03*
X21675Y56501D02*
D03*
X88583Y148622D02*
D03*
X33465Y133858D02*
D03*
X68701Y90945D02*
D03*
X71850Y90551D02*
D03*
X118110Y103347D02*
D03*
Y124016D02*
D03*
Y73819D02*
D03*
X71850Y134843D02*
D03*
X46260Y133858D02*
D03*
X62008Y148622D02*
D03*
X122047Y139764D02*
D03*
X134843Y93504D02*
D03*
X150591Y103347D02*
D03*
X65945Y73819D02*
D03*
X73819Y60039D02*
D03*
X45276Y85630D02*
D03*
X43307Y70866D02*
D03*
X58071Y79724D02*
D03*
X32480Y60039D02*
D03*
X131358Y65420D02*
D03*
X130905Y56102D02*
D03*
X117126Y112205D02*
D03*
X133858Y53150D02*
D03*
X14764Y87598D02*
D03*
X105315Y85630D02*
D03*
X96457Y107283D02*
D03*
X88583Y108268D02*
D03*
X68898Y104331D02*
D03*
X72638Y74803D02*
D03*
X68898Y107480D02*
D03*
X56102Y98425D02*
D03*
X32480Y87598D02*
D03*
Y68898D02*
D03*
X86614Y62008D02*
D03*
X82677D02*
D03*
X75787Y74803D02*
D03*
X131299Y73819D02*
D03*
X133873Y72004D02*
D03*
X125000Y73819D02*
D03*
X106299Y132738D02*
D03*
X115748Y132874D02*
D03*
X112589Y133036D02*
D03*
X128150Y73819D02*
D03*
X109448Y132806D02*
D03*
D67*
X24291Y95768D02*
D03*
Y61713D02*
D03*
D68*
X7874Y95768D02*
D03*
Y61713D02*
D03*
M02*
