G04*
G04 #@! TF.GenerationSoftware,Altium Limited,Altium Designer,25.2.1 (25)*
G04*
G04 Layer_Color=32768*
%FSLAX44Y44*%
%MOMM*%
G71*
G04*
G04 #@! TF.SameCoordinates,3B9823B0-38B7-4378-8C35-7C2748B220C1*
G04*
G04*
G04 #@! TF.FilePolarity,Positive*
G04*
G01*
G75*
%ADD72C,0.0500*%
D72*
X151639Y141770D02*
X180940D01*
X151639Y127470D02*
X180940D01*
Y141770D01*
X151639Y127470D02*
Y141770D01*
X335600Y186550D02*
X375600D01*
Y169050D02*
Y186550D01*
X335600Y169050D02*
X375600D01*
X335600D02*
Y186550D01*
X382270Y213500D02*
X422270D01*
X382270D02*
Y231000D01*
X422270D01*
Y213500D02*
Y231000D01*
X265720Y453180D02*
Y481540D01*
X318480D01*
Y453180D02*
Y481540D01*
X265720Y453180D02*
X318480D01*
X293840Y153080D02*
X308140D01*
X293840Y123780D02*
X308140D01*
X293840D02*
Y153080D01*
X308140Y123780D02*
Y153080D01*
X264490Y156830D02*
X284150D01*
X264490Y122570D02*
X284150D01*
X264490D02*
Y156830D01*
X284150Y122570D02*
Y156830D01*
X352260Y266110D02*
X366560D01*
X352260Y236810D02*
X366560D01*
X352260D02*
Y266110D01*
X366560Y236810D02*
Y266110D01*
X422590Y237630D02*
Y255130D01*
X382590D02*
X422590D01*
X382590Y237630D02*
Y255130D01*
Y237630D02*
X422590D01*
X428680Y194740D02*
X512880D01*
Y295240D01*
X428680D02*
X512880D01*
X428680Y194740D02*
Y295240D01*
X398940Y159530D02*
Y193530D01*
X418940Y159530D02*
Y193530D01*
X398940Y159530D02*
X418940D01*
X398940Y193530D02*
X418940D01*
X298610Y203980D02*
Y237980D01*
X318610Y203980D02*
Y237980D01*
X298610Y203980D02*
X318610D01*
X298610Y237980D02*
X318610D01*
X254320Y183020D02*
Y200520D01*
Y183020D02*
X294320D01*
Y200520D01*
X254320D02*
X294320D01*
X207690Y367500D02*
Y381800D01*
X178390Y367500D02*
Y381800D01*
X207690D01*
X178390Y367500D02*
X207690D01*
X178390Y345910D02*
Y360210D01*
X207690Y345910D02*
Y360210D01*
X178390Y345910D02*
X207690D01*
X178390Y360210D02*
X207690D01*
X91370Y439100D02*
X114370D01*
Y399100D02*
Y439100D01*
X91370Y399100D02*
X114370D01*
X91370D02*
Y439100D01*
X203530Y225360D02*
X223190D01*
X203530Y191200D02*
X223190D01*
X203530D02*
Y225360D01*
X223190Y191200D02*
Y225360D01*
X286260Y223810D02*
Y263840D01*
X254760Y223810D02*
X286260D01*
X254760D02*
Y263840D01*
X286260D01*
X189740Y159230D02*
Y336730D01*
X23740Y159230D02*
X189740D01*
X23740Y336730D02*
X189740D01*
X23740Y193230D02*
Y336730D01*
X21240Y193230D02*
X23740D01*
X21240Y177230D02*
Y193230D01*
Y177230D02*
X23740D01*
Y159230D02*
Y177230D01*
X296240Y93330D02*
X315900D01*
X296240Y59070D02*
X315900D01*
X296240D02*
Y93330D01*
X315900Y59070D02*
Y93330D01*
X225920Y271990D02*
X400120D01*
X225920Y446190D02*
X400120D01*
X225920Y271990D02*
Y446190D01*
X400120Y271990D02*
Y446190D01*
X370520Y449720D02*
Y467220D01*
X330520D02*
X370520D01*
X330520Y449720D02*
Y467220D01*
Y449720D02*
X370520D01*
X417030Y385400D02*
X431330D01*
X417030Y414700D02*
X431330D01*
Y385400D02*
Y414700D01*
X417030Y385400D02*
Y414700D01*
X120160Y384990D02*
X154160D01*
X120160Y343990D02*
Y384990D01*
X154160Y343990D02*
Y384990D01*
X120160Y343990D02*
X154160D01*
X153080Y431000D02*
Y445300D01*
X123780Y431000D02*
Y445300D01*
X153080D01*
X123780Y431000D02*
X153080D01*
X155870Y399450D02*
Y451450D01*
X176870D01*
Y399450D02*
Y451450D01*
X155870Y399450D02*
X176870D01*
X151810Y399250D02*
Y413550D01*
X122510Y399250D02*
Y413550D01*
X151810D01*
X122510Y399250D02*
X151810D01*
X181270Y399450D02*
Y451450D01*
X202270D01*
Y399450D02*
Y451450D01*
X181270Y399450D02*
X202270D01*
X323300Y126860D02*
X362500D01*
Y109360D02*
Y126860D01*
X323300Y109360D02*
X362500D01*
X323300D02*
Y126860D01*
X283945Y9570D02*
Y94570D01*
X213895D02*
X283945D01*
X213895Y9570D02*
Y94570D01*
Y9570D02*
X283945D01*
X203530Y239460D02*
X223190D01*
X203530Y273620D02*
X223190D01*
Y239460D02*
Y273620D01*
X203530Y239460D02*
Y273620D01*
X324320Y93390D02*
X338620D01*
X324320Y64090D02*
X338620D01*
X324320D02*
Y93390D01*
X338620Y64090D02*
Y93390D01*
X337100Y28080D02*
Y45580D01*
X297900D02*
X337100D01*
X297900Y28080D02*
Y45580D01*
Y28080D02*
X337100D01*
M02*
