G04*
G04 #@! TF.GenerationSoftware,Altium Limited,Altium Designer,25.2.1 (25)*
G04*
G04 Layer_Physical_Order=2*
G04 Layer_Color=16711680*
%FSLAX44Y44*%
%MOMM*%
G71*
G04*
G04 #@! TF.SameCoordinates,3B9823B0-38B7-4378-8C35-7C2748B220C1*
G04*
G04*
G04 #@! TF.FilePolarity,Positive*
G04*
G01*
G75*
%ADD10C,0.2000*%
%ADD63C,0.5000*%
%ADD64R,1.3700X1.3700*%
%ADD65C,1.3700*%
%ADD66C,0.6000*%
%ADD67O,2.0000X0.9000*%
%ADD68O,1.7000X0.9000*%
%ADD69C,0.5000*%
%ADD70C,0.9500*%
G36*
X266106Y497997D02*
X280888Y496654D01*
X295561Y494420D01*
X310074Y491305D01*
X324371Y487319D01*
X338402Y482478D01*
X352115Y476798D01*
X365460Y470300D01*
X378388Y463008D01*
X390852Y454950D01*
X402807Y446153D01*
X414209Y436650D01*
X425017Y426477D01*
X435190Y415669D01*
X444693Y404267D01*
X453490Y392312D01*
X461548Y379848D01*
X468840Y366920D01*
X475338Y353575D01*
X481018Y339862D01*
X485859Y325831D01*
X489845Y311534D01*
X492960Y297021D01*
X493274Y294959D01*
X492095Y294263D01*
X491930Y294390D01*
X490218Y295099D01*
X488380Y295341D01*
X485650D01*
Y288240D01*
Y281140D01*
X488380D01*
X490218Y281381D01*
X491930Y282091D01*
X493401Y283219D01*
X493714Y283627D01*
X495051Y283284D01*
X495194Y282348D01*
X496537Y267566D01*
X496985Y252730D01*
X496537Y237894D01*
X495194Y223112D01*
X492996Y208673D01*
X492493Y208303D01*
X491575Y208037D01*
X490218Y208599D01*
X488380Y208841D01*
X485650D01*
Y201740D01*
Y194639D01*
X488380D01*
X488974Y194718D01*
X489736Y193537D01*
X485859Y179629D01*
X481018Y165598D01*
X475338Y151885D01*
X468840Y138540D01*
X461548Y125612D01*
X453490Y113148D01*
X444693Y101193D01*
X435190Y89791D01*
X425017Y78983D01*
X414209Y68810D01*
X402807Y59307D01*
X390852Y50510D01*
X378388Y42452D01*
X365460Y35160D01*
X352115Y28662D01*
X338402Y22982D01*
X324371Y18141D01*
X310074Y14155D01*
X295561Y11040D01*
X280888Y8806D01*
X266106Y7463D01*
X251270Y7015D01*
X236434Y7463D01*
X221652Y8806D01*
X206979Y11040D01*
X192467Y14155D01*
X178169Y18141D01*
X164138Y22982D01*
X150425Y28662D01*
X137080Y35160D01*
X124152Y42452D01*
X111688Y50510D01*
X99733Y59307D01*
X88331Y68810D01*
X77523Y78983D01*
X67350Y89791D01*
X57847Y101193D01*
X49050Y113148D01*
X40992Y125612D01*
X33700Y138540D01*
X27202Y151885D01*
X21522Y165598D01*
X16681Y179629D01*
X12695Y193927D01*
X9580Y208439D01*
X7346Y223112D01*
X6003Y237894D01*
X5555Y252730D01*
X6003Y267566D01*
X7346Y282348D01*
X9580Y297021D01*
X12695Y311534D01*
X16681Y325831D01*
X21522Y339862D01*
X27202Y353575D01*
X33700Y366920D01*
X40992Y379848D01*
X49050Y392312D01*
X57847Y404267D01*
X67350Y415669D01*
X77523Y426477D01*
X88331Y436650D01*
X99733Y446153D01*
X111688Y454950D01*
X124152Y463008D01*
X137080Y470300D01*
X150425Y476798D01*
X164138Y482478D01*
X178169Y487319D01*
X192467Y491305D01*
X206979Y494420D01*
X221652Y496654D01*
X236434Y497997D01*
X251270Y498445D01*
X266106Y497997D01*
D02*
G37*
%LPC*%
G36*
X306097Y477210D02*
X303503D01*
X300998Y476539D01*
X298752Y475242D01*
X296918Y473408D01*
X295621Y471162D01*
X294950Y468657D01*
Y466063D01*
X295621Y463558D01*
X296918Y461312D01*
X298752Y459478D01*
X300998Y458181D01*
X303503Y457510D01*
X306097D01*
X308602Y458181D01*
X310848Y459478D01*
X312682Y461312D01*
X313979Y463558D01*
X314650Y466063D01*
Y468657D01*
X313979Y471162D01*
X312682Y473408D01*
X310848Y475242D01*
X308602Y476539D01*
X306097Y477210D01*
D02*
G37*
G36*
X289250D02*
X269550D01*
Y457510D01*
X289250D01*
Y477210D01*
D02*
G37*
G36*
X368128Y418750D02*
X365741D01*
X363535Y417837D01*
X362537Y416838D01*
X361539Y417837D01*
X359333Y418750D01*
X356946D01*
X354741Y417837D01*
X353695Y416790D01*
X352649Y417837D01*
X350443Y418750D01*
X348056D01*
X345851Y417837D01*
X344805Y416790D01*
X343759Y417837D01*
X341553Y418750D01*
X339166D01*
X336961Y417837D01*
X335273Y416149D01*
X334360Y413943D01*
Y411557D01*
X335273Y409351D01*
X336961Y407663D01*
X339166Y406750D01*
X340592D01*
X350252Y397091D01*
Y387769D01*
X289141Y326658D01*
X281016D01*
X280311Y327714D01*
X280320Y327737D01*
Y330123D01*
X279407Y332329D01*
X278989Y332746D01*
X278094Y334086D01*
X274910Y337270D01*
X274327Y338679D01*
X272639Y340367D01*
X271692Y340759D01*
X269639Y342812D01*
X269247Y343759D01*
X267559Y345447D01*
X265354Y346360D01*
X262966D01*
X260761Y345447D01*
X259073Y343759D01*
X258160Y341553D01*
Y339166D01*
X259073Y336961D01*
X260761Y335273D01*
X261708Y334881D01*
X263761Y332828D01*
X264153Y331881D01*
X265841Y330193D01*
X266326Y329992D01*
X268320Y327999D01*
Y327737D01*
X268329Y327714D01*
X267624Y326658D01*
X257434D01*
X256609Y327928D01*
X256808Y328930D01*
Y349923D01*
X257817Y350931D01*
X258730Y353136D01*
Y355523D01*
X258248Y356687D01*
X258912Y357680D01*
X260948Y358523D01*
X262507Y360082D01*
X263280Y361950D01*
X252340D01*
X252573Y361386D01*
X251868Y360330D01*
X251537D01*
X249331Y359417D01*
X247643Y357729D01*
X246730Y355523D01*
Y353136D01*
X247643Y350931D01*
X248652Y349923D01*
Y330619D01*
X248215Y330182D01*
X191484D01*
X191484Y330182D01*
X189923Y329872D01*
X188600Y328988D01*
X188600Y328988D01*
X172376Y312764D01*
X171492Y311441D01*
X171182Y309880D01*
X171182Y309880D01*
Y161290D01*
X171182Y161290D01*
X171492Y159729D01*
X172376Y158406D01*
X179420Y151362D01*
Y149937D01*
X180333Y147731D01*
X182021Y146043D01*
X184226Y145130D01*
X186614D01*
X188819Y146043D01*
X190507Y147731D01*
X191420Y149937D01*
Y152324D01*
X190507Y154529D01*
X188819Y156217D01*
X186614Y157130D01*
X185188D01*
X179338Y162979D01*
Y271513D01*
X180512Y271999D01*
X191502Y261009D01*
Y253327D01*
X190493Y252319D01*
X189580Y250114D01*
Y247726D01*
X190493Y245521D01*
X192181Y243834D01*
X192390Y242785D01*
X191763Y242159D01*
X190850Y239953D01*
Y237567D01*
X191763Y235361D01*
X193368Y233757D01*
X193412Y233045D01*
X193368Y232333D01*
X191763Y230729D01*
X190850Y228524D01*
Y226136D01*
X191763Y223931D01*
X193451Y222243D01*
X195657Y221330D01*
X198043D01*
X200249Y222243D01*
X201937Y223931D01*
X202850Y226136D01*
Y227562D01*
X209608Y234320D01*
X209608Y234320D01*
X210492Y235643D01*
X210802Y237204D01*
Y272162D01*
X210492Y273722D01*
X209608Y275046D01*
X209608Y275046D01*
X202212Y282442D01*
X200889Y283326D01*
X199328Y283636D01*
X199328Y283636D01*
X196674D01*
Y287201D01*
X196927Y287370D01*
X199314D01*
X201519Y288283D01*
X203207Y289971D01*
X204120Y292176D01*
Y293602D01*
X208699Y298182D01*
X298450D01*
X298450Y298182D01*
X300011Y298492D01*
X301334Y299376D01*
X364144Y362186D01*
X365928D01*
X366171Y361943D01*
X368377Y361030D01*
X370764D01*
X372969Y361943D01*
X374657Y363631D01*
X375570Y365836D01*
Y368223D01*
X374657Y370429D01*
X374030Y371055D01*
X374239Y372104D01*
X375927Y373791D01*
X376840Y375997D01*
Y378383D01*
X375927Y380589D01*
X374239Y382277D01*
X372034Y383190D01*
X370247D01*
Y407628D01*
X370333Y407663D01*
X372020Y409351D01*
X372934Y411557D01*
Y413943D01*
X372020Y416149D01*
X370333Y417837D01*
X368128Y418750D01*
D02*
G37*
G36*
X262890Y399170D02*
Y394970D01*
X267090D01*
X266317Y396838D01*
X264758Y398397D01*
X262890Y399170D01*
D02*
G37*
G36*
X260350D02*
X258482Y398397D01*
X256923Y396838D01*
X256150Y394970D01*
X260350D01*
Y399170D01*
D02*
G37*
G36*
X267090Y392430D02*
X262890D01*
Y388230D01*
X264758Y389003D01*
X266317Y390562D01*
X267090Y392430D01*
D02*
G37*
G36*
X260350D02*
X256150D01*
X256923Y390562D01*
X258482Y389003D01*
X260350Y388230D01*
Y392430D01*
D02*
G37*
G36*
X255270Y382660D02*
Y378460D01*
X259470D01*
X258697Y380328D01*
X257138Y381887D01*
X255270Y382660D01*
D02*
G37*
G36*
X252730D02*
X250862Y381887D01*
X249303Y380328D01*
X248530Y378460D01*
X252730D01*
Y382660D01*
D02*
G37*
G36*
X259470Y375920D02*
X255270D01*
Y371720D01*
X257138Y372493D01*
X258697Y374052D01*
X259470Y375920D01*
D02*
G37*
G36*
X252730D02*
X248530D01*
X249303Y374052D01*
X250862Y372493D01*
X252730Y371720D01*
Y375920D01*
D02*
G37*
G36*
X259080Y368690D02*
Y364490D01*
X263280D01*
X262507Y366358D01*
X260948Y367917D01*
X259080Y368690D01*
D02*
G37*
G36*
X256540D02*
X254672Y367917D01*
X253113Y366358D01*
X252340Y364490D01*
X256540D01*
Y368690D01*
D02*
G37*
G36*
X340284Y304450D02*
X337896D01*
X336488Y303866D01*
X335089D01*
X332943Y303440D01*
X331123Y302224D01*
X294728Y265829D01*
X293781Y265437D01*
X293542Y265197D01*
X292368Y265683D01*
Y266892D01*
X292058Y268453D01*
X291174Y269776D01*
X291174Y269776D01*
X284572Y276378D01*
X283249Y277262D01*
X281688Y277572D01*
X281688Y277572D01*
X272606D01*
X271045Y277262D01*
X269722Y276378D01*
X269722Y276378D01*
X267314Y273970D01*
X265889D01*
X263683Y273057D01*
X261996Y271369D01*
X261082Y269163D01*
Y266777D01*
X260914Y266524D01*
X256442D01*
X256442Y266524D01*
X254881Y266214D01*
X253558Y265330D01*
X249846Y261618D01*
X248962Y260295D01*
X248652Y258734D01*
X248652Y258734D01*
Y254597D01*
X247643Y253589D01*
X246730Y251383D01*
Y248997D01*
X247643Y246791D01*
X249331Y245103D01*
X251537Y244190D01*
X253923D01*
X256129Y245103D01*
X257817Y246791D01*
X258730Y248997D01*
Y251383D01*
X257817Y253589D01*
X256808Y254597D01*
Y257045D01*
X258131Y258368D01*
X276416D01*
X276416Y258368D01*
X277977Y258678D01*
X279300Y259562D01*
X280438Y260700D01*
X281863D01*
X282942Y261147D01*
X284212Y260298D01*
Y253327D01*
X283203Y252319D01*
X282290Y250114D01*
Y247726D01*
X283203Y245521D01*
X284891Y243833D01*
X287097Y242920D01*
X289484D01*
X291689Y243833D01*
X293377Y245521D01*
X294290Y247726D01*
Y250114D01*
X293377Y252319D01*
X292368Y253327D01*
Y255017D01*
X293542Y255503D01*
X293781Y255263D01*
X295986Y254350D01*
X298374D01*
X300579Y255263D01*
X302267Y256951D01*
X302659Y257898D01*
X337411Y292651D01*
X337896Y292450D01*
X340284D01*
X342489Y293363D01*
X344177Y295051D01*
X345090Y297257D01*
Y299643D01*
X344177Y301849D01*
X342489Y303537D01*
X340284Y304450D01*
D02*
G37*
G36*
X448180Y295341D02*
X443950D01*
Y289510D01*
X455113D01*
X455039Y290078D01*
X454329Y291791D01*
X453201Y293261D01*
X451730Y294390D01*
X450018Y295099D01*
X448180Y295341D01*
D02*
G37*
G36*
X483110D02*
X480380D01*
X478542Y295099D01*
X476830Y294390D01*
X475359Y293261D01*
X474231Y291791D01*
X473521Y290078D01*
X473447Y289510D01*
X483110D01*
Y295341D01*
D02*
G37*
G36*
X441410D02*
X437180D01*
X435342Y295099D01*
X433629Y294390D01*
X432159Y293261D01*
X431030Y291791D01*
X430321Y290078D01*
X430246Y289510D01*
X441410D01*
Y295341D01*
D02*
G37*
G36*
X483110Y286970D02*
X473447D01*
X473521Y286402D01*
X474231Y284690D01*
X475359Y283219D01*
X476830Y282091D01*
X478542Y281381D01*
X480380Y281140D01*
X483110D01*
Y286970D01*
D02*
G37*
G36*
X441410D02*
X430246D01*
X430321Y286402D01*
X431030Y284690D01*
X432159Y283219D01*
X433629Y282091D01*
X435342Y281381D01*
X437180Y281140D01*
X441410D01*
Y286970D01*
D02*
G37*
G36*
X67060Y294480D02*
X65020D01*
X63049Y293952D01*
X61281Y292931D01*
X59839Y291488D01*
X58818Y289721D01*
X58290Y287750D01*
Y285710D01*
X58818Y283738D01*
X59839Y281971D01*
X61281Y280528D01*
X63049Y279508D01*
X65020Y278980D01*
X67060D01*
X69031Y279508D01*
X70799Y280528D01*
X72242Y281971D01*
X73262Y283738D01*
X73790Y285710D01*
Y287750D01*
X73262Y289721D01*
X72242Y291488D01*
X70799Y292931D01*
X69031Y293952D01*
X67060Y294480D01*
D02*
G37*
G36*
X455113Y286970D02*
X443950D01*
Y281140D01*
X446336D01*
X446386Y279890D01*
X444181Y278977D01*
X442494Y277289D01*
X441580Y275084D01*
Y272697D01*
X442230Y271127D01*
X441469Y269857D01*
X434304D01*
X432007Y272154D01*
X431807Y272639D01*
X430119Y274327D01*
X427914Y275240D01*
X425527D01*
X423321Y274327D01*
X421633Y272639D01*
X420720Y270434D01*
Y268046D01*
X421633Y265841D01*
X423321Y264153D01*
X424730Y263570D01*
X425873Y262427D01*
X425387Y261253D01*
X412712D01*
X411069Y262897D01*
X408863Y263810D01*
X406477D01*
X404271Y262897D01*
X402583Y261209D01*
X401670Y259004D01*
Y256616D01*
X402583Y254411D01*
X404271Y252723D01*
X406477Y251810D01*
X408863D01*
X411069Y252723D01*
X411442Y253097D01*
X447078D01*
X448721Y251453D01*
X450927Y250540D01*
X453313D01*
X453536Y250391D01*
Y240487D01*
X437407Y224357D01*
X429736D01*
X428789Y224750D01*
X426402D01*
X424196Y223836D01*
X422509Y222148D01*
X421595Y219943D01*
Y217556D01*
X422509Y215351D01*
X424196Y213663D01*
X426402Y212750D01*
X428789D01*
X429736Y213142D01*
X439730D01*
X441876Y213569D01*
X442166Y213481D01*
X442494Y212691D01*
X444181Y211003D01*
X446386Y210090D01*
X446336Y208841D01*
X443950D01*
Y203010D01*
X455113D01*
X455039Y203578D01*
X454329Y205290D01*
X453201Y206761D01*
X451730Y207889D01*
X450018Y208599D01*
X448338Y208820D01*
X448421Y210090D01*
X448773D01*
X450979Y211003D01*
X452667Y212691D01*
X453580Y214897D01*
Y217283D01*
X452667Y219489D01*
X451431Y220724D01*
X451246Y222336D01*
X463109Y234199D01*
X464325Y236018D01*
X464752Y238164D01*
Y259449D01*
X464325Y261595D01*
X463109Y263415D01*
X458310Y268214D01*
X456490Y269430D01*
X454344Y269857D01*
X453691D01*
X452930Y271127D01*
X453580Y272697D01*
Y275084D01*
X452667Y277289D01*
X450979Y278977D01*
X448773Y279890D01*
X448421D01*
X448338Y281160D01*
X450018Y281381D01*
X451730Y282091D01*
X453201Y283219D01*
X454329Y284690D01*
X455039Y286402D01*
X455113Y286970D01*
D02*
G37*
G36*
X229870Y262010D02*
Y257810D01*
X234070D01*
X233297Y259678D01*
X231738Y261237D01*
X229870Y262010D01*
D02*
G37*
G36*
X227330D02*
X225462Y261237D01*
X223903Y259678D01*
X223130Y257810D01*
X227330D01*
Y262010D01*
D02*
G37*
G36*
X234070Y255270D02*
X229870D01*
Y251070D01*
X231738Y251843D01*
X233297Y253402D01*
X234070Y255270D01*
D02*
G37*
G36*
X227330D02*
X223130D01*
X223903Y253402D01*
X225462Y251843D01*
X227330Y251070D01*
Y255270D01*
D02*
G37*
G36*
X271604Y242210D02*
X269416D01*
X267395Y241373D01*
X265847Y239826D01*
X265010Y237804D01*
Y235616D01*
X265847Y233595D01*
X267395Y232048D01*
X269416Y231210D01*
X271604D01*
X273626Y232048D01*
X275173Y233595D01*
X276010Y235616D01*
Y237804D01*
X275173Y239826D01*
X273626Y241373D01*
X271604Y242210D01*
D02*
G37*
G36*
X145240Y326289D02*
X104740D01*
X103569Y326056D01*
X102577Y325393D01*
X101914Y324400D01*
X101681Y323230D01*
Y221230D01*
X101914Y220060D01*
X102577Y219067D01*
X103569Y218404D01*
X104740Y218171D01*
X145240D01*
X146411Y218404D01*
X147403Y219067D01*
X148066Y220060D01*
X148299Y221230D01*
Y323230D01*
X148066Y324400D01*
X147403Y325393D01*
X146411Y326056D01*
X145240Y326289D01*
D02*
G37*
G36*
X67060Y226480D02*
X65020D01*
X63049Y225952D01*
X61281Y224932D01*
X59839Y223489D01*
X58818Y221721D01*
X58290Y219750D01*
Y217710D01*
X58818Y215739D01*
X59839Y213972D01*
X61281Y212528D01*
X63049Y211508D01*
X65020Y210980D01*
X67060D01*
X69031Y211508D01*
X70799Y212528D01*
X72242Y213972D01*
X73262Y215739D01*
X73790Y217710D01*
Y219750D01*
X73262Y221721D01*
X72242Y223489D01*
X70799Y224932D01*
X69031Y225952D01*
X67060Y226480D01*
D02*
G37*
G36*
X396240Y212480D02*
Y208280D01*
X400440D01*
X399667Y210148D01*
X398108Y211707D01*
X396240Y212480D01*
D02*
G37*
G36*
X393700D02*
X391832Y211707D01*
X390273Y210148D01*
X389500Y208280D01*
X393700D01*
Y212480D01*
D02*
G37*
G36*
X483110Y208841D02*
X480380D01*
X478542Y208599D01*
X476830Y207889D01*
X475359Y206761D01*
X474231Y205290D01*
X473521Y203578D01*
X473447Y203010D01*
X483110D01*
Y208841D01*
D02*
G37*
G36*
X441410D02*
X437180D01*
X435342Y208599D01*
X433629Y207889D01*
X432159Y206761D01*
X431030Y205290D01*
X430321Y203578D01*
X430246Y203010D01*
X441410D01*
Y208841D01*
D02*
G37*
G36*
X400440Y205740D02*
X396240D01*
Y201540D01*
X398108Y202313D01*
X399667Y203872D01*
X400440Y205740D01*
D02*
G37*
G36*
X393700D02*
X389500D01*
X390273Y203872D01*
X391832Y202313D01*
X393700Y201540D01*
Y205740D01*
D02*
G37*
G36*
X370840Y202320D02*
Y198120D01*
X375040D01*
X374267Y199988D01*
X372708Y201547D01*
X370840Y202320D01*
D02*
G37*
G36*
X368300D02*
X366432Y201547D01*
X364873Y199988D01*
X364100Y198120D01*
X368300D01*
Y202320D01*
D02*
G37*
G36*
X483110Y200470D02*
X473447D01*
X473521Y199902D01*
X474231Y198190D01*
X475359Y196719D01*
X476830Y195591D01*
X478542Y194881D01*
X480380Y194639D01*
X483110D01*
Y200470D01*
D02*
G37*
G36*
X455113D02*
X443950D01*
Y194639D01*
X448180D01*
X450018Y194881D01*
X451730Y195591D01*
X453201Y196719D01*
X454329Y198190D01*
X455039Y199902D01*
X455113Y200470D01*
D02*
G37*
G36*
X441410D02*
X430246D01*
X430321Y199902D01*
X431030Y198190D01*
X432159Y196719D01*
X433629Y195591D01*
X435342Y194881D01*
X437180Y194639D01*
X441410D01*
Y200470D01*
D02*
G37*
G36*
X375040Y195580D02*
X370840D01*
Y191380D01*
X372708Y192153D01*
X374267Y193712D01*
X375040Y195580D01*
D02*
G37*
G36*
X368300D02*
X364100D01*
X364873Y193712D01*
X366432Y192153D01*
X368300Y191380D01*
Y195580D01*
D02*
G37*
G36*
X246380Y182000D02*
Y177800D01*
X250580D01*
X249807Y179668D01*
X248248Y181227D01*
X246380Y182000D01*
D02*
G37*
G36*
X243840D02*
X241972Y181227D01*
X240413Y179668D01*
X239640Y177800D01*
X243840D01*
Y182000D01*
D02*
G37*
G36*
X250580Y175260D02*
X246380D01*
Y171060D01*
X248248Y171833D01*
X249807Y173392D01*
X250580Y175260D01*
D02*
G37*
G36*
X243840D02*
X239640D01*
X240413Y173392D01*
X241972Y171833D01*
X243840Y171060D01*
Y175260D01*
D02*
G37*
G36*
X160020Y151520D02*
Y147320D01*
X164220D01*
X163447Y149188D01*
X161888Y150747D01*
X160020Y151520D01*
D02*
G37*
G36*
X157480D02*
X155612Y150747D01*
X154053Y149188D01*
X153280Y147320D01*
X157480D01*
Y151520D01*
D02*
G37*
G36*
X164220Y144780D02*
X160020D01*
Y140580D01*
X161888Y141353D01*
X163447Y142912D01*
X164220Y144780D01*
D02*
G37*
G36*
X157480D02*
X153280D01*
X154053Y142912D01*
X155612Y141353D01*
X157480Y140580D01*
Y144780D01*
D02*
G37*
G36*
X386540Y91413D02*
X160608D01*
Y55420D01*
X386540D01*
Y91413D01*
D02*
G37*
%LPD*%
D10*
X354330Y386080D02*
Y398780D01*
X196658Y309880D02*
X295910D01*
X293779Y313404D02*
X362645Y382270D01*
X370075Y376425D02*
X370840Y377190D01*
X297180Y306070D02*
X367535Y376425D01*
X370075D01*
X295910Y309880D02*
X366169Y380139D01*
X290830Y322580D02*
X354330Y386080D01*
X362645Y382270D02*
Y408245D01*
X366169Y380139D02*
Y411985D01*
X359121Y383730D02*
Y402879D01*
X194311Y317500D02*
X292891D01*
X194310Y322580D02*
X290830D01*
X368805Y366265D02*
X369570Y367030D01*
X292891Y317500D02*
X359121Y383730D01*
X362455Y366265D02*
X368805D01*
X195198Y313404D02*
X293779D01*
X451485Y257175D02*
X452120Y256540D01*
X407670Y257810D02*
X408305Y257175D01*
X451485D01*
X196850Y227330D02*
X206724Y237204D01*
X175260Y161290D02*
X185420Y151130D01*
X175260Y161290D02*
Y309880D01*
X191484Y326104D01*
X249904D01*
X252730Y328930D01*
Y354330D01*
X181168Y277110D02*
Y309438D01*
X194310Y322580D01*
X185548Y308737D02*
X194311Y317500D01*
X192596Y305818D02*
X196658Y309880D01*
X189072Y307278D02*
X195198Y313404D01*
X195580Y248920D02*
Y262698D01*
X181168Y277110D02*
X195580Y262698D01*
X340360Y412750D02*
X354330Y398780D01*
X198885Y304295D02*
X203968D01*
X198120Y293370D02*
X207010Y302260D01*
X298450D02*
X362455Y366265D01*
X198120Y303530D02*
X198885Y304295D01*
X207010Y302260D02*
X298450D01*
X203968Y304295D02*
X205742Y306070D01*
X297180D01*
X194498Y270510D02*
X195580D01*
X192498Y272510D02*
X194498Y270510D01*
X191425Y272510D02*
X192498D01*
X185548Y278387D02*
X191425Y272510D01*
X185548Y278387D02*
Y308737D01*
X349250Y412750D02*
X359121Y402879D01*
X196850Y238760D02*
X203200Y245110D01*
Y270702D01*
X197868Y276034D02*
X203200Y270702D01*
X192885Y276034D02*
X197868D01*
X189072Y279846D02*
X192885Y276034D01*
X189072Y279846D02*
Y307278D01*
X358140Y412750D02*
X362645Y408245D01*
X199328Y279558D02*
X206724Y272162D01*
X194344Y279558D02*
X199328D01*
X192596Y281306D02*
X194344Y279558D01*
X206724Y237204D02*
Y272162D01*
X192596Y281306D02*
Y305818D01*
X366169Y411985D02*
X366934Y412750D01*
X288290Y248920D02*
Y266892D01*
X256442Y262446D02*
X276416D01*
X280670Y266700D01*
X281688Y273494D02*
X288290Y266892D01*
X272606Y273494D02*
X281688D01*
X267082Y267970D02*
X272606Y273494D01*
X252730Y250190D02*
Y258734D01*
X256442Y262446D01*
D63*
X160965Y144106D02*
X212686D01*
X158750Y146050D02*
X159021D01*
X160965Y144106D01*
X245110Y176530D02*
Y176801D01*
X246380Y178071D02*
Y238760D01*
X228600Y256540D02*
X246380Y238760D01*
X212686Y144106D02*
X245110Y176530D01*
Y176801D02*
X246380Y178071D01*
X338899Y298259D02*
X339090Y298450D01*
X335089Y298259D02*
X338899D01*
X297180Y260350D02*
X335089Y298259D01*
X400511Y201740D02*
X442680D01*
X395241Y207010D02*
X400511Y201740D01*
X394970Y207010D02*
X395241D01*
X384810Y196850D02*
X394970Y207010D01*
X369570Y196850D02*
X384810D01*
X459144Y238164D02*
Y259449D01*
X427595Y218750D02*
X439730D01*
X459144Y238164D01*
X426720Y269240D02*
X426991D01*
X431982Y264249D01*
X454344D01*
X459144Y259449D01*
X274129Y329121D02*
X274320Y328930D01*
X274129Y329121D02*
Y330121D01*
X269240Y335009D02*
X274129Y330121D01*
X269240Y335009D02*
Y335280D01*
X264160Y340360D02*
X269240Y335280D01*
X257810Y363220D02*
Y363491D01*
X254191Y367109D02*
X257810Y363491D01*
X254191Y367109D02*
Y376999D01*
X254000Y377190D02*
X254191Y376999D01*
X261429Y393509D02*
X261620Y393700D01*
X261429Y384619D02*
Y393509D01*
X254000Y377190D02*
X261429Y384619D01*
X378540Y83413D02*
Y70085D01*
X371875Y63420D01*
X365211Y70085D01*
Y83413D01*
X348550Y63420D02*
X355214D01*
X358546Y66752D01*
Y73417D01*
X355214Y76749D01*
X348550D01*
X345217Y73417D01*
Y70085D01*
X358546D01*
X338553Y76749D02*
Y63420D01*
Y70085D01*
X335221Y73417D01*
X331888Y76749D01*
X328556D01*
X318559Y63420D02*
X311895D01*
X315227D01*
Y83413D01*
X318559Y80081D01*
X281905Y83413D02*
Y66752D01*
X278572Y63420D01*
X271908D01*
X268575Y66752D01*
Y83413D01*
X248582D02*
X261911D01*
Y63420D01*
X248582D01*
X261911Y73417D02*
X255246D01*
X241917Y83413D02*
X228588D01*
X235253D01*
Y63420D01*
X188601Y83413D02*
X201930D01*
Y63420D01*
X188601D01*
X201930Y73417D02*
X195266D01*
X181937Y80081D02*
X178604Y83413D01*
X171940D01*
X168608Y80081D01*
Y76749D01*
X171940Y73417D01*
X175272D01*
X171940D01*
X168608Y70085D01*
Y66752D01*
X171940Y63420D01*
X178604D01*
X181937Y66752D01*
D64*
X279400Y467360D02*
D03*
D65*
X304800D02*
D03*
D66*
X447580Y216090D02*
D03*
Y273890D02*
D03*
X158750Y146050D02*
D03*
X339090Y298450D02*
D03*
X370840Y377190D02*
D03*
X369570Y367030D02*
D03*
X452120Y256540D02*
D03*
X427595Y218750D02*
D03*
X426720Y269240D02*
D03*
X369570Y196850D02*
D03*
X394970Y207010D02*
D03*
X407670Y257810D02*
D03*
X297180Y260350D02*
D03*
X228600Y256540D02*
D03*
X257810Y363220D02*
D03*
X261620Y393700D02*
D03*
X254000Y377190D02*
D03*
X274320Y328930D02*
D03*
X264160Y340360D02*
D03*
X269240Y335280D02*
D03*
X196850Y227330D02*
D03*
X185420Y151130D02*
D03*
X252730Y354330D02*
D03*
X195580Y248920D02*
D03*
X340360Y412750D02*
D03*
X195580Y270510D02*
D03*
X198120Y303530D02*
D03*
Y293370D02*
D03*
X196850Y238760D02*
D03*
X358140Y412750D02*
D03*
X349250D02*
D03*
X366934D02*
D03*
X245110Y176530D02*
D03*
X280670Y266700D02*
D03*
X288290Y248920D02*
D03*
X252730Y250190D02*
D03*
X267082Y267970D02*
D03*
D67*
X442680Y201740D02*
D03*
Y288240D02*
D03*
D68*
X484380Y201740D02*
D03*
Y288240D02*
D03*
D69*
X270510Y236710D02*
D03*
D70*
X66040Y286730D02*
D03*
Y218730D02*
D03*
M02*
