G04*
G04 #@! TF.GenerationSoftware,Altium Limited,Altium Designer,25.2.1 (25)*
G04*
G04 Layer_Color=16711935*
%FSLAX44Y44*%
%MOMM*%
G71*
G04*
G04 #@! TF.SameCoordinates,3B9823B0-38B7-4378-8C35-7C2748B220C1*
G04*
G04*
G04 #@! TF.FilePolarity,Negative*
G04*
G01*
G75*
%ADD54R,1.5732X1.5732*%
%ADD55C,1.5732*%
%ADD56C,0.8032*%
%ADD57O,2.2032X1.1032*%
%ADD58O,1.9032X1.1032*%
%ADD59C,1.8300*%
%ADD60C,1.1532*%
D54*
X279400Y467360D02*
D03*
D55*
X304800D02*
D03*
D56*
X447580Y216090D02*
D03*
Y273890D02*
D03*
X158750Y146050D02*
D03*
X339090Y298450D02*
D03*
X370840Y377190D02*
D03*
X369570Y367030D02*
D03*
X452120Y256540D02*
D03*
X427595Y218750D02*
D03*
X426720Y269240D02*
D03*
X369570Y196850D02*
D03*
X394970Y207010D02*
D03*
X407670Y257810D02*
D03*
X297180Y260350D02*
D03*
X228600Y256540D02*
D03*
X257810Y363220D02*
D03*
X261620Y393700D02*
D03*
X254000Y377190D02*
D03*
X274320Y328930D02*
D03*
X264160Y340360D02*
D03*
X269240Y335280D02*
D03*
X196850Y227330D02*
D03*
X185420Y151130D02*
D03*
X252730Y354330D02*
D03*
X195580Y248920D02*
D03*
X340360Y412750D02*
D03*
X195580Y270510D02*
D03*
X198120Y303530D02*
D03*
Y293370D02*
D03*
X196850Y238760D02*
D03*
X358140Y412750D02*
D03*
X349250D02*
D03*
X366934D02*
D03*
X245110Y176530D02*
D03*
X280670Y266700D02*
D03*
X288290Y248920D02*
D03*
X252730Y250190D02*
D03*
X267082Y267970D02*
D03*
D57*
X442680Y201740D02*
D03*
Y288240D02*
D03*
D58*
X484380Y201740D02*
D03*
Y288240D02*
D03*
D59*
X270510Y236710D02*
D03*
D60*
X66040Y286730D02*
D03*
Y218730D02*
D03*
M02*
