G04*
G04 #@! TF.GenerationSoftware,Altium Limited,Altium Designer,25.2.1 (25)*
G04*
G04 Layer_Color=128*
%FSLAX44Y44*%
%MOMM*%
G71*
G04*
G04 #@! TF.SameCoordinates,3B9823B0-38B7-4378-8C35-7C2748B220C1*
G04*
G04*
G04 #@! TF.FilePolarity,Positive*
G04*
G01*
G75*
%ADD12C,0.1270*%
D12*
X274300Y467360D02*
X284500D01*
X279400Y462260D02*
Y472460D01*
X299700Y467360D02*
X309900D01*
X304800Y462260D02*
Y472460D01*
X444580Y216090D02*
X450580D01*
X447580Y213090D02*
Y219090D01*
X444580Y273890D02*
X450580D01*
X447580Y270890D02*
Y276890D01*
X439680Y201740D02*
X445680D01*
X442680Y198740D02*
Y204740D01*
X439680Y288240D02*
X445680D01*
X442680Y285240D02*
Y291240D01*
X481380Y201740D02*
X487380D01*
X484380Y198740D02*
Y204740D01*
X481380Y288240D02*
X487380D01*
X484380Y285240D02*
Y291240D01*
X268010Y236710D02*
X273010D01*
X270510Y234210D02*
Y239210D01*
X61290Y286730D02*
X70790D01*
X66040Y281980D02*
Y291480D01*
X61290Y218730D02*
X70790D01*
X66040Y213980D02*
Y223480D01*
X157250Y146050D02*
X160250D01*
X158750Y144550D02*
Y147550D01*
X337590Y298450D02*
X340590D01*
X339090Y296950D02*
Y299950D01*
X369340Y377190D02*
X372340D01*
X370840Y375690D02*
Y378690D01*
X368070Y367030D02*
X371070D01*
X369570Y365530D02*
Y368530D01*
X450620Y256540D02*
X453620D01*
X452120Y255040D02*
Y258040D01*
X426095Y218750D02*
X429095D01*
X427595Y217250D02*
Y220250D01*
X425220Y269240D02*
X428220D01*
X426720Y267740D02*
Y270740D01*
X368070Y196850D02*
X371070D01*
X369570Y195350D02*
Y198350D01*
X393470Y207010D02*
X396470D01*
X394970Y205510D02*
Y208510D01*
X406170Y257810D02*
X409170D01*
X407670Y256310D02*
Y259310D01*
X295680Y260350D02*
X298680D01*
X297180Y258850D02*
Y261850D01*
X227100Y256540D02*
X230100D01*
X228600Y255040D02*
Y258040D01*
X256310Y363220D02*
X259310D01*
X257810Y361720D02*
Y364720D01*
X260120Y393700D02*
X263120D01*
X261620Y392200D02*
Y395200D01*
X252500Y377190D02*
X255500D01*
X254000Y375690D02*
Y378690D01*
X272820Y328930D02*
X275820D01*
X274320Y327430D02*
Y330430D01*
X262660Y340360D02*
X265660D01*
X264160Y338860D02*
Y341860D01*
X267740Y335280D02*
X270740D01*
X269240Y333780D02*
Y336780D01*
X195350Y227330D02*
X198350D01*
X196850Y225830D02*
Y228830D01*
X183920Y151130D02*
X186920D01*
X185420Y149630D02*
Y152630D01*
X251230Y354330D02*
X254230D01*
X252730Y352830D02*
Y355830D01*
X194080Y248920D02*
X197080D01*
X195580Y247420D02*
Y250420D01*
X338860Y412750D02*
X341860D01*
X340360Y411250D02*
Y414250D01*
X194080Y270510D02*
X197080D01*
X195580Y269010D02*
Y272010D01*
X196620Y303530D02*
X199620D01*
X198120Y302030D02*
Y305030D01*
X196620Y293370D02*
X199620D01*
X198120Y291870D02*
Y294870D01*
X195350Y238760D02*
X198350D01*
X196850Y237260D02*
Y240260D01*
X356640Y412750D02*
X359640D01*
X358140Y411250D02*
Y414250D01*
X347750Y412750D02*
X350750D01*
X349250Y411250D02*
Y414250D01*
X365434Y412750D02*
X368434D01*
X366934Y411250D02*
Y414250D01*
X243610Y176530D02*
X246610D01*
X245110Y175030D02*
Y178030D01*
X279170Y266700D02*
X282170D01*
X280670Y265200D02*
Y268200D01*
X286790Y248920D02*
X289790D01*
X288290Y247420D02*
Y250420D01*
X251230Y250190D02*
X254230D01*
X252730Y248690D02*
Y251690D01*
X265582Y267970D02*
X268582D01*
X267082Y266470D02*
Y269470D01*
M02*
