G04*
G04 #@! TF.GenerationSoftware,Altium Limited,Altium Designer,25.2.1 (25)*
G04*
G04 Layer_Color=65535*
%FSLAX44Y44*%
%MOMM*%
G71*
G04*
G04 #@! TF.SameCoordinates,3B9823B0-38B7-4378-8C35-7C2748B220C1*
G04*
G04*
G04 #@! TF.FilePolarity,Positive*
G04*
G01*
G75*
%ADD10C,0.2000*%
%ADD11C,0.2400*%
%ADD12C,0.1270*%
%ADD13C,0.2540*%
D10*
X262720Y467360D02*
G03*
X262720Y467360I-1000J0D01*
G01*
X425380Y212990D02*
G03*
X425380Y212990I-1000J0D01*
G01*
X409940Y156530D02*
G03*
X409940Y156530I-1000J0D01*
G01*
X309610Y200980D02*
G03*
X309610Y200980I-1000J0D01*
G01*
X254135Y257340D02*
G03*
X254135Y257340I-1000J0D01*
G01*
X219620Y419090D02*
G03*
X219620Y419090I-1000J0D01*
G01*
X116160Y375490D02*
G03*
X116160Y375490I-1000J0D01*
G01*
X320900Y118110D02*
G03*
X320900Y118110I-1000J0D01*
G01*
X272820Y102070D02*
G03*
X272820Y102070I-1000J0D01*
G01*
X341500Y36830D02*
G03*
X341500Y36830I-1000J0D01*
G01*
X402940Y174530D02*
Y178530D01*
X414940Y174530D02*
Y178530D01*
X302610Y218980D02*
Y222980D01*
X314610Y218980D02*
Y222980D01*
X105410Y92710D02*
X144340D01*
X105410Y92920D02*
Y121920D01*
X144340D01*
Y92710D02*
Y110490D01*
Y121920D01*
X26240Y190730D02*
Y323230D01*
X54040D01*
X86040D02*
X144040D01*
X173740Y175730D02*
Y220730D01*
X86040Y172730D02*
X144040D01*
X23740Y190730D02*
X26240D01*
X23740Y179730D02*
Y190730D01*
Y179730D02*
X26240D01*
Y172730D02*
Y179730D01*
Y172730D02*
X54040D01*
D11*
X192240Y220730D02*
G03*
X192240Y220730I-1200J0D01*
G01*
D12*
X352800Y171550D02*
X358400D01*
X352800Y184050D02*
X358400D01*
X399470Y228500D02*
X405070D01*
X399470Y216000D02*
X405070D01*
X268220Y455680D02*
Y479040D01*
X315980Y455680D02*
Y479040D01*
X268220D02*
X315980D01*
X268220Y455680D02*
X315980D01*
X399790Y240130D02*
X405390D01*
X399790Y252630D02*
X405390D01*
X455880Y289690D02*
X472680D01*
X496080D02*
X510380D01*
X455880Y200290D02*
X472680D01*
X496080D02*
X510380D01*
Y289690D01*
X271520Y198020D02*
X277120D01*
X271520Y185520D02*
X277120D01*
X110870Y414100D02*
Y424100D01*
X94870Y414100D02*
Y424100D01*
X257260Y261340D02*
X283760D01*
X257260Y226340D02*
Y261340D01*
Y226340D02*
X283760D01*
Y261340D01*
X377620Y289090D02*
X383020D01*
X377620Y429090D02*
X383020D01*
X243020Y289090D02*
X248420D01*
X243020Y429090D02*
X248420D01*
X383020Y289090D02*
Y294490D01*
Y423690D02*
Y429090D01*
X243020Y289090D02*
Y294490D01*
Y423690D02*
Y429090D01*
X347720Y452220D02*
X353320D01*
X347720Y464720D02*
X353320D01*
X149660Y363690D02*
Y365290D01*
X124660Y363690D02*
Y365290D01*
X174370Y417650D02*
Y433250D01*
X158370Y417650D02*
Y433250D01*
X199770Y417650D02*
Y433250D01*
X183770Y417650D02*
Y433250D01*
X334400Y111860D02*
X351400D01*
X334400Y124360D02*
X351400D01*
Y111860D02*
Y112410D01*
Y123810D02*
Y124360D01*
X334400Y111860D02*
Y112410D01*
Y123810D02*
Y124360D01*
X281445Y34545D02*
Y69595D01*
X216395Y34545D02*
X281445D01*
X216395D02*
Y69595D01*
X281445D01*
X326000Y30580D02*
Y31130D01*
Y42530D02*
Y43080D01*
X309000Y30580D02*
Y31130D01*
Y42530D02*
Y43080D01*
Y30580D02*
X326000D01*
X309000Y43080D02*
X326000D01*
X336128Y187961D02*
Y193039D01*
X338667D01*
X339514Y192193D01*
Y190500D01*
X338667Y189654D01*
X336128D01*
X337821D02*
X339514Y187961D01*
X344592Y193039D02*
X341206D01*
Y190500D01*
X342899Y191346D01*
X343746D01*
X344592Y190500D01*
Y188807D01*
X343746Y187961D01*
X342053D01*
X341206Y188807D01*
X272204Y488949D02*
X270511D01*
X271357D01*
Y484717D01*
X270511Y483871D01*
X269664D01*
X268818Y484717D01*
X273896Y488103D02*
X274743Y488949D01*
X276436D01*
X277282Y488103D01*
Y487256D01*
X276436Y486410D01*
X275589D01*
X276436D01*
X277282Y485564D01*
Y484717D01*
X276436Y483871D01*
X274743D01*
X273896Y484717D01*
X257911Y127048D02*
X257065Y126201D01*
Y124508D01*
X257911Y123662D01*
X261297D01*
X262143Y124508D01*
Y126201D01*
X261297Y127048D01*
X257911Y128740D02*
X257065Y129587D01*
Y131280D01*
X257911Y132126D01*
X258758D01*
X259604Y131280D01*
Y130433D01*
Y131280D01*
X260450Y132126D01*
X261297D01*
X262143Y131280D01*
Y129587D01*
X261297Y128740D01*
X300566Y104054D02*
X299719Y104900D01*
X298026D01*
X297180Y104054D01*
Y100668D01*
X298026Y99822D01*
X299719D01*
X300566Y100668D01*
X305644Y99822D02*
X302258D01*
X305644Y103208D01*
Y104054D01*
X304797Y104900D01*
X303105D01*
X302258Y104054D01*
X83821Y400898D02*
X84667D01*
X86360Y402591D01*
X84667Y404284D01*
X83821D01*
X86360Y402591D02*
X88899D01*
Y409362D02*
Y405976D01*
X85514Y409362D01*
X84667D01*
X83821Y408516D01*
Y406823D01*
X84667Y405976D01*
X114554Y396746D02*
Y395900D01*
X116247Y394207D01*
X117940Y395900D01*
Y396746D01*
X116247Y394207D02*
Y391668D01*
X119632D02*
X121325D01*
X120479D01*
Y396746D01*
X119632Y395900D01*
X214884Y115568D02*
Y111336D01*
X215730Y110490D01*
X217423D01*
X218270Y111336D01*
Y115568D01*
X223348Y110490D02*
X219962D01*
X223348Y113876D01*
Y114722D01*
X222502Y115568D01*
X220809D01*
X219962Y114722D01*
X182372Y457962D02*
Y463040D01*
X184911D01*
X185758Y462194D01*
Y460501D01*
X184911Y459655D01*
X182372D01*
X184065D02*
X185758Y457962D01*
X187450Y458808D02*
X188297Y457962D01*
X189989D01*
X190836Y458808D01*
Y462194D01*
X189989Y463040D01*
X188297D01*
X187450Y462194D01*
Y461348D01*
X188297Y460501D01*
X190836D01*
X156972Y457962D02*
Y463040D01*
X159511D01*
X160358Y462194D01*
Y460501D01*
X159511Y459655D01*
X156972D01*
X158665D02*
X160358Y457962D01*
X162050Y462194D02*
X162897Y463040D01*
X164590D01*
X165436Y462194D01*
Y461348D01*
X164590Y460501D01*
X165436Y459655D01*
Y458808D01*
X164590Y457962D01*
X162897D01*
X162050Y458808D01*
Y459655D01*
X162897Y460501D01*
X162050Y461348D01*
Y462194D01*
X162897Y460501D02*
X164590D01*
X384068Y232411D02*
Y237489D01*
X386607D01*
X387454Y236643D01*
Y234950D01*
X386607Y234104D01*
X384068D01*
X385761D02*
X387454Y232411D01*
X391686D02*
Y237489D01*
X389146Y234950D01*
X392532D01*
X380049Y238338D02*
X374971D01*
Y240877D01*
X375817Y241724D01*
X377510D01*
X378356Y240877D01*
Y238338D01*
Y240031D02*
X380049Y241724D01*
X375817Y243416D02*
X374971Y244263D01*
Y245956D01*
X375817Y246802D01*
X376664D01*
X377510Y245956D01*
Y245109D01*
Y245956D01*
X378356Y246802D01*
X379203D01*
X380049Y245956D01*
Y244263D01*
X379203Y243416D01*
X250189Y188808D02*
X245111D01*
Y191347D01*
X245957Y192194D01*
X247650D01*
X248496Y191347D01*
Y188808D01*
Y190501D02*
X250189Y192194D01*
Y197272D02*
Y193886D01*
X246804Y197272D01*
X245957D01*
X245111Y196426D01*
Y194733D01*
X245957Y193886D01*
X331470Y473710D02*
Y478788D01*
X334009D01*
X334856Y477942D01*
Y476249D01*
X334009Y475403D01*
X331470D01*
X333163D02*
X334856Y473710D01*
X336548D02*
X338241D01*
X337395D01*
Y478788D01*
X336548Y477942D01*
X290721Y264045D02*
X295799D01*
X294106Y262352D01*
X295799Y260659D01*
X290721D01*
X295799Y258966D02*
X290721D01*
X292414D01*
X295799Y255581D01*
X293260Y258120D01*
X290721Y255581D01*
Y253888D02*
Y252195D01*
Y253042D01*
X295799D01*
X294953Y253888D01*
X298958Y57148D02*
Y52070D01*
X301497D01*
X302344Y52916D01*
Y56302D01*
X301497Y57148D01*
X298958D01*
X307422D02*
X305729Y56302D01*
X304036Y54609D01*
Y52916D01*
X304883Y52070D01*
X306576D01*
X307422Y52916D01*
Y53763D01*
X306576Y54609D01*
X304036D01*
X319278Y138428D02*
Y133350D01*
X321817D01*
X322664Y134196D01*
Y137582D01*
X321817Y138428D01*
X319278D01*
X326895Y133350D02*
Y138428D01*
X324356Y135889D01*
X327742D01*
X328760Y104308D02*
X327913Y105154D01*
X326220D01*
X325374Y104308D01*
Y100922D01*
X326220Y100076D01*
X327913D01*
X328760Y100922D01*
X330452Y100076D02*
X332145D01*
X331299D01*
Y105154D01*
X330452Y104308D01*
X334684D02*
X335531Y105154D01*
X337224D01*
X338070Y104308D01*
Y103462D01*
X337224Y102615D01*
X336377D01*
X337224D01*
X338070Y101769D01*
Y100922D01*
X337224Y100076D01*
X335531D01*
X334684Y100922D01*
X286597Y127848D02*
X285751Y127001D01*
Y125309D01*
X286597Y124462D01*
X289983D01*
X290829Y125309D01*
Y127001D01*
X289983Y127848D01*
X290829Y129540D02*
Y131233D01*
Y130387D01*
X285751D01*
X286597Y129540D01*
X290829Y137158D02*
Y133772D01*
X287444Y137158D01*
X286597D01*
X285751Y136312D01*
Y134619D01*
X286597Y133772D01*
X126830Y424348D02*
X125983Y425194D01*
X124290D01*
X123444Y424348D01*
Y420962D01*
X124290Y420116D01*
X125983D01*
X126830Y420962D01*
X128522Y420116D02*
X130215D01*
X129369D01*
Y425194D01*
X128522Y424348D01*
X132754Y420116D02*
X134447D01*
X133601D01*
Y425194D01*
X132754Y424348D01*
X128100Y456098D02*
X127253Y456944D01*
X125560D01*
X124714Y456098D01*
Y452712D01*
X125560Y451866D01*
X127253D01*
X128100Y452712D01*
X129792Y451866D02*
X131485D01*
X130639D01*
Y456944D01*
X129792Y456098D01*
X134024D02*
X134871Y456944D01*
X136564D01*
X137410Y456098D01*
Y452712D01*
X136564Y451866D01*
X134871D01*
X134024Y452712D01*
Y456098D01*
X171027Y353484D02*
X170181Y352637D01*
Y350945D01*
X171027Y350098D01*
X174413D01*
X175259Y350945D01*
Y352637D01*
X174413Y353484D01*
Y355176D02*
X175259Y356023D01*
Y357716D01*
X174413Y358562D01*
X171027D01*
X170181Y357716D01*
Y356023D01*
X171027Y355176D01*
X171874D01*
X172720Y356023D01*
Y358562D01*
X171027Y372534D02*
X170181Y371687D01*
Y369995D01*
X171027Y369148D01*
X174413D01*
X175259Y369995D01*
Y371687D01*
X174413Y372534D01*
X171027Y374226D02*
X170181Y375073D01*
Y376766D01*
X171027Y377612D01*
X171874D01*
X172720Y376766D01*
X173566Y377612D01*
X174413D01*
X175259Y376766D01*
Y375073D01*
X174413Y374226D01*
X173566D01*
X172720Y375073D01*
X171874Y374226D01*
X171027D01*
X172720Y375073D02*
Y376766D01*
X421470Y425618D02*
X420623Y426464D01*
X418930D01*
X418084Y425618D01*
Y422232D01*
X418930Y421386D01*
X420623D01*
X421470Y422232D01*
X423162Y426464D02*
X426548D01*
Y425618D01*
X423162Y422232D01*
Y421386D01*
X346287Y240454D02*
X345441Y239607D01*
Y237915D01*
X346287Y237068D01*
X349673D01*
X350519Y237915D01*
Y239607D01*
X349673Y240454D01*
X345441Y245532D02*
X346287Y243839D01*
X347980Y242146D01*
X349673D01*
X350519Y242993D01*
Y244686D01*
X349673Y245532D01*
X348826D01*
X347980Y244686D01*
Y242146D01*
X207856Y284394D02*
X207009Y285240D01*
X205316D01*
X204470Y284394D01*
Y281008D01*
X205316Y280162D01*
X207009D01*
X207856Y281008D01*
X212934Y285240D02*
X209548D01*
Y282701D01*
X211241Y283548D01*
X212087D01*
X212934Y282701D01*
Y281008D01*
X212087Y280162D01*
X210395D01*
X209548Y281008D01*
X147744Y147743D02*
X146897Y148589D01*
X145204D01*
X144358Y147743D01*
Y144357D01*
X145204Y143511D01*
X146897D01*
X147744Y144357D01*
X151976Y143511D02*
Y148589D01*
X149436Y146050D01*
X152822D01*
X214630Y232833D02*
X213784Y233679D01*
X212091D01*
X211244Y232833D01*
Y229447D01*
X212091Y228601D01*
X213784D01*
X214630Y229447D01*
X216323Y228601D02*
X218016D01*
X217169D01*
Y233679D01*
X216323Y232833D01*
D13*
X219202Y469387D02*
Y456691D01*
X221741Y454152D01*
X226819D01*
X229359Y456691D01*
Y469387D01*
X234437Y454152D02*
X239515D01*
X236976D01*
Y469387D01*
X234437Y466848D01*
X51655Y350096D02*
X49963Y351788D01*
X46577D01*
X44884Y350096D01*
Y348403D01*
X46577Y346710D01*
X49963D01*
X51655Y345017D01*
Y343324D01*
X49963Y341632D01*
X46577D01*
X44884Y343324D01*
X55041Y351788D02*
Y341632D01*
X60119D01*
X61812Y343324D01*
Y350096D01*
X60119Y351788D01*
X55041D01*
X82126Y350096D02*
X80433Y351788D01*
X77047D01*
X75354Y350096D01*
Y343324D01*
X77047Y341632D01*
X80433D01*
X82126Y343324D01*
X87204Y348403D02*
X90590D01*
X92282Y346710D01*
Y341632D01*
X87204D01*
X85511Y343324D01*
X87204Y345017D01*
X92282D01*
X95668Y348403D02*
Y341632D01*
Y345017D01*
X97361Y346710D01*
X99053Y348403D01*
X100746D01*
X112596Y351788D02*
Y341632D01*
X107517D01*
X105825Y343324D01*
Y346710D01*
X107517Y348403D01*
X112596D01*
X431043Y180220D02*
Y175142D01*
Y177681D01*
X443738D01*
X446278Y175142D01*
Y172603D01*
X443738Y170063D01*
X446278Y185299D02*
Y190377D01*
Y187838D01*
X431043D01*
X433582Y185299D01*
X318772Y249647D02*
X328928D01*
Y244569D01*
X327236Y242876D01*
X323850D01*
X322157Y244569D01*
Y249647D01*
Y246262D02*
X318772Y242876D01*
X328928Y232719D02*
Y239491D01*
X318772D01*
Y232719D01*
X323850Y239491D02*
Y236105D01*
X327236Y222563D02*
X328928Y224256D01*
Y227641D01*
X327236Y229334D01*
X325543D01*
X323850Y227641D01*
Y224256D01*
X322157Y222563D01*
X320464D01*
X318772Y224256D01*
Y227641D01*
X320464Y229334D01*
X328928Y219177D02*
X320464D01*
X318772Y217484D01*
Y214099D01*
X320464Y212406D01*
X328928D01*
Y209021D02*
X318772D01*
Y202249D01*
X328928Y198864D02*
Y192093D01*
Y195478D01*
X318772D01*
X396238Y151561D02*
X386082D01*
Y156639D01*
X387774Y158332D01*
X391160D01*
X392853Y156639D01*
Y151561D01*
X386082Y166796D02*
Y163410D01*
X387774Y161718D01*
X394546D01*
X396238Y163410D01*
Y166796D01*
X394546Y168489D01*
X387774D01*
X386082Y166796D01*
Y171874D02*
X396238D01*
X392853Y175260D01*
X396238Y178646D01*
X386082D01*
Y188802D02*
Y182031D01*
X396238D01*
Y188802D01*
X391160Y182031D02*
Y185417D01*
X396238Y192188D02*
X386082D01*
Y197266D01*
X387774Y198959D01*
X391160D01*
X392853Y197266D01*
Y192188D01*
Y195573D02*
X396238Y198959D01*
X113458Y128272D02*
Y138428D01*
X118536D01*
X120229Y136736D01*
Y133350D01*
X118536Y131657D01*
X113458D01*
X116843D02*
X120229Y128272D01*
X130386Y136736D02*
X128693Y138428D01*
X125307D01*
X123614Y136736D01*
Y135043D01*
X125307Y133350D01*
X128693D01*
X130386Y131657D01*
Y129964D01*
X128693Y128272D01*
X125307D01*
X123614Y129964D01*
X133771Y138428D02*
X140542D01*
X137157D01*
Y128272D01*
M02*
