G04*
G04 #@! TF.GenerationSoftware,Altium Limited,Altium Designer,25.2.1 (25)*
G04*
G04 Layer_Color=16711935*
%FSLAX44Y44*%
%MOMM*%
G71*
G04*
G04 #@! TF.SameCoordinates,3B9823B0-38B7-4378-8C35-7C2748B220C1*
G04*
G04*
G04 #@! TF.FilePolarity,Positive*
G04*
G01*
G75*
%ADD10C,0.2000*%
%ADD11C,0.2400*%
%ADD12C,0.1270*%
%ADD71C,0.1000*%
G36*
X314610Y215980D02*
Y210980D01*
X302610D01*
Y215980D01*
X314610D01*
D02*
G37*
G36*
Y230980D02*
Y225980D01*
X302610D01*
Y230980D01*
X314610D01*
D02*
G37*
G36*
X414940Y171530D02*
Y166530D01*
X402940D01*
Y171530D01*
X414940D01*
D02*
G37*
G36*
Y186530D02*
Y181530D01*
X402940D01*
Y186530D01*
X414940D01*
D02*
G37*
D10*
X262720Y467360D02*
G03*
X262720Y467360I-1000J0D01*
G01*
X425380Y212990D02*
G03*
X425380Y212990I-1000J0D01*
G01*
X219620Y419090D02*
G03*
X219620Y419090I-1000J0D01*
G01*
X116160Y375490D02*
G03*
X116160Y375490I-1000J0D01*
G01*
X320900Y118110D02*
G03*
X320900Y118110I-1000J0D01*
G01*
X272820Y102070D02*
G03*
X272820Y102070I-1000J0D01*
G01*
X341500Y36830D02*
G03*
X341500Y36830I-1000J0D01*
G01*
X402940Y166530D02*
Y186530D01*
X414940D01*
Y166530D02*
Y186530D01*
X402940Y166530D02*
X414940D01*
X302610Y210980D02*
Y230980D01*
X314610D01*
Y210980D02*
Y230980D01*
X302610Y210980D02*
X314610D01*
D11*
X192240Y220730D02*
G03*
X192240Y220730I-1200J0D01*
G01*
D12*
X157790Y139120D02*
X174790D01*
X157790Y130120D02*
X174790D01*
X157790D02*
Y139120D01*
X174790Y130120D02*
Y139120D01*
X345600Y171550D02*
X365600D01*
X345600Y184050D02*
X365600D01*
Y171550D02*
Y184050D01*
X345600Y171550D02*
Y184050D01*
X392270Y228500D02*
X412270D01*
X392270Y216000D02*
X412270D01*
X392270D02*
Y228500D01*
X412270Y216000D02*
Y228500D01*
X268220Y455680D02*
Y479040D01*
X315980D01*
Y455680D02*
Y479040D01*
X268220Y455680D02*
X315980D01*
X268220D02*
X315980D01*
X296490Y129930D02*
X305490D01*
X296490Y146930D02*
X305490D01*
X296490Y129930D02*
Y146930D01*
X305490Y129930D02*
Y146930D01*
X267120Y128700D02*
X281520D01*
X267120Y150700D02*
X281520D01*
X267120Y128700D02*
Y150700D01*
X281520Y128700D02*
Y150700D01*
X354910Y242960D02*
X363910D01*
X354910Y259960D02*
X363910D01*
X354910Y242960D02*
Y259960D01*
X363910Y242960D02*
Y259960D01*
X412590Y240130D02*
Y252630D01*
X392590Y240130D02*
Y252630D01*
Y240130D02*
X412590D01*
X392590Y252630D02*
X412590D01*
X510380Y200290D02*
Y289690D01*
X436880D02*
X510380D01*
X436880Y200290D02*
Y289690D01*
Y200290D02*
X510380D01*
X505480Y189990D02*
Y334990D01*
X264320Y185520D02*
Y198020D01*
X284320Y185520D02*
Y198020D01*
X264320D02*
X284320D01*
X264320Y185520D02*
X284320D01*
X184540Y370150D02*
Y379150D01*
X201540Y370150D02*
Y379150D01*
X184540D02*
X201540D01*
X184540Y370150D02*
X201540D01*
Y348560D02*
Y357560D01*
X184540Y348560D02*
Y357560D01*
Y348560D02*
X201540D01*
X184540Y357560D02*
X201540D01*
X110870Y402600D02*
Y435600D01*
X94870D02*
X110870D01*
X94870Y402600D02*
Y435600D01*
Y402600D02*
X110870D01*
X206160Y197280D02*
X220560D01*
X206160Y219280D02*
X220560D01*
X206160Y197280D02*
Y219280D01*
X220560Y197280D02*
Y219280D01*
X283760Y226310D02*
Y261310D01*
X257260Y226310D02*
X283760D01*
X257260D02*
Y261310D01*
X283760D01*
X298870Y65200D02*
X313270D01*
X298870Y87200D02*
X313270D01*
X298870Y65200D02*
Y87200D01*
X313270Y65200D02*
Y87200D01*
X243020Y289090D02*
X383020D01*
X243020Y429090D02*
X383020D01*
Y289090D02*
Y429090D01*
X243020Y289090D02*
Y429090D01*
X360520Y452220D02*
Y464720D01*
X340520Y452220D02*
Y464720D01*
Y452220D02*
X360520D01*
X340520Y464720D02*
X360520D01*
X419680Y408550D02*
X428680D01*
X419680Y391550D02*
X428680D01*
Y408550D01*
X419680Y391550D02*
Y408550D01*
X124660Y380490D02*
X149660D01*
Y348490D02*
Y380490D01*
X124660Y348490D02*
Y380490D01*
Y348490D02*
X149660D01*
X129930Y433650D02*
Y442650D01*
X146930Y433650D02*
Y442650D01*
X129930D02*
X146930D01*
X129930Y433650D02*
X146930D01*
X174370Y409450D02*
Y441450D01*
X158370Y409450D02*
Y441450D01*
X174370D01*
X158370Y409450D02*
X174370D01*
X128660Y401900D02*
Y410900D01*
X145660Y401900D02*
Y410900D01*
X128660D02*
X145660D01*
X128660Y401900D02*
X145660D01*
X199770Y409450D02*
Y441450D01*
X183770Y409450D02*
Y441450D01*
X199770D01*
X183770Y409450D02*
X199770D01*
X334400Y111860D02*
X351400D01*
Y124360D01*
X334400D02*
X351400D01*
X334400Y111860D02*
Y124360D01*
X281445Y34545D02*
Y69595D01*
X216395Y34545D02*
X281445D01*
X216395D02*
Y69595D01*
X281445D01*
X206160Y267540D02*
X220560D01*
X206160Y245540D02*
X220560D01*
Y267540D01*
X206160Y245540D02*
Y267540D01*
X326970Y70240D02*
X335970D01*
X326970Y87240D02*
X335970D01*
X326970Y70240D02*
Y87240D01*
X335970Y70240D02*
Y87240D01*
X326000Y30580D02*
Y43080D01*
X309000Y30580D02*
X326000D01*
X309000D02*
Y43080D01*
X326000D01*
D71*
X26240Y190730D02*
Y323230D01*
X173740D01*
Y172730D02*
Y323230D01*
X23740Y190730D02*
X26240D01*
X23740Y179730D02*
Y190730D01*
Y179730D02*
X26240D01*
Y172730D02*
Y179730D01*
Y172730D02*
X173740D01*
M02*
