G04*
G04 #@! TF.GenerationSoftware,Altium Limited,Altium Designer,25.2.1 (25)*
G04*
G04 Layer_Physical_Order=1*
G04 Layer_Color=255*
%FSLAX25Y25*%
%MOIN*%
G70*
G04*
G04 #@! TF.SameCoordinates,231B4DAF-6D27-4D0E-86E8-AA491D90C455*
G04*
G04*
G04 #@! TF.FilePolarity,Positive*
G04*
G01*
G75*
%ADD10C,0.00787*%
%ADD14R,0.05787X0.04567*%
%ADD15R,0.04567X0.05787*%
%ADD16R,0.04528X0.04528*%
%ADD17R,0.04488X0.02362*%
%ADD18R,0.04488X0.01181*%
%ADD19R,0.05709X0.04331*%
%ADD20R,0.05906X0.05512*%
%ADD21R,0.07087X0.03937*%
%ADD22R,0.05787X0.04606*%
%ADD24R,0.05512X0.02441*%
%ADD25R,0.09449X0.04331*%
G04:AMPARAMS|DCode=26|XSize=11.02mil|YSize=61.42mil|CornerRadius=1.38mil|HoleSize=0mil|Usage=FLASHONLY|Rotation=0.000|XOffset=0mil|YOffset=0mil|HoleType=Round|Shape=RoundedRectangle|*
%AMROUNDEDRECTD26*
21,1,0.01102,0.05866,0,0,0.0*
21,1,0.00827,0.06142,0,0,0.0*
1,1,0.00276,0.00413,-0.02933*
1,1,0.00276,-0.00413,-0.02933*
1,1,0.00276,-0.00413,0.02933*
1,1,0.00276,0.00413,0.02933*
%
%ADD26ROUNDEDRECTD26*%
G04:AMPARAMS|DCode=27|XSize=61.42mil|YSize=11.02mil|CornerRadius=1.38mil|HoleSize=0mil|Usage=FLASHONLY|Rotation=0.000|XOffset=0mil|YOffset=0mil|HoleType=Round|Shape=RoundedRectangle|*
%AMROUNDEDRECTD27*
21,1,0.06142,0.00827,0,0,0.0*
21,1,0.05866,0.01102,0,0,0.0*
1,1,0.00276,0.02933,-0.00413*
1,1,0.00276,-0.02933,-0.00413*
1,1,0.00276,-0.02933,0.00413*
1,1,0.00276,0.02933,0.00413*
%
%ADD27ROUNDEDRECTD27*%
%ADD28R,0.04724X0.05512*%
G04:AMPARAMS|DCode=29|XSize=51.58mil|YSize=36.61mil|CornerRadius=2.75mil|HoleSize=0mil|Usage=FLASHONLY|Rotation=270.000|XOffset=0mil|YOffset=0mil|HoleType=Round|Shape=RoundedRectangle|*
%AMROUNDEDRECTD29*
21,1,0.05158,0.03112,0,0,270.0*
21,1,0.04608,0.03661,0,0,270.0*
1,1,0.00549,-0.01556,-0.02304*
1,1,0.00549,-0.01556,0.02304*
1,1,0.00549,0.01556,0.02304*
1,1,0.00549,0.01556,-0.02304*
%
%ADD29ROUNDEDRECTD29*%
G04:AMPARAMS|DCode=30|XSize=51.58mil|YSize=127.56mil|CornerRadius=3.87mil|HoleSize=0mil|Usage=FLASHONLY|Rotation=270.000|XOffset=0mil|YOffset=0mil|HoleType=Round|Shape=RoundedRectangle|*
%AMROUNDEDRECTD30*
21,1,0.05158,0.11982,0,0,270.0*
21,1,0.04384,0.12756,0,0,270.0*
1,1,0.00774,-0.05991,-0.02192*
1,1,0.00774,-0.05991,0.02192*
1,1,0.00774,0.05991,0.02192*
1,1,0.00774,0.05991,-0.02192*
%
%ADD30ROUNDEDRECTD30*%
%ADD55R,0.02362X0.02055*%
%ADD56R,0.00394X0.00394*%
%ADD57C,0.01968*%
%ADD58R,0.05394X0.05394*%
%ADD59C,0.05394*%
%ADD60C,0.02362*%
%ADD61O,0.07874X0.03543*%
%ADD62O,0.06693X0.03543*%
%ADD63C,0.01968*%
%ADD64C,0.03740*%
G36*
X104766Y196062D02*
X110586Y195533D01*
X116363Y194654D01*
X122076Y193427D01*
X127705Y191858D01*
X133229Y189952D01*
X138628Y187716D01*
X143882Y185157D01*
X148971Y182287D01*
X153879Y179114D01*
X158586Y175651D01*
X163075Y171910D01*
X167330Y167904D01*
X171335Y163649D01*
X175076Y159160D01*
X178539Y154454D01*
X181712Y149546D01*
X184583Y144457D01*
X187141Y139203D01*
X189377Y133804D01*
X191283Y128280D01*
X192852Y122651D01*
X194079Y116938D01*
X194958Y111161D01*
X195487Y105341D01*
X195663Y99500D01*
X195487Y93659D01*
X194958Y87840D01*
X194079Y82063D01*
X192852Y76349D01*
X191283Y70720D01*
X189377Y65196D01*
X187141Y59797D01*
X184583Y54544D01*
X181712Y49454D01*
X178539Y44546D01*
X175076Y39840D01*
X171335Y35351D01*
X167330Y31096D01*
X163075Y27090D01*
X158586Y23349D01*
X153879Y19886D01*
X148971Y16713D01*
X143882Y13842D01*
X138628Y11284D01*
X133229Y9048D01*
X127705Y7142D01*
X122076Y5573D01*
X116363Y4346D01*
X110586Y3467D01*
X104766Y2938D01*
X98925Y2762D01*
X93084Y2938D01*
X87265Y3467D01*
X81488Y4346D01*
X75774Y5573D01*
X70145Y7142D01*
X64621Y9048D01*
X59223Y11284D01*
X53969Y13842D01*
X48879Y16713D01*
X43972Y19886D01*
X39265Y23349D01*
X34776Y27090D01*
X30521Y31096D01*
X26516Y35351D01*
X22774Y39840D01*
X19311Y44546D01*
X16138Y49454D01*
X13268Y54544D01*
X10710Y59797D01*
X8473Y65196D01*
X6567Y70720D01*
X4998Y76349D01*
X3771Y82063D01*
X2892Y87840D01*
X2363Y93659D01*
X2187Y99500D01*
X2363Y105341D01*
X2892Y111161D01*
X3771Y116938D01*
X4998Y122651D01*
X6567Y128280D01*
X8473Y133804D01*
X10710Y139203D01*
X13268Y144457D01*
X16138Y149546D01*
X19311Y154454D01*
X22774Y159160D01*
X26516Y163649D01*
X30521Y167904D01*
X34776Y171910D01*
X39265Y175651D01*
X43972Y179114D01*
X48879Y182287D01*
X53969Y185157D01*
X59223Y187716D01*
X64621Y189952D01*
X70145Y191858D01*
X75774Y193427D01*
X81488Y194654D01*
X87265Y195533D01*
X93084Y196062D01*
X98925Y196238D01*
X104766Y196062D01*
D02*
G37*
%LPC*%
G36*
X120510Y187878D02*
X119490D01*
X118503Y187614D01*
X117619Y187103D01*
X116897Y186381D01*
X116386Y185497D01*
X116122Y184511D01*
Y183490D01*
X116354Y182624D01*
X114340Y180611D01*
X113878Y180802D01*
Y187878D01*
X106122D01*
Y182393D01*
X105835Y182106D01*
X103000D01*
X102385Y181983D01*
X101865Y181635D01*
X101865Y181635D01*
X98479Y178250D01*
X98131Y177729D01*
X98009Y177114D01*
X98009Y177114D01*
Y175133D01*
X97958Y175058D01*
X97856Y174543D01*
Y168677D01*
X97958Y168163D01*
X98009Y168087D01*
Y153873D01*
X98009Y153873D01*
X98131Y153258D01*
X98479Y152737D01*
X103852Y147364D01*
X103605Y146903D01*
X103539Y146917D01*
X103539Y146917D01*
X96523D01*
X96448Y146967D01*
X96157Y147025D01*
Y147534D01*
X96448Y147592D01*
X96884Y147884D01*
X97175Y148320D01*
X97278Y148835D01*
Y149661D01*
X97175Y150176D01*
X97138Y150232D01*
X97175Y150289D01*
X97278Y150803D01*
Y151630D01*
X97175Y152145D01*
X97138Y152201D01*
X97175Y152257D01*
X97278Y152772D01*
Y153598D01*
X97175Y154113D01*
X97138Y154169D01*
X97175Y154226D01*
X97278Y154740D01*
Y155567D01*
X97175Y156082D01*
X97138Y156138D01*
X97175Y156194D01*
X97278Y156709D01*
Y157535D01*
X97175Y158050D01*
X97138Y158106D01*
X97175Y158163D01*
X97278Y158677D01*
Y159504D01*
X97175Y160019D01*
X97138Y160075D01*
X97175Y160131D01*
X97278Y160646D01*
Y161472D01*
X97175Y161987D01*
X97138Y162043D01*
X97175Y162100D01*
X97278Y162614D01*
Y163441D01*
X97175Y163956D01*
X97138Y164012D01*
X97175Y164068D01*
X97278Y164583D01*
Y165409D01*
X97175Y165924D01*
X96884Y166360D01*
X96448Y166652D01*
X95933Y166754D01*
X90067D01*
X89552Y166652D01*
X89116Y166360D01*
X88825Y165924D01*
X88722Y165409D01*
Y164583D01*
X88825Y164068D01*
X88862Y164012D01*
X88825Y163956D01*
X88722Y163441D01*
Y162614D01*
X88825Y162100D01*
X88862Y162043D01*
X88825Y161987D01*
X88722Y161472D01*
Y160646D01*
X88825Y160131D01*
X88862Y160075D01*
X88825Y160019D01*
X88722Y159504D01*
Y158677D01*
X88825Y158163D01*
X88862Y158106D01*
X88825Y158050D01*
X88722Y157535D01*
Y156709D01*
X88825Y156194D01*
X88862Y156138D01*
X88825Y156082D01*
X88722Y155567D01*
Y155434D01*
X88260Y155243D01*
X84222Y159281D01*
Y165384D01*
X84100Y165998D01*
X83751Y166519D01*
X83751Y166519D01*
X83135Y167135D01*
X82614Y167483D01*
X82000Y167606D01*
X82000Y167606D01*
X80224D01*
Y170571D01*
X72522D01*
X72346Y170606D01*
X72346Y170606D01*
X64429D01*
Y173075D01*
X57500D01*
Y164925D01*
X64429D01*
Y167394D01*
X70776D01*
Y164272D01*
X80224D01*
Y164394D01*
X81010D01*
Y159300D01*
X80869Y159185D01*
X80869Y159184D01*
X80224D01*
Y160728D01*
X70776D01*
Y158106D01*
X64429D01*
Y160575D01*
X57500D01*
Y153575D01*
X52000D01*
Y145425D01*
X58929D01*
Y147894D01*
X66610D01*
Y142894D01*
X73697D01*
Y149556D01*
X80173D01*
X86288Y143442D01*
X86096Y142980D01*
X85610D01*
X85610Y142980D01*
X84996Y142858D01*
X84475Y142509D01*
X81740Y139775D01*
X80390D01*
Y142106D01*
X73303D01*
Y136356D01*
X73275Y136216D01*
X72503Y135444D01*
X67804D01*
X64113Y139135D01*
X63592Y139483D01*
X62978Y139606D01*
X62977Y139606D01*
X61929D01*
Y142075D01*
X55000D01*
Y133925D01*
X61929D01*
Y136113D01*
X62429Y136278D01*
X66004Y132703D01*
X66004Y132703D01*
X66525Y132355D01*
X67139Y132233D01*
X73168D01*
X73168Y132233D01*
X73783Y132355D01*
X74304Y132703D01*
X75833Y134232D01*
X80390D01*
Y136564D01*
X82405D01*
X82405Y136564D01*
X83020Y136686D01*
X83540Y137034D01*
X86275Y139768D01*
X88722D01*
Y138992D01*
X88825Y138478D01*
X88862Y138421D01*
X88825Y138365D01*
X88722Y137850D01*
Y137024D01*
X88825Y136509D01*
X88862Y136453D01*
X88825Y136397D01*
X88722Y135882D01*
Y135106D01*
X88000D01*
X88000Y135106D01*
X87385Y134983D01*
X86865Y134635D01*
X86865Y134635D01*
X77823Y125594D01*
X74898D01*
Y126390D01*
X67024D01*
Y121587D01*
Y117256D01*
Y112925D01*
X74898D01*
Y113894D01*
X76265D01*
X76662Y113497D01*
X77530Y113138D01*
X78470D01*
X79338Y113497D01*
X80003Y114162D01*
X80362Y115030D01*
Y115970D01*
X80003Y116838D01*
X79341Y117500D01*
X80003Y118162D01*
X80362Y119030D01*
Y119970D01*
X80003Y120838D01*
X79338Y121503D01*
X78470Y121862D01*
X77530D01*
X76662Y121503D01*
X76265Y121106D01*
X74898D01*
Y122382D01*
X78488D01*
X78488Y122382D01*
X79103Y122505D01*
X79624Y122853D01*
X88222Y131451D01*
X88722Y131244D01*
Y131118D01*
X88825Y130604D01*
X89116Y130167D01*
X89552Y129876D01*
X89844Y129818D01*
Y129308D01*
X89552Y129250D01*
X89116Y128959D01*
X88825Y128522D01*
X88722Y128008D01*
Y127181D01*
X88825Y126666D01*
X88862Y126610D01*
X88825Y126554D01*
X88722Y126039D01*
Y125213D01*
X88825Y124698D01*
X88862Y124642D01*
X88825Y124585D01*
X88722Y124071D01*
Y123244D01*
X88825Y122729D01*
X88862Y122673D01*
X88825Y122617D01*
X88722Y122102D01*
Y121276D01*
X88825Y120761D01*
X88862Y120705D01*
X88825Y120648D01*
X88722Y120134D01*
Y119307D01*
X88825Y118792D01*
X88862Y118736D01*
X88825Y118680D01*
X88722Y118165D01*
Y117339D01*
X88825Y116824D01*
X89116Y116388D01*
X89552Y116096D01*
X90067Y115994D01*
X95933D01*
X96448Y116096D01*
X96884Y116388D01*
X97175Y116824D01*
X97278Y117339D01*
Y118165D01*
X97175Y118680D01*
X97138Y118736D01*
X97175Y118792D01*
X97278Y119307D01*
Y120134D01*
X97175Y120648D01*
X97138Y120705D01*
X97175Y120761D01*
X97278Y121276D01*
Y122102D01*
X97175Y122617D01*
X97138Y122673D01*
X97175Y122729D01*
X97278Y123244D01*
Y124020D01*
X99626D01*
X99626Y124020D01*
X99727Y124040D01*
X99883Y123897D01*
X100080Y123601D01*
X99977Y123083D01*
X99977Y123082D01*
Y114661D01*
X99927Y114585D01*
X99825Y114071D01*
Y111006D01*
X99819Y110980D01*
X99819Y110980D01*
Y107628D01*
X91368Y99176D01*
X88075D01*
Y101055D01*
X83047D01*
X80207Y103896D01*
X79491Y104374D01*
X79016Y104469D01*
X78852Y105011D01*
X79003Y105162D01*
X79362Y106030D01*
Y106970D01*
X79003Y107838D01*
X78338Y108503D01*
X77470Y108862D01*
X76530D01*
X75662Y108503D01*
X75398Y108238D01*
X74898Y108426D01*
Y109067D01*
X67024D01*
Y104264D01*
Y99933D01*
Y95602D01*
Y91272D01*
Y86941D01*
X74898D01*
Y87894D01*
X75765D01*
X76162Y87497D01*
X77030Y87138D01*
X77970D01*
X78838Y87497D01*
X79425Y88085D01*
X79791Y88004D01*
X79925Y87931D01*
Y85067D01*
X77591Y82733D01*
X77112Y82017D01*
X76944Y81172D01*
Y47954D01*
X77112Y47109D01*
X77591Y46393D01*
X83289Y40694D01*
Y30667D01*
X83457Y29822D01*
X83936Y29106D01*
X88068Y24974D01*
X88784Y24496D01*
X89629Y24328D01*
X116425D01*
Y23071D01*
X124575D01*
Y24328D01*
X126425D01*
Y24071D01*
X134575D01*
Y31000D01*
X126425D01*
Y29382D01*
X125730Y28917D01*
X125555Y28743D01*
X124575D01*
Y30000D01*
X116425D01*
Y28743D01*
X103372D01*
X103116Y29243D01*
X103455Y29750D01*
X103623Y30595D01*
Y44036D01*
X107652Y48065D01*
X107656Y48071D01*
X112075D01*
Y49294D01*
X114425D01*
Y47571D01*
X122575D01*
Y49792D01*
X157000D01*
X157845Y49960D01*
X158561Y50439D01*
X168990Y60868D01*
X169469Y61584D01*
X169637Y62429D01*
Y84035D01*
X169709Y84107D01*
X169787Y84224D01*
X169788Y84225D01*
X169906Y84303D01*
X170202Y84599D01*
X171803D01*
X172016Y84642D01*
X173850D01*
Y84605D01*
X174210Y83737D01*
X174874Y83072D01*
X175743Y82713D01*
X176682D01*
X177551Y83072D01*
X178215Y83737D01*
X178575Y84605D01*
Y85545D01*
X178215Y86413D01*
X177551Y87077D01*
X176682Y87437D01*
X175743D01*
X175425Y87847D01*
Y89760D01*
Y94411D01*
X175604Y94530D01*
X176373Y95300D01*
X176373Y95300D01*
X176721Y95820D01*
X176844Y96435D01*
X176844Y96435D01*
Y98381D01*
X176981Y98529D01*
X177294Y98735D01*
X177530Y98638D01*
X178470D01*
X179338Y98997D01*
X180003Y99662D01*
X180362Y100530D01*
Y101470D01*
X180003Y102338D01*
X179338Y103003D01*
X178470Y103362D01*
X177909D01*
X176987Y104284D01*
X176466Y104632D01*
X175851Y104754D01*
X175830Y104765D01*
X175787Y104969D01*
X176190Y105469D01*
X176682D01*
X177551Y105828D01*
X178215Y106493D01*
X178575Y107361D01*
Y108301D01*
X178215Y109169D01*
X177551Y109833D01*
X176682Y110193D01*
X175743D01*
X174874Y109833D01*
X174210Y109169D01*
X173850Y108301D01*
Y108264D01*
X168707D01*
X168470Y108362D01*
X167530D01*
X166662Y108003D01*
X166037Y107378D01*
X165853Y107399D01*
X165537Y107531D01*
Y150571D01*
X171075D01*
Y157500D01*
X163227D01*
X158691Y162037D01*
X158170Y162385D01*
X157555Y162507D01*
X157555Y162507D01*
X157231D01*
X156920Y162715D01*
X156629Y162773D01*
Y163282D01*
X156920Y163340D01*
X157356Y163632D01*
X157648Y164068D01*
X157750Y164583D01*
Y165409D01*
X157648Y165924D01*
X157356Y166360D01*
X156920Y166652D01*
X156405Y166754D01*
X150539D01*
X150025Y166652D01*
X149589Y166360D01*
X149328Y165970D01*
X148935Y165708D01*
X148935Y165708D01*
X148273Y165045D01*
X147924Y164524D01*
X147802Y163910D01*
X147802Y163910D01*
Y161597D01*
X119811Y133606D01*
X107735D01*
X107606Y133735D01*
Y147487D01*
X107483Y148101D01*
X107135Y148622D01*
X107135Y148622D01*
X101220Y154538D01*
Y168087D01*
X101270Y168163D01*
X101328Y168453D01*
X101838D01*
X101895Y168163D01*
X102187Y167726D01*
X102623Y167435D01*
X103138Y167332D01*
X103965D01*
X104479Y167435D01*
X104535Y167472D01*
X104592Y167435D01*
X105106Y167332D01*
X105933D01*
X106448Y167435D01*
X106504Y167472D01*
X106560Y167435D01*
X107075Y167332D01*
X107902D01*
X108416Y167435D01*
X108472Y167472D01*
X108529Y167435D01*
X109043Y167332D01*
X109870D01*
X110385Y167435D01*
X110441Y167472D01*
X110497Y167435D01*
X111012Y167332D01*
X111839D01*
X112353Y167435D01*
X112409Y167472D01*
X112466Y167435D01*
X112980Y167332D01*
X113807D01*
X114322Y167435D01*
X114378Y167472D01*
X114434Y167435D01*
X114949Y167332D01*
X115776D01*
X116290Y167435D01*
X116347Y167472D01*
X116403Y167435D01*
X116917Y167332D01*
X117744D01*
X118259Y167435D01*
X118315Y167472D01*
X118371Y167435D01*
X118886Y167332D01*
X119713D01*
X120227Y167435D01*
X120283Y167472D01*
X120340Y167435D01*
X120854Y167332D01*
X121681D01*
X122196Y167435D01*
X122252Y167472D01*
X122308Y167435D01*
X122823Y167332D01*
X123650D01*
X124164Y167435D01*
X124221Y167472D01*
X124277Y167435D01*
X124791Y167332D01*
X125618D01*
X126133Y167435D01*
X126189Y167472D01*
X126245Y167435D01*
X126760Y167332D01*
X127587D01*
X128101Y167435D01*
X128157Y167472D01*
X128214Y167435D01*
X128728Y167332D01*
X129555D01*
X130070Y167435D01*
X130126Y167472D01*
X130182Y167435D01*
X130697Y167332D01*
X131473D01*
Y163847D01*
X131473Y163847D01*
X131595Y163233D01*
X131689Y163093D01*
X131638Y162970D01*
Y162030D01*
X131997Y161162D01*
X132662Y160497D01*
X133530Y160138D01*
X134470D01*
X135338Y160497D01*
X135750Y160909D01*
X136162Y160497D01*
X137030Y160138D01*
X137970D01*
X138838Y160497D01*
X139250Y160909D01*
X139662Y160497D01*
X140530Y160138D01*
X141470D01*
X142338Y160497D01*
X142731Y160890D01*
X143124Y160497D01*
X143992Y160138D01*
X144932D01*
X145800Y160497D01*
X146465Y161162D01*
X146824Y162030D01*
Y162970D01*
X146465Y163838D01*
X145800Y164503D01*
X144932Y164862D01*
X144629D01*
X144527Y164965D01*
Y167332D01*
X145303D01*
X145818Y167435D01*
X145874Y167472D01*
X145930Y167435D01*
X146445Y167332D01*
X147272D01*
X147786Y167435D01*
X148222Y167726D01*
X148514Y168163D01*
X148616Y168677D01*
Y174543D01*
X148514Y175058D01*
X148222Y175494D01*
X147786Y175786D01*
X147272Y175888D01*
X146445D01*
X145930Y175786D01*
X145874Y175748D01*
X145818Y175786D01*
X145303Y175888D01*
X144476D01*
X143962Y175786D01*
X143905Y175748D01*
X143849Y175786D01*
X143335Y175888D01*
X142508D01*
X141993Y175786D01*
X141937Y175748D01*
X141881Y175786D01*
X141366Y175888D01*
X140539D01*
X140025Y175786D01*
X139969Y175748D01*
X139912Y175786D01*
X139398Y175888D01*
X138571D01*
X138056Y175786D01*
X138000Y175748D01*
X137944Y175786D01*
X137429Y175888D01*
X136602D01*
X136088Y175786D01*
X136031Y175748D01*
X135975Y175786D01*
X135461Y175888D01*
X134634D01*
X134119Y175786D01*
X134063Y175748D01*
X134007Y175786D01*
X133492Y175888D01*
X132665D01*
X132151Y175786D01*
X132095Y175748D01*
X132038Y175786D01*
X131524Y175888D01*
X130697D01*
X130182Y175786D01*
X130126Y175748D01*
X130070Y175786D01*
X129555Y175888D01*
X128728D01*
X128214Y175786D01*
X128157Y175748D01*
X128101Y175786D01*
X127587Y175888D01*
X126760D01*
X126245Y175786D01*
X126189Y175748D01*
X126133Y175786D01*
X125618Y175888D01*
X124791D01*
X124277Y175786D01*
X124221Y175748D01*
X124164Y175786D01*
X123650Y175888D01*
X122823D01*
X122308Y175786D01*
X122252Y175748D01*
X122196Y175786D01*
X121681Y175888D01*
X120854D01*
X120340Y175786D01*
X120283Y175748D01*
X120227Y175786D01*
X119713Y175888D01*
X118886D01*
X118371Y175786D01*
X118315Y175748D01*
X118259Y175786D01*
X117744Y175888D01*
X116917D01*
X116403Y175786D01*
X116347Y175748D01*
X116290Y175786D01*
X115776Y175888D01*
X114949D01*
X114845Y175867D01*
X114599Y176328D01*
X118624Y180354D01*
X119490Y180122D01*
X120510D01*
X121497Y180386D01*
X122381Y180897D01*
X123103Y181619D01*
X123551Y182394D01*
X129209D01*
X129929Y181674D01*
Y177055D01*
X136819D01*
Y183945D01*
X132200D01*
X131009Y185135D01*
X130489Y185483D01*
X129874Y185606D01*
X129874Y185606D01*
X123551D01*
X123103Y186381D01*
X122381Y187103D01*
X121497Y187614D01*
X120510Y187878D01*
D02*
G37*
G36*
X26402Y115937D02*
X25598D01*
X24822Y115729D01*
X24126Y115327D01*
X23558Y114759D01*
X23157Y114064D01*
X22949Y113287D01*
Y112484D01*
X23157Y111708D01*
X23558Y111012D01*
X24126Y110444D01*
X24822Y110043D01*
X25598Y109835D01*
X26402D01*
X27178Y110043D01*
X27874Y110444D01*
X28442Y111012D01*
X28843Y111708D01*
X29051Y112484D01*
Y113287D01*
X28843Y114064D01*
X28442Y114759D01*
X27874Y115327D01*
X27178Y115729D01*
X26402Y115937D01*
D02*
G37*
G36*
X57181Y128460D02*
X41236D01*
X40775Y128368D01*
X40385Y128107D01*
X40124Y127717D01*
X40032Y127256D01*
Y87098D01*
X40124Y86638D01*
X40385Y86247D01*
X40775Y85986D01*
X41236Y85894D01*
X57181D01*
X57642Y85986D01*
X58033Y86247D01*
X58294Y86638D01*
X58385Y87098D01*
Y127256D01*
X58294Y127717D01*
X58033Y128107D01*
X57642Y128368D01*
X57181Y128460D01*
D02*
G37*
G36*
X26402Y89165D02*
X25598D01*
X24822Y88957D01*
X24126Y88556D01*
X23558Y87988D01*
X23157Y87292D01*
X22949Y86516D01*
Y85712D01*
X23157Y84936D01*
X23558Y84241D01*
X24126Y83673D01*
X24822Y83271D01*
X25598Y83063D01*
X26402D01*
X27178Y83271D01*
X27874Y83673D01*
X28442Y84241D01*
X28843Y84936D01*
X29051Y85712D01*
Y86516D01*
X28843Y87292D01*
X28442Y87988D01*
X27874Y88556D01*
X27178Y88957D01*
X26402Y89165D01*
D02*
G37*
G36*
X73470Y61862D02*
X72530D01*
X71662Y61503D01*
X70997Y60838D01*
X70638Y59970D01*
Y59030D01*
X70997Y58162D01*
X71093Y58066D01*
Y57942D01*
X70225Y57075D01*
X65468D01*
Y52542D01*
X58863Y45937D01*
X52866D01*
Y38063D01*
X61134D01*
Y43666D01*
X66393Y48925D01*
X72398D01*
Y54706D01*
X73834Y56142D01*
X74182Y56663D01*
X74304Y57277D01*
X74304Y57278D01*
Y57483D01*
X74338Y57497D01*
X75003Y58162D01*
X75362Y59030D01*
Y59970D01*
X75003Y60838D01*
X74338Y61503D01*
X73470Y61862D01*
D02*
G37*
G36*
X103991Y11121D02*
X92009D01*
X91397Y11000D01*
X90878Y10653D01*
X90532Y10135D01*
X90410Y9523D01*
Y5139D01*
X90532Y4527D01*
X90878Y4008D01*
X91397Y3662D01*
X92009Y3540D01*
X103991D01*
X104603Y3662D01*
X105122Y4008D01*
X105468Y4527D01*
X105590Y5139D01*
Y9523D01*
X105468Y10135D01*
X105122Y10653D01*
X104603Y11000D01*
X103991Y11121D01*
D02*
G37*
%LPD*%
G36*
X113389Y179660D02*
X110290Y176561D01*
X109942Y176040D01*
X109870Y175888D01*
X109043D01*
X108529Y175786D01*
X108472Y175748D01*
X108416Y175786D01*
X107902Y175888D01*
X107075D01*
X106560Y175786D01*
X106504Y175748D01*
X106448Y175786D01*
X105933Y175888D01*
X105106D01*
X104592Y175786D01*
X104535Y175748D01*
X104479Y175786D01*
X103965Y175888D01*
X103138D01*
X102623Y175786D01*
X102187Y175494D01*
X101922Y175098D01*
X101690Y175037D01*
X101375Y175004D01*
X101220Y175222D01*
Y176449D01*
X103665Y178894D01*
X106500D01*
X106500Y178894D01*
X107115Y179017D01*
X107635Y179365D01*
X108393Y180122D01*
X113198D01*
X113389Y179660D01*
D02*
G37*
G36*
X102394Y135735D02*
X101997Y135338D01*
X101638Y134470D01*
Y133908D01*
X96929Y129200D01*
X96523D01*
X96448Y129250D01*
X96156Y129308D01*
Y129818D01*
X96448Y129876D01*
X96884Y130167D01*
X97175Y130604D01*
X97278Y131118D01*
Y131945D01*
X97175Y132460D01*
X97138Y132516D01*
X97175Y132572D01*
X97278Y133087D01*
Y133913D01*
X97175Y134428D01*
X97138Y134484D01*
X97175Y134541D01*
X97278Y135055D01*
Y135882D01*
X97175Y136397D01*
X97138Y136453D01*
X97175Y136509D01*
X97278Y137024D01*
Y137847D01*
X97812D01*
X98162Y137497D01*
X99030Y137138D01*
X99970D01*
X100838Y137497D01*
X101503Y138162D01*
X101862Y139030D01*
Y139970D01*
X101503Y140838D01*
X100838Y141503D01*
X99970Y141862D01*
X99030D01*
X98162Y141503D01*
X97778Y141119D01*
X97278Y141203D01*
Y141787D01*
X97175Y142302D01*
X97138Y142358D01*
X97175Y142415D01*
X97278Y142929D01*
Y143705D01*
X102394D01*
Y135735D01*
D02*
G37*
G36*
X140025Y106962D02*
X140539Y106860D01*
X141316D01*
Y105929D01*
X137425D01*
Y99000D01*
X145253D01*
Y86496D01*
X145253Y86496D01*
X145375Y85882D01*
X145723Y85361D01*
X156965Y74119D01*
Y69697D01*
X156965D01*
Y69303D01*
X156965D01*
Y67562D01*
X149335D01*
X148071Y68826D01*
Y73445D01*
X141181D01*
Y66555D01*
X145800D01*
X147534Y64821D01*
X148055Y64473D01*
X148669Y64351D01*
X156965D01*
Y62610D01*
X163835D01*
X164026Y62148D01*
X156086Y54208D01*
X122575D01*
Y54500D01*
X114425D01*
Y53710D01*
X112075D01*
Y55000D01*
X103925D01*
Y50583D01*
X99854Y46512D01*
X99375Y45795D01*
X99207Y44950D01*
Y37458D01*
X98082D01*
X92370Y43170D01*
X91653Y43649D01*
X90808Y43817D01*
X86412D01*
X81360Y48869D01*
Y80257D01*
X83047Y81945D01*
X88075D01*
Y88914D01*
X86208D01*
Y94086D01*
X88075D01*
Y95965D01*
X92033D01*
X92033Y95965D01*
X92647Y96087D01*
X93168Y96435D01*
X100094Y103362D01*
X100594Y103155D01*
Y101054D01*
X100179Y100776D01*
X99970Y100862D01*
X99030D01*
X98162Y100503D01*
X97497Y99838D01*
X97138Y98970D01*
Y98030D01*
X97497Y97162D01*
X98162Y96497D01*
X99030Y96138D01*
X99970D01*
X100179Y96224D01*
X100594Y95947D01*
Y95913D01*
X104789D01*
X104886Y95972D01*
X105032Y96051D01*
X105181Y96122D01*
X105319Y96180D01*
Y99150D01*
X107681D01*
Y96193D01*
X107693Y96189D01*
X107843Y96126D01*
X107992Y96055D01*
X108134Y95976D01*
X108239Y95913D01*
X112365D01*
X113030Y95638D01*
X113970D01*
X114838Y95997D01*
X115503Y96662D01*
X115862Y97530D01*
Y98470D01*
X115534Y99263D01*
X115608Y99553D01*
X115735Y99813D01*
X116047Y99875D01*
X116475Y100161D01*
X116530Y100138D01*
X117470D01*
X117694Y99988D01*
Y93890D01*
X117465D01*
Y87303D01*
X117465Y87197D01*
Y86803D01*
X117465Y86697D01*
Y82609D01*
X113800Y78945D01*
X109181D01*
Y72055D01*
X116071D01*
Y76674D01*
X119476Y80079D01*
X119728D01*
X119728Y80079D01*
X119884Y80110D01*
X125535D01*
Y86697D01*
X125535Y86803D01*
Y87197D01*
X125535Y87303D01*
Y93890D01*
X120905D01*
Y106860D01*
X121681D01*
X122196Y106962D01*
X122252Y107000D01*
X122308Y106962D01*
X122823Y106860D01*
X123650D01*
X124164Y106962D01*
X124221Y107000D01*
X124277Y106962D01*
X124791Y106860D01*
X125618D01*
X126133Y106962D01*
X126189Y107000D01*
X126245Y106962D01*
X126760Y106860D01*
X127587D01*
X128101Y106962D01*
X128157Y107000D01*
X128214Y106962D01*
X128728Y106860D01*
X129555D01*
X130070Y106962D01*
X130126Y107000D01*
X130182Y106962D01*
X130697Y106860D01*
X131524D01*
X132038Y106962D01*
X132095Y107000D01*
X132151Y106962D01*
X132665Y106860D01*
X133492D01*
X134007Y106962D01*
X134063Y107000D01*
X134119Y106962D01*
X134634Y106860D01*
X135461D01*
X135975Y106962D01*
X136031Y107000D01*
X136088Y106962D01*
X136602Y106860D01*
X137429D01*
X137944Y106962D01*
X138000Y107000D01*
X138056Y106962D01*
X138571Y106860D01*
X139398D01*
X139912Y106962D01*
X139969Y107000D01*
X140025Y106962D01*
D02*
G37*
G36*
X149246Y157791D02*
X149195Y157535D01*
Y156709D01*
X149297Y156194D01*
X149335Y156138D01*
X149297Y156082D01*
X149195Y155567D01*
Y154740D01*
X149297Y154226D01*
X149335Y154169D01*
X149297Y154113D01*
X149195Y153598D01*
Y152772D01*
X149297Y152257D01*
X149335Y152201D01*
X149297Y152145D01*
X149195Y151630D01*
Y150803D01*
X149297Y150289D01*
X149157Y149796D01*
X148835Y149612D01*
X148695Y149593D01*
X148562Y149682D01*
X148023Y149789D01*
X148003Y149838D01*
X147338Y150503D01*
X146470Y150862D01*
X145530D01*
X144662Y150503D01*
X143997Y149838D01*
X143638Y148970D01*
Y148030D01*
X143997Y147162D01*
X144244Y146915D01*
X144162Y146503D01*
X143497Y145838D01*
X143138Y144970D01*
Y144030D01*
X143497Y143162D01*
X144162Y142497D01*
X145030Y142138D01*
X145970D01*
X146838Y142497D01*
X147503Y143162D01*
X147668Y143561D01*
X147825Y143666D01*
X147864Y143705D01*
X149195D01*
Y142929D01*
X149297Y142415D01*
X149335Y142358D01*
X149297Y142302D01*
X149195Y141787D01*
Y140961D01*
X149297Y140446D01*
X149335Y140390D01*
X149297Y140334D01*
X149195Y139819D01*
Y138992D01*
X149297Y138478D01*
X149335Y138421D01*
X149297Y138365D01*
X149195Y137850D01*
Y137024D01*
X149297Y136509D01*
X149335Y136453D01*
X149297Y136397D01*
X149195Y135882D01*
Y135055D01*
X149297Y134541D01*
X149335Y134484D01*
X149297Y134428D01*
X149195Y133913D01*
Y133087D01*
X149297Y132572D01*
X149335Y132516D01*
X149297Y132460D01*
X149195Y131945D01*
Y131118D01*
X149297Y130604D01*
X149335Y130547D01*
X149297Y130491D01*
X149195Y129976D01*
Y129150D01*
X149297Y128635D01*
X149335Y128579D01*
X149297Y128522D01*
X149195Y128008D01*
Y127181D01*
X149297Y126666D01*
X149335Y126610D01*
X149297Y126554D01*
X149195Y126039D01*
Y125213D01*
X149297Y124698D01*
X149335Y124642D01*
X149297Y124585D01*
X149195Y124071D01*
Y123244D01*
X149297Y122729D01*
X149335Y122673D01*
X149297Y122617D01*
X149195Y122102D01*
Y121276D01*
X149297Y120761D01*
X149335Y120705D01*
X149297Y120648D01*
X149195Y120134D01*
Y119307D01*
X149297Y118792D01*
X149335Y118736D01*
X149297Y118680D01*
X149195Y118165D01*
Y117339D01*
X149297Y116824D01*
X149589Y116388D01*
X150025Y116096D01*
X150539Y115994D01*
X156405D01*
X156920Y116096D01*
X157356Y116388D01*
X157648Y116824D01*
X157750Y117339D01*
Y118165D01*
X157648Y118680D01*
X157610Y118736D01*
X157648Y118792D01*
X157750Y119307D01*
Y120134D01*
X157648Y120648D01*
X157610Y120705D01*
X157648Y120761D01*
X157750Y121276D01*
Y122102D01*
X157648Y122617D01*
X157610Y122673D01*
X157648Y122729D01*
X157750Y123244D01*
Y124071D01*
X157648Y124585D01*
X157610Y124642D01*
X157648Y124698D01*
X157750Y125213D01*
Y126039D01*
X157648Y126554D01*
X157610Y126610D01*
X157648Y126666D01*
X157750Y127181D01*
Y128008D01*
X157648Y128522D01*
X157610Y128579D01*
X157648Y128635D01*
X157750Y129150D01*
Y129976D01*
X157648Y130491D01*
X157610Y130547D01*
X157648Y130604D01*
X157750Y131118D01*
Y131945D01*
X157648Y132460D01*
X157610Y132516D01*
X157648Y132572D01*
X157750Y133087D01*
Y133913D01*
X157648Y134428D01*
X157610Y134484D01*
X157648Y134541D01*
X157750Y135055D01*
Y135882D01*
X157648Y136397D01*
X157610Y136453D01*
X157648Y136509D01*
X157750Y137024D01*
Y137850D01*
X157648Y138365D01*
X157610Y138421D01*
X157648Y138478D01*
X157750Y138992D01*
Y139819D01*
X157648Y140334D01*
X157610Y140390D01*
X157648Y140446D01*
X157750Y140961D01*
Y141787D01*
X157648Y142302D01*
X157610Y142358D01*
X157648Y142415D01*
X157750Y142929D01*
Y143756D01*
X157648Y144271D01*
X157610Y144327D01*
X157648Y144383D01*
X157750Y144898D01*
Y145724D01*
X157648Y146239D01*
X157610Y146295D01*
X157648Y146352D01*
X157750Y146866D01*
Y147693D01*
X157648Y148208D01*
X157610Y148264D01*
X157648Y148320D01*
X157750Y148835D01*
Y149661D01*
X157648Y150176D01*
X157610Y150232D01*
X157648Y150289D01*
X157750Y150803D01*
Y151630D01*
X157648Y152145D01*
X158070Y152389D01*
X158191Y152426D01*
X160751Y149865D01*
Y104599D01*
X160751Y104599D01*
X160798Y104362D01*
X160473Y103899D01*
X160400Y103862D01*
X160030D01*
X159162Y103503D01*
X158497Y102838D01*
X158138Y101970D01*
Y101030D01*
X158301Y100636D01*
X158263Y100442D01*
X158263Y100442D01*
Y94325D01*
X158263Y94325D01*
X158385Y93710D01*
X158733Y93189D01*
X160516Y91407D01*
X160324Y90945D01*
X159555D01*
Y84055D01*
X165221D01*
Y76813D01*
X165035Y76390D01*
X159235D01*
X148464Y87161D01*
Y107615D01*
X148514Y107690D01*
X148616Y108205D01*
Y114071D01*
X148514Y114585D01*
X148306Y114896D01*
Y117299D01*
X148184Y117914D01*
X147836Y118435D01*
X146135Y120135D01*
X145615Y120483D01*
X145000Y120606D01*
X145000Y120606D01*
X135249D01*
X135249Y120606D01*
X134634Y120483D01*
X134113Y120135D01*
X133840Y119862D01*
X133408D01*
X122009Y131262D01*
X148785Y158038D01*
X149246Y157791D01*
D02*
G37*
%LPC*%
G36*
X106539Y95358D02*
X106461D01*
Y95213D01*
X106358Y95209D01*
X106256Y95201D01*
X106154Y95189D01*
X106051Y95169D01*
X105953Y95146D01*
X105850Y95118D01*
X105756Y95083D01*
X105661Y95043D01*
X105567Y95000D01*
X105476Y94949D01*
X105390Y94894D01*
X105303Y94839D01*
X105220Y94776D01*
X105142Y94709D01*
X105067Y94638D01*
X104996Y94563D01*
X104929Y94484D01*
X104866Y94402D01*
X104811Y94315D01*
X104756Y94228D01*
X104705Y94138D01*
X104661Y94043D01*
X104622Y93949D01*
X104587Y93854D01*
X104559Y93752D01*
X104535Y93654D01*
X104516Y93551D01*
X104504Y93449D01*
X104496Y93347D01*
X104492Y93244D01*
Y93165D01*
X104496Y93059D01*
X104504Y92957D01*
X104516Y92850D01*
X104535Y92748D01*
X104559Y92646D01*
X104591Y92543D01*
X104626Y92445D01*
X104665Y92350D01*
X104713Y92252D01*
X104760Y92161D01*
X104815Y92071D01*
X104874Y91984D01*
X104941Y91902D01*
X105008Y91823D01*
X105079Y91744D01*
X105157Y91673D01*
X105236Y91606D01*
X105319Y91539D01*
X105405Y91480D01*
X105496Y91425D01*
X105587Y91378D01*
X105685Y91331D01*
X105780Y91291D01*
X105878Y91256D01*
X105980Y91224D01*
X106083Y91201D01*
X106185Y91181D01*
X106291Y91169D01*
X106394Y91161D01*
X106500Y91158D01*
X106539D01*
X106642Y91161D01*
X106744Y91169D01*
X106846Y91181D01*
X106949Y91201D01*
X107047Y91224D01*
X107150Y91252D01*
X107244Y91287D01*
X107339Y91327D01*
X107433Y91370D01*
X107524Y91421D01*
X107610Y91476D01*
X107697Y91531D01*
X107780Y91594D01*
X107858Y91661D01*
X107933Y91732D01*
X108004Y91807D01*
X108071Y91886D01*
X108134Y91969D01*
X108189Y92055D01*
X108244Y92142D01*
X108295Y92232D01*
X108339Y92327D01*
X108378Y92421D01*
X108413Y92516D01*
X108441Y92618D01*
X108465Y92716D01*
X108484Y92819D01*
X108496Y92921D01*
X108504Y93024D01*
X108508Y93126D01*
Y93244D01*
X108504Y93347D01*
X108496Y93449D01*
X108484Y93551D01*
X108465Y93654D01*
X108441Y93752D01*
X108413Y93854D01*
X108378Y93949D01*
X108339Y94043D01*
X108295Y94138D01*
X108244Y94228D01*
X108189Y94315D01*
X108134Y94402D01*
X108071Y94484D01*
X108004Y94563D01*
X107933Y94638D01*
X107858Y94709D01*
X107780Y94776D01*
X107697Y94839D01*
X107610Y94894D01*
X107524Y94949D01*
X107433Y95000D01*
X107339Y95043D01*
X107244Y95083D01*
X107150Y95118D01*
X107047Y95146D01*
X106949Y95169D01*
X106846Y95189D01*
X106744Y95201D01*
X106642Y95209D01*
X106539Y95213D01*
Y95358D01*
D02*
G37*
%LPD*%
D10*
X70154Y146831D02*
Y150154D01*
X71162Y151162D01*
X80839D01*
X67878Y149500D02*
X69939Y147439D01*
X166921Y160532D02*
X167000D01*
X54468Y156421D02*
Y156500D01*
Y156421D02*
Y156421D01*
X53110Y155063D02*
X54468Y156421D01*
X75500Y167421D02*
X76921Y166000D01*
X82000D01*
X82616Y165384D01*
Y158616D02*
Y165384D01*
Y158616D02*
X90015Y151217D01*
X93000D01*
X80869Y157579D02*
X89200Y149248D01*
X75500Y157579D02*
X80869D01*
X89200Y149248D02*
X93000D01*
X92597Y151217D02*
X93000D01*
X74421Y156500D02*
X75500Y157579D01*
X60531Y156500D02*
X74421D01*
X80839Y151162D02*
X88657Y143343D01*
X85610Y141374D02*
X93000D01*
X82405Y138169D02*
X85610Y141374D01*
X76846Y138169D02*
X82405D01*
X88657Y143343D02*
X93000D01*
X73925Y167421D02*
X75500D01*
X72346Y169000D02*
X73925Y167421D01*
X60531Y169000D02*
X72346D01*
X72909Y141319D02*
Y142241D01*
X74552Y144469D02*
X74878D01*
X72909Y142241D02*
X74091Y143423D01*
Y144007D02*
X74552Y144469D01*
X74878D02*
X76846Y146437D01*
X74091Y143423D02*
Y144007D01*
X76846Y146437D02*
Y146831D01*
X62978Y138000D02*
X67139Y133838D01*
X58032Y138000D02*
X58783Y138751D01*
X58032Y138000D02*
X62978D01*
X70154Y138563D02*
X72909Y141319D01*
X74878Y136201D02*
X76846Y138169D01*
X74878Y135548D02*
Y136201D01*
X73168Y133838D02*
X74878Y135548D01*
X67139Y133838D02*
X73168D01*
X55031Y149500D02*
X67878D01*
X146701Y113815D02*
Y117299D01*
X135249Y119000D02*
X145000D01*
X146701Y117299D01*
X133749Y117500D02*
X135249Y119000D01*
X133500Y117500D02*
X133749D01*
X120500Y130500D02*
X133500Y117500D01*
X146701Y113815D02*
X146858Y113657D01*
Y86496D02*
Y113657D01*
X108000Y129500D02*
X108249D01*
X109249Y130500D02*
X120500D01*
X108249Y129500D02*
X109249Y130500D01*
X149408Y160931D02*
Y163910D01*
X150071Y164572D02*
X150334D01*
X150334Y164573D01*
X150529D01*
X150953Y164996D01*
X153472D01*
X120476Y132000D02*
X149408Y160931D01*
Y163910D02*
X150071Y164572D01*
X106000Y132000D02*
X120476D01*
X146690Y144801D02*
X147199Y145311D01*
X147947Y148199D02*
X148756Y147390D01*
X146000Y148500D02*
X146301Y148199D01*
X147947D01*
X145801Y144801D02*
X146690D01*
X145500Y144500D02*
X145801Y144801D01*
X147199Y145311D02*
X153472D01*
X148756Y147390D02*
X153362D01*
X153472Y147280D01*
X146858Y86496D02*
X160311Y73043D01*
X144890Y111138D02*
X145047Y111295D01*
X143755Y97327D02*
X144890Y98461D01*
Y111138D01*
X142858Y97327D02*
X143755D01*
X141500Y95968D02*
X142858Y97327D01*
X175851Y103149D02*
X178000Y101000D01*
X172194Y103149D02*
X175851D01*
X172000Y103343D02*
X172194Y103149D01*
X160500Y101074D02*
Y101500D01*
X159869Y100442D02*
X160500Y101074D01*
X159869Y94325D02*
Y100442D01*
Y94325D02*
X163000Y91193D01*
Y87500D02*
Y91193D01*
X153472Y155154D02*
X153630Y154996D01*
X162357Y104599D02*
X168290Y98666D01*
X153472Y157122D02*
X153627Y156967D01*
X163932Y105251D02*
X169393Y99790D01*
X173887D02*
X175238Y98439D01*
X171803Y99209D02*
X172000Y99406D01*
X171803Y93697D02*
X172000Y93500D01*
X169393Y99790D02*
X173887D01*
X168594Y91532D02*
X172000D01*
X163126Y97000D02*
X168594Y91532D01*
X116574Y102500D02*
X117000D01*
X115432Y101358D02*
X116574Y102500D01*
X110043Y101358D02*
X115432D01*
X157863Y163028D02*
Y171137D01*
X153000Y176000D02*
X157863Y171137D01*
X147126Y176000D02*
X153000D01*
X142626Y180500D02*
X147126Y176000D01*
X84591Y104429D02*
X96929D01*
X92033Y97571D02*
X101425Y106963D01*
X84000Y97571D02*
X92033D01*
X101425Y106963D02*
Y110980D01*
X101583Y111138D01*
X99500Y107000D02*
Y111024D01*
X99614Y111138D01*
X96929Y104429D02*
X99500Y107000D01*
X99614Y111138D02*
Y115746D01*
X99153Y116207D02*
X99614Y115746D01*
X89598Y116207D02*
X99153D01*
X88935Y116870D02*
X89598Y116207D01*
X88935Y116870D02*
Y128477D01*
X89864Y129405D01*
X92843D01*
X93000Y129563D01*
X101500Y143000D02*
X101675Y142825D01*
Y135260D02*
Y142825D01*
X96135Y129720D02*
X101675Y135260D01*
X93158Y129720D02*
X96135D01*
X93000Y129563D02*
X93158Y129720D01*
X93000Y145311D02*
X103539D01*
X104000Y134000D02*
Y144850D01*
X103000Y155000D02*
Y155426D01*
X101583Y156843D02*
X103000Y155426D01*
X101583Y156843D02*
Y171610D01*
X99574Y148500D02*
X100000D01*
X98353Y147280D02*
X99574Y148500D01*
X93000Y147280D02*
X98353D01*
X103539Y145311D02*
X104000Y144850D01*
X106000Y132000D02*
Y147487D01*
X99614Y153873D02*
X106000Y147487D01*
X99614Y153873D02*
Y171610D01*
X101583Y123083D02*
X108000Y129500D01*
X101583Y111138D02*
Y123083D01*
X97594Y127594D02*
X104000Y134000D01*
X93000Y127594D02*
X97594D01*
X99626Y125626D02*
X106000Y132000D01*
X93000Y125626D02*
X99626D01*
X71118Y89500D02*
X77500D01*
X70961Y89343D02*
X71118Y89500D01*
X68500Y53079D02*
X72699Y57277D01*
X67142Y51563D02*
X69858Y54280D01*
X72699Y59199D02*
X73000Y59500D01*
X72699Y57277D02*
Y59199D01*
X68500Y53000D02*
Y53079D01*
X99453Y139453D02*
X99500Y139500D01*
X93047Y139453D02*
X99453D01*
X93000Y139406D02*
X93047Y139453D01*
X70965Y98000D02*
X77000D01*
X70961Y98004D02*
X70965Y98000D01*
X134000Y162500D02*
Y162926D01*
X133079Y163847D02*
X134000Y162926D01*
X133079Y163847D02*
Y171610D01*
X93000Y139406D02*
X93158Y139248D01*
X121071Y90543D02*
X121500D01*
X119299Y92315D02*
X121071Y90543D01*
X119299Y92315D02*
Y111138D01*
X119728Y81685D02*
X121500Y83457D01*
X118811Y81685D02*
X119728D01*
X112626Y75500D02*
X118811Y81685D01*
X135435Y187691D02*
X142626Y180500D01*
X118471Y187691D02*
X135435D01*
X114544Y183764D02*
X118471Y187691D01*
X114544Y181746D02*
Y183764D01*
X110618Y177819D02*
X114544Y181746D01*
X104813Y177819D02*
X110618D01*
X101740Y174746D02*
X104813Y177819D01*
X101740Y171768D02*
Y174746D01*
X101583Y171610D02*
X101740Y171768D01*
X129874Y184000D02*
X133374Y180500D01*
X120000Y184000D02*
X129874D01*
X71126Y106500D02*
X77000D01*
X70961Y106665D02*
X71126Y106500D01*
X71118Y119500D02*
X78000D01*
X71134Y115500D02*
X78000D01*
X70961Y115327D02*
X71134Y115500D01*
X70961Y119657D02*
X71118Y119500D01*
X71287Y94000D02*
X77500D01*
X70961Y93673D02*
X71287Y94000D01*
X140976Y162524D02*
Y171587D01*
X140953Y171610D02*
X140976Y171587D01*
Y162524D02*
X141000Y162500D01*
X137500D02*
Y162926D01*
X138827Y164253D01*
Y171453D01*
X144462Y162500D02*
Y162759D01*
X142921Y164300D02*
X144462Y162759D01*
X142921Y164300D02*
Y171610D01*
X138827Y171453D02*
X138984Y171610D01*
X160311Y73043D02*
X161000D01*
X141500Y102031D02*
X141563D01*
X142921Y103390D01*
Y111138D01*
X148669Y65957D02*
X161000D01*
X144626Y70000D02*
X148669Y65957D01*
X171803Y95665D02*
X174468D01*
X163932Y105251D02*
Y151183D01*
X156504Y156925D02*
X158189D01*
X175238Y96435D02*
Y98439D01*
X156465Y156965D02*
X156504Y156925D01*
X153630Y156965D02*
X156465D01*
X158189Y156925D02*
X163932Y151183D01*
X171803Y95665D02*
X171803Y95665D01*
X153472Y157122D02*
X153630Y156965D01*
X174468Y95665D02*
X175238Y96435D01*
X168290Y94938D02*
Y98666D01*
X156465Y155311D02*
X156504Y155350D01*
X153472Y155154D02*
X153630Y155311D01*
X156465D01*
X156504Y155350D02*
X157537D01*
X162357Y150531D01*
Y104599D02*
Y150531D01*
X168290Y94938D02*
X168762Y94466D01*
X157555Y160901D02*
X163988Y154469D01*
X162391Y158500D02*
X164968D01*
X157863Y163028D02*
X162391Y158500D01*
X165563Y159095D02*
Y159173D01*
X166921Y160532D01*
X164968Y158500D02*
X165563Y159095D01*
X153630Y160901D02*
X157555D01*
X163988Y154469D02*
X167000D01*
X153472Y161059D02*
X153630Y160901D01*
X168762Y94466D02*
Y96471D01*
X153472Y163028D02*
X157863D01*
X172197Y99209D02*
X174468D01*
X172000Y99406D02*
X172197Y99209D01*
X171803Y93697D02*
X172000Y93500D01*
X169532Y93697D02*
X171803D01*
X168762Y94466D02*
X169532Y93697D01*
X168762Y96471D02*
X169532Y97240D01*
X171803D01*
X172000Y97437D01*
X171803Y95665D02*
X172000Y95469D01*
X66760Y51563D02*
X67142D01*
X57197Y42000D02*
X66760Y51563D01*
X57000Y42000D02*
X57197D01*
X78488Y123988D02*
X88000Y133500D01*
X93000D01*
X70961Y123988D02*
X78488D01*
X107133Y101991D02*
Y103030D01*
X107488Y103385D01*
X106500Y101358D02*
X107133Y101991D01*
X107488Y103385D02*
Y111138D01*
X109457Y106470D02*
Y111138D01*
Y106470D02*
X110500Y105426D01*
Y105000D02*
Y105426D01*
X110043Y98122D02*
X110104Y98061D01*
X113439D01*
X113500Y98000D01*
X102768Y98311D02*
X102957Y98122D01*
X99689Y98311D02*
X102768D01*
X99500Y98500D02*
X99689Y98311D01*
X105150Y105500D02*
X105362Y105712D01*
Y110980D01*
X105520Y111138D01*
X102848Y101467D02*
Y106348D01*
X103551Y107051D01*
Y111138D01*
X102848Y101467D02*
X102957Y101358D01*
X99614Y177114D02*
X103000Y180500D01*
X99614Y171610D02*
Y177114D01*
X106500Y180500D02*
X110000Y184000D01*
X103000Y180500D02*
X106500D01*
X111425Y175425D02*
X120000Y184000D01*
X111425Y171610D02*
Y175425D01*
X53031Y155063D02*
X53110D01*
D14*
X130500Y34465D02*
D03*
Y27535D02*
D03*
X118500Y57965D02*
D03*
Y51035D02*
D03*
X167000Y154035D02*
D03*
Y160965D02*
D03*
X141500Y102465D02*
D03*
Y95535D02*
D03*
X108000Y58465D02*
D03*
Y51535D02*
D03*
X120500Y33465D02*
D03*
Y26535D02*
D03*
D15*
X54035Y169000D02*
D03*
X60965D02*
D03*
X54035Y156500D02*
D03*
X60965D02*
D03*
X51535Y138000D02*
D03*
X58465D02*
D03*
X48535Y149500D02*
D03*
X55465D02*
D03*
X62004Y53000D02*
D03*
X68933D02*
D03*
D16*
X144626Y70000D02*
D03*
X135374D02*
D03*
X153748Y87500D02*
D03*
X163000D02*
D03*
X163126Y97000D02*
D03*
X153874D02*
D03*
X103374Y75500D02*
D03*
X112626D02*
D03*
X142626Y180500D02*
D03*
X133374D02*
D03*
D17*
X172000Y83854D02*
D03*
Y87004D02*
D03*
Y105902D02*
D03*
Y109051D02*
D03*
D18*
Y95469D02*
D03*
Y93500D02*
D03*
Y91532D02*
D03*
Y89563D02*
D03*
Y97437D02*
D03*
Y99406D02*
D03*
Y101374D02*
D03*
Y103343D02*
D03*
D19*
X161000Y65957D02*
D03*
Y73043D02*
D03*
X121500Y83457D02*
D03*
Y90543D02*
D03*
D20*
X57000Y42000D02*
D03*
X41500D02*
D03*
D21*
X75500Y167421D02*
D03*
Y157579D02*
D03*
D22*
X84000Y85429D02*
D03*
Y78571D02*
D03*
Y97571D02*
D03*
Y104429D02*
D03*
D24*
X70961Y89343D02*
D03*
Y93673D02*
D03*
Y98004D02*
D03*
Y102335D02*
D03*
Y106665D02*
D03*
Y110996D02*
D03*
Y115327D02*
D03*
Y119657D02*
D03*
Y123988D02*
D03*
D25*
X27654Y129421D02*
D03*
X63087D02*
D03*
Y65839D02*
D03*
X27654D02*
D03*
D26*
X99614Y111138D02*
D03*
X101583D02*
D03*
X103551D02*
D03*
X105520D02*
D03*
X107488D02*
D03*
X109457D02*
D03*
X111425D02*
D03*
X113394D02*
D03*
X115362D02*
D03*
X117331D02*
D03*
X119299D02*
D03*
X121268D02*
D03*
X123236D02*
D03*
X125205D02*
D03*
X127173D02*
D03*
X129142D02*
D03*
X131110D02*
D03*
X133079D02*
D03*
X135047D02*
D03*
X137016D02*
D03*
X138984D02*
D03*
X140953D02*
D03*
X142921D02*
D03*
X144890D02*
D03*
X146858D02*
D03*
Y171610D02*
D03*
X144890D02*
D03*
X142921D02*
D03*
X140953D02*
D03*
X138984D02*
D03*
X137016D02*
D03*
X135047D02*
D03*
X133079D02*
D03*
X131110D02*
D03*
X129142D02*
D03*
X127173D02*
D03*
X125205D02*
D03*
X123236D02*
D03*
X121268D02*
D03*
X119299D02*
D03*
X117331D02*
D03*
X115362D02*
D03*
X113394D02*
D03*
X111425D02*
D03*
X109457D02*
D03*
X107488D02*
D03*
X105520D02*
D03*
X103551D02*
D03*
X101583D02*
D03*
X99614D02*
D03*
D27*
X93000Y164996D02*
D03*
Y163028D02*
D03*
Y161059D02*
D03*
Y159091D02*
D03*
Y157122D02*
D03*
Y155154D02*
D03*
Y153185D02*
D03*
Y151217D02*
D03*
Y149248D02*
D03*
Y147280D02*
D03*
Y145311D02*
D03*
Y143343D02*
D03*
Y141374D02*
D03*
Y139406D02*
D03*
Y137437D02*
D03*
Y135469D02*
D03*
Y133500D02*
D03*
Y131532D02*
D03*
Y129563D02*
D03*
Y127594D02*
D03*
Y125626D02*
D03*
Y123657D02*
D03*
Y121689D02*
D03*
Y119720D02*
D03*
Y117752D02*
D03*
X153472D02*
D03*
Y119720D02*
D03*
Y121689D02*
D03*
Y123657D02*
D03*
Y125626D02*
D03*
Y127594D02*
D03*
Y129563D02*
D03*
Y131532D02*
D03*
Y133500D02*
D03*
Y135469D02*
D03*
Y137437D02*
D03*
Y139406D02*
D03*
Y141374D02*
D03*
Y143343D02*
D03*
Y145311D02*
D03*
Y147280D02*
D03*
Y149248D02*
D03*
Y151217D02*
D03*
Y153185D02*
D03*
Y155154D02*
D03*
Y157122D02*
D03*
Y159091D02*
D03*
Y161059D02*
D03*
Y163028D02*
D03*
Y164996D02*
D03*
D28*
X70154Y146831D02*
D03*
Y138169D02*
D03*
X76846D02*
D03*
Y146831D02*
D03*
D29*
X107016Y33669D02*
D03*
X98000D02*
D03*
X88984D02*
D03*
D30*
X98000Y7331D02*
D03*
D55*
X102957Y101358D02*
D03*
Y98122D02*
D03*
X110043D02*
D03*
Y101358D02*
D03*
X106500D02*
D03*
D56*
X106439Y90555D02*
D03*
D57*
X60527Y65839D02*
X62437Y63929D01*
X48968Y141079D02*
Y154468D01*
X103374Y75500D02*
Y87329D01*
X102500Y63354D02*
Y74626D01*
X102571Y58465D02*
X108000D01*
X101607Y57500D02*
X102571Y58465D01*
X101500Y57500D02*
X101607D01*
X107000Y44000D02*
X108000D01*
X107000D02*
X107016Y43984D01*
Y33669D02*
Y43984D01*
X102500Y74626D02*
X103374Y75500D01*
Y70681D02*
Y75500D01*
X102500Y63354D02*
X107390Y58465D01*
X117201Y59264D02*
X118500Y57965D01*
X103374Y70681D02*
X114791Y59264D01*
X117201D01*
X167429Y62429D02*
Y84949D01*
X157000Y52000D02*
X167429Y62429D01*
X119465Y52000D02*
X157000D01*
X168148Y85819D02*
X168269Y85940D01*
X167429Y84949D02*
X168148Y85668D01*
X168269Y85940D02*
Y86047D01*
X168148Y85668D02*
Y85819D01*
X168269Y86047D02*
X168345Y86122D01*
Y85865D02*
X169287Y86807D01*
X118500Y51035D02*
X119465Y52000D01*
X118500Y51469D02*
X118579D01*
X107423Y51502D02*
X118467D01*
X118500Y51469D01*
X141500Y95535D02*
Y95968D01*
Y76126D02*
Y95535D01*
X130500Y34031D02*
X130579D01*
X53792Y168324D02*
X54468Y169000D01*
X54468Y156421D02*
X54468Y156421D01*
X53701Y155654D02*
X54468Y156421D01*
X51535Y138000D02*
X51969D01*
X46010D02*
X51535D01*
X48968Y141079D02*
X51969Y138079D01*
Y138000D02*
Y138079D01*
X83409Y104429D02*
Y104429D01*
X62437Y63929D02*
X62500Y63866D01*
X62437Y63929D02*
Y65189D01*
Y63866D02*
Y63929D01*
X61669Y52153D02*
X62437Y52921D01*
Y57500D01*
X85003Y77568D02*
X101306D01*
X103374Y75500D01*
X84000Y78571D02*
X85003Y77568D01*
X107390Y58465D02*
X108000D01*
X51323Y168324D02*
X53792D01*
X48968Y165968D02*
X51323Y168324D01*
X48968Y154468D02*
Y165968D01*
X50153Y155654D02*
X53701D01*
X48968Y154468D02*
X50153Y155654D01*
X54468Y156421D02*
X54468D01*
X174283Y79425D02*
X190701D01*
X27654Y129421D02*
X37431D01*
X51969Y138000D02*
X52608Y137361D01*
X56823Y130602D02*
X61905D01*
X52608Y134818D02*
X56823Y130602D01*
X52608Y134818D02*
Y137361D01*
X37431Y129421D02*
X46010Y138000D01*
X53889Y141996D02*
X62601D01*
X52736Y138768D02*
Y140843D01*
X53889Y141996D01*
X51969Y138000D02*
X52736Y138768D01*
X62601Y141996D02*
X64839Y139758D01*
X68776D01*
X70154Y138380D01*
Y138169D02*
Y138380D01*
X62500Y57500D02*
Y63866D01*
X172945Y83854D02*
X173063D01*
X172000D02*
X172945D01*
Y109051D02*
X173063D01*
X172000D02*
X172945D01*
X118579Y57532D02*
X122906D01*
X121110Y33465D02*
X121394Y33748D01*
X130217D01*
X120783D02*
X121394D01*
X168000Y106000D02*
X168049Y105951D01*
X171951D01*
X172000Y105902D01*
X178858Y110596D02*
X182000Y107454D01*
Y86951D02*
Y107454D01*
X177358Y82310D02*
X182000Y86951D01*
X174608Y110596D02*
X178858D01*
X173063Y109051D02*
X174608Y110596D01*
Y82310D02*
X177358D01*
X173063Y83854D02*
X174608Y82310D01*
X173869Y113480D02*
X174283D01*
X173142Y112753D02*
X173869Y113480D01*
X173142Y109248D02*
Y112753D01*
X172945Y109051D02*
X173142Y109248D01*
X145425Y77425D02*
X145500Y77500D01*
X142799Y77425D02*
X145425D01*
X141500Y76126D02*
X142799Y77425D01*
X155500Y81500D02*
Y81607D01*
X154823Y82284D02*
X155500Y81607D01*
X154823Y82284D02*
Y86425D01*
X153748Y87500D02*
X154823Y86425D01*
X135374Y70000D02*
X141500Y76126D01*
X122906Y57532D02*
X135374Y70000D01*
X89925Y101075D02*
X90000Y101000D01*
X87944Y101075D02*
X89925D01*
X84591Y104429D02*
X87944Y101075D01*
X84000Y104429D02*
X84591D01*
X129809Y27356D02*
X130421Y27968D01*
X129654Y27201D02*
X129809Y27356D01*
X103374Y87329D02*
X106049Y90004D01*
X76843Y110996D02*
X83409Y104429D01*
X70961Y110996D02*
X76843D01*
X83410Y97571D02*
X84000D01*
X78646Y102335D02*
X83410Y97571D01*
X70961Y102335D02*
X78646D01*
X153748Y87500D02*
X153811Y87563D01*
Y96937D01*
X153874Y97000D01*
X173869Y79425D02*
X174283D01*
X173142Y80153D02*
X173869Y79425D01*
X173142Y80153D02*
Y83658D01*
X172945Y83854D02*
X173142Y83658D01*
X169287Y86807D02*
X171803D01*
X172000Y87004D01*
X63000Y129335D02*
X63087Y129421D01*
X63000Y113500D02*
Y129335D01*
Y113500D02*
X65268Y111232D01*
X70724D01*
X70961Y110996D01*
X130421Y27968D02*
X130500D01*
X129654Y27189D02*
Y27201D01*
X127291Y27356D02*
X129809D01*
X120500Y26535D02*
X126470D01*
X120500Y33465D02*
X121110D01*
X89629Y26535D02*
X120500D01*
X126470D02*
X127291Y27356D01*
X85497Y30667D02*
X89629Y26535D01*
X85497Y30667D02*
Y41609D01*
X90808D01*
X130217Y33748D02*
X130500Y34031D01*
X120500Y33465D02*
X120783Y33748D01*
X120398Y33567D02*
X120500Y33465D01*
X107118Y33567D02*
X120398D01*
X107016Y33669D02*
X107118Y33567D01*
X107390Y51535D02*
X107423Y51502D01*
X106091Y50236D02*
X107390Y51535D01*
X106091Y49626D02*
Y50236D01*
X101415Y44950D02*
X106091Y49626D01*
X101415Y30595D02*
Y44950D01*
X100326Y29506D02*
X101415Y30595D01*
X92399Y29506D02*
X100326D01*
X88984Y32921D02*
X92399Y29506D01*
X88984Y32921D02*
Y33669D01*
X83410Y85429D02*
X84000D01*
X79152Y81172D02*
X83410Y85429D01*
X79152Y47954D02*
Y81172D01*
Y47954D02*
X85497Y41609D01*
X90808D02*
X98000Y34417D01*
Y33669D02*
Y34417D01*
X60527Y65839D02*
X63087D01*
X27654D02*
X60527D01*
X62437Y65189D02*
X63087Y65839D01*
X61590Y52153D02*
X61669D01*
X60437Y51000D02*
X61590Y52153D01*
X43000Y51000D02*
X60437D01*
X41500Y49500D02*
X43000Y51000D01*
X41500Y42000D02*
Y49500D01*
X84000Y85429D02*
Y97571D01*
D58*
X110000Y184000D02*
D03*
D59*
X120000D02*
D03*
D60*
X176213Y85075D02*
D03*
Y107831D02*
D03*
X103416Y83712D02*
D03*
X101500Y57500D02*
D03*
X108000Y44000D02*
D03*
X62500Y57500D02*
D03*
X133500Y117500D02*
D03*
X146000Y148500D02*
D03*
X145500Y144500D02*
D03*
X178000Y101000D02*
D03*
X168345Y86122D02*
D03*
X168000Y106000D02*
D03*
X145500Y77500D02*
D03*
X155500Y81500D02*
D03*
X160500Y101500D02*
D03*
X117000Y102500D02*
D03*
X90000Y101000D02*
D03*
X101500Y143000D02*
D03*
X103000Y155000D02*
D03*
X100000Y148500D02*
D03*
X108000Y129500D02*
D03*
X104000Y134000D02*
D03*
X106000Y132000D02*
D03*
X77500Y89500D02*
D03*
X73000Y59500D02*
D03*
X99500Y139500D02*
D03*
X77000Y98000D02*
D03*
X134000Y162500D02*
D03*
X77000Y106500D02*
D03*
X78000Y119500D02*
D03*
Y115500D02*
D03*
X77500Y94000D02*
D03*
X141000Y162500D02*
D03*
X137500D02*
D03*
X144462D02*
D03*
X110500Y105000D02*
D03*
X113500Y98000D02*
D03*
X99500Y98500D02*
D03*
X105150Y105500D02*
D03*
D61*
X174283Y79425D02*
D03*
Y113480D02*
D03*
D62*
X190701Y79425D02*
D03*
Y113480D02*
D03*
D63*
X106500Y93193D02*
D03*
D64*
X26000Y112886D02*
D03*
Y86114D02*
D03*
M02*
