M48
;Layer_Color=9474304
;FILE_FORMAT=2:5
INCH
;TYPE=PLATED
T01F00S00C0.01181
T03F00S00C0.04016
%
T01
X0062500Y0057500
X0073000Y0059500
X0101500Y0057500
X0108000Y0044000
X0103416Y0083712
X0099500Y0098500
X0090000Y0101000
X0077000Y0098000
X0077500Y0094000
Y0089500
X0077000Y0106500
X0078000Y0115500
Y0119500
X0108000Y0129500
X0106000Y0132000
X0104000Y0134000
X0099500Y0139500
X0101500Y0143000
X0100000Y0148500
X0103000Y0155000
X0146000Y0148500
X0145500Y0144500
X0133500Y0117500
X0117000Y0102500
X0113500Y0098000
X0110500Y0105000
X0105150Y0105500
X0145500Y0077500
X0155500Y0081500
X0168345Y0086122
X0168000Y0106000
X0160500Y0101500
X0178000Y0101000
X0144462Y0162500
X0141000
X0137500
X0134000
T03
X0110000Y0184000
X0120000
M30
