G04*
G04 #@! TF.GenerationSoftware,Altium Limited,Altium Designer,25.2.1 (25)*
G04*
G04 Layer_Color=65535*
%FSLAX25Y25*%
%MOIN*%
G70*
G04*
G04 #@! TF.SameCoordinates,231B4DAF-6D27-4D0E-86E8-AA491D90C455*
G04*
G04*
G04 #@! TF.FilePolarity,Positive*
G04*
G01*
G75*
%ADD10C,0.00787*%
%ADD11C,0.00945*%
%ADD12C,0.00500*%
%ADD13C,0.01000*%
D10*
X103433Y184000D02*
G03*
X103433Y184000I-394J0D01*
G01*
X167473Y83854D02*
G03*
X167473Y83854I-394J0D01*
G01*
X161394Y61626D02*
G03*
X161394Y61626I-394J0D01*
G01*
X121894Y79126D02*
G03*
X121894Y79126I-394J0D01*
G01*
X100053Y101315D02*
G03*
X100053Y101315I-394J0D01*
G01*
X86465Y164996D02*
G03*
X86465Y164996I-394J0D01*
G01*
X65232Y146831D02*
G03*
X65232Y146831I-394J0D01*
G01*
X107409Y40185D02*
G03*
X107409Y40185I-394J0D01*
G01*
X158638Y68713D02*
Y70287D01*
X163362Y68713D02*
Y70287D01*
X119138Y86213D02*
Y87787D01*
X123862Y86213D02*
Y87787D01*
X41500Y36500D02*
X56827D01*
X41500Y36583D02*
Y48000D01*
X56827D01*
Y36500D02*
Y43500D01*
Y48000D01*
X10331Y75091D02*
Y127256D01*
X21276D01*
X33874D02*
X56709D01*
X68402Y69185D02*
Y86902D01*
X33874Y68004D02*
X56709D01*
X9346Y75091D02*
X10331D01*
X9346Y70760D02*
Y75091D01*
Y70760D02*
X10331D01*
Y68004D02*
Y70760D01*
Y68004D02*
X21276D01*
D11*
X75685Y86902D02*
G03*
X75685Y86902I-472J0D01*
G01*
D12*
X138898Y67539D02*
X141102D01*
X138898Y72461D02*
X141102D01*
X157272Y89961D02*
X159476D01*
X157272Y85039D02*
X159476D01*
X105598Y179402D02*
Y188598D01*
X124402Y179402D02*
Y188598D01*
X105598D02*
X124402D01*
X105598Y179402D02*
X124402D01*
X157398Y94539D02*
X159602D01*
X157398Y99461D02*
X159602D01*
X179480Y114051D02*
X186094D01*
X195307D02*
X200937D01*
X179480Y78854D02*
X186094D01*
X195307D02*
X200937D01*
Y114051D01*
X106898Y77961D02*
X109102D01*
X106898Y73039D02*
X109102D01*
X78650Y160532D02*
Y164469D01*
X72350Y160532D02*
Y164469D01*
X101283Y102890D02*
X111717D01*
X101283Y89110D02*
Y102890D01*
Y89110D02*
X111717D01*
Y102890D01*
X148669Y113815D02*
X150795D01*
X148669Y168933D02*
X150795D01*
X95677Y113815D02*
X97803D01*
X95677Y168933D02*
X97803D01*
X150795Y113815D02*
Y115941D01*
Y166807D02*
Y168933D01*
X95677Y113815D02*
Y115941D01*
Y166807D02*
Y168933D01*
X136898Y178039D02*
X139102D01*
X136898Y182961D02*
X139102D01*
X78421Y142185D02*
Y142815D01*
X68579Y142185D02*
Y142815D01*
X110805Y13600D02*
Y27400D01*
X85195Y13600D02*
X110805D01*
X85195D02*
Y27400D01*
X110805D01*
X132334Y74000D02*
Y76000D01*
X133334D01*
X133667Y75666D01*
Y75000D01*
X133334Y74667D01*
X132334D01*
X133000D02*
X133667Y74000D01*
X135666Y76000D02*
X134333D01*
Y75000D01*
X135000Y75333D01*
X135333D01*
X135666Y75000D01*
Y74334D01*
X135333Y74000D01*
X134667D01*
X134333Y74334D01*
X107167Y192500D02*
X106500D01*
X106834D01*
Y190834D01*
X106500Y190500D01*
X106167D01*
X105834Y190834D01*
X107833Y192166D02*
X108167Y192500D01*
X108833D01*
X109166Y192166D01*
Y191833D01*
X108833Y191500D01*
X108500D01*
X108833D01*
X109166Y191167D01*
Y190834D01*
X108833Y190500D01*
X108167D01*
X107833Y190834D01*
X101540Y50019D02*
X101207Y49685D01*
Y49019D01*
X101540Y48686D01*
X102873D01*
X103206Y49019D01*
Y49685D01*
X102873Y50019D01*
X101540Y50685D02*
X101207Y51018D01*
Y51685D01*
X101540Y52018D01*
X101873D01*
X102206Y51685D01*
Y51352D01*
Y51685D01*
X102540Y52018D01*
X102873D01*
X103206Y51685D01*
Y51018D01*
X102873Y50685D01*
X118333Y40966D02*
X118000Y41299D01*
X117333D01*
X117000Y40966D01*
Y39633D01*
X117333Y39300D01*
X118000D01*
X118333Y39633D01*
X120332Y39300D02*
X118999D01*
X120332Y40633D01*
Y40966D01*
X119999Y41299D01*
X119333D01*
X118999Y40966D01*
X68000Y155334D02*
X68334D01*
X69000Y156000D01*
X68334Y156667D01*
X68000D01*
X69000Y156000D02*
X70000D01*
Y158666D02*
Y157333D01*
X68667Y158666D01*
X68334D01*
X68000Y158333D01*
Y157667D01*
X68334Y157333D01*
X64600Y155199D02*
Y154866D01*
X65266Y154200D01*
X65933Y154866D01*
Y155199D01*
X65266Y154200D02*
Y153200D01*
X66599D02*
X67266D01*
X66933D01*
Y155199D01*
X66599Y154866D01*
X84600Y45499D02*
Y43833D01*
X84933Y43500D01*
X85600D01*
X85933Y43833D01*
Y45499D01*
X87932Y43500D02*
X86599D01*
X87932Y44833D01*
Y45166D01*
X87599Y45499D01*
X86933D01*
X86599Y45166D01*
X151208Y91500D02*
Y93500D01*
X152208D01*
X152541Y93167D01*
Y92500D01*
X152208Y92167D01*
X151208D01*
X151874D02*
X152541Y91500D01*
X154207D02*
Y93500D01*
X153207Y92500D01*
X154540D01*
X149626Y93834D02*
X147626D01*
Y94834D01*
X147959Y95167D01*
X148626D01*
X148959Y94834D01*
Y93834D01*
Y94500D02*
X149626Y95167D01*
X147959Y95833D02*
X147626Y96166D01*
Y96833D01*
X147959Y97166D01*
X148293D01*
X148626Y96833D01*
Y96500D01*
Y96833D01*
X148959Y97166D01*
X149292D01*
X149626Y96833D01*
Y96166D01*
X149292Y95833D01*
X98500Y74334D02*
X96500D01*
Y75334D01*
X96833Y75667D01*
X97500D01*
X97833Y75334D01*
Y74334D01*
Y75000D02*
X98500Y75667D01*
Y77666D02*
Y76333D01*
X97167Y77666D01*
X96833D01*
X96500Y77333D01*
Y76666D01*
X96833Y76333D01*
X130500Y186500D02*
Y188499D01*
X131500D01*
X131833Y188166D01*
Y187500D01*
X131500Y187167D01*
X130500D01*
X131167D02*
X131833Y186500D01*
X132499D02*
X133166D01*
X132833D01*
Y188499D01*
X132499Y188166D01*
X114457Y103955D02*
X116456D01*
X115790Y103288D01*
X116456Y102622D01*
X114457D01*
X116456Y101955D02*
X114457D01*
X115123D01*
X116456Y100622D01*
X115457Y101622D01*
X114457Y100622D01*
Y99956D02*
Y99290D01*
Y99623D01*
X116456D01*
X116123Y99956D01*
X129433Y41066D02*
X129100Y41399D01*
X128433D01*
X128100Y41066D01*
Y39733D01*
X128433Y39400D01*
X129100D01*
X129433Y39733D01*
X130099Y39400D02*
X130766D01*
X130433D01*
Y41399D01*
X130099Y41066D01*
X131765D02*
X132099Y41399D01*
X132765D01*
X133098Y41066D01*
Y40733D01*
X132765Y40400D01*
X132432D01*
X132765D01*
X133098Y40066D01*
Y39733D01*
X132765Y39400D01*
X132099D01*
X131765Y39733D01*
X112833Y50334D02*
X112500Y50001D01*
Y49334D01*
X112833Y49001D01*
X114166D01*
X114500Y49334D01*
Y50001D01*
X114166Y50334D01*
X114500Y51000D02*
Y51667D01*
Y51333D01*
X112500D01*
X112833Y51000D01*
X114500Y53999D02*
Y52666D01*
X113167Y53999D01*
X112833D01*
X112500Y53666D01*
Y53000D01*
X112833Y52666D01*
X53433Y176066D02*
X53100Y176399D01*
X52433D01*
X52100Y176066D01*
Y174733D01*
X52433Y174400D01*
X53100D01*
X53433Y174733D01*
X54099Y174400D02*
X54766D01*
X54433D01*
Y176399D01*
X54099Y176066D01*
X55765Y174400D02*
X56432D01*
X56099D01*
Y176399D01*
X55765Y176066D01*
X53433Y163566D02*
X53100Y163899D01*
X52433D01*
X52100Y163566D01*
Y162233D01*
X52433Y161900D01*
X53100D01*
X53433Y162233D01*
X54099Y161900D02*
X54766D01*
X54433D01*
Y163899D01*
X54099Y163566D01*
X55765D02*
X56099Y163899D01*
X56765D01*
X57098Y163566D01*
Y162233D01*
X56765Y161900D01*
X56099D01*
X55765Y162233D01*
Y163566D01*
X51167Y143667D02*
X50834Y144000D01*
X50167D01*
X49834Y143667D01*
Y142334D01*
X50167Y142000D01*
X50834D01*
X51167Y142334D01*
X51833D02*
X52166Y142000D01*
X52833D01*
X53166Y142334D01*
Y143667D01*
X52833Y144000D01*
X52166D01*
X51833Y143667D01*
Y143333D01*
X52166Y143000D01*
X53166D01*
X48167Y155666D02*
X47834Y156000D01*
X47167D01*
X46834Y155666D01*
Y154334D01*
X47167Y154000D01*
X47834D01*
X48167Y154334D01*
X48833Y155666D02*
X49167Y156000D01*
X49833D01*
X50166Y155666D01*
Y155333D01*
X49833Y155000D01*
X50166Y154667D01*
Y154334D01*
X49833Y154000D01*
X49167D01*
X48833Y154334D01*
Y154667D01*
X49167Y155000D01*
X48833Y155333D01*
Y155666D01*
X49167Y155000D02*
X49833D01*
X165933Y167566D02*
X165600Y167899D01*
X164933D01*
X164600Y167566D01*
Y166233D01*
X164933Y165900D01*
X165600D01*
X165933Y166233D01*
X166599Y167899D02*
X167932D01*
Y167566D01*
X166599Y166233D01*
Y165900D01*
X136334Y94667D02*
X136000Y94334D01*
Y93667D01*
X136334Y93334D01*
X137666D01*
X138000Y93667D01*
Y94334D01*
X137666Y94667D01*
X136000Y96666D02*
X136334Y96000D01*
X137000Y95333D01*
X137666D01*
X138000Y95666D01*
Y96333D01*
X137666Y96666D01*
X137333D01*
X137000Y96333D01*
Y95333D01*
X81833Y111966D02*
X81500Y112299D01*
X80833D01*
X80500Y111966D01*
Y110633D01*
X80833Y110300D01*
X81500D01*
X81833Y110633D01*
X83832Y112299D02*
X82499D01*
Y111300D01*
X83166Y111633D01*
X83499D01*
X83832Y111300D01*
Y110633D01*
X83499Y110300D01*
X82833D01*
X82499Y110633D01*
X58167Y58166D02*
X57834Y58500D01*
X57167D01*
X56834Y58166D01*
Y56834D01*
X57167Y56500D01*
X57834D01*
X58167Y56834D01*
X59833Y56500D02*
Y58500D01*
X58833Y57500D01*
X60166D01*
X84500Y91667D02*
X84167Y92000D01*
X83500D01*
X83167Y91667D01*
Y90334D01*
X83500Y90000D01*
X84167D01*
X84500Y90334D01*
X85166Y90000D02*
X85833D01*
X85500D01*
Y92000D01*
X85166Y91667D01*
D13*
X86300Y184798D02*
Y179800D01*
X87300Y178800D01*
X89299D01*
X90299Y179800D01*
Y184798D01*
X92298Y178800D02*
X94297D01*
X93298D01*
Y184798D01*
X92298Y183798D01*
X20337Y137833D02*
X19670Y138499D01*
X18337D01*
X17671Y137833D01*
Y137167D01*
X18337Y136500D01*
X19670D01*
X20337Y135834D01*
Y135167D01*
X19670Y134501D01*
X18337D01*
X17671Y135167D01*
X21670Y138499D02*
Y134501D01*
X23669D01*
X24336Y135167D01*
Y137833D01*
X23669Y138499D01*
X21670D01*
X32333Y137833D02*
X31666Y138499D01*
X30334D01*
X29667Y137833D01*
Y135167D01*
X30334Y134501D01*
X31666D01*
X32333Y135167D01*
X34332Y137167D02*
X35665D01*
X36332Y136500D01*
Y134501D01*
X34332D01*
X33666Y135167D01*
X34332Y135834D01*
X36332D01*
X37664Y137167D02*
Y134501D01*
Y135834D01*
X38331Y136500D01*
X38997Y137167D01*
X39664D01*
X44329Y138499D02*
Y134501D01*
X42330D01*
X41663Y135167D01*
Y136500D01*
X42330Y137167D01*
X44329D01*
X169702Y70953D02*
Y68953D01*
Y69953D01*
X174700D01*
X175700Y68953D01*
Y67954D01*
X174700Y66954D01*
X175700Y72952D02*
Y74951D01*
Y73952D01*
X169702D01*
X170701Y72952D01*
X125501Y98286D02*
X129499D01*
Y96287D01*
X128833Y95621D01*
X127500D01*
X126833Y96287D01*
Y98286D01*
Y96953D02*
X125501Y95621D01*
X129499Y91622D02*
Y94288D01*
X125501D01*
Y91622D01*
X127500Y94288D02*
Y92955D01*
X128833Y87623D02*
X129499Y88290D01*
Y89622D01*
X128833Y90289D01*
X128166D01*
X127500Y89622D01*
Y88290D01*
X126833Y87623D01*
X126167D01*
X125501Y88290D01*
Y89622D01*
X126167Y90289D01*
X129499Y86290D02*
X126167D01*
X125501Y85624D01*
Y84291D01*
X126167Y83624D01*
X129499D01*
Y82292D02*
X125501D01*
Y79626D01*
X129499Y78293D02*
Y75627D01*
Y76960D01*
X125501D01*
X155999Y59670D02*
X152001D01*
Y61669D01*
X152667Y62335D01*
X154000D01*
X154666Y61669D01*
Y59670D01*
X152001Y65668D02*
Y64335D01*
X152667Y63668D01*
X155333D01*
X155999Y64335D01*
Y65668D01*
X155333Y66334D01*
X152667D01*
X152001Y65668D01*
Y67667D02*
X155999D01*
X154666Y69000D01*
X155999Y70333D01*
X152001D01*
Y74332D02*
Y71666D01*
X155999D01*
Y74332D01*
X154000Y71666D02*
Y72999D01*
X155999Y75665D02*
X152001D01*
Y77664D01*
X152667Y78330D01*
X154000D01*
X154666Y77664D01*
Y75665D01*
Y76997D02*
X155999Y78330D01*
X44668Y50501D02*
Y54499D01*
X46668D01*
X47334Y53833D01*
Y52500D01*
X46668Y51834D01*
X44668D01*
X46001D02*
X47334Y50501D01*
X51333Y53833D02*
X50666Y54499D01*
X49334D01*
X48667Y53833D01*
Y53166D01*
X49334Y52500D01*
X50666D01*
X51333Y51834D01*
Y51167D01*
X50666Y50501D01*
X49334D01*
X48667Y51167D01*
X52666Y54499D02*
X55332D01*
X53999D01*
Y50501D01*
M02*
