G04*
G04 #@! TF.GenerationSoftware,Altium Limited,Altium Designer,25.2.1 (25)*
G04*
G04 Layer_Color=32768*
%FSLAX25Y25*%
%MOIN*%
G70*
G04*
G04 #@! TF.SameCoordinates,231B4DAF-6D27-4D0E-86E8-AA491D90C455*
G04*
G04*
G04 #@! TF.FilePolarity,Positive*
G04*
G01*
G75*
%ADD66C,0.00197*%
D66*
X126630Y37744D02*
X134370D01*
X126630Y24256D02*
X134370D01*
X126630D02*
Y37744D01*
X134370Y24256D02*
Y37744D01*
X114630Y61244D02*
X122370D01*
X114630Y47756D02*
X122370D01*
X114630D02*
Y61244D01*
X122370Y47756D02*
Y61244D01*
X50756Y165130D02*
Y172870D01*
X64244Y165130D02*
Y172870D01*
X50756Y165130D02*
X64244D01*
X50756Y172870D02*
X64244D01*
X50756Y152630D02*
Y160370D01*
X64244Y152630D02*
Y160370D01*
X50756Y152630D02*
X64244D01*
X50756Y160370D02*
X64244D01*
X48256Y134130D02*
Y141870D01*
X61744Y134130D02*
Y141870D01*
X48256Y134130D02*
X61744D01*
X48256Y141870D02*
X61744D01*
X45256Y145630D02*
Y153370D01*
X58744Y145630D02*
Y153370D01*
X45256Y145630D02*
X58744D01*
X45256Y153370D02*
X58744D01*
X163130Y150756D02*
X170870D01*
X163130Y164244D02*
X170870D01*
Y150756D02*
Y164244D01*
X163130Y150756D02*
Y164244D01*
X137630Y105744D02*
X145370D01*
X137630Y92256D02*
X145370D01*
X137630D02*
Y105744D01*
X145370Y92256D02*
Y105744D01*
X58724Y49130D02*
Y56870D01*
X72212Y49130D02*
Y56870D01*
X58724Y49130D02*
X72212D01*
X58724Y56870D02*
X72212D01*
X132126Y73445D02*
X147874D01*
Y66555D02*
Y73445D01*
X132126Y66555D02*
X147874D01*
X132126D02*
Y73445D01*
X150500Y84055D02*
X166248D01*
X150500D02*
Y90945D01*
X166248D01*
Y84055D02*
Y90945D01*
X104614Y178417D02*
Y189583D01*
X125386D01*
Y178417D02*
Y189583D01*
X104614Y178417D02*
X125386D01*
X104130Y61744D02*
X111870D01*
X104130Y48256D02*
X111870D01*
X104130D02*
Y61744D01*
X111870Y48256D02*
Y61744D01*
X166374Y93555D02*
Y100445D01*
X150626D02*
X166374D01*
X150626Y93555D02*
Y100445D01*
Y93555D02*
X166374D01*
X168772Y76669D02*
X201921D01*
Y116236D01*
X168772D02*
X201921D01*
X168772Y76669D02*
Y116236D01*
X157063Y62807D02*
Y76193D01*
X164937Y62807D02*
Y76193D01*
X157063Y62807D02*
X164937D01*
X157063Y76193D02*
X164937D01*
X117563Y80307D02*
Y93693D01*
X125437Y80307D02*
Y93693D01*
X117563Y80307D02*
X125437D01*
X117563Y93693D02*
X125437D01*
X100126Y72055D02*
Y78945D01*
Y72055D02*
X115874D01*
Y78945D01*
X100126D02*
X115874D01*
X70972Y170374D02*
X80028D01*
Y154626D02*
Y170374D01*
X70972Y154626D02*
X80028D01*
X70972D02*
Y170374D01*
X80130Y88724D02*
X87870D01*
X80130Y75276D02*
X87870D01*
X80130D02*
Y88724D01*
X87870Y75276D02*
Y88724D01*
X112701Y88114D02*
Y103874D01*
X100299Y88114D02*
X112701D01*
X100299D02*
Y103874D01*
X112701D01*
X74701Y62689D02*
Y132571D01*
X9346Y62689D02*
X74701D01*
X9346Y132571D02*
X74701D01*
X9346Y76075D02*
Y132571D01*
X8362Y76075D02*
X9346D01*
X8362Y69776D02*
Y76075D01*
Y69776D02*
X9346D01*
Y62689D02*
Y69776D01*
X116630Y36744D02*
X124370D01*
X116630Y23256D02*
X124370D01*
X116630D02*
Y36744D01*
X124370Y23256D02*
Y36744D01*
X88945Y107083D02*
X157528D01*
X88945Y175665D02*
X157528D01*
X88945Y107083D02*
Y175665D01*
X157528Y107083D02*
Y175665D01*
X145874Y177055D02*
Y183945D01*
X130126D02*
X145874D01*
X130126Y177055D02*
Y183945D01*
Y177055D02*
X145874D01*
X66807Y150571D02*
X80193D01*
X66807Y134429D02*
Y150571D01*
X80193Y134429D02*
Y150571D01*
X66807Y134429D02*
X80193D01*
X111789Y3768D02*
Y37232D01*
X84211D02*
X111789D01*
X84211Y3768D02*
Y37232D01*
Y3768D02*
X111789D01*
X80130Y94276D02*
X87870D01*
X80130Y107724D02*
X87870D01*
Y94276D02*
Y107724D01*
X80130Y94276D02*
Y107724D01*
M02*
