G04*
G04 #@! TF.GenerationSoftware,Altium Limited,Altium Designer,25.2.1 (25)*
G04*
G04 Layer_Color=16711935*
%FSLAX25Y25*%
%MOIN*%
G70*
G04*
G04 #@! TF.SameCoordinates,231B4DAF-6D27-4D0E-86E8-AA491D90C455*
G04*
G04*
G04 #@! TF.FilePolarity,Positive*
G04*
G01*
G75*
%ADD10C,0.00787*%
%ADD11C,0.00945*%
%ADD12C,0.00500*%
%ADD65C,0.00394*%
G36*
X123862Y85031D02*
Y83063D01*
X119138D01*
Y85031D01*
X123862D01*
D02*
G37*
G36*
Y90937D02*
Y88968D01*
X119138D01*
Y90937D01*
X123862D01*
D02*
G37*
G36*
X163362Y67532D02*
Y65563D01*
X158638D01*
Y67532D01*
X163362D01*
D02*
G37*
G36*
Y73437D02*
Y71469D01*
X158638D01*
Y73437D01*
X163362D01*
D02*
G37*
D10*
X103433Y184000D02*
G03*
X103433Y184000I-394J0D01*
G01*
X167473Y83854D02*
G03*
X167473Y83854I-394J0D01*
G01*
X86465Y164996D02*
G03*
X86465Y164996I-394J0D01*
G01*
X65232Y146831D02*
G03*
X65232Y146831I-394J0D01*
G01*
X107409Y40185D02*
G03*
X107409Y40185I-394J0D01*
G01*
X158638Y65563D02*
Y73437D01*
X163362D01*
Y65563D02*
Y73437D01*
X158638Y65563D02*
X163362D01*
X119138Y83063D02*
Y90937D01*
X123862D01*
Y83063D02*
Y90937D01*
X119138Y83063D02*
X123862D01*
D11*
X75685Y86902D02*
G03*
X75685Y86902I-472J0D01*
G01*
D12*
X127665Y26669D02*
X133335D01*
X127665Y35331D02*
X133335D01*
X127665Y26669D02*
Y35331D01*
X133335Y26669D02*
Y35331D01*
X115665Y50169D02*
X121335D01*
X115665Y58831D02*
X121335D01*
X115665Y50169D02*
Y58831D01*
X121335Y50169D02*
Y58831D01*
X61831Y166165D02*
Y171835D01*
X53169Y166165D02*
Y171835D01*
Y166165D02*
X61831D01*
X53169Y171835D02*
X61831D01*
Y153665D02*
Y159335D01*
X53169Y153665D02*
Y159335D01*
Y153665D02*
X61831D01*
X53169Y159335D02*
X61831D01*
X59331Y135165D02*
Y140835D01*
X50669Y135165D02*
Y140835D01*
Y135165D02*
X59331D01*
X50669Y140835D02*
X59331D01*
X56331Y146665D02*
Y152335D01*
X47669Y146665D02*
Y152335D01*
Y146665D02*
X56331D01*
X47669Y152335D02*
X56331D01*
X164165Y161831D02*
X169835D01*
X164165Y153169D02*
X169835D01*
Y161831D01*
X164165Y153169D02*
Y161831D01*
X138665Y94669D02*
X144335D01*
X138665Y103331D02*
X144335D01*
X138665Y94669D02*
Y103331D01*
X144335Y94669D02*
Y103331D01*
X69799Y50165D02*
Y55835D01*
X61138Y50165D02*
Y55835D01*
Y50165D02*
X69799D01*
X61138Y55835D02*
X69799D01*
X136063Y67539D02*
X143937D01*
X136063Y72461D02*
X143937D01*
Y67539D02*
Y72461D01*
X136063Y67539D02*
Y72461D01*
X154437Y89961D02*
X162311D01*
X154437Y85039D02*
X162311D01*
X154437D02*
Y89961D01*
X162311Y85039D02*
Y89961D01*
X105598Y179402D02*
Y188598D01*
X124402D01*
Y179402D02*
Y188598D01*
X105598Y179402D02*
X124402D01*
X105598D02*
X124402D01*
X105165Y50669D02*
X110835D01*
X105165Y59331D02*
X110835D01*
X105165Y50669D02*
Y59331D01*
X110835Y50669D02*
Y59331D01*
X162437Y94539D02*
Y99461D01*
X154563Y94539D02*
Y99461D01*
Y94539D02*
X162437D01*
X154563Y99461D02*
X162437D01*
X200937Y78854D02*
Y114051D01*
X172000D02*
X200937D01*
X172000Y78854D02*
Y114051D01*
Y78854D02*
X200937D01*
X199008Y74799D02*
Y131886D01*
X104063Y73039D02*
Y77961D01*
X111937Y73039D02*
Y77961D01*
X104063D02*
X111937D01*
X104063Y73039D02*
X111937D01*
X78650Y156004D02*
Y168996D01*
X72350D02*
X78650D01*
X72350Y156004D02*
Y168996D01*
Y156004D02*
X78650D01*
X81165Y77669D02*
X86835D01*
X81165Y86331D02*
X86835D01*
X81165Y77669D02*
Y86331D01*
X86835Y77669D02*
Y86331D01*
X111717Y89098D02*
Y102878D01*
X101283Y89098D02*
X111717D01*
X101283D02*
Y102878D01*
X111717D01*
X117665Y25669D02*
X123335D01*
X117665Y34331D02*
X123335D01*
X117665Y25669D02*
Y34331D01*
X123335Y25669D02*
Y34331D01*
X95677Y113815D02*
X150795D01*
X95677Y168933D02*
X150795D01*
Y113815D02*
Y168933D01*
X95677Y113815D02*
Y168933D01*
X141937Y178039D02*
Y182961D01*
X134063Y178039D02*
Y182961D01*
Y178039D02*
X141937D01*
X134063Y182961D02*
X141937D01*
X68579Y148799D02*
X78421D01*
Y136201D02*
Y148799D01*
X68579Y136201D02*
Y148799D01*
Y136201D02*
X78421D01*
X110805Y13600D02*
Y27400D01*
X85195Y13600D02*
X110805D01*
X85195D02*
Y27400D01*
X110805D01*
X81165Y105331D02*
X86835D01*
X81165Y96669D02*
X86835D01*
Y105331D01*
X81165Y96669D02*
Y105331D01*
D65*
X10331Y75091D02*
Y127256D01*
X68402D01*
Y68004D02*
Y127256D01*
X9346Y75091D02*
X10331D01*
X9346Y70760D02*
Y75091D01*
Y70760D02*
X10331D01*
Y68004D02*
Y70760D01*
Y68004D02*
X68402D01*
M02*
