G04*
G04 #@! TF.GenerationSoftware,Altium Limited,Altium Designer,25.2.1 (25)*
G04*
G04 Layer_Color=255*
%FSLAX25Y25*%
%MOIN*%
G70*
G04*
G04 #@! TF.SameCoordinates,231B4DAF-6D27-4D0E-86E8-AA491D90C455*
G04*
G04*
G04 #@! TF.FilePolarity,Positive*
G04*
G01*
G75*
%ADD14R,0.05787X0.04567*%
%ADD15R,0.04567X0.05787*%
%ADD16R,0.04528X0.04528*%
%ADD17R,0.04488X0.02362*%
%ADD18R,0.04488X0.01181*%
%ADD19R,0.05709X0.04331*%
%ADD20R,0.05906X0.05512*%
%ADD21R,0.07087X0.03937*%
%ADD22R,0.05787X0.04606*%
%ADD24R,0.05512X0.02441*%
%ADD25R,0.09449X0.04331*%
G04:AMPARAMS|DCode=26|XSize=11.02mil|YSize=61.42mil|CornerRadius=1.38mil|HoleSize=0mil|Usage=FLASHONLY|Rotation=0.000|XOffset=0mil|YOffset=0mil|HoleType=Round|Shape=RoundedRectangle|*
%AMROUNDEDRECTD26*
21,1,0.01102,0.05866,0,0,0.0*
21,1,0.00827,0.06142,0,0,0.0*
1,1,0.00276,0.00413,-0.02933*
1,1,0.00276,-0.00413,-0.02933*
1,1,0.00276,-0.00413,0.02933*
1,1,0.00276,0.00413,0.02933*
%
%ADD26ROUNDEDRECTD26*%
G04:AMPARAMS|DCode=27|XSize=61.42mil|YSize=11.02mil|CornerRadius=1.38mil|HoleSize=0mil|Usage=FLASHONLY|Rotation=0.000|XOffset=0mil|YOffset=0mil|HoleType=Round|Shape=RoundedRectangle|*
%AMROUNDEDRECTD27*
21,1,0.06142,0.00827,0,0,0.0*
21,1,0.05866,0.01102,0,0,0.0*
1,1,0.00276,0.02933,-0.00413*
1,1,0.00276,-0.02933,-0.00413*
1,1,0.00276,-0.02933,0.00413*
1,1,0.00276,0.02933,0.00413*
%
%ADD27ROUNDEDRECTD27*%
%ADD28R,0.04724X0.05512*%
G04:AMPARAMS|DCode=29|XSize=51.58mil|YSize=36.61mil|CornerRadius=2.75mil|HoleSize=0mil|Usage=FLASHONLY|Rotation=270.000|XOffset=0mil|YOffset=0mil|HoleType=Round|Shape=RoundedRectangle|*
%AMROUNDEDRECTD29*
21,1,0.05158,0.03112,0,0,270.0*
21,1,0.04608,0.03661,0,0,270.0*
1,1,0.00549,-0.01556,-0.02304*
1,1,0.00549,-0.01556,0.02304*
1,1,0.00549,0.01556,0.02304*
1,1,0.00549,0.01556,-0.02304*
%
%ADD29ROUNDEDRECTD29*%
G04:AMPARAMS|DCode=30|XSize=51.58mil|YSize=127.56mil|CornerRadius=3.87mil|HoleSize=0mil|Usage=FLASHONLY|Rotation=270.000|XOffset=0mil|YOffset=0mil|HoleType=Round|Shape=RoundedRectangle|*
%AMROUNDEDRECTD30*
21,1,0.05158,0.11982,0,0,270.0*
21,1,0.04384,0.12756,0,0,270.0*
1,1,0.00774,-0.05991,-0.02192*
1,1,0.00774,-0.05991,0.02192*
1,1,0.00774,0.05991,0.02192*
1,1,0.00774,0.05991,-0.02192*
%
%ADD30ROUNDEDRECTD30*%
%ADD55R,0.02362X0.02055*%
%ADD56R,0.00394X0.00394*%
%ADD58R,0.05394X0.05394*%
%ADD59C,0.05394*%
%ADD60C,0.02362*%
%ADD61O,0.07874X0.03543*%
%ADD62O,0.06693X0.03543*%
%ADD63C,0.01968*%
%ADD64C,0.03740*%
D14*
X130500Y34465D02*
D03*
Y27535D02*
D03*
X118500Y57965D02*
D03*
Y51035D02*
D03*
X167000Y154035D02*
D03*
Y160965D02*
D03*
X141500Y102465D02*
D03*
Y95535D02*
D03*
X108000Y58465D02*
D03*
Y51535D02*
D03*
X120500Y33465D02*
D03*
Y26535D02*
D03*
D15*
X54035Y169000D02*
D03*
X60965D02*
D03*
X54035Y156500D02*
D03*
X60965D02*
D03*
X51535Y138000D02*
D03*
X58465D02*
D03*
X48535Y149500D02*
D03*
X55465D02*
D03*
X62004Y53000D02*
D03*
X68933D02*
D03*
D16*
X144626Y70000D02*
D03*
X135374D02*
D03*
X153748Y87500D02*
D03*
X163000D02*
D03*
X163126Y97000D02*
D03*
X153874D02*
D03*
X103374Y75500D02*
D03*
X112626D02*
D03*
X142626Y180500D02*
D03*
X133374D02*
D03*
D17*
X172000Y83854D02*
D03*
Y87004D02*
D03*
Y105902D02*
D03*
Y109051D02*
D03*
D18*
Y95469D02*
D03*
Y93500D02*
D03*
Y91532D02*
D03*
Y89563D02*
D03*
Y97437D02*
D03*
Y99406D02*
D03*
Y101374D02*
D03*
Y103343D02*
D03*
D19*
X161000Y65957D02*
D03*
Y73043D02*
D03*
X121500Y83457D02*
D03*
Y90543D02*
D03*
D20*
X57000Y42000D02*
D03*
X41500D02*
D03*
D21*
X75500Y167421D02*
D03*
Y157579D02*
D03*
D22*
X84000Y85429D02*
D03*
Y78571D02*
D03*
Y97571D02*
D03*
Y104429D02*
D03*
D24*
X70961Y89343D02*
D03*
Y93673D02*
D03*
Y98004D02*
D03*
Y102335D02*
D03*
Y106665D02*
D03*
Y110996D02*
D03*
Y115327D02*
D03*
Y119657D02*
D03*
Y123988D02*
D03*
D25*
X27654Y129421D02*
D03*
X63087D02*
D03*
Y65839D02*
D03*
X27654D02*
D03*
D26*
X99614Y111138D02*
D03*
X101583D02*
D03*
X103551D02*
D03*
X105520D02*
D03*
X107488D02*
D03*
X109457D02*
D03*
X111425D02*
D03*
X113394D02*
D03*
X115362D02*
D03*
X117331D02*
D03*
X119299D02*
D03*
X121268D02*
D03*
X123236D02*
D03*
X125205D02*
D03*
X127173D02*
D03*
X129142D02*
D03*
X131110D02*
D03*
X133079D02*
D03*
X135047D02*
D03*
X137016D02*
D03*
X138984D02*
D03*
X140953D02*
D03*
X142921D02*
D03*
X144890D02*
D03*
X146858D02*
D03*
Y171610D02*
D03*
X144890D02*
D03*
X142921D02*
D03*
X140953D02*
D03*
X138984D02*
D03*
X137016D02*
D03*
X135047D02*
D03*
X133079D02*
D03*
X131110D02*
D03*
X129142D02*
D03*
X127173D02*
D03*
X125205D02*
D03*
X123236D02*
D03*
X121268D02*
D03*
X119299D02*
D03*
X117331D02*
D03*
X115362D02*
D03*
X113394D02*
D03*
X111425D02*
D03*
X109457D02*
D03*
X107488D02*
D03*
X105520D02*
D03*
X103551D02*
D03*
X101583D02*
D03*
X99614D02*
D03*
D27*
X93000Y164996D02*
D03*
Y163028D02*
D03*
Y161059D02*
D03*
Y159091D02*
D03*
Y157122D02*
D03*
Y155154D02*
D03*
Y153185D02*
D03*
Y151217D02*
D03*
Y149248D02*
D03*
Y147280D02*
D03*
Y145311D02*
D03*
Y143343D02*
D03*
Y141374D02*
D03*
Y139406D02*
D03*
Y137437D02*
D03*
Y135469D02*
D03*
Y133500D02*
D03*
Y131532D02*
D03*
Y129563D02*
D03*
Y127594D02*
D03*
Y125626D02*
D03*
Y123657D02*
D03*
Y121689D02*
D03*
Y119720D02*
D03*
Y117752D02*
D03*
X153472D02*
D03*
Y119720D02*
D03*
Y121689D02*
D03*
Y123657D02*
D03*
Y125626D02*
D03*
Y127594D02*
D03*
Y129563D02*
D03*
Y131532D02*
D03*
Y133500D02*
D03*
Y135469D02*
D03*
Y137437D02*
D03*
Y139406D02*
D03*
Y141374D02*
D03*
Y143343D02*
D03*
Y145311D02*
D03*
Y147280D02*
D03*
Y149248D02*
D03*
Y151217D02*
D03*
Y153185D02*
D03*
Y155154D02*
D03*
Y157122D02*
D03*
Y159091D02*
D03*
Y161059D02*
D03*
Y163028D02*
D03*
Y164996D02*
D03*
D28*
X70154Y146831D02*
D03*
Y138169D02*
D03*
X76846D02*
D03*
Y146831D02*
D03*
D29*
X107016Y33669D02*
D03*
X98000D02*
D03*
X88984D02*
D03*
D30*
X98000Y7331D02*
D03*
D55*
X102957Y101358D02*
D03*
Y98122D02*
D03*
X110043D02*
D03*
Y101358D02*
D03*
X106500D02*
D03*
D56*
X106439Y90555D02*
D03*
D58*
X110000Y184000D02*
D03*
D59*
X120000D02*
D03*
D60*
X176213Y85075D02*
D03*
Y107831D02*
D03*
D61*
X174283Y79425D02*
D03*
Y113480D02*
D03*
D62*
X190701Y79425D02*
D03*
Y113480D02*
D03*
D63*
X106500Y93193D02*
D03*
D64*
X26000Y112886D02*
D03*
Y86114D02*
D03*
M02*
