M48
;Layer_Color=9474304
;FILE_FORMAT=2:5
INCH
;TYPE=PLATED
T01F00S00C0.01181
T03F00S00C0.04016
%
T01
X0061045Y0095871
X0071850Y0099410
Y0108268
X0082677Y0110236
X0084646Y0125000
X0071850Y0126969
X0054134
X0097441Y0119095
X0105315Y0113189
X0112008Y0114173
X0115157
X0113189Y0099410
X0122047Y0101378
X0125984
X0100000Y0101973
X0096480Y0101378
X0093331Y0101412
X0091535Y0098824
X0095472Y0137795
X0108268Y0143701
Y0146850
X0108071Y0130315
X0111221Y0129921
X0127953Y0147638
X0135827Y0146653
X0144685Y0125000
X0157480Y0113189
X0164370
X0167520
X0170669
X0173243Y0111374
X0170728Y0104790
X0170276Y0095472
X0173228Y0092520
X0174213Y0132874
X0189961Y0142717
X0157480
X0156496Y0151575
X0157480Y0163386
X0161417Y0179134
X0155118Y0172244
X0151959Y0172406
X0148818Y0172176
X0145669Y0172108
X0127953Y0187992
X0101378
X0111221Y0174213
X0085630Y0173228
X0072835
X0086614Y0161417
Y0158465
T03
X0093504Y0169134
Y0179134
M30
