G04*
G04 #@! TF.GenerationSoftware,Altium Limited,Altium Designer,25.2.1 (25)*
G04*
G04 Layer_Color=65535*
%FSLAX25Y25*%
%MOIN*%
G70*
G04*
G04 #@! TF.SameCoordinates,2B78703E-072C-4945-A0C2-5BE418C1B0F6*
G04*
G04*
G04 #@! TF.FilePolarity,Positive*
G04*
G01*
G75*
%ADD10C,0.00787*%
%ADD11C,0.00394*%
%ADD12C,0.00945*%
%ADD13C,0.00500*%
%ADD14C,0.01000*%
%ADD15C,0.00700*%
D10*
X150906Y93976D02*
G03*
X150906Y93976I-394J0D01*
G01*
X22047Y121221D02*
G03*
X22047Y121221I-394J0D01*
G01*
X131339Y86614D02*
G03*
X131339Y86614I-394J0D01*
G01*
X38780Y41339D02*
G03*
X38780Y41339I-394J0D01*
G01*
X23031D02*
G03*
X23031Y41339I-394J0D01*
G01*
X128740Y73770D02*
G03*
X128740Y73770I-394J0D01*
G01*
X54528Y122803D02*
G03*
X54528Y122803I-394J0D01*
G01*
X31890Y91339D02*
G03*
X31890Y91339I-394J0D01*
G01*
X49016Y6968D02*
X101181D01*
X49016D02*
Y17913D01*
Y30512D02*
Y53347D01*
X89370Y65039D02*
X107087D01*
X108268Y30512D02*
Y53347D01*
X101181Y5984D02*
Y6968D01*
Y5984D02*
X105512D01*
Y6968D01*
X108268D01*
Y17913D01*
X119142Y41433D02*
X134468D01*
Y29933D02*
Y41350D01*
X119142Y29933D02*
X134468D01*
X119142Y34433D02*
Y41433D01*
Y29933D02*
Y34433D01*
X36024Y48425D02*
Y50000D01*
X40748Y48425D02*
Y50000D01*
X20276Y48425D02*
Y50000D01*
X25000Y48425D02*
Y50000D01*
D11*
X139726Y47244D02*
G03*
X139726Y47244I-2915J0D01*
G01*
X48191Y144685D02*
G03*
X48191Y144685I-2915J0D01*
G01*
X97404Y149606D02*
G03*
X97404Y149606I-2915J0D01*
G01*
D12*
X89842Y71850D02*
G03*
X89842Y71850I-472J0D01*
G01*
D13*
X140748Y78937D02*
X144685D01*
X140748Y72638D02*
X144685D01*
X136929Y97992D02*
Y98622D01*
X146772Y97992D02*
Y98622D01*
X34439Y99400D02*
Y125010D01*
Y99400D02*
X48238D01*
Y125010D01*
X34439D02*
X48238D01*
X66220Y137795D02*
X68347D01*
X66220Y82677D02*
X68347D01*
X119213Y137795D02*
X121339D01*
X119213Y82677D02*
X121339D01*
X66220Y135669D02*
Y137795D01*
Y82677D02*
Y84803D01*
X121339Y135669D02*
Y137795D01*
Y82677D02*
Y84803D01*
X12303Y48110D02*
Y50315D01*
X17224Y48110D02*
Y50315D01*
X40846Y65827D02*
Y68032D01*
X35925Y65827D02*
Y68032D01*
X36909Y89449D02*
Y91654D01*
X41831Y89449D02*
Y91654D01*
X32972Y48110D02*
Y50315D01*
X28051Y48110D02*
Y50315D01*
X60905Y146161D02*
X63110D01*
X60905Y151083D02*
X63110D01*
X129921Y61713D02*
Y72146D01*
X116142D02*
X129921D01*
X116142Y61713D02*
Y72146D01*
Y61713D02*
X129921D01*
X49535Y125362D02*
X58732D01*
X49535Y144165D02*
X58732D01*
X49535Y125362D02*
Y144165D01*
X58732Y125362D02*
Y144165D01*
X12480Y61142D02*
X19094D01*
X-2362D02*
X3268D01*
X12480Y96339D02*
X19094D01*
X-2362D02*
X3268D01*
X-2362Y61142D02*
Y96339D01*
X31814Y135645D02*
X31481Y135311D01*
Y134645D01*
X31814Y134312D01*
X33147D01*
X33480Y134645D01*
Y135311D01*
X33147Y135645D01*
X33480Y136311D02*
Y136978D01*
Y136644D01*
X31481D01*
X31814Y136311D01*
Y137977D02*
X31481Y138311D01*
Y138977D01*
X31814Y139310D01*
X32147D01*
X32480Y138977D01*
Y138644D01*
Y138977D01*
X32814Y139310D01*
X33147D01*
X33480Y138977D01*
Y138311D01*
X33147Y137977D01*
X32496Y69579D02*
X30830D01*
X30496Y69246D01*
Y68580D01*
X30830Y68247D01*
X32496D01*
X30496Y66247D02*
Y67580D01*
X31829Y66247D01*
X32162D01*
X32496Y66580D01*
Y67247D01*
X32162Y67580D01*
X45927Y82359D02*
X45593Y82693D01*
X44927D01*
X44594Y82359D01*
Y81027D01*
X44927Y80693D01*
X45593D01*
X45927Y81027D01*
X47926Y82693D02*
X46593D01*
Y81693D01*
X47260Y82026D01*
X47593D01*
X47926Y81693D01*
Y81027D01*
X47593Y80693D01*
X46926D01*
X46593Y81027D01*
X114491Y56102D02*
X114158Y55769D01*
Y55103D01*
X114491Y54769D01*
X115824D01*
X116157Y55103D01*
Y55769D01*
X115824Y56102D01*
X116157Y56769D02*
Y57435D01*
Y57102D01*
X114158D01*
X114491Y56769D01*
X131874Y76090D02*
X132208D01*
X132874Y76756D01*
X132208Y77423D01*
X131874D01*
X132874Y76756D02*
X133874D01*
Y79422D02*
Y78089D01*
X132541Y79422D01*
X132208D01*
X131874Y79089D01*
Y78422D01*
X132208Y78089D01*
X131874Y102014D02*
X132208D01*
X132874Y102680D01*
X132208Y103347D01*
X131874D01*
X132874Y102680D02*
X133874D01*
Y104013D02*
Y104679D01*
Y104346D01*
X131874D01*
X132208Y104013D01*
X130921Y131254D02*
X129255D01*
X128922Y130921D01*
Y130254D01*
X129255Y129921D01*
X130921D01*
X128922Y129255D02*
Y128588D01*
Y128922D01*
X130921D01*
X130588Y129255D01*
X137098Y42338D02*
X138431D01*
X137764D01*
Y40339D01*
X139097D02*
Y42338D01*
X140097D01*
X140430Y42005D01*
Y41339D01*
X140097Y41005D01*
X139097D01*
X142096Y40339D02*
Y42338D01*
X141097Y41339D01*
X142430D01*
X48515Y150606D02*
X49848D01*
X49182D01*
Y148607D01*
X50515D02*
Y150606D01*
X51514D01*
X51848Y150273D01*
Y149606D01*
X51514Y149273D01*
X50515D01*
X52514Y150273D02*
X52847Y150606D01*
X53514D01*
X53847Y150273D01*
Y149940D01*
X53514Y149606D01*
X53180D01*
X53514D01*
X53847Y149273D01*
Y148940D01*
X53514Y148607D01*
X52847D01*
X52514Y148940D01*
X99045Y147653D02*
X100378D01*
X99712D01*
Y145654D01*
X101045D02*
Y147653D01*
X102044D01*
X102378Y147320D01*
Y146654D01*
X102044Y146320D01*
X101045D01*
X103044Y145654D02*
X103710D01*
X103377D01*
Y147653D01*
X103044Y147320D01*
X72424Y3619D02*
X72091Y3952D01*
X71425D01*
X71091Y3619D01*
Y3286D01*
X71425Y2953D01*
X72091D01*
X72424Y2620D01*
Y2286D01*
X72091Y1953D01*
X71425D01*
X71091Y2286D01*
X73091Y3952D02*
Y1953D01*
X74090D01*
X74424Y2286D01*
Y3619D01*
X74090Y3952D01*
X73091D01*
X78422Y3619D02*
X78089Y3952D01*
X77423D01*
X77090Y3619D01*
Y2286D01*
X77423Y1953D01*
X78089D01*
X78422Y2286D01*
X79422Y3286D02*
X80089D01*
X80422Y2953D01*
Y1953D01*
X79422D01*
X79089Y2286D01*
X79422Y2620D01*
X80422D01*
X81088Y3286D02*
Y1953D01*
Y2620D01*
X81421Y2953D01*
X81755Y3286D01*
X82088D01*
X84420Y3952D02*
Y1953D01*
X83421D01*
X83087Y2286D01*
Y2953D01*
X83421Y3286D01*
X84420D01*
X124303Y25575D02*
Y27575D01*
X125302D01*
X125636Y27241D01*
Y26575D01*
X125302Y26242D01*
X124303D01*
X124969D02*
X125636Y25575D01*
X127635Y27241D02*
X127302Y27575D01*
X126635D01*
X126302Y27241D01*
Y26908D01*
X126635Y26575D01*
X127302D01*
X127635Y26242D01*
Y25908D01*
X127302Y25575D01*
X126635D01*
X126302Y25908D01*
X128301Y27575D02*
X129634D01*
X128968D01*
Y25575D01*
X9858Y52468D02*
X7859D01*
Y53467D01*
X8192Y53801D01*
X8858D01*
X9191Y53467D01*
Y52468D01*
Y53134D02*
X9858Y53801D01*
X7859Y55800D02*
Y54467D01*
X8858D01*
X8525Y55133D01*
Y55467D01*
X8858Y55800D01*
X9525D01*
X9858Y55467D01*
Y54800D01*
X9525Y54467D01*
X33885Y60763D02*
X31886D01*
Y61763D01*
X32219Y62096D01*
X32886D01*
X33219Y61763D01*
Y60763D01*
Y61430D02*
X33885Y62096D01*
Y63762D02*
X31886D01*
X32886Y62762D01*
Y64095D01*
X43292Y97139D02*
X45291D01*
Y96139D01*
X44958Y95806D01*
X44291D01*
X43958Y96139D01*
Y97139D01*
Y96472D02*
X43292Y95806D01*
X44958Y95139D02*
X45291Y94806D01*
Y94139D01*
X44958Y93806D01*
X44625D01*
X44291Y94139D01*
Y94473D01*
Y94139D01*
X43958Y93806D01*
X43625D01*
X43292Y94139D01*
Y94806D01*
X43625Y95139D01*
X33162Y38401D02*
Y36402D01*
X32162D01*
X31829Y36735D01*
Y37402D01*
X32162Y37735D01*
X33162D01*
X32496D02*
X31829Y38401D01*
X29830D02*
X31163D01*
X29830Y37068D01*
Y36735D01*
X30163Y36402D01*
X30830D01*
X31163Y36735D01*
X66580Y152544D02*
Y154543D01*
X67580D01*
X67913Y154210D01*
Y153543D01*
X67580Y153210D01*
X66580D01*
X67247D02*
X67913Y152544D01*
X68580D02*
X69246D01*
X68913D01*
Y154543D01*
X68580Y154210D01*
X21638Y39114D02*
X23638D01*
Y38114D01*
X23304Y37781D01*
X22638D01*
X22305Y38114D01*
Y39114D01*
X23638Y36115D02*
Y36781D01*
X23304Y37115D01*
X21971D01*
X21638Y36781D01*
Y36115D01*
X21971Y35782D01*
X23304D01*
X23638Y36115D01*
Y35115D02*
X21638D01*
X22305Y34449D01*
X21638Y33782D01*
X23638D01*
Y31783D02*
Y33116D01*
X21638D01*
Y31783D01*
X22638Y33116D02*
Y32449D01*
X21638Y31117D02*
X23638D01*
Y30117D01*
X23304Y29784D01*
X22638D01*
X22305Y30117D01*
Y31117D01*
Y30450D02*
X21638Y29784D01*
X107904Y69867D02*
Y71866D01*
X108570Y71199D01*
X109237Y71866D01*
Y69867D01*
X109903Y71866D02*
Y69867D01*
Y70533D01*
X111236Y71866D01*
X110236Y70866D01*
X111236Y69867D01*
X111902D02*
X112569D01*
X112236D01*
Y71866D01*
X111902Y71533D01*
X52967Y117764D02*
X53633D01*
X53300D01*
Y119430D01*
X53633Y119763D01*
X53967D01*
X54300Y119430D01*
X52301Y118097D02*
X51967Y117764D01*
X51301D01*
X50968Y118097D01*
Y118430D01*
X51301Y118764D01*
X51634D01*
X51301D01*
X50968Y119097D01*
Y119430D01*
X51301Y119763D01*
X51967D01*
X52301Y119430D01*
X34464Y95472D02*
Y96139D01*
Y95806D01*
X32798D01*
X32465Y96139D01*
Y96472D01*
X32798Y96805D01*
X32465Y94806D02*
Y94139D01*
Y94473D01*
X34464D01*
X34131Y94806D01*
X18519Y115824D02*
X18185Y116157D01*
X17519D01*
X17186Y115824D01*
Y114491D01*
X17519Y114158D01*
X18185D01*
X18519Y114491D01*
X19185Y114158D02*
X19852D01*
X19518D01*
Y116157D01*
X19185Y115824D01*
X22184Y114158D02*
X20851D01*
X22184Y115491D01*
Y115824D01*
X21851Y116157D01*
X21185D01*
X20851Y115824D01*
X138628Y53979D02*
X138962Y53646D01*
X139628D01*
X139961Y53979D01*
Y55312D01*
X139628Y55645D01*
X138962D01*
X138628Y55312D01*
X137962Y55645D02*
X137295D01*
X137629D01*
Y53646D01*
X137962Y53979D01*
X136296Y55645D02*
X135629D01*
X135962D01*
Y53646D01*
X136296Y53979D01*
X154210Y67623D02*
X154543Y67956D01*
Y68623D01*
X154210Y68956D01*
X152877D01*
X152544Y68623D01*
Y67956D01*
X152877Y67623D01*
X152544Y66957D02*
Y66290D01*
Y66623D01*
X154543D01*
X154210Y66957D01*
Y65290D02*
X154543Y64957D01*
Y64291D01*
X154210Y63958D01*
X152877D01*
X152544Y64291D01*
Y64957D01*
X152877Y65290D01*
X154210D01*
X130711Y111872D02*
X130378Y111538D01*
Y110872D01*
X130711Y110539D01*
X132044D01*
X132378Y110872D01*
Y111538D01*
X132044Y111872D01*
Y112538D02*
X132378Y112871D01*
Y113538D01*
X132044Y113871D01*
X130711D01*
X130378Y113538D01*
Y112871D01*
X130711Y112538D01*
X131045D01*
X131378Y112871D01*
Y113871D01*
X151257Y85963D02*
X151590Y86296D01*
Y86963D01*
X151257Y87296D01*
X149924D01*
X149591Y86963D01*
Y86296D01*
X149924Y85963D01*
X151257Y85297D02*
X151590Y84964D01*
Y84297D01*
X151257Y83964D01*
X150924D01*
X150591Y84297D01*
X150257Y83964D01*
X149924D01*
X149591Y84297D01*
Y84964D01*
X149924Y85297D01*
X150257D01*
X150591Y84964D01*
X150924Y85297D01*
X151257D01*
X150591Y84964D02*
Y84297D01*
X57753Y94821D02*
X58086Y95155D01*
Y95821D01*
X57753Y96154D01*
X56420D01*
X56087Y95821D01*
Y95155D01*
X56420Y94821D01*
X58086Y94155D02*
Y92822D01*
X57753D01*
X56420Y94155D01*
X56087D01*
X87281Y150924D02*
X87614Y151257D01*
Y151923D01*
X87281Y152257D01*
X85948D01*
X85615Y151923D01*
Y151257D01*
X85948Y150924D01*
X87614Y148924D02*
X87281Y149591D01*
X86614Y150257D01*
X85948D01*
X85615Y149924D01*
Y149258D01*
X85948Y148924D01*
X86281D01*
X86614Y149258D01*
Y150257D01*
X115475Y46911D02*
X115142Y46578D01*
Y45911D01*
X115475Y45578D01*
X116808D01*
X117141Y45911D01*
Y46578D01*
X116808Y46911D01*
X117141Y48577D02*
X115142D01*
X116142Y47577D01*
Y48910D01*
X12462Y115824D02*
X12129Y116157D01*
X11462D01*
X11129Y115824D01*
Y114491D01*
X11462Y114158D01*
X12129D01*
X12462Y114491D01*
X13128Y115824D02*
X13462Y116157D01*
X14128D01*
X14461Y115824D01*
Y115491D01*
X14128Y115157D01*
X13795D01*
X14128D01*
X14461Y114824D01*
Y114491D01*
X14128Y114158D01*
X13462D01*
X13128Y114491D01*
X30830Y129588D02*
X30496Y129255D01*
Y128588D01*
X30830Y128255D01*
X32162D01*
X32496Y128588D01*
Y129255D01*
X32162Y129588D01*
X32496Y131587D02*
Y130254D01*
X31163Y131587D01*
X30830D01*
X30496Y131254D01*
Y130588D01*
X30830Y130254D01*
D14*
X43323Y44307D02*
Y46306D01*
X44322Y47306D01*
X45322Y46306D01*
Y44307D01*
Y45807D01*
X43323D01*
D15*
X36886Y38025D02*
X39885D01*
Y36525D01*
X39386Y36026D01*
X38386D01*
X37886Y36525D01*
Y38025D01*
Y37025D02*
X36886Y36026D01*
X39885Y33026D02*
Y35026D01*
X36886D01*
Y33026D01*
X38386Y35026D02*
Y34026D01*
X39386Y30027D02*
X39885Y30527D01*
Y31527D01*
X39386Y32027D01*
X38886D01*
X38386Y31527D01*
Y30527D01*
X37886Y30027D01*
X37386D01*
X36886Y30527D01*
Y31527D01*
X37386Y32027D01*
X39885Y29028D02*
X37386D01*
X36886Y28528D01*
Y27528D01*
X37386Y27028D01*
X39885D01*
Y26029D02*
X36886D01*
Y24029D01*
X39885Y23030D02*
Y21030D01*
Y22030D01*
X36886D01*
M02*
