G04*
G04 #@! TF.GenerationSoftware,Altium Limited,Altium Designer,25.2.1 (25)*
G04*
G04 Layer_Physical_Order=2*
G04 Layer_Color=16711680*
%FSLAX25Y25*%
%MOIN*%
G70*
G04*
G04 #@! TF.SameCoordinates,BE8575E0-A9B8-4DC4-A426-645646EFF105*
G04*
G04*
G04 #@! TF.FilePolarity,Positive*
G04*
G01*
G75*
%ADD11C,0.00787*%
%ADD61C,0.01968*%
%ADD62R,0.05394X0.05394*%
%ADD63C,0.05394*%
%ADD64C,0.03740*%
%ADD65C,0.02362*%
%ADD66O,0.07874X0.03543*%
%ADD67O,0.06693X0.03543*%
%ADD68C,0.01968*%
G36*
X96470Y179335D02*
X102257Y178765D01*
X107995Y177818D01*
X113658Y176497D01*
X119223Y174809D01*
X124666Y172760D01*
X129963Y170361D01*
X135091Y167619D01*
X140030Y164548D01*
X144757Y161161D01*
X149252Y157472D01*
X153496Y153496D01*
X157472Y149252D01*
X161161Y144757D01*
X164548Y140030D01*
X167619Y135091D01*
X170361Y129963D01*
X172760Y124666D01*
X174809Y119223D01*
X176497Y113658D01*
X177818Y107995D01*
X178765Y102257D01*
X179335Y96470D01*
X179525Y90658D01*
X179335Y84845D01*
X178765Y79058D01*
X177818Y73320D01*
X176497Y67657D01*
X174809Y62092D01*
X172760Y56649D01*
X170361Y51352D01*
X167619Y46224D01*
X164548Y41285D01*
X161161Y36558D01*
X157472Y32063D01*
X153496Y27819D01*
X149252Y23843D01*
X144757Y20154D01*
X140030Y16767D01*
X135091Y13696D01*
X129963Y10954D01*
X124666Y8555D01*
X119223Y6506D01*
X113658Y4818D01*
X107995Y3497D01*
X102257Y2550D01*
X96470Y1980D01*
X90658Y1790D01*
X84845Y1980D01*
X79058Y2550D01*
X73320Y3497D01*
X67657Y4818D01*
X62092Y6506D01*
X56649Y8555D01*
X51352Y10954D01*
X46224Y13696D01*
X41285Y16767D01*
X36558Y20154D01*
X32063Y23843D01*
X27819Y27819D01*
X23843Y32063D01*
X20154Y36558D01*
X16767Y41285D01*
X13696Y46224D01*
X10954Y51352D01*
X8555Y56649D01*
X6506Y62092D01*
X4818Y67657D01*
X3497Y73320D01*
X2550Y79058D01*
X1980Y84845D01*
X1790Y90658D01*
X1980Y96470D01*
X2550Y102257D01*
X3497Y107995D01*
X4818Y113658D01*
X6506Y119223D01*
X8555Y124666D01*
X10954Y129963D01*
X13696Y135091D01*
X16767Y140030D01*
X20154Y144757D01*
X23843Y149252D01*
X27819Y153496D01*
X32063Y157472D01*
X36558Y161161D01*
X41285Y164548D01*
X46224Y167619D01*
X51352Y170361D01*
X56649Y172760D01*
X62092Y174809D01*
X67657Y176497D01*
X73320Y177818D01*
X79058Y178765D01*
X84845Y179335D01*
X90658Y179525D01*
X96470Y179335D01*
D02*
G37*
%LPC*%
G36*
X104392Y169968D02*
X103608D01*
X102885Y169669D01*
X102331Y169115D01*
X102032Y168392D01*
Y167608D01*
X102331Y166885D01*
X102885Y166331D01*
X103608Y166032D01*
X104392D01*
X105115Y166331D01*
X105580Y166796D01*
X117067D01*
X125051Y158812D01*
X124844Y158312D01*
X118107D01*
X117647Y158220D01*
X117256Y157959D01*
X117256Y157959D01*
X109001Y149704D01*
X89978D01*
X89517Y149613D01*
X89126Y149352D01*
X89126Y149352D01*
X57450Y117675D01*
X56988Y117866D01*
Y118575D01*
X56927Y118882D01*
X56753Y119142D01*
X56492Y119316D01*
X56185Y119378D01*
X40240D01*
X39933Y119316D01*
X39672Y119142D01*
X39498Y118882D01*
X39437Y118575D01*
Y78417D01*
X39498Y78110D01*
X39672Y77850D01*
X39933Y77676D01*
X40240Y77614D01*
X56185D01*
X56492Y77676D01*
X56753Y77850D01*
X56927Y78110D01*
X56988Y78417D01*
Y83656D01*
X57450Y83847D01*
X60532Y80765D01*
Y80108D01*
X60831Y79385D01*
X61385Y78831D01*
X62108Y78531D01*
X62892D01*
X63615Y78831D01*
X64169Y79385D01*
X64468Y80108D01*
Y80892D01*
X64169Y81615D01*
X63615Y82169D01*
X62892Y82468D01*
X62687D01*
X62645Y82531D01*
X62891Y83030D01*
X62907Y83038D01*
X63615Y83331D01*
X64169Y83885D01*
X64468Y84608D01*
Y85392D01*
X64169Y86115D01*
X63615Y86669D01*
X62892Y86968D01*
X62687D01*
X62645Y87032D01*
X62891Y87530D01*
X62907Y87538D01*
X63615Y87831D01*
X64169Y88385D01*
X64468Y89108D01*
Y89892D01*
X64169Y90615D01*
X63704Y91080D01*
Y95159D01*
X63613Y95620D01*
X63352Y96011D01*
X63352Y96011D01*
X63293Y96070D01*
X63459Y96610D01*
X63993Y96831D01*
X64547Y97385D01*
X64846Y98108D01*
Y98892D01*
X64547Y99615D01*
X64082Y100080D01*
Y104532D01*
X64844D01*
X65568Y104831D01*
X66122Y105385D01*
X66421Y106108D01*
Y106765D01*
X67667Y108011D01*
X67667Y108011D01*
X67928Y108401D01*
X68019Y108862D01*
X68019Y108862D01*
Y110316D01*
X85639Y127936D01*
X86063Y127653D01*
X85977Y127446D01*
Y126663D01*
X86016Y126570D01*
X84276Y124831D01*
X83885Y124669D01*
X83331Y124115D01*
X83031Y123392D01*
Y122608D01*
X83331Y121885D01*
X83885Y121331D01*
X84608Y121031D01*
X85392D01*
X86115Y121331D01*
X86669Y121885D01*
X86831Y122276D01*
X89148Y124593D01*
X89215Y124694D01*
X92217D01*
X92608Y124531D01*
X93392D01*
X94115Y124831D01*
X94669Y125385D01*
X94968Y126108D01*
Y126892D01*
X94669Y127615D01*
X94115Y128169D01*
X93392Y128469D01*
X92608D01*
X92217Y128306D01*
X89477D01*
X89061Y128723D01*
X88337Y129023D01*
X87554D01*
X87347Y128937D01*
X87064Y129361D01*
X91892Y134189D01*
X131403D01*
X131867Y133724D01*
X132591Y133425D01*
X133374D01*
X134097Y133724D01*
X134651Y134278D01*
X134951Y135002D01*
Y135785D01*
X134651Y136508D01*
X134567Y136592D01*
X134615Y136831D01*
X135169Y137385D01*
X135468Y138108D01*
Y138892D01*
X135169Y139615D01*
X134615Y140169D01*
X133892Y140469D01*
X133108D01*
X132385Y140169D01*
X131920Y139704D01*
X90274D01*
X90067Y140204D01*
X90658Y140796D01*
X118539D01*
X118539Y140796D01*
X119000Y140887D01*
X119390Y141148D01*
X120852Y142610D01*
X121113Y143000D01*
X121204Y143461D01*
X121204Y143461D01*
Y148385D01*
X122997Y150178D01*
X122997Y150178D01*
X123259Y150569D01*
X123318Y150865D01*
X123323D01*
X124046Y151165D01*
X124589Y151707D01*
X124961Y151335D01*
X125685Y151036D01*
X126468D01*
X127191Y151335D01*
X127649Y151793D01*
X128111Y151331D01*
X128834Y151031D01*
X129617D01*
X130281Y151306D01*
X130781Y151118D01*
Y151015D01*
X130781Y151015D01*
X130872Y150554D01*
X131133Y150163D01*
X132099Y149198D01*
Y148541D01*
X132398Y147818D01*
X132952Y147264D01*
X133676Y146964D01*
X134459D01*
X135182Y147264D01*
X135736Y147818D01*
X136036Y148541D01*
Y149324D01*
X135736Y150048D01*
X135182Y150602D01*
X134459Y150901D01*
X133802D01*
X133189Y151514D01*
Y153581D01*
X133189Y153581D01*
X133098Y154042D01*
X132837Y154433D01*
X118418Y168851D01*
X118027Y169113D01*
X117566Y169204D01*
X117566Y169204D01*
X105580D01*
X105115Y169669D01*
X104392Y169968D01*
D02*
G37*
G36*
X157984Y142484D02*
X151016D01*
Y135516D01*
X157984D01*
Y142484D01*
D02*
G37*
G36*
X154959Y132484D02*
X154041D01*
X153155Y132247D01*
X152361Y131788D01*
X151712Y131139D01*
X151253Y130345D01*
X151016Y129459D01*
Y128541D01*
X151253Y127655D01*
X151712Y126861D01*
X152361Y126212D01*
X153155Y125753D01*
X154041Y125516D01*
X154959D01*
X155845Y125753D01*
X156639Y126212D01*
X157288Y126861D01*
X157747Y127655D01*
X157984Y128541D01*
Y129459D01*
X157747Y130345D01*
X157288Y131139D01*
X156639Y131788D01*
X155845Y132247D01*
X154959Y132484D01*
D02*
G37*
G36*
X25354Y106862D02*
X24654D01*
X23978Y106681D01*
X23372Y106331D01*
X22877Y105836D01*
X22528Y105230D01*
X22346Y104555D01*
Y103855D01*
X22528Y103179D01*
X22877Y102573D01*
X23372Y102078D01*
X23978Y101728D01*
X24654Y101547D01*
X25354D01*
X26030Y101728D01*
X26636Y102078D01*
X27130Y102573D01*
X27480Y103179D01*
X27661Y103855D01*
Y104555D01*
X27480Y105230D01*
X27130Y105836D01*
X26636Y106331D01*
X26030Y106681D01*
X25354Y106862D01*
D02*
G37*
G36*
X158561Y103004D02*
X157778D01*
X157054Y102704D01*
X156500Y102150D01*
X156201Y101427D01*
Y100644D01*
X156500Y99920D01*
X157054Y99367D01*
X157778Y99067D01*
X158561D01*
X159284Y99367D01*
X159838Y99920D01*
X160138Y100644D01*
Y101427D01*
X159838Y102150D01*
X159284Y102704D01*
X158561Y103004D01*
D02*
G37*
G36*
X149392Y100969D02*
X148608D01*
X148217Y100806D01*
X142500D01*
X141809Y100669D01*
X141223Y100277D01*
X98252Y57306D01*
X94500D01*
X93809Y57169D01*
X93223Y56777D01*
X86276Y49831D01*
X85885Y49669D01*
X85331Y49115D01*
X85031Y48392D01*
Y47608D01*
X85331Y46885D01*
X85885Y46331D01*
X86608Y46031D01*
X87392D01*
X88115Y46331D01*
X88669Y46885D01*
X88831Y47276D01*
X95248Y53694D01*
X99000D01*
X99691Y53831D01*
X100277Y54223D01*
X143248Y97194D01*
X148217D01*
X148608Y97031D01*
X149392D01*
X150115Y97331D01*
X150669Y97885D01*
X150969Y98608D01*
Y99392D01*
X150669Y100115D01*
X150115Y100669D01*
X149392Y100969D01*
D02*
G37*
G36*
X94913Y99834D02*
X89778D01*
X89087Y99696D01*
X88501Y99305D01*
X85502Y96306D01*
X77783D01*
X77392Y96469D01*
X76608D01*
X75885Y96169D01*
X75331Y95615D01*
X75032Y94892D01*
Y94108D01*
X75331Y93385D01*
X75885Y92831D01*
X76276Y92669D01*
X84066Y84880D01*
Y78190D01*
X83903Y77799D01*
Y77016D01*
X84203Y76292D01*
X84757Y75739D01*
X85480Y75439D01*
X86264D01*
X86987Y75739D01*
X87541Y76292D01*
X87840Y77016D01*
Y77799D01*
X87678Y78190D01*
Y85628D01*
X87541Y86319D01*
X87149Y86905D01*
X81823Y92232D01*
X82014Y92694D01*
X86251D01*
X86942Y92831D01*
X87528Y93223D01*
X87625Y93320D01*
X88087Y93129D01*
Y88807D01*
X88087Y88807D01*
X88179Y88346D01*
X88440Y87955D01*
X89796Y86599D01*
Y82580D01*
X89331Y82115D01*
X89031Y81392D01*
Y80608D01*
X89331Y79885D01*
X89885Y79331D01*
X90608Y79031D01*
X91392D01*
X92115Y79331D01*
X92669Y79885D01*
X92968Y80608D01*
Y81392D01*
X92669Y82115D01*
X92204Y82580D01*
Y87098D01*
X92204Y87098D01*
X92113Y87559D01*
X91852Y87950D01*
X91852Y87950D01*
X90496Y89305D01*
Y91308D01*
X90996Y91642D01*
X91262Y91531D01*
X91919D01*
X103001Y80450D01*
X103001Y80450D01*
X103391Y80189D01*
X103852Y80097D01*
X103852Y80097D01*
X104243D01*
X104331Y79885D01*
X104885Y79331D01*
X105608Y79031D01*
X106392D01*
X107115Y79331D01*
X107669Y79885D01*
X107968Y80608D01*
Y81392D01*
X107669Y82115D01*
X107115Y82669D01*
X106392Y82968D01*
X105608D01*
X104885Y82669D01*
X104813Y82597D01*
X104260D01*
X95781Y91075D01*
X95933Y91412D01*
X96032Y91531D01*
X96770D01*
X97493Y91831D01*
X98047Y92385D01*
X98172Y92686D01*
X98662Y92784D01*
X101723Y89723D01*
X101723Y89723D01*
X101723Y89723D01*
X101956Y89567D01*
X102309Y89331D01*
X102309Y89331D01*
X102309Y89331D01*
X103000Y89194D01*
X108248D01*
X108640Y89031D01*
X109423D01*
X110146Y89331D01*
X110700Y89885D01*
X111000Y90608D01*
Y91392D01*
X110700Y92115D01*
X110146Y92669D01*
X109423Y92968D01*
X108640D01*
X108248Y92806D01*
X103748D01*
X100716Y95839D01*
X100608Y96000D01*
X98878Y97730D01*
X98292Y98122D01*
X97601Y98259D01*
X97236D01*
X96190Y99305D01*
X95604Y99696D01*
X94913Y99834D01*
D02*
G37*
G36*
X160392Y95969D02*
X159608D01*
X158885Y95669D01*
X158420Y95204D01*
X156500D01*
X156500Y95204D01*
X156039Y95113D01*
X155649Y94851D01*
X155649Y94851D01*
X144149Y83351D01*
X143887Y82961D01*
X143796Y82500D01*
X143796Y82500D01*
Y72607D01*
X143304Y72115D01*
X143004Y71392D01*
Y70608D01*
X143304Y69885D01*
X143857Y69331D01*
X144581Y69032D01*
X145364D01*
X146088Y69331D01*
X146641Y69885D01*
X146941Y70608D01*
Y71392D01*
X146641Y72115D01*
X146204Y72552D01*
Y82001D01*
X156999Y92796D01*
X158420D01*
X158885Y92331D01*
X159608Y92032D01*
X160392D01*
X161115Y92331D01*
X161669Y92885D01*
X161969Y93608D01*
Y94392D01*
X161669Y95115D01*
X161115Y95669D01*
X160392Y95969D01*
D02*
G37*
G36*
X158561Y80248D02*
X157778D01*
X157054Y79948D01*
X156500Y79395D01*
X156201Y78671D01*
Y77888D01*
X156500Y77165D01*
X157054Y76611D01*
X157778Y76311D01*
X158561D01*
X159284Y76611D01*
X159838Y77165D01*
X160138Y77888D01*
Y78671D01*
X159838Y79395D01*
X159284Y79948D01*
X158561Y80248D01*
D02*
G37*
G36*
X25354Y80090D02*
X24654D01*
X23978Y79909D01*
X23372Y79559D01*
X22877Y79065D01*
X22528Y78459D01*
X22346Y77783D01*
Y77083D01*
X22528Y76407D01*
X22877Y75801D01*
X23372Y75306D01*
X23978Y74957D01*
X24654Y74775D01*
X25354D01*
X26030Y74957D01*
X26636Y75306D01*
X27130Y75801D01*
X27480Y76407D01*
X27661Y77083D01*
Y77783D01*
X27480Y78459D01*
X27130Y79065D01*
X26636Y79559D01*
X26030Y79909D01*
X25354Y80090D01*
D02*
G37*
G36*
X98852Y77772D02*
X98148D01*
X97496Y77502D01*
X96998Y77004D01*
X96728Y76352D01*
Y75648D01*
X96998Y74996D01*
X97496Y74498D01*
X98148Y74228D01*
X98852D01*
X99504Y74498D01*
X100002Y74996D01*
X100272Y75648D01*
Y76352D01*
X100002Y77004D01*
X99504Y77502D01*
X98852Y77772D01*
D02*
G37*
%LPD*%
D11*
X104000Y168000D02*
X117566D01*
X131985Y153581D01*
Y151015D02*
Y153581D01*
Y151015D02*
X134067Y148933D01*
X90500Y154500D02*
X93841Y151159D01*
X89978Y148500D02*
X109500D01*
X129226Y153000D02*
Y153195D01*
X125233Y157107D02*
X126974Y155366D01*
X122146Y151622D02*
X122931Y152407D01*
X119358Y152008D02*
X119784D01*
X126076Y153004D02*
Y153029D01*
X123910Y155196D02*
X126076Y153029D01*
X120000Y148883D02*
X122146Y151029D01*
X118376Y151026D02*
X119358Y152008D01*
X118923Y155196D02*
X123910D01*
X122146Y151029D02*
Y151622D01*
X118107Y157107D02*
X125233D01*
X127055Y155366D02*
X129226Y153195D01*
X126974Y155366D02*
X127055D01*
X122931Y152407D02*
Y152833D01*
X120000Y143461D02*
Y148883D01*
X117982Y151026D02*
X118376D01*
X117425Y150469D02*
X117982Y151026D01*
X117425Y144036D02*
Y150469D01*
X90675Y95862D02*
X94016D01*
X96378Y93500D01*
X91654D02*
X103852Y81301D01*
X105699D01*
X106000Y81000D01*
X145000Y82500D02*
X156500Y94000D01*
X160000D01*
X144972Y71000D02*
X145000Y71028D01*
Y82500D01*
X89291Y94478D02*
X90675Y95862D01*
X89291Y88807D02*
Y94478D01*
Y88807D02*
X91000Y87098D01*
Y81000D02*
Y87098D01*
X90166Y146461D02*
X115389D01*
X58941Y115236D02*
X90166Y146461D01*
X115850Y146923D02*
Y152123D01*
X115389Y146461D02*
X115850Y146923D01*
X109500Y148500D02*
X118107Y157107D01*
X57366Y115888D02*
X89978Y148500D01*
X115850Y152123D02*
X118923Y155196D01*
X118539Y142000D02*
X120000Y143461D01*
X90159Y142000D02*
X118539D01*
X89507Y143575D02*
X116964D01*
X117425Y144036D01*
X57366Y85634D02*
Y115888D01*
Y85634D02*
X62500Y80500D01*
X64754Y113254D02*
X90000Y138500D01*
X66815Y108862D02*
Y110815D01*
X60516Y114583D02*
X89507Y143575D01*
X60516Y97144D02*
Y114583D01*
X64754Y111301D02*
Y113254D01*
X58941Y88559D02*
Y115236D01*
X60516Y97144D02*
X62500Y95159D01*
X62878Y98500D02*
Y104734D01*
X64453Y106500D02*
X66815Y108862D01*
Y110815D02*
X91393Y135393D01*
X62091Y113931D02*
X90159Y142000D01*
X64453Y111000D02*
X64754Y111301D01*
X62091Y105522D02*
X62878Y104734D01*
X58941Y88559D02*
X62500Y85000D01*
X62091Y105522D02*
Y113931D01*
X62500Y89500D02*
Y95159D01*
X90000Y138500D02*
X133500D01*
X91393Y135393D02*
X132982D01*
D61*
X81500Y51000D02*
X93000Y62500D01*
X96322Y60186D02*
X138636Y102500D01*
X87871Y126979D02*
X87946Y127054D01*
X85000Y123000D02*
X87871Y125871D01*
Y126979D01*
X88425Y107925D02*
X88500Y108000D01*
X84425Y107925D02*
X88425D01*
X77500Y101000D02*
X84425Y107925D01*
X88500Y108000D02*
Y108107D01*
X85906Y110700D02*
X88500Y108107D01*
X85906Y110700D02*
Y119594D01*
X156240Y72630D02*
X158406D01*
X162953Y77177D01*
Y95223D01*
X160093Y98083D02*
X162953Y95223D01*
X156946Y98083D02*
X160093D01*
X152604Y102425D02*
X156946Y98083D01*
X149075Y102425D02*
X152604D01*
X149000Y102500D02*
X149075Y102425D01*
X88000Y127000D02*
X88107D01*
X88607Y126500D01*
X93000D01*
X77000Y94500D02*
X85872Y85628D01*
Y77407D02*
Y85628D01*
X77000Y94500D02*
X86251D01*
X89778Y98028D01*
X94913D01*
X96487Y96453D01*
X97601D01*
X99331Y94723D01*
Y94669D02*
Y94723D01*
Y94669D02*
X103000Y91000D01*
X109031D01*
X92925Y59925D02*
X93000Y60000D01*
X92925Y58100D02*
Y59925D01*
X84047Y49223D02*
X92925Y58100D01*
X84047Y46777D02*
Y49223D01*
Y46777D02*
X91398Y39426D01*
X101574D01*
X109000Y32000D01*
X87000Y48000D02*
X94500Y55500D01*
X99000D01*
X142500Y99000D02*
X149000D01*
X99000Y55500D02*
X142500Y99000D01*
X131500Y106000D02*
X135000Y102500D01*
X138636D01*
X149000D01*
X66000Y51000D02*
X81500D01*
X80000Y62500D02*
X93000D01*
D62*
X154500Y139000D02*
D03*
D63*
Y129000D02*
D03*
D64*
X25004Y104205D02*
D03*
Y77433D02*
D03*
D65*
X158169Y78280D02*
D03*
Y101035D02*
D03*
X104000Y168000D02*
D03*
X134067Y148933D02*
D03*
X93841Y151159D02*
D03*
X90500Y154500D02*
D03*
X129226Y153000D02*
D03*
X126076Y153004D02*
D03*
X122931Y152833D02*
D03*
X119784Y152008D02*
D03*
X87946Y127054D02*
D03*
X85872Y77407D02*
D03*
X77000Y94500D02*
D03*
X109031Y91000D02*
D03*
X109000Y32000D02*
D03*
X88500Y108000D02*
D03*
X85906Y119594D02*
D03*
X85000Y123000D02*
D03*
X93000Y126500D02*
D03*
X87000Y48000D02*
D03*
X131500Y106000D02*
D03*
X149000Y102500D02*
D03*
X77500Y101000D02*
D03*
X66000Y51000D02*
D03*
X96271Y62802D02*
D03*
X96322Y60186D02*
D03*
X93000Y60000D02*
D03*
Y62500D02*
D03*
X80000D02*
D03*
X149000Y99000D02*
D03*
X91654Y93500D02*
D03*
X160000Y94000D02*
D03*
X144972Y71000D02*
D03*
X106000Y81000D02*
D03*
X96378Y93500D02*
D03*
X91000Y81000D02*
D03*
X64453Y111000D02*
D03*
Y106500D02*
D03*
X62878Y98500D02*
D03*
X62500Y80500D02*
D03*
Y85000D02*
D03*
Y89500D02*
D03*
X132982Y135393D02*
D03*
X133500Y138500D02*
D03*
D66*
X156240Y72630D02*
D03*
Y106685D02*
D03*
D67*
X172657Y72630D02*
D03*
Y106685D02*
D03*
D68*
X98500Y76000D02*
D03*
M02*
