M48
;Layer_Color=9474304
;FILE_FORMAT=2:5
INCH
;TYPE=PLATED
T01F00S00C0.01181
T03F00S00C0.04016
%
T01
X0066000Y0051000
X0087000Y0048000
X0093000Y0060000
Y0062500
X0096271Y0062802
X0096322Y0060186
X0080000Y0062500
X0085872Y0077407
X0091000Y0081000
X0091654Y0093500
X0096378
X0109031Y0091000
X0106000Y0081000
X0077000Y0094500
X0077500Y0101000
X0062878Y0098500
X0062500Y0089500
Y0085000
Y0080500
X0064453Y0106500
Y0111000
X0088500Y0108000
X0085906Y0119594
X0085000Y0123000
X0087946Y0127054
X0093000Y0126500
X0093841Y0151159
X0090500Y0154500
X0119784Y0152008
X0122931Y0152833
X0126076Y0153004
X0129226Y0153000
X0134067Y0148933
X0133500Y0138500
X0132982Y0135393
X0131500Y0106000
X0149000Y0102500
Y0099000
X0144972Y0071000
X0109000Y0032000
X0160000Y0094000
X0104000Y0168000
T03
X0154500Y0129000
Y0139000
M30
