G04*
G04 #@! TF.GenerationSoftware,Altium Limited,Altium Designer,25.2.1 (25)*
G04*
G04 Layer_Color=16711935*
%FSLAX25Y25*%
%MOIN*%
G70*
G04*
G04 #@! TF.SameCoordinates,BE8575E0-A9B8-4DC4-A426-645646EFF105*
G04*
G04*
G04 #@! TF.FilePolarity,Positive*
G04*
G01*
G75*
%ADD10C,0.00394*%
%ADD11C,0.00787*%
%ADD12C,0.00945*%
%ADD13C,0.00500*%
G36*
X117362Y77031D02*
Y75063D01*
X112638D01*
Y77031D01*
X117362D01*
D02*
G37*
G36*
Y82937D02*
Y80968D01*
X112638D01*
Y82937D01*
X117362D01*
D02*
G37*
G36*
X149721Y60520D02*
X151689D01*
Y55795D01*
X149721D01*
Y60520D01*
D02*
G37*
G36*
X155626D02*
X157595D01*
Y55795D01*
X155626D01*
Y60520D01*
D02*
G37*
D10*
X9335Y66409D02*
Y118575D01*
X67406D01*
Y59323D02*
Y118575D01*
X8350Y66409D02*
X9335D01*
X8350Y62079D02*
Y66409D01*
Y62079D02*
X9335D01*
Y59323D02*
Y62079D01*
Y59323D02*
X67406D01*
D11*
X154894Y145961D02*
G03*
X154894Y145961I-394J0D01*
G01*
X149429Y77059D02*
G03*
X149429Y77059I-394J0D01*
G01*
X72992Y154370D02*
G03*
X72992Y154370I-394J0D01*
G01*
X102409Y39185D02*
G03*
X102409Y39185I-394J0D01*
G01*
X55736Y140319D02*
G03*
X55736Y140319I-394J0D01*
G01*
X112638Y75063D02*
Y82937D01*
X117362D01*
Y75063D02*
Y82937D01*
X112638Y75063D02*
X117362D01*
X149720Y55795D02*
X157594D01*
X149720D02*
Y60520D01*
X157594D01*
Y55795D02*
Y60520D01*
D12*
X74689Y78220D02*
G03*
X74689Y78220I-472J0D01*
G01*
D13*
X90169Y167665D02*
X98831D01*
X90169Y173335D02*
X98831D01*
Y167665D02*
Y173335D01*
X90169Y167665D02*
Y173335D01*
X149901Y143402D02*
X159098D01*
Y124599D02*
Y143402D01*
X149901Y124599D02*
X159098D01*
X149901D02*
Y143402D01*
Y124599D02*
Y143402D01*
X182894Y72059D02*
Y107256D01*
X153957D02*
X182894D01*
X153957Y72059D02*
Y107256D01*
Y72059D02*
X182894D01*
X180965Y68004D02*
Y125091D01*
X136795Y83165D02*
Y88835D01*
X128134Y83165D02*
Y88835D01*
Y83165D02*
X136795D01*
X128134Y88835D02*
X136795D01*
X156563Y112039D02*
Y116961D01*
X164437Y112039D02*
Y116961D01*
X156563D02*
X164437D01*
X156563Y112039D02*
X164437D01*
X67307Y149161D02*
Y162154D01*
X61008D02*
X67307D01*
X61008Y149161D02*
Y162154D01*
Y149161D02*
X67307D01*
X82205Y103189D02*
X137323D01*
X82205Y158307D02*
X137323D01*
Y103189D02*
Y158307D01*
X82205Y103189D02*
Y158307D01*
X138937Y55539D02*
Y60461D01*
X131063Y55539D02*
Y60461D01*
Y55539D02*
X138937D01*
X131063Y60461D02*
X138937D01*
Y68039D02*
Y72961D01*
X131063Y68039D02*
Y72961D01*
Y68039D02*
X138937D01*
X131063Y72961D02*
X138937D01*
X86988Y66823D02*
Y72492D01*
X78327Y66823D02*
Y72492D01*
Y66823D02*
X86988D01*
X78327Y72492D02*
X86988D01*
X103717Y71906D02*
Y85685D01*
X93283Y71906D02*
X103717D01*
X93283D02*
Y85685D01*
X103717D01*
X100665Y41669D02*
X106335D01*
X100665Y50331D02*
X106335D01*
X100665Y41669D02*
Y50331D01*
X106335Y41669D02*
Y50331D01*
X91165Y41669D02*
X96835D01*
X91165Y50331D02*
X96835D01*
X91165Y41669D02*
Y50331D01*
X96835Y41669D02*
Y50331D01*
X105805Y12600D02*
Y26400D01*
X80195Y12600D02*
X105805D01*
X80195D02*
Y26400D01*
X105805D01*
X121437Y56039D02*
Y60961D01*
X113563Y56039D02*
Y60961D01*
Y56039D02*
X121437D01*
X113563Y60961D02*
X121437D01*
X86488Y82323D02*
Y87992D01*
X77827Y82323D02*
Y87992D01*
Y82323D02*
X86488D01*
X77827Y87992D02*
X86488D01*
X149563Y42539D02*
Y47461D01*
X157437Y42539D02*
Y47461D01*
X149563D02*
X157437D01*
X149563Y42539D02*
X157437D01*
X50953Y146323D02*
Y151992D01*
X42291Y146323D02*
Y151992D01*
Y146323D02*
X50953D01*
X42291Y151992D02*
X50953D01*
X51488Y155323D02*
Y160992D01*
X42827Y155323D02*
Y160992D01*
Y155323D02*
X51488D01*
X42827Y160992D02*
X51488D01*
X49453Y136323D02*
Y141992D01*
X40791Y136323D02*
Y141992D01*
Y136323D02*
X49453D01*
X40791Y141992D02*
X49453D01*
X48988Y127323D02*
Y132992D01*
X40327Y127323D02*
Y132992D01*
Y127323D02*
X48988D01*
X40327Y132992D02*
X48988D01*
X64823Y37988D02*
X70492D01*
X64823Y29327D02*
X70492D01*
Y37988D01*
X64823Y29327D02*
Y37988D01*
X59083Y142287D02*
X68925D01*
Y129689D02*
Y142287D01*
X59083Y129689D02*
Y142287D01*
Y129689D02*
X68925D01*
X116823Y28988D02*
X122492D01*
X116823Y20327D02*
X122492D01*
Y28988D01*
X116823Y20327D02*
Y28988D01*
X126323D02*
X131992D01*
X126323Y20327D02*
X131992D01*
Y28988D01*
X126323Y20327D02*
Y28988D01*
M02*
