G04*
G04 #@! TF.GenerationSoftware,Altium Limited,Altium Designer,25.2.1 (25)*
G04*
G04 Layer_Color=8421504*
%FSLAX25Y25*%
%MOIN*%
G70*
G04*
G04 #@! TF.SameCoordinates,BE8575E0-A9B8-4DC4-A426-645646EFF105*
G04*
G04*
G04 #@! TF.FilePolarity,Positive*
G04*
G01*
G75*
%ADD16R,0.04567X0.05787*%
%ADD17C,0.04724*%
%ADD18R,0.05512X0.02441*%
%ADD19R,0.09449X0.04331*%
%ADD20R,0.04488X0.02362*%
%ADD21R,0.04488X0.01181*%
%ADD22R,0.04528X0.04528*%
%ADD23R,0.07087X0.03937*%
G04:AMPARAMS|DCode=24|XSize=11.02mil|YSize=61.42mil|CornerRadius=1.38mil|HoleSize=0mil|Usage=FLASHONLY|Rotation=0.000|XOffset=0mil|YOffset=0mil|HoleType=Round|Shape=RoundedRectangle|*
%AMROUNDEDRECTD24*
21,1,0.01102,0.05866,0,0,0.0*
21,1,0.00827,0.06142,0,0,0.0*
1,1,0.00276,0.00413,-0.02933*
1,1,0.00276,-0.00413,-0.02933*
1,1,0.00276,-0.00413,0.02933*
1,1,0.00276,0.00413,0.02933*
%
%ADD24ROUNDEDRECTD24*%
G04:AMPARAMS|DCode=25|XSize=61.42mil|YSize=11.02mil|CornerRadius=1.38mil|HoleSize=0mil|Usage=FLASHONLY|Rotation=0.000|XOffset=0mil|YOffset=0mil|HoleType=Round|Shape=RoundedRectangle|*
%AMROUNDEDRECTD25*
21,1,0.06142,0.00827,0,0,0.0*
21,1,0.05866,0.01102,0,0,0.0*
1,1,0.00276,0.02933,-0.00413*
1,1,0.00276,-0.02933,-0.00413*
1,1,0.00276,-0.02933,0.00413*
1,1,0.00276,0.02933,0.00413*
%
%ADD25ROUNDEDRECTD25*%
%ADD26R,0.01968X0.01661*%
%ADD27R,0.05787X0.04567*%
G04:AMPARAMS|DCode=28|XSize=51.58mil|YSize=36.61mil|CornerRadius=2.75mil|HoleSize=0mil|Usage=FLASHONLY|Rotation=270.000|XOffset=0mil|YOffset=0mil|HoleType=Round|Shape=RoundedRectangle|*
%AMROUNDEDRECTD28*
21,1,0.05158,0.03112,0,0,270.0*
21,1,0.04608,0.03661,0,0,270.0*
1,1,0.00549,-0.01556,-0.02304*
1,1,0.00549,-0.01556,0.02304*
1,1,0.00549,0.01556,0.02304*
1,1,0.00549,0.01556,-0.02304*
%
%ADD28ROUNDEDRECTD28*%
G04:AMPARAMS|DCode=29|XSize=51.58mil|YSize=127.56mil|CornerRadius=3.87mil|HoleSize=0mil|Usage=FLASHONLY|Rotation=270.000|XOffset=0mil|YOffset=0mil|HoleType=Round|Shape=RoundedRectangle|*
%AMROUNDEDRECTD29*
21,1,0.05158,0.11982,0,0,270.0*
21,1,0.04384,0.12756,0,0,270.0*
1,1,0.00774,-0.05991,-0.02192*
1,1,0.00774,-0.05991,0.02192*
1,1,0.00774,0.05991,0.02192*
1,1,0.00774,0.05991,-0.02192*
%
%ADD29ROUNDEDRECTD29*%
%ADD30R,0.05709X0.04331*%
%ADD31R,0.04331X0.05709*%
%ADD32R,0.05906X0.05512*%
%ADD33R,0.04724X0.05512*%
G36*
X96500Y75721D02*
X96516Y75626D01*
X96535Y75535D01*
X96559Y75445D01*
X96587Y75358D01*
X96618Y75268D01*
X96653Y75181D01*
X96693Y75098D01*
X96736Y75016D01*
X96784Y74937D01*
X96835Y74858D01*
X96886Y74779D01*
X96945Y74709D01*
X97008Y74638D01*
X97071Y74571D01*
X97138Y74508D01*
X97209Y74445D01*
X97280Y74386D01*
X97358Y74335D01*
X97437Y74283D01*
X97516Y74236D01*
X97598Y74193D01*
X97681Y74154D01*
X97768Y74118D01*
X97858Y74087D01*
X97945Y74059D01*
X98035Y74035D01*
X98126Y74016D01*
X98220Y74000D01*
X98303Y73992D01*
Y72811D01*
X98150Y72823D01*
X98000Y72843D01*
X97847Y72870D01*
X97697Y72902D01*
X97547Y72945D01*
X97398Y72992D01*
X97256Y73051D01*
X97114Y73114D01*
X96976Y73181D01*
X96842Y73260D01*
X96713Y73343D01*
X96583Y73429D01*
X96461Y73528D01*
X96346Y73626D01*
X96232Y73732D01*
X96126Y73847D01*
X96028Y73961D01*
X95929Y74083D01*
X95842Y74213D01*
X95760Y74343D01*
X95681Y74476D01*
X95614Y74614D01*
X95551Y74756D01*
X95492Y74898D01*
X95445Y75047D01*
X95402Y75197D01*
X95370Y75346D01*
X95342Y75500D01*
X95323Y75650D01*
X95311Y75803D01*
X96492D01*
X96500Y75721D01*
D02*
G37*
G36*
X98303Y78008D02*
X98220Y78000D01*
X98126Y77984D01*
X98035Y77965D01*
X97945Y77941D01*
X97858Y77913D01*
X97768Y77882D01*
X97681Y77846D01*
X97598Y77807D01*
X97516Y77764D01*
X97437Y77716D01*
X97358Y77665D01*
X97280Y77614D01*
X97209Y77555D01*
X97138Y77492D01*
X97071Y77429D01*
X97008Y77362D01*
X96945Y77291D01*
X96886Y77220D01*
X96835Y77142D01*
X96784Y77063D01*
X96736Y76984D01*
X96693Y76902D01*
X96653Y76819D01*
X96618Y76732D01*
X96587Y76642D01*
X96559Y76555D01*
X96535Y76465D01*
X96516Y76374D01*
X96500Y76279D01*
X96492Y76197D01*
X95311D01*
X95323Y76350D01*
X95342Y76500D01*
X95370Y76653D01*
X95402Y76803D01*
X95445Y76953D01*
X95492Y77102D01*
X95551Y77244D01*
X95614Y77386D01*
X95681Y77524D01*
X95760Y77658D01*
X95842Y77787D01*
X95929Y77917D01*
X96028Y78039D01*
X96126Y78154D01*
X96232Y78268D01*
X96346Y78374D01*
X96461Y78472D01*
X96583Y78571D01*
X96713Y78658D01*
X96842Y78740D01*
X96976Y78819D01*
X97114Y78886D01*
X97256Y78949D01*
X97398Y79008D01*
X97547Y79055D01*
X97697Y79098D01*
X97847Y79130D01*
X98000Y79158D01*
X98150Y79177D01*
X98303Y79189D01*
Y78008D01*
D02*
G37*
G36*
X101677Y75650D02*
X101657Y75500D01*
X101630Y75346D01*
X101598Y75197D01*
X101555Y75047D01*
X101508Y74898D01*
X101449Y74756D01*
X101386Y74614D01*
X101319Y74476D01*
X101240Y74343D01*
X101157Y74213D01*
X101071Y74083D01*
X100972Y73961D01*
X100874Y73847D01*
X100768Y73732D01*
X100654Y73626D01*
X100539Y73528D01*
X100417Y73429D01*
X100287Y73343D01*
X100157Y73260D01*
X100024Y73181D01*
X99886Y73114D01*
X99744Y73051D01*
X99602Y72992D01*
X99453Y72945D01*
X99303Y72902D01*
X99154Y72870D01*
X99000Y72843D01*
X98850Y72823D01*
X98697Y72811D01*
Y73992D01*
X98779Y74000D01*
X98874Y74016D01*
X98965Y74035D01*
X99055Y74059D01*
X99142Y74087D01*
X99232Y74118D01*
X99319Y74154D01*
X99402Y74193D01*
X99484Y74236D01*
X99563Y74283D01*
X99642Y74335D01*
X99721Y74386D01*
X99791Y74445D01*
X99862Y74508D01*
X99929Y74571D01*
X99992Y74638D01*
X100055Y74709D01*
X100114Y74779D01*
X100165Y74858D01*
X100216Y74937D01*
X100264Y75016D01*
X100307Y75098D01*
X100347Y75181D01*
X100382Y75268D01*
X100413Y75358D01*
X100441Y75445D01*
X100465Y75535D01*
X100484Y75626D01*
X100500Y75721D01*
X100508Y75803D01*
X101689D01*
X101677Y75650D01*
D02*
G37*
G36*
X98850Y79177D02*
X99000Y79158D01*
X99154Y79130D01*
X99303Y79098D01*
X99453Y79055D01*
X99602Y79008D01*
X99744Y78949D01*
X99886Y78886D01*
X100024Y78819D01*
X100157Y78740D01*
X100287Y78658D01*
X100417Y78571D01*
X100539Y78472D01*
X100654Y78374D01*
X100768Y78268D01*
X100874Y78154D01*
X100972Y78039D01*
X101071Y77917D01*
X101157Y77787D01*
X101240Y77658D01*
X101319Y77524D01*
X101386Y77386D01*
X101449Y77244D01*
X101508Y77102D01*
X101555Y76953D01*
X101598Y76803D01*
X101630Y76653D01*
X101657Y76500D01*
X101677Y76350D01*
X101689Y76197D01*
X100508D01*
X100500Y76279D01*
X100484Y76374D01*
X100465Y76465D01*
X100441Y76555D01*
X100413Y76642D01*
X100382Y76732D01*
X100347Y76819D01*
X100307Y76902D01*
X100264Y76984D01*
X100216Y77063D01*
X100165Y77142D01*
X100114Y77220D01*
X100055Y77291D01*
X99992Y77362D01*
X99929Y77429D01*
X99862Y77492D01*
X99791Y77555D01*
X99721Y77614D01*
X99642Y77665D01*
X99563Y77716D01*
X99484Y77764D01*
X99402Y77807D01*
X99319Y77846D01*
X99232Y77882D01*
X99142Y77913D01*
X99055Y77941D01*
X98965Y77965D01*
X98874Y77984D01*
X98779Y78000D01*
X98697Y78008D01*
Y79189D01*
X98850Y79177D01*
D02*
G37*
D16*
X91035Y170500D02*
D03*
X97965D02*
D03*
X129000Y86000D02*
D03*
X135929D02*
D03*
X79193Y69657D02*
D03*
X86122D02*
D03*
X78693Y85157D02*
D03*
X85622D02*
D03*
X43157Y149157D02*
D03*
X50087D02*
D03*
X43693Y158157D02*
D03*
X50622D02*
D03*
X41657Y139157D02*
D03*
X48587D02*
D03*
X41193Y130157D02*
D03*
X48122D02*
D03*
D17*
X112157Y14657D02*
D03*
X116000Y91000D02*
D03*
X116157Y42657D02*
D03*
X82157Y43157D02*
D03*
D18*
X69965Y80661D02*
D03*
Y84992D02*
D03*
Y89323D02*
D03*
Y93654D02*
D03*
Y97984D02*
D03*
Y102315D02*
D03*
Y106646D02*
D03*
Y110976D02*
D03*
Y115307D02*
D03*
D19*
X26657Y120740D02*
D03*
X62091D02*
D03*
Y57157D02*
D03*
X26657D02*
D03*
D20*
X153957Y77059D02*
D03*
Y80209D02*
D03*
Y99106D02*
D03*
Y102256D02*
D03*
D21*
Y88673D02*
D03*
Y86705D02*
D03*
Y84736D02*
D03*
Y82768D02*
D03*
Y90642D02*
D03*
Y92610D02*
D03*
Y94579D02*
D03*
Y96547D02*
D03*
D22*
X155874Y114500D02*
D03*
X165126D02*
D03*
X139626Y58000D02*
D03*
X130374D02*
D03*
X139626Y70500D02*
D03*
X130374D02*
D03*
X122126Y58500D02*
D03*
X112874D02*
D03*
X148874Y45000D02*
D03*
X158126D02*
D03*
D23*
X64157Y160579D02*
D03*
Y150736D02*
D03*
D24*
X86142Y100512D02*
D03*
X88110D02*
D03*
X90079D02*
D03*
X92047D02*
D03*
X94016D02*
D03*
X95984D02*
D03*
X97953D02*
D03*
X99921D02*
D03*
X101890D02*
D03*
X103858D02*
D03*
X105827D02*
D03*
X107795D02*
D03*
X109764D02*
D03*
X111732D02*
D03*
X113701D02*
D03*
X115669D02*
D03*
X117638D02*
D03*
X119606D02*
D03*
X121575D02*
D03*
X123543D02*
D03*
X125512D02*
D03*
X127480D02*
D03*
X129449D02*
D03*
X131417D02*
D03*
X133386D02*
D03*
Y160984D02*
D03*
X131417D02*
D03*
X129449D02*
D03*
X127480D02*
D03*
X125512D02*
D03*
X123543D02*
D03*
X121575D02*
D03*
X119606D02*
D03*
X117638D02*
D03*
X115669D02*
D03*
X113701D02*
D03*
X111732D02*
D03*
X109764D02*
D03*
X107795D02*
D03*
X105827D02*
D03*
X103858D02*
D03*
X101890D02*
D03*
X99921D02*
D03*
X97953D02*
D03*
X95984D02*
D03*
X94016D02*
D03*
X92047D02*
D03*
X90079D02*
D03*
X88110D02*
D03*
X86142D02*
D03*
D25*
X79528Y154370D02*
D03*
Y152402D02*
D03*
Y150433D02*
D03*
Y148465D02*
D03*
Y146496D02*
D03*
Y144528D02*
D03*
Y142559D02*
D03*
Y140591D02*
D03*
Y138622D02*
D03*
Y136654D02*
D03*
Y134685D02*
D03*
Y132717D02*
D03*
Y130748D02*
D03*
Y128780D02*
D03*
Y126811D02*
D03*
Y124843D02*
D03*
Y122874D02*
D03*
Y120906D02*
D03*
Y118937D02*
D03*
Y116969D02*
D03*
Y115000D02*
D03*
Y113031D02*
D03*
Y111063D02*
D03*
Y109094D02*
D03*
Y107126D02*
D03*
X140000D02*
D03*
Y109094D02*
D03*
Y111063D02*
D03*
Y113031D02*
D03*
Y115000D02*
D03*
Y116969D02*
D03*
Y118937D02*
D03*
Y120906D02*
D03*
Y122874D02*
D03*
Y124843D02*
D03*
Y126811D02*
D03*
Y128780D02*
D03*
Y130748D02*
D03*
Y132717D02*
D03*
Y134685D02*
D03*
Y136654D02*
D03*
Y138622D02*
D03*
Y140591D02*
D03*
Y142559D02*
D03*
Y144528D02*
D03*
Y146496D02*
D03*
Y148465D02*
D03*
Y150433D02*
D03*
Y152402D02*
D03*
Y154370D02*
D03*
D26*
X94957Y84165D02*
D03*
Y80929D02*
D03*
X102043D02*
D03*
Y84165D02*
D03*
X98500D02*
D03*
D27*
X103500Y49465D02*
D03*
Y42535D02*
D03*
X94000Y49465D02*
D03*
Y42535D02*
D03*
X67657Y30193D02*
D03*
Y37122D02*
D03*
X119657Y21193D02*
D03*
Y28122D02*
D03*
X129157Y21193D02*
D03*
Y28122D02*
D03*
D28*
X102016Y32669D02*
D03*
X93000D02*
D03*
X83984D02*
D03*
D29*
X93000Y6331D02*
D03*
D30*
X115000Y75457D02*
D03*
Y82543D02*
D03*
D31*
X157201Y58157D02*
D03*
X150114D02*
D03*
D32*
X37657Y35157D02*
D03*
X53157D02*
D03*
D33*
X60657Y140319D02*
D03*
Y131657D02*
D03*
X67350D02*
D03*
Y140319D02*
D03*
M02*
