G04*
G04 #@! TF.GenerationSoftware,Altium Limited,Altium Designer,25.2.1 (25)*
G04*
G04 Layer_Color=65535*
%FSLAX25Y25*%
%MOIN*%
G70*
G04*
G04 #@! TF.SameCoordinates,BE8575E0-A9B8-4DC4-A426-645646EFF105*
G04*
G04*
G04 #@! TF.FilePolarity,Positive*
G04*
G01*
G75*
%ADD10C,0.00394*%
%ADD11C,0.00787*%
%ADD12C,0.00945*%
%ADD13C,0.00500*%
%ADD14C,0.00700*%
%ADD15C,0.01000*%
D10*
X115073Y14658D02*
G03*
X115073Y14658I-2915J0D01*
G01*
X118915Y91000D02*
G03*
X118915Y91000I-2915J0D01*
G01*
X119073Y42658D02*
G03*
X119073Y42658I-2915J0D01*
G01*
X85073Y43158D02*
G03*
X85073Y43158I-2915J0D01*
G01*
D11*
X154894Y145961D02*
G03*
X154894Y145961I-394J0D01*
G01*
X149429Y77059D02*
G03*
X149429Y77059I-394J0D01*
G01*
X72992Y154370D02*
G03*
X72992Y154370I-394J0D01*
G01*
X92053Y84122D02*
G03*
X92053Y84122I-394J0D01*
G01*
X102409Y39185D02*
G03*
X102409Y39185I-394J0D01*
G01*
X115394Y71126D02*
G03*
X115394Y71126I-394J0D01*
G01*
X161925Y58157D02*
G03*
X161925Y58157I-394J0D01*
G01*
X55736Y140319D02*
G03*
X55736Y140319I-394J0D01*
G01*
X9335Y66409D02*
Y118575D01*
X20280D01*
X32878D02*
X55713D01*
X67406Y60504D02*
Y78220D01*
X32878Y59323D02*
X55713D01*
X8350Y66409D02*
X9335D01*
X8350Y62079D02*
Y66409D01*
Y62079D02*
X9335D01*
Y59323D02*
Y62079D01*
Y59323D02*
X20280D01*
X112638Y78213D02*
Y79787D01*
X117362Y78213D02*
Y79787D01*
X152870Y55795D02*
X154445D01*
X152870Y60520D02*
X154445D01*
X37831Y40657D02*
X53157D01*
Y29157D02*
Y40575D01*
X37831Y29157D02*
X53157D01*
X37831Y33657D02*
Y40657D01*
Y29157D02*
Y33657D01*
D12*
X74689Y78220D02*
G03*
X74689Y78220I-472J0D01*
G01*
D13*
X149901Y143402D02*
X159098D01*
X149901Y124599D02*
X159098D01*
Y143402D01*
X149901Y124599D02*
Y143402D01*
X161437Y107256D02*
X168051D01*
X177264D02*
X182894D01*
X161437Y72059D02*
X168051D01*
X177264D02*
X182894D01*
Y107256D01*
X159398Y116961D02*
X161602D01*
X159398Y112039D02*
X161602D01*
X67307Y153689D02*
Y157626D01*
X61008Y153689D02*
Y157626D01*
X135197Y103189D02*
X137323D01*
X135197Y158307D02*
X137323D01*
X82205Y103189D02*
X84331D01*
X82205Y158307D02*
X84331D01*
X137323Y103189D02*
Y105315D01*
Y156181D02*
Y158307D01*
X82205Y103189D02*
Y105315D01*
Y156181D02*
Y158307D01*
X133898Y55539D02*
X136102D01*
X133898Y60461D02*
X136102D01*
X133898Y68039D02*
X136102D01*
X133898Y72961D02*
X136102D01*
X93283Y85697D02*
X103717D01*
X93283Y71917D02*
Y85697D01*
Y71917D02*
X103717D01*
Y85697D01*
X105805Y12600D02*
Y26400D01*
X80195Y12600D02*
X105805D01*
X80195D02*
Y26400D01*
X105805D01*
X116398Y56039D02*
X118602D01*
X116398Y60961D02*
X118602D01*
X152398Y47461D02*
X154602D01*
X152398Y42539D02*
X154602D01*
X68925Y135673D02*
Y136303D01*
X59083Y135673D02*
Y136303D01*
D14*
X83500Y170500D02*
X83000Y170000D01*
Y169001D01*
X83500Y168501D01*
X85500D01*
X86000Y169001D01*
Y170000D01*
X85500Y170500D01*
X83000Y171500D02*
Y173499D01*
X83500D01*
X85500Y171500D01*
X86000D01*
X108501Y8999D02*
X110501D01*
X109501D01*
Y6001D01*
X111500D02*
Y8999D01*
X113000D01*
X113500Y8500D01*
Y7500D01*
X113000Y7000D01*
X111500D01*
X115999Y6001D02*
Y8999D01*
X114499Y7500D01*
X116499D01*
X78158Y92657D02*
X77658Y93157D01*
X76658D01*
X76158Y92657D01*
Y90658D01*
X76658Y90158D01*
X77658D01*
X78158Y90658D01*
X81157Y93157D02*
X79157D01*
Y91658D01*
X80157Y92157D01*
X80657D01*
X81157Y91658D01*
Y90658D01*
X80657Y90158D01*
X79657D01*
X79157Y90658D01*
X78658Y77657D02*
X78158Y78157D01*
X77158D01*
X76658Y77657D01*
Y75658D01*
X77158Y75158D01*
X78158D01*
X78658Y75658D01*
X79657Y75158D02*
X80657D01*
X80157D01*
Y78157D01*
X79657Y77657D01*
X58658Y167657D02*
Y167157D01*
X59658Y166157D01*
X60658Y167157D01*
Y167657D01*
X59658Y166157D02*
Y164658D01*
X63657D02*
X61657D01*
X63657Y166657D01*
Y167157D01*
X63157Y167657D01*
X62157D01*
X61657Y167157D01*
X55257Y149856D02*
Y149357D01*
X56257Y148357D01*
X57257Y149357D01*
Y149856D01*
X56257Y148357D02*
Y146858D01*
X58257D02*
X59256D01*
X58756D01*
Y149856D01*
X58257Y149357D01*
X75001Y29501D02*
X77500D01*
X78000Y30001D01*
Y31000D01*
X77500Y31500D01*
X75001D01*
X78000Y34499D02*
Y32500D01*
X76000Y34499D01*
X75500D01*
X75001Y33999D01*
Y33000D01*
X75500Y32500D01*
X113700Y51499D02*
X115699D01*
X114700D01*
Y48500D01*
X116699D02*
Y51499D01*
X118199D01*
X118698Y50999D01*
Y49999D01*
X118199Y49500D01*
X116699D01*
X119698Y50999D02*
X120198Y51499D01*
X121198D01*
X121697Y50999D01*
Y50499D01*
X121198Y49999D01*
X120698D01*
X121198D01*
X121697Y49500D01*
Y49000D01*
X121198Y48500D01*
X120198D01*
X119698Y49000D01*
X79700Y51999D02*
X81699D01*
X80700D01*
Y49000D01*
X82699D02*
Y51999D01*
X84199D01*
X84698Y51499D01*
Y50499D01*
X84199Y50000D01*
X82699D01*
X87697Y49000D02*
X85698D01*
X87697Y50999D01*
Y51499D01*
X87198Y51999D01*
X86198D01*
X85698Y51499D01*
X123500Y94499D02*
Y92500D01*
Y93499D01*
X120501D01*
Y91500D02*
X123500D01*
Y90000D01*
X123000Y89500D01*
X122000D01*
X121500Y90000D01*
Y91500D01*
X120501Y88501D02*
Y87501D01*
Y88001D01*
X123500D01*
X123000Y88501D01*
X12660Y127657D02*
X12160Y128157D01*
X11161D01*
X10661Y127657D01*
Y127157D01*
X11161Y126657D01*
X12160D01*
X12660Y126158D01*
Y125658D01*
X12160Y125158D01*
X11161D01*
X10661Y125658D01*
X13660Y128157D02*
Y125158D01*
X15159D01*
X15659Y125658D01*
Y127657D01*
X15159Y128157D01*
X13660D01*
X21657Y127657D02*
X21157Y128157D01*
X20158D01*
X19658Y127657D01*
Y125658D01*
X20158Y125158D01*
X21157D01*
X21657Y125658D01*
X23157Y127157D02*
X24156D01*
X24656Y126657D01*
Y125158D01*
X23157D01*
X22657Y125658D01*
X23157Y126158D01*
X24656D01*
X25656Y127157D02*
Y125158D01*
Y126158D01*
X26156Y126657D01*
X26656Y127157D01*
X27155D01*
X30654Y128157D02*
Y125158D01*
X29155D01*
X28655Y125658D01*
Y126657D01*
X29155Y127157D01*
X30654D01*
X34958Y43758D02*
Y46757D01*
X36457D01*
X36957Y46257D01*
Y45257D01*
X36457Y44757D01*
X34958D01*
X35957D02*
X36957Y43758D01*
X39956Y46257D02*
X39456Y46757D01*
X38456D01*
X37957Y46257D01*
Y45757D01*
X38456Y45257D01*
X39456D01*
X39956Y44757D01*
Y44257D01*
X39456Y43758D01*
X38456D01*
X37957Y44257D01*
X40955Y46757D02*
X42955D01*
X41955D01*
Y43758D01*
X120001Y84997D02*
X123000D01*
Y83498D01*
X122500Y82998D01*
X121500D01*
X121000Y83498D01*
Y84997D01*
Y83998D02*
X120001Y82998D01*
X123000Y79999D02*
Y81998D01*
X120001D01*
Y79999D01*
X121500Y81998D02*
Y80998D01*
X122500Y77000D02*
X123000Y77500D01*
Y78499D01*
X122500Y78999D01*
X122000D01*
X121500Y78499D01*
Y77500D01*
X121000Y77000D01*
X120500D01*
X120001Y77500D01*
Y78499D01*
X120500Y78999D01*
X123000Y76000D02*
X120500D01*
X120001Y75500D01*
Y74501D01*
X120500Y74001D01*
X123000D01*
Y73001D02*
X120001D01*
Y71002D01*
X123000Y70002D02*
Y68003D01*
Y69002D01*
X120001D01*
X146001Y50001D02*
Y53000D01*
X147500D01*
X148000Y52500D01*
Y51500D01*
X147500Y51000D01*
X146001D01*
X147001D02*
X148000Y50001D01*
X150999Y53000D02*
X149000D01*
Y51500D01*
X149999Y52000D01*
X150499D01*
X150999Y51500D01*
Y50500D01*
X150499Y50001D01*
X149500D01*
X149000Y50500D01*
X128001Y74501D02*
Y77500D01*
X129500D01*
X130000Y77000D01*
Y76000D01*
X129500Y75500D01*
X128001D01*
X129000D02*
X130000Y74501D01*
X132499D02*
Y77500D01*
X131000Y76000D01*
X132999D01*
X128001Y62501D02*
Y65500D01*
X129500D01*
X130000Y65000D01*
Y64000D01*
X129500Y63500D01*
X128001D01*
X129000D02*
X130000Y62501D01*
X131000Y65000D02*
X131500Y65500D01*
X132499D01*
X132999Y65000D01*
Y64500D01*
X132499Y64000D01*
X132000D01*
X132499D01*
X132999Y63500D01*
Y63000D01*
X132499Y62501D01*
X131500D01*
X131000Y63000D01*
X110501Y63001D02*
Y66000D01*
X112000D01*
X112500Y65500D01*
Y64500D01*
X112000Y64000D01*
X110501D01*
X111501D02*
X112500Y63001D01*
X115499D02*
X113500D01*
X115499Y65000D01*
Y65500D01*
X114999Y66000D01*
X114000D01*
X113500Y65500D01*
X152501Y119501D02*
Y122500D01*
X154000D01*
X154500Y122000D01*
Y121000D01*
X154000Y120500D01*
X152501D01*
X153500D02*
X154500Y119501D01*
X155500D02*
X156499D01*
X156000D01*
Y122500D01*
X155500Y122000D01*
X147160Y63658D02*
Y66657D01*
X148659D01*
X149159Y66157D01*
Y65158D01*
X148659Y64658D01*
X147160D01*
X151658Y66657D02*
X150659D01*
X150159Y66157D01*
Y64158D01*
X150659Y63658D01*
X151658D01*
X152158Y64158D01*
Y66157D01*
X151658Y66657D01*
X153158D02*
Y63658D01*
X154157Y64658D01*
X155157Y63658D01*
Y66657D01*
X158156D02*
X156157D01*
Y63658D01*
X158156D01*
X156157Y65158D02*
X157157D01*
X159156Y63658D02*
Y66657D01*
X160655D01*
X161155Y66157D01*
Y65158D01*
X160655Y64658D01*
X159156D01*
X160155D02*
X161155Y63658D01*
X91600Y89500D02*
Y92499D01*
X92600Y91499D01*
X93599Y92499D01*
Y89500D01*
X94599Y92499D02*
Y89500D01*
Y90500D01*
X96598Y92499D01*
X95099Y91000D01*
X96598Y89500D01*
X97598D02*
X98598D01*
X98098D01*
Y92499D01*
X97598Y91999D01*
X163999Y132500D02*
Y133500D01*
Y133000D01*
X161500D01*
X161001Y133500D01*
Y133999D01*
X161500Y134499D01*
X163500Y131500D02*
X163999Y131000D01*
Y130001D01*
X163500Y129501D01*
X163000D01*
X162500Y130001D01*
Y130500D01*
Y130001D01*
X162000Y129501D01*
X161500D01*
X161001Y130001D01*
Y131000D01*
X161500Y131500D01*
X145658Y72658D02*
Y71658D01*
Y72158D01*
X148157D01*
X148657Y71658D01*
Y71158D01*
X148157Y70658D01*
X148657Y73657D02*
Y74657D01*
Y74157D01*
X145658D01*
X146158Y73657D01*
X127857Y36657D02*
X127357Y37157D01*
X126357D01*
X125857Y36657D01*
Y34657D01*
X126357Y34157D01*
X127357D01*
X127857Y34657D01*
X128857Y34157D02*
X129856D01*
X129356D01*
Y37157D01*
X128857Y36657D01*
X131356D02*
X131855Y37157D01*
X132855D01*
X133355Y36657D01*
Y36157D01*
X132855Y35657D01*
X132355D01*
X132855D01*
X133355Y35157D01*
Y34657D01*
X132855Y34157D01*
X131855D01*
X131356Y34657D01*
X101751Y57500D02*
X101251Y57999D01*
X100251D01*
X99751Y57500D01*
Y55500D01*
X100251Y55001D01*
X101251D01*
X101751Y55500D01*
X102750Y55001D02*
X103750D01*
X103250D01*
Y57999D01*
X102750Y57500D01*
X107249Y55001D02*
X105249D01*
X107249Y57000D01*
Y57500D01*
X106749Y57999D01*
X105749D01*
X105249Y57500D01*
X36658Y156908D02*
X36158Y156408D01*
Y155408D01*
X36658Y154909D01*
X38657D01*
X39157Y155408D01*
Y156408D01*
X38657Y156908D01*
X39157Y157908D02*
Y158907D01*
Y158407D01*
X36158D01*
X36658Y157908D01*
X39157Y160407D02*
Y161406D01*
Y160907D01*
X36158D01*
X36658Y160407D01*
X35622Y147408D02*
X35122Y146908D01*
Y145908D01*
X35622Y145409D01*
X37622D01*
X38122Y145908D01*
Y146908D01*
X37622Y147408D01*
X38122Y148408D02*
Y149407D01*
Y148908D01*
X35122D01*
X35622Y148408D01*
Y150907D02*
X35122Y151407D01*
Y152406D01*
X35622Y152906D01*
X37622D01*
X38122Y152406D01*
Y151407D01*
X37622Y150907D01*
X35622D01*
X34158Y129658D02*
X33658Y129158D01*
Y128158D01*
X34158Y127658D01*
X36157D01*
X36657Y128158D01*
Y129158D01*
X36157Y129658D01*
Y130657D02*
X36657Y131157D01*
Y132157D01*
X36157Y132657D01*
X34158D01*
X33658Y132157D01*
Y131157D01*
X34158Y130657D01*
X34658D01*
X35157Y131157D01*
Y132657D01*
X34622Y139158D02*
X34122Y138658D01*
Y137658D01*
X34622Y137158D01*
X36622D01*
X37122Y137658D01*
Y138658D01*
X36622Y139158D01*
X34622Y140157D02*
X34122Y140657D01*
Y141657D01*
X34622Y142157D01*
X35122D01*
X35622Y141657D01*
X36122Y142157D01*
X36622D01*
X37122Y141657D01*
Y140657D01*
X36622Y140157D01*
X36122D01*
X35622Y140657D01*
X35122Y140157D01*
X34622D01*
X35622Y140657D02*
Y141657D01*
X127929Y93000D02*
X127429Y93499D01*
X126430D01*
X125930Y93000D01*
Y91000D01*
X126430Y90500D01*
X127429D01*
X127929Y91000D01*
X130928Y93499D02*
X129929Y93000D01*
X128929Y92000D01*
Y91000D01*
X129429Y90500D01*
X130429D01*
X130928Y91000D01*
Y91500D01*
X130429Y92000D01*
X128929D01*
X66357Y45657D02*
X65857Y46156D01*
X64857D01*
X64358Y45657D01*
Y43657D01*
X64857Y43158D01*
X65857D01*
X66357Y43657D01*
X68856Y43158D02*
Y46156D01*
X67356Y44657D01*
X69356D01*
X93000Y57000D02*
X92500Y57499D01*
X91501D01*
X91001Y57000D01*
Y55000D01*
X91501Y54501D01*
X92500D01*
X93000Y55000D01*
X94000Y57000D02*
X94500Y57499D01*
X95499D01*
X95999Y57000D01*
Y56500D01*
X95499Y56000D01*
X94999D01*
X95499D01*
X95999Y55500D01*
Y55000D01*
X95499Y54501D01*
X94500D01*
X94000Y55000D01*
X118357Y36657D02*
X117857Y37157D01*
X116857D01*
X116358Y36657D01*
Y34657D01*
X116857Y34157D01*
X117857D01*
X118357Y34657D01*
X121356Y34157D02*
X119357D01*
X121356Y36157D01*
Y36657D01*
X120856Y37157D01*
X119856D01*
X119357Y36657D01*
D15*
X66765Y173747D02*
Y168749D01*
X67765Y167749D01*
X69764D01*
X70764Y168749D01*
Y173747D01*
X72763Y167749D02*
X74762D01*
X73763D01*
Y173747D01*
X72763Y172747D01*
M02*
