G04*
G04 #@! TF.GenerationSoftware,Altium Limited,Altium Designer,25.2.1 (25)*
G04*
G04 Layer_Color=32768*
%FSLAX25Y25*%
%MOIN*%
G70*
G04*
G04 #@! TF.SameCoordinates,BE8575E0-A9B8-4DC4-A426-645646EFF105*
G04*
G04*
G04 #@! TF.FilePolarity,Positive*
G04*
G01*
G75*
%ADD69C,0.00197*%
D69*
X87756Y166630D02*
X101244D01*
X87756Y174370D02*
X101244D01*
X87756Y166630D02*
Y174370D01*
X101244Y166630D02*
Y174370D01*
X148917Y144386D02*
X160083D01*
Y123614D02*
Y144386D01*
X148917Y123614D02*
X160083D01*
X148917D02*
Y144386D01*
X73705Y54008D02*
Y123890D01*
X8350Y54008D02*
X73705D01*
X8350Y123890D02*
X73705D01*
X8350Y67394D02*
Y123890D01*
X7366Y67394D02*
X8350D01*
X7366Y61094D02*
Y67394D01*
Y61094D02*
X8350D01*
Y54008D02*
Y61094D01*
X150728Y69874D02*
X183878D01*
Y109441D01*
X150728D02*
X183878D01*
X150728Y69874D02*
Y109441D01*
X125720Y82130D02*
Y89870D01*
X139209Y82130D02*
Y89870D01*
X125720Y82130D02*
X139209D01*
X125720Y89870D02*
X139209D01*
X152626Y111055D02*
Y117945D01*
Y111055D02*
X168374D01*
Y117945D01*
X152626D02*
X168374D01*
X59630Y163532D02*
X68685D01*
Y147783D02*
Y163532D01*
X59630Y147783D02*
X68685D01*
X59630D02*
Y163532D01*
X75472Y96457D02*
X144055D01*
X75472Y165039D02*
X144055D01*
X75472Y96457D02*
Y165039D01*
X144055Y96457D02*
Y165039D01*
X142874Y54555D02*
Y61445D01*
X127126D02*
X142874D01*
X127126Y54555D02*
Y61445D01*
Y54555D02*
X142874D01*
Y67055D02*
Y73945D01*
X127126D02*
X142874D01*
X127126Y67055D02*
Y73945D01*
Y67055D02*
X142874D01*
X75913Y65787D02*
Y73528D01*
X89402Y65787D02*
Y73528D01*
X75913Y65787D02*
X89402D01*
X75913Y73528D02*
X89402D01*
X104701Y70921D02*
Y86681D01*
X92299Y70921D02*
X104701D01*
X92299D02*
Y86681D01*
X104701D01*
X99630Y52744D02*
X107370D01*
X99630Y39256D02*
X107370D01*
X99630D02*
Y52744D01*
X107370Y39256D02*
Y52744D01*
X90130D02*
X97870D01*
X90130Y39256D02*
X97870D01*
X90130D02*
Y52744D01*
X97870Y39256D02*
Y52744D01*
X106789Y2768D02*
Y36232D01*
X79211D02*
X106789D01*
X79211Y2768D02*
Y36232D01*
Y2768D02*
X106789D01*
X125374Y55055D02*
Y61945D01*
X109626D02*
X125374D01*
X109626Y55055D02*
Y61945D01*
Y55055D02*
X125374D01*
X111063Y72307D02*
Y85693D01*
X118937Y72307D02*
Y85693D01*
X111063Y72307D02*
X118937D01*
X111063Y85693D02*
X118937D01*
X75413Y81287D02*
Y89028D01*
X88902Y81287D02*
Y89028D01*
X75413Y81287D02*
X88902D01*
X75413Y89028D02*
X88902D01*
X145626Y41555D02*
Y48445D01*
Y41555D02*
X161374D01*
Y48445D01*
X145626D02*
X161374D01*
X146965Y54220D02*
X160350D01*
X146965Y62094D02*
X160350D01*
Y54220D02*
Y62094D01*
X146965Y54220D02*
Y62094D01*
X39878Y145287D02*
Y153028D01*
X53366Y145287D02*
Y153028D01*
X39878Y145287D02*
X53366D01*
X39878Y153028D02*
X53366D01*
X40413Y154287D02*
Y162028D01*
X53902Y154287D02*
Y162028D01*
X40413Y154287D02*
X53902D01*
X40413Y162028D02*
X53902D01*
X38378Y135287D02*
Y143028D01*
X51866Y135287D02*
Y143028D01*
X38378Y135287D02*
X51866D01*
X38378Y143028D02*
X51866D01*
X37913Y126287D02*
Y134028D01*
X51402Y126287D02*
Y134028D01*
X37913Y126287D02*
X51402D01*
X37913Y134028D02*
X51402D01*
X63787Y26913D02*
X71528D01*
X63787Y40402D02*
X71528D01*
Y26913D02*
Y40402D01*
X63787Y26913D02*
Y40402D01*
X57311Y144059D02*
X70697D01*
X57311Y127917D02*
Y144059D01*
X70697Y127917D02*
Y144059D01*
X57311Y127917D02*
X70697D01*
X115787Y17913D02*
X123528D01*
X115787Y31402D02*
X123528D01*
Y17913D02*
Y31402D01*
X115787Y17913D02*
Y31402D01*
X125287Y17913D02*
X133028D01*
X125287Y31402D02*
X133028D01*
Y17913D02*
Y31402D01*
X125287Y17913D02*
Y31402D01*
M02*
