G04*
G04 #@! TF.GenerationSoftware,Altium Limited,Altium Designer,25.2.1 (25)*
G04*
G04 Layer_Color=65535*
%FSLAX25Y25*%
%MOIN*%
G70*
G04*
G04 #@! TF.SameCoordinates,1F1F9B38-8F65-4BE3-9C55-B7ADE1E4FF54*
G04*
G04*
G04 #@! TF.FilePolarity,Positive*
G04*
G01*
G75*
%ADD10C,0.00787*%
%ADD11C,0.00394*%
%ADD12C,0.00945*%
%ADD13C,0.00500*%
%ADD14C,0.00700*%
D10*
X24209Y130016D02*
G03*
X24209Y130016I-394J0D01*
G01*
X42894Y51626D02*
G03*
X42894Y51626I-394J0D01*
G01*
X36516Y100098D02*
G03*
X36516Y100098I-394J0D01*
G01*
X34394Y51626D02*
G03*
X34394Y51626I-394J0D01*
G01*
X147055Y112169D02*
G03*
X147055Y112169I-394J0D01*
G01*
X132323Y97504D02*
G03*
X132323Y97504I-394J0D01*
G01*
X121553Y82815D02*
G03*
X121553Y82815I-394J0D01*
G01*
X134597Y82693D02*
G03*
X134597Y82693I-394J0D01*
G01*
X153894Y87461D02*
G03*
X153894Y87461I-394J0D01*
G01*
X123673Y48500D02*
X139000D01*
Y37000D02*
Y48417D01*
X123673Y37000D02*
X139000D01*
X123673Y41500D02*
Y48500D01*
Y37000D02*
Y41500D01*
X40138Y58713D02*
Y60287D01*
X44862Y58713D02*
Y60287D01*
X31638Y58713D02*
Y60287D01*
X36362Y58713D02*
Y60287D01*
X54358Y18331D02*
X106524D01*
X54358D02*
Y29276D01*
Y41874D02*
Y64709D01*
X94713Y76402D02*
X112429D01*
X113610Y41874D02*
Y64709D01*
X106524Y17346D02*
Y18331D01*
Y17346D02*
X110854D01*
Y18331D01*
X113610D01*
Y29276D01*
D11*
X58916Y140500D02*
G03*
X58916Y140500I-2915J0D01*
G01*
D12*
X95185Y83213D02*
G03*
X95185Y83213I-472J0D01*
G01*
D13*
X150461Y55898D02*
Y58102D01*
X145539Y55898D02*
Y58102D01*
X36600Y108195D02*
Y133805D01*
Y108195D02*
X50400D01*
Y133805D01*
X36600D02*
X50400D01*
X20961Y57898D02*
Y60102D01*
X16039Y57898D02*
Y60102D01*
X28461Y58024D02*
Y60228D01*
X23539Y58024D02*
Y60228D01*
X17106Y69902D02*
X23720D01*
X2264D02*
X7894D01*
X17106Y105098D02*
X23720D01*
X2264D02*
X7894D01*
X2264Y69902D02*
Y105098D01*
X122850Y59531D02*
Y63468D01*
X129150Y59531D02*
Y63468D01*
X133079Y116185D02*
Y116815D01*
X142921Y116185D02*
Y116815D01*
X67205Y148685D02*
X69331D01*
X67205Y93567D02*
X69331D01*
X120197Y148685D02*
X122323D01*
X120197Y93567D02*
X122323D01*
X67205Y146559D02*
Y148685D01*
Y93567D02*
Y95693D01*
X122323Y146559D02*
Y148685D01*
Y93567D02*
Y95693D01*
X40961Y76898D02*
Y79102D01*
X36039Y76898D02*
Y79102D01*
X40039Y94398D02*
Y96602D01*
X44961Y94398D02*
Y96602D01*
X122784Y84390D02*
X133217D01*
X122784Y70610D02*
Y84390D01*
Y70610D02*
X133217D01*
Y84390D01*
X135827Y84268D02*
X146260D01*
X135827Y70488D02*
Y84268D01*
Y70488D02*
X146260D01*
Y84268D01*
X148902Y84902D02*
X158098D01*
X148902Y66098D02*
X158098D01*
Y84902D01*
X148902Y66098D02*
Y84902D01*
X119668Y49500D02*
Y51500D01*
X120667D01*
X121001Y51166D01*
Y50500D01*
X120667Y50167D01*
X119668D01*
X120334D02*
X121001Y49500D01*
X123000Y51166D02*
X122667Y51500D01*
X122000D01*
X121667Y51166D01*
Y50833D01*
X122000Y50500D01*
X122667D01*
X123000Y50167D01*
Y49834D01*
X122667Y49500D01*
X122000D01*
X121667Y49834D01*
X123667Y51500D02*
X124999D01*
X124333D01*
Y49500D01*
X125666D02*
X126332D01*
X125999D01*
Y51500D01*
X125666Y51166D01*
X16167Y123167D02*
X15834Y123500D01*
X15167D01*
X14834Y123167D01*
Y121834D01*
X15167Y121500D01*
X15834D01*
X16167Y121834D01*
X16833Y121500D02*
X17500D01*
X17167D01*
Y123500D01*
X16833Y123167D01*
X18499Y121500D02*
X19166D01*
X18833D01*
Y123500D01*
X18499Y123167D01*
X152500Y63833D02*
X154500D01*
Y62833D01*
X154166Y62500D01*
X153500D01*
X153167Y62833D01*
Y63833D01*
Y63166D02*
X152500Y62500D01*
Y61834D02*
Y61167D01*
Y61500D01*
X154500D01*
X154166Y61834D01*
X71500Y165166D02*
X71167Y165500D01*
X70501D01*
X70167Y165166D01*
Y163834D01*
X70501Y163500D01*
X71167D01*
X71500Y163834D01*
X73500Y163500D02*
X72167D01*
X73500Y164833D01*
Y165166D01*
X73167Y165500D01*
X72500D01*
X72167Y165166D01*
X74166Y163500D02*
X74833D01*
X74499D01*
Y165500D01*
X74166Y165166D01*
X22834Y123167D02*
X22501Y123500D01*
X21834D01*
X21501Y123167D01*
Y121834D01*
X21834Y121500D01*
X22501D01*
X22834Y121834D01*
X23500Y121500D02*
X24167D01*
X23833D01*
Y123500D01*
X23500Y123167D01*
X25166D02*
X25499Y123500D01*
X26166D01*
X26499Y123167D01*
Y122833D01*
X26166Y122500D01*
X25833D01*
X26166D01*
X26499Y122167D01*
Y121834D01*
X26166Y121500D01*
X25499D01*
X25166Y121834D01*
X51833Y154834D02*
X51500Y154500D01*
Y153834D01*
X51833Y153501D01*
X53166D01*
X53500Y153834D01*
Y154500D01*
X53166Y154834D01*
X53500Y155500D02*
Y156167D01*
Y155833D01*
X51500D01*
X51833Y155500D01*
X53500Y158166D02*
X51500D01*
X52500Y157166D01*
Y158499D01*
X27334Y137500D02*
Y135834D01*
X27667Y135500D01*
X28334D01*
X28667Y135834D01*
Y137500D01*
X30666Y135500D02*
X29333D01*
X30666Y136833D01*
Y137167D01*
X30333Y137500D01*
X29667D01*
X29333Y137167D01*
X53834Y147000D02*
X55167D01*
X54501D01*
Y145000D01*
X55834D02*
Y147000D01*
X56833D01*
X57166Y146667D01*
Y146000D01*
X56833Y145667D01*
X55834D01*
X57833Y146667D02*
X58166Y147000D01*
X58833D01*
X59166Y146667D01*
Y146333D01*
X58833Y146000D01*
X58499D01*
X58833D01*
X59166Y145667D01*
Y145334D01*
X58833Y145000D01*
X58166D01*
X57833Y145334D01*
X58666Y85833D02*
X59000Y86166D01*
Y86833D01*
X58666Y87166D01*
X57334D01*
X57000Y86833D01*
Y86166D01*
X57334Y85833D01*
Y85167D02*
X57000Y84834D01*
Y84167D01*
X57334Y83834D01*
X58666D01*
X59000Y84167D01*
Y84834D01*
X58666Y85167D01*
X58333D01*
X58000Y84834D01*
Y83834D01*
X122333Y25833D02*
X122666Y25500D01*
X123333D01*
X123666Y25833D01*
Y27166D01*
X123333Y27500D01*
X122666D01*
X122333Y27166D01*
X120667Y27500D02*
Y25500D01*
X121667Y26500D01*
X120334D01*
X14000Y62834D02*
X12000D01*
Y63834D01*
X12333Y64167D01*
X13000D01*
X13333Y63834D01*
Y62834D01*
Y63500D02*
X14000Y64167D01*
X12000Y66166D02*
Y64833D01*
X13000D01*
X12667Y65500D01*
Y65833D01*
X13000Y66166D01*
X13666D01*
X14000Y65833D01*
Y65166D01*
X13666Y64833D01*
X28166Y50626D02*
Y48626D01*
X27166D01*
X26833Y48959D01*
Y49626D01*
X27166Y49959D01*
X28166D01*
X27500D02*
X26833Y50626D01*
X24834D02*
X26167D01*
X24834Y49293D01*
Y48959D01*
X25167Y48626D01*
X25833D01*
X26167Y48959D01*
X3033Y113899D02*
X2366D01*
X2700D01*
Y112233D01*
X2366Y111900D01*
X2033D01*
X1700Y112233D01*
X5032Y111900D02*
X3699D01*
X5032Y113233D01*
Y113566D01*
X4699Y113899D01*
X4033D01*
X3699Y113566D01*
X35833Y144334D02*
X35500Y144000D01*
Y143334D01*
X35833Y143001D01*
X37166D01*
X37500Y143334D01*
Y144000D01*
X37166Y144334D01*
X37500Y145000D02*
Y145667D01*
Y145333D01*
X35500D01*
X35833Y145000D01*
Y146666D02*
X35500Y147000D01*
Y147666D01*
X35833Y147999D01*
X37166D01*
X37500Y147666D01*
Y147000D01*
X37166Y146666D01*
X35833D01*
X35833Y137334D02*
X35500Y137001D01*
Y136334D01*
X35833Y136001D01*
X37166D01*
X37500Y136334D01*
Y137001D01*
X37166Y137334D01*
X37500Y138000D02*
Y138667D01*
Y138333D01*
X35500D01*
X35833Y138000D01*
X37500Y140999D02*
Y139666D01*
X36167Y140999D01*
X35833D01*
X35500Y140666D01*
Y139999D01*
X35833Y139666D01*
X145833Y68500D02*
Y66500D01*
X145166Y67167D01*
X144500Y66500D01*
Y68500D01*
X143833Y66500D02*
Y68500D01*
Y67833D01*
X142500Y66500D01*
X143500Y67500D01*
X142500Y68500D01*
X141834D02*
X141167D01*
X141501D01*
Y66500D01*
X141834Y66834D01*
X121000Y70334D02*
X119000D01*
X119667Y71001D01*
X119000Y71667D01*
X121000D01*
X119000Y72334D02*
X121000D01*
X120333D01*
X119000Y73667D01*
X120000Y72667D01*
X121000Y73667D01*
Y75666D02*
Y74333D01*
X119667Y75666D01*
X119334D01*
X119000Y75333D01*
Y74666D01*
X119334Y74333D01*
X125167Y149000D02*
Y147334D01*
X125500Y147000D01*
X126167D01*
X126500Y147334D01*
Y149000D01*
X127166Y147000D02*
X127833D01*
X127500D01*
Y149000D01*
X127166Y148667D01*
X118500Y54334D02*
X118833D01*
X119500Y55000D01*
X118833Y55667D01*
X118500D01*
X119500Y55000D02*
X120500D01*
Y57666D02*
Y56333D01*
X119167Y57666D01*
X118833D01*
X118500Y57333D01*
Y56666D01*
X118833Y56333D01*
X128833Y51167D02*
X128500Y50834D01*
Y50167D01*
X128833Y49834D01*
X130166D01*
X130500Y50167D01*
Y50834D01*
X130166Y51167D01*
X128500Y51833D02*
Y53166D01*
X128833D01*
X130166Y51833D01*
X130500D01*
X106167Y159666D02*
X106500Y160000D01*
Y160666D01*
X106167Y160999D01*
X104833D01*
X104500Y160666D01*
Y160000D01*
X104833Y159666D01*
X104500Y159000D02*
Y158333D01*
Y158667D01*
X106500D01*
X106167Y159000D01*
Y157334D02*
X106500Y157001D01*
Y156334D01*
X106167Y156001D01*
X105833D01*
X105500Y156334D01*
X105167Y156001D01*
X104833D01*
X104500Y156334D01*
Y157001D01*
X104833Y157334D01*
X105167D01*
X105500Y157001D01*
X105833Y157334D01*
X106167D01*
X105500Y157001D02*
Y156334D01*
X104333Y82334D02*
X104000Y82000D01*
Y81334D01*
X104333Y81001D01*
X105666D01*
X106000Y81334D01*
Y82000D01*
X105666Y82334D01*
X106000Y83000D02*
Y83667D01*
Y83333D01*
X104000D01*
X104333Y83000D01*
X104000Y85999D02*
X104333Y85333D01*
X105000Y84666D01*
X105666D01*
X106000Y85000D01*
Y85666D01*
X105666Y85999D01*
X105333D01*
X105000Y85666D01*
Y84666D01*
X62167Y93166D02*
X62500Y93499D01*
Y94166D01*
X62167Y94499D01*
X60834D01*
X60500Y94166D01*
Y93499D01*
X60834Y93166D01*
X60500Y92500D02*
Y91833D01*
Y92167D01*
X62500D01*
X62167Y92500D01*
X62500Y89501D02*
Y90834D01*
X61500D01*
X61833Y90167D01*
Y89834D01*
X61500Y89501D01*
X60834D01*
X60500Y89834D01*
Y90500D01*
X60834Y90834D01*
X81000Y165166D02*
X80667Y165500D01*
X80000D01*
X79667Y165166D01*
Y163834D01*
X80000Y163500D01*
X80667D01*
X81000Y163834D01*
X81666Y163500D02*
X82333D01*
X82000D01*
Y165500D01*
X81666Y165166D01*
X47631Y106167D02*
X47298Y106500D01*
X46632D01*
X46299Y106167D01*
Y104834D01*
X46632Y104500D01*
X47298D01*
X47631Y104834D01*
X48298Y106167D02*
X48631Y106500D01*
X49297D01*
X49631Y106167D01*
Y105833D01*
X49297Y105500D01*
X48964D01*
X49297D01*
X49631Y105167D01*
Y104834D01*
X49297Y104500D01*
X48631D01*
X48298Y104834D01*
X38000Y87834D02*
X36000D01*
Y88834D01*
X36334Y89167D01*
X37000D01*
X37333Y88834D01*
Y87834D01*
Y88500D02*
X38000Y89167D01*
X36334Y89833D02*
X36000Y90166D01*
Y90833D01*
X36334Y91166D01*
X36667D01*
X37000Y90833D01*
Y90500D01*
Y90833D01*
X37333Y91166D01*
X37666D01*
X38000Y90833D01*
Y90166D01*
X37666Y89833D01*
X34000Y80834D02*
X32000D01*
Y81834D01*
X32333Y82167D01*
X33000D01*
X33333Y81834D01*
Y80834D01*
Y81500D02*
X34000Y82167D01*
Y83833D02*
X32000D01*
X33000Y82833D01*
Y84166D01*
X75502Y13667D02*
X75169Y14000D01*
X74502D01*
X74169Y13667D01*
Y13333D01*
X74502Y13000D01*
X75169D01*
X75502Y12667D01*
Y12334D01*
X75169Y12000D01*
X74502D01*
X74169Y12334D01*
X76168Y14000D02*
Y12000D01*
X77168D01*
X77501Y12334D01*
Y13667D01*
X77168Y14000D01*
X76168D01*
X81500Y13667D02*
X81167Y14000D01*
X80500D01*
X80167Y13667D01*
Y12334D01*
X80500Y12000D01*
X81167D01*
X81500Y12334D01*
X82500Y13333D02*
X83166D01*
X83499Y13000D01*
Y12000D01*
X82500D01*
X82166Y12334D01*
X82500Y12667D01*
X83499D01*
X84166Y13333D02*
Y12000D01*
Y12667D01*
X84499Y13000D01*
X84832Y13333D01*
X85166D01*
X87498Y14000D02*
Y12000D01*
X86498D01*
X86165Y12334D01*
Y13000D01*
X86498Y13333D01*
X87498D01*
X88165Y12000D02*
X88831D01*
X88498D01*
Y14000D01*
X88165Y13667D01*
X149633Y92699D02*
X148967D01*
X149300D01*
Y91033D01*
X148967Y90700D01*
X148633D01*
X148300Y91033D01*
X150299Y90700D02*
X150966D01*
X150633D01*
Y92699D01*
X150299Y92366D01*
D14*
X41001Y48997D02*
X43999D01*
Y47497D01*
X43500Y46998D01*
X42500D01*
X42000Y47497D01*
Y48997D01*
Y47997D02*
X41001Y46998D01*
X43999Y43999D02*
Y45998D01*
X41001D01*
Y43999D01*
X42500Y45998D02*
Y44998D01*
X43500Y40999D02*
X43999Y41499D01*
Y42499D01*
X43500Y42999D01*
X43000D01*
X42500Y42499D01*
Y41499D01*
X42000Y40999D01*
X41500D01*
X41001Y41499D01*
Y42499D01*
X41500Y42999D01*
X43999Y40000D02*
X41500D01*
X41001Y39500D01*
Y38500D01*
X41500Y38001D01*
X43999D01*
Y37001D02*
X41001D01*
Y35001D01*
X43999Y34002D02*
Y32002D01*
Y33002D01*
X41001D01*
Y31003D02*
Y30003D01*
Y30503D01*
X43999D01*
X43500Y31003D01*
X32000Y48497D02*
X34999D01*
Y46998D01*
X34500Y46498D01*
X33500D01*
X33000Y46998D01*
Y48497D01*
X34999Y43999D02*
Y44998D01*
X34500Y45498D01*
X32500D01*
X32000Y44998D01*
Y43999D01*
X32500Y43499D01*
X34500D01*
X34999Y43999D01*
Y42499D02*
X32000D01*
X33000Y41500D01*
X32000Y40500D01*
X34999D01*
Y37501D02*
Y39500D01*
X32000D01*
Y37501D01*
X33500Y39500D02*
Y38501D01*
X32000Y36501D02*
X34999D01*
Y35002D01*
X34500Y34502D01*
X33500D01*
X33000Y35002D01*
Y36501D01*
Y35502D02*
X32000Y34502D01*
Y33502D02*
Y32503D01*
Y33002D01*
X34999D01*
X34500Y33502D01*
M02*
