M48
;Layer_Color=9474304
;FILE_FORMAT=2:5
INCH
;TYPE=PLATED
T01F00S00C0.01181
T03F00S00C0.04016
%
T01
X0038259Y0067793
X0038500Y0077606
X0040500Y0086858
X0042000Y0095500
X0035000Y0097000
Y0100150
X0034500Y0110500
X0026947Y0092063
X0052000Y0078500
X0058500Y0073000
X0062000Y0073055
X0066500
X0079500Y0073000
X0076142Y0085287
X0073000Y0085500
X0061000Y0085000
X0088000Y0084500
X0092000
X0097000Y0085000
X0105500Y0084500
X0124359Y0084558
X0127606Y0082053
X0133500Y0079500
X0134500Y0074496
X0137500Y0084500
X0141043Y0084531
X0147000Y0079500
X0150745Y0087921
X0154000Y0101500
X0137031Y0101000
X0136500Y0092000
X0114000Y0096000
X0099000Y0097000
X0119500Y0110350
Y0113500
Y0116650
X0119000Y0120500
X0119500Y0133000
X0115650Y0145000
X0112500
X0109350
X0122088Y0150588
X0132500Y0142000
X0133394Y0116106
X0121568Y0077614
X0118421Y0077720
X0120500Y0051000
X0047500Y0062500
X0057000Y0126000
X0069545Y0118116
X0070000Y0115000
X0070500Y0143500
X0073000Y0145500
X0107500Y0159500
T03
X0153500Y0070500
Y0080500
M30
