G04*
G04 #@! TF.GenerationSoftware,Altium Limited,Altium Designer,25.2.1 (25)*
G04*
G04 Layer_Physical_Order=2*
G04 Layer_Color=16711680*
%FSLAX25Y25*%
%MOIN*%
G70*
G04*
G04 #@! TF.SameCoordinates,1F1F9B38-8F65-4BE3-9C55-B7ADE1E4FF54*
G04*
G04*
G04 #@! TF.FilePolarity,Positive*
G04*
G01*
G75*
%ADD10C,0.00787*%
%ADD21C,0.04724*%
%ADD56C,0.01968*%
%ADD59C,0.02362*%
%ADD60O,0.07874X0.03543*%
%ADD61O,0.06693X0.03543*%
%ADD62C,0.03740*%
%ADD63C,0.01968*%
%ADD64R,0.05394X0.05394*%
%ADD65C,0.05394*%
G36*
X89025Y164755D02*
X94523Y164164D01*
X99964Y163182D01*
X105321Y161815D01*
X106106Y161553D01*
X106208Y160992D01*
X105831Y160615D01*
X105669Y160224D01*
X89799Y144354D01*
X72307D01*
X72256Y144405D01*
X72169Y144615D01*
X71615Y145169D01*
X70892Y145468D01*
X70108D01*
X69385Y145169D01*
X68831Y144615D01*
X68532Y143892D01*
Y143108D01*
X68831Y142385D01*
X69385Y141831D01*
X69958Y141594D01*
X70282Y141270D01*
X70868Y140878D01*
X71559Y140741D01*
X90547D01*
X91238Y140878D01*
X91825Y141270D01*
X108173Y157618D01*
X108327D01*
X116929Y149016D01*
X116683Y148556D01*
X116628Y148566D01*
X116628Y148566D01*
X114671D01*
X114671Y148566D01*
X114210Y148475D01*
X113820Y148214D01*
X112574Y146968D01*
X112108D01*
X111385Y146669D01*
X110925Y146209D01*
X110466Y146669D01*
X109742Y146968D01*
X108959D01*
X108235Y146669D01*
X107682Y146115D01*
X107382Y145392D01*
Y144608D01*
X107682Y143885D01*
X108235Y143331D01*
X108959Y143032D01*
X109425D01*
X110808Y141648D01*
X111198Y141387D01*
X111659Y141296D01*
X111659Y141296D01*
X115286D01*
X121580Y135001D01*
Y114857D01*
X121497Y114808D01*
X121080Y114704D01*
X120615Y115169D01*
X119892Y115469D01*
X119108D01*
X118385Y115169D01*
X118204Y114988D01*
X117704Y115195D01*
Y117501D01*
X118735Y118532D01*
X119392D01*
X120115Y118831D01*
X120669Y119385D01*
X120968Y120108D01*
Y120892D01*
X120669Y121615D01*
X120115Y122169D01*
X119392Y122468D01*
X118608D01*
X117885Y122169D01*
X117331Y121615D01*
X117032Y120892D01*
Y120235D01*
X115648Y118851D01*
X115387Y118461D01*
X115296Y118000D01*
X115296Y118000D01*
Y92499D01*
X111001Y88204D01*
X104500D01*
X104500Y88204D01*
X104039Y88113D01*
X103648Y87852D01*
X102148Y86352D01*
X101887Y85961D01*
X101796Y85500D01*
X101796Y85500D01*
Y82500D01*
X101796Y82500D01*
X101887Y82039D01*
X102148Y81648D01*
X119296Y64501D01*
Y52580D01*
X118831Y52115D01*
X118532Y51392D01*
Y50608D01*
X118831Y49885D01*
X119385Y49331D01*
X120108Y49031D01*
X120892D01*
X121615Y49331D01*
X122169Y49885D01*
X122468Y50608D01*
Y51392D01*
X122169Y52115D01*
X121704Y52580D01*
Y65000D01*
X121704Y65000D01*
X121613Y65461D01*
X121352Y65851D01*
X121352Y65851D01*
X105275Y81928D01*
X105462Y82411D01*
X105841Y82456D01*
X113896Y74401D01*
X114287Y74140D01*
X114748Y74048D01*
X125497D01*
X125497Y74048D01*
X125958Y74140D01*
X126362Y74017D01*
X126498Y73689D01*
X126996Y73191D01*
X127648Y72921D01*
X128352D01*
X129004Y73191D01*
X129502Y73689D01*
X129772Y74340D01*
Y75045D01*
X129692Y75238D01*
X129970Y75654D01*
X132308D01*
X132642Y75154D01*
X132531Y74888D01*
Y74104D01*
X132831Y73381D01*
X133385Y72827D01*
X134108Y72528D01*
X134765D01*
X141523Y65771D01*
X141913Y65509D01*
X142374Y65418D01*
X155106D01*
X155106Y65418D01*
X155567Y65509D01*
X155958Y65771D01*
X157790Y67602D01*
X158240Y67346D01*
X157815Y65679D01*
X156069Y60433D01*
X153953Y55325D01*
X151478Y50381D01*
X148657Y45626D01*
X145504Y41085D01*
X142034Y36780D01*
X138267Y32733D01*
X134220Y28966D01*
X129915Y25496D01*
X125374Y22343D01*
X120619Y19522D01*
X115675Y17047D01*
X110567Y14931D01*
X105321Y13185D01*
X99964Y11818D01*
X94523Y10836D01*
X89025Y10245D01*
X83500Y10048D01*
X77975Y10245D01*
X72477Y10836D01*
X67036Y11818D01*
X61679Y13185D01*
X56433Y14931D01*
X51325Y17047D01*
X46381Y19522D01*
X41626Y22343D01*
X37085Y25496D01*
X32780Y28966D01*
X28733Y32733D01*
X24966Y36780D01*
X21496Y41085D01*
X18343Y45626D01*
X15522Y50381D01*
X13047Y55325D01*
X10931Y60433D01*
X9185Y65679D01*
X7818Y71036D01*
X6836Y76477D01*
X6245Y81975D01*
X6048Y87500D01*
X6245Y93025D01*
X6836Y98523D01*
X7818Y103964D01*
X9185Y109321D01*
X10931Y114567D01*
X13047Y119675D01*
X15522Y124619D01*
X18343Y129374D01*
X21496Y133915D01*
X24966Y138220D01*
X28733Y142267D01*
X32780Y146034D01*
X37085Y149504D01*
X41626Y152657D01*
X46381Y155478D01*
X51325Y157953D01*
X56433Y160069D01*
X61679Y161815D01*
X67036Y163182D01*
X72477Y164164D01*
X77975Y164755D01*
X83500Y164952D01*
X89025Y164755D01*
D02*
G37*
G36*
X115675Y157953D02*
X120619Y155478D01*
X125374Y152657D01*
X129915Y149504D01*
X134220Y146034D01*
X138267Y142267D01*
X142034Y138220D01*
X145504Y133915D01*
X148657Y129374D01*
X151478Y124619D01*
X153953Y119675D01*
X156069Y114567D01*
X157815Y109321D01*
X159182Y103964D01*
X160164Y98523D01*
X160755Y93025D01*
X160952Y87500D01*
X160755Y81975D01*
X160164Y76477D01*
X159182Y71036D01*
X159082Y70645D01*
X158582Y70708D01*
Y72106D01*
X158582Y72106D01*
X158491Y72567D01*
X158229Y72958D01*
X154704Y76483D01*
Y77016D01*
X156984D01*
Y83984D01*
X150016D01*
Y77016D01*
X152296D01*
Y75984D01*
X152296Y75984D01*
X152387Y75523D01*
X152648Y75133D01*
X153335Y74446D01*
X153144Y73984D01*
X153041D01*
X152155Y73747D01*
X152029Y73674D01*
X148320Y77383D01*
X148115Y77831D01*
X148669Y78385D01*
X148969Y79108D01*
Y79892D01*
X148669Y80615D01*
X148204Y81080D01*
Y81915D01*
X148204Y81915D01*
X148113Y82376D01*
X147852Y82767D01*
X147852Y82767D01*
X142767Y87852D01*
X142376Y88113D01*
X141916Y88204D01*
X141915Y88204D01*
X127999D01*
X127704Y88499D01*
Y106980D01*
X127791Y107415D01*
Y113286D01*
X127704Y113721D01*
Y137490D01*
X127704Y137490D01*
X127613Y137951D01*
X127351Y138342D01*
X127351Y138342D01*
X125888Y139806D01*
X126134Y140267D01*
X126500Y140194D01*
X131717D01*
X131776Y140169D01*
X136146Y135799D01*
Y102776D01*
X136126Y102756D01*
X135916Y102669D01*
X135363Y102115D01*
X135063Y101392D01*
Y100608D01*
X135363Y99885D01*
X135916Y99331D01*
X136308Y99169D01*
X145531Y89945D01*
X146117Y89554D01*
X146668Y89444D01*
X148915Y87198D01*
X149077Y86806D01*
X149630Y86252D01*
X150354Y85953D01*
X151137D01*
X151860Y86252D01*
X152414Y86806D01*
X152714Y87530D01*
Y88313D01*
X152414Y89036D01*
X151860Y89590D01*
X151469Y89752D01*
X148721Y92500D01*
X148135Y92892D01*
X147585Y93001D01*
X139473Y101113D01*
X139622Y101337D01*
X139759Y102028D01*
Y136547D01*
X139622Y137239D01*
X139230Y137824D01*
X134331Y142724D01*
X134169Y143115D01*
X133615Y143669D01*
X132892Y143968D01*
X132108D01*
X131717Y143806D01*
X127248D01*
X112188Y158866D01*
X112466Y159282D01*
X115675Y157953D01*
D02*
G37*
%LPC*%
G36*
X25915Y113650D02*
X25085D01*
X24284Y113435D01*
X23566Y113020D01*
X22980Y112434D01*
X22565Y111716D01*
X22350Y110915D01*
Y110085D01*
X22565Y109284D01*
X22980Y108566D01*
X23102Y108443D01*
X21931Y107273D01*
X21540Y106686D01*
X21402Y105995D01*
Y99071D01*
X21331Y98964D01*
X21194Y98273D01*
Y89653D01*
X21331Y88962D01*
X21723Y88376D01*
X22876Y87223D01*
X23462Y86831D01*
X24153Y86694D01*
X32752D01*
X36694Y82752D01*
Y78389D01*
X36531Y77998D01*
Y77215D01*
X36831Y76491D01*
X37385Y75937D01*
X38108Y75638D01*
X38892D01*
X39615Y75937D01*
X40169Y76491D01*
X40468Y77215D01*
Y77998D01*
X40306Y78389D01*
Y83500D01*
X40169Y84191D01*
X40011Y84428D01*
X40013Y84438D01*
X40304Y84890D01*
X40892D01*
X41615Y85189D01*
X42169Y85743D01*
X42469Y86467D01*
Y87250D01*
X42169Y87973D01*
X41615Y88527D01*
X40892Y88827D01*
X40235D01*
X36146Y92915D01*
X35756Y93176D01*
X35295Y93268D01*
X35295Y93268D01*
X28526D01*
X28175Y93619D01*
X28335Y94119D01*
X29792D01*
X30483Y94256D01*
X31069Y94648D01*
X31614Y95193D01*
X34218D01*
X34608Y95031D01*
X35392D01*
X36115Y95331D01*
X36669Y95885D01*
X36968Y96608D01*
Y97392D01*
X36669Y98115D01*
X36115Y98669D01*
X35392Y98968D01*
X34608D01*
X34216Y98806D01*
X30866D01*
X30175Y98668D01*
X29589Y98277D01*
X29285Y97973D01*
X28861Y98256D01*
X28957Y98486D01*
Y99269D01*
X28657Y99993D01*
X28103Y100547D01*
X27380Y100847D01*
X26597D01*
X25873Y100547D01*
X25515Y100189D01*
X25015Y100396D01*
Y105247D01*
X28462Y108694D01*
X33717D01*
X34108Y108531D01*
X34892D01*
X35615Y108831D01*
X36169Y109385D01*
X36468Y110108D01*
Y110892D01*
X36169Y111615D01*
X35615Y112169D01*
X34892Y112469D01*
X34108D01*
X33717Y112306D01*
X28094D01*
X28020Y112434D01*
X27434Y113020D01*
X26716Y113435D01*
X25915Y113650D01*
D02*
G37*
G36*
X57392Y127969D02*
X56608D01*
X55885Y127669D01*
X55331Y127115D01*
X55032Y126392D01*
Y125608D01*
X55194Y125217D01*
Y81748D01*
X53582Y80137D01*
X53186Y80098D01*
X53115Y80169D01*
X52392Y80468D01*
X51608D01*
X50885Y80169D01*
X50331Y79615D01*
X50032Y78892D01*
Y78108D01*
X50331Y77385D01*
X50885Y76831D01*
X51095Y76744D01*
X53053Y74786D01*
Y72465D01*
X53190Y71774D01*
X53582Y71188D01*
X53974Y70796D01*
X53782Y70334D01*
X49550D01*
X48859Y70196D01*
X48273Y69805D01*
X48068Y69600D01*
X39042D01*
X38651Y69762D01*
X37868D01*
X37144Y69462D01*
X36590Y68909D01*
X36290Y68185D01*
Y67402D01*
X36590Y66678D01*
X37144Y66125D01*
X37868Y65825D01*
X38651D01*
X39042Y65987D01*
X48577D01*
X48784Y65487D01*
X47765Y64468D01*
X47108D01*
X46385Y64169D01*
X45831Y63615D01*
X45531Y62892D01*
Y62108D01*
X45831Y61385D01*
X46385Y60831D01*
X47108Y60532D01*
X47892D01*
X48615Y60831D01*
X49169Y61385D01*
X49468Y62108D01*
Y62765D01*
X51861Y65158D01*
X53555D01*
Y49236D01*
X53616Y48929D01*
X53791Y48669D01*
X54051Y48494D01*
X54358Y48433D01*
X94516D01*
X94823Y48494D01*
X95083Y48669D01*
X95258Y48929D01*
X95319Y49236D01*
Y65181D01*
X95258Y65488D01*
X95083Y65749D01*
X94823Y65923D01*
X94516Y65984D01*
X81408D01*
X81217Y66446D01*
X97550Y82779D01*
X97550Y82779D01*
X97811Y83170D01*
X97819Y83209D01*
X98115Y83331D01*
X98669Y83885D01*
X98968Y84608D01*
Y85392D01*
X98669Y86115D01*
X98115Y86669D01*
X97392Y86968D01*
X96608D01*
X96342Y86858D01*
X95842Y87192D01*
Y91639D01*
X99235Y95031D01*
X99392D01*
X100115Y95331D01*
X100669Y95885D01*
X100969Y96608D01*
Y97392D01*
X100669Y98115D01*
X100115Y98669D01*
X99392Y98968D01*
X98608D01*
X97885Y98669D01*
X97331Y98115D01*
X97031Y97392D01*
Y96608D01*
X97141Y96344D01*
X93786Y92989D01*
X93525Y92599D01*
X93434Y92138D01*
X93434Y92138D01*
Y86504D01*
X92934Y86244D01*
X92392Y86468D01*
X91735D01*
X90489Y87714D01*
X90099Y87975D01*
X89638Y88066D01*
X89638Y88066D01*
X79477D01*
X78830Y88714D01*
X78439Y88975D01*
X77978Y89066D01*
X77978Y89066D01*
X75362D01*
X75362Y89066D01*
X74901Y88975D01*
X74511Y88714D01*
X74511Y88714D01*
X74066Y88270D01*
X73566Y88477D01*
Y115978D01*
X73566Y115978D01*
X73475Y116439D01*
X73214Y116830D01*
X73214Y116830D01*
X71830Y118214D01*
X71513Y118425D01*
Y118508D01*
X71214Y119232D01*
X70660Y119785D01*
X69936Y120085D01*
X69153D01*
X68430Y119785D01*
X67876Y119232D01*
X67576Y118508D01*
Y117725D01*
X67876Y117001D01*
X68430Y116448D01*
X68272Y115972D01*
X68032Y115392D01*
Y114608D01*
X68331Y113885D01*
X68796Y113420D01*
Y88567D01*
X68212Y87982D01*
X67950Y87592D01*
X67859Y87131D01*
X67859Y87131D01*
Y80562D01*
X62321Y75024D01*
X61608D01*
X60885Y74724D01*
X60549Y74388D01*
X60281Y74195D01*
X59896Y74388D01*
X59615Y74669D01*
X58892Y74968D01*
X58108D01*
X57385Y74669D01*
X57166Y74449D01*
X56666Y74657D01*
Y78111D01*
X58277Y79723D01*
X61724Y83169D01*
X62115Y83331D01*
X62669Y83885D01*
X62968Y84608D01*
Y85392D01*
X62669Y86115D01*
X62115Y86669D01*
X61392Y86968D01*
X60608D01*
X59885Y86669D01*
X59331Y86115D01*
X59306Y86055D01*
X58806Y86155D01*
Y125217D01*
X58969Y125608D01*
Y126392D01*
X58669Y127115D01*
X58115Y127669D01*
X57392Y127969D01*
D02*
G37*
G36*
X27380Y78091D02*
X26597D01*
X25873Y77791D01*
X25319Y77237D01*
X25020Y76514D01*
Y75731D01*
X25319Y75007D01*
X25873Y74453D01*
X26597Y74154D01*
X27380D01*
X28103Y74453D01*
X28657Y75007D01*
X28957Y75731D01*
Y76514D01*
X28657Y77237D01*
X28103Y77791D01*
X27380Y78091D01*
D02*
G37*
G36*
X95500Y46657D02*
X55500D01*
Y36658D01*
X67016D01*
X67150Y36158D01*
X67097Y36127D01*
X66602Y35632D01*
X66252Y35026D01*
X66071Y34350D01*
Y33650D01*
X66252Y32974D01*
X66602Y32368D01*
X67097Y31874D01*
X67703Y31524D01*
X68379Y31343D01*
X69078D01*
X69754Y31524D01*
X70360Y31874D01*
X70855Y32368D01*
X71205Y32974D01*
X71386Y33650D01*
Y34350D01*
X71205Y35026D01*
X70855Y35632D01*
X70360Y36127D01*
X70306Y36158D01*
X70440Y36658D01*
X93788D01*
X93922Y36158D01*
X93868Y36127D01*
X93374Y35632D01*
X93024Y35026D01*
X92843Y34350D01*
Y33650D01*
X93024Y32974D01*
X93374Y32368D01*
X93868Y31874D01*
X94474Y31524D01*
X95150Y31343D01*
X95850D01*
X96526Y31524D01*
X97132Y31874D01*
X97627Y32368D01*
X97976Y32974D01*
X98158Y33650D01*
Y34350D01*
X97976Y35026D01*
X97627Y35632D01*
X97132Y36127D01*
X96526Y36476D01*
X95850Y36658D01*
X95500D01*
X95500Y36960D01*
Y46657D01*
D02*
G37*
%LPD*%
G36*
Y39915D02*
X94802D01*
X93989Y37549D01*
X93208Y39915D01*
X92520D01*
X93657Y36718D01*
X94354D01*
X95500Y39915D01*
Y36718D01*
Y36658D01*
X85844D01*
X85877Y36662D01*
X85913Y36667D01*
X85960Y36671D01*
X86006Y36676D01*
X86061Y36685D01*
X86172Y36713D01*
X86297Y36759D01*
X86357Y36782D01*
X86417Y36815D01*
X86472Y36852D01*
X86528Y36893D01*
X86533Y36898D01*
X86542Y36902D01*
X86556Y36916D01*
X86574Y36935D01*
X86593Y36962D01*
X86620Y36990D01*
X86643Y37023D01*
X86671Y37059D01*
X86703Y37106D01*
X86731Y37152D01*
X86782Y37263D01*
X86828Y37387D01*
X86842Y37457D01*
X86856Y37531D01*
X86246Y37595D01*
Y37586D01*
X86242Y37563D01*
X86232Y37521D01*
X86218Y37475D01*
X86200Y37424D01*
X86172Y37369D01*
X86135Y37318D01*
X86094Y37267D01*
X86089Y37263D01*
X86071Y37249D01*
X86043Y37230D01*
X86006Y37207D01*
X85964Y37184D01*
X85913Y37166D01*
X85853Y37152D01*
X85793Y37147D01*
X85784D01*
X85761Y37152D01*
X85724Y37156D01*
X85678Y37166D01*
X85627Y37184D01*
X85572Y37212D01*
X85516Y37253D01*
X85465Y37304D01*
X85461Y37314D01*
X85442Y37332D01*
X85424Y37369D01*
X85396Y37424D01*
X85373Y37489D01*
X85350Y37568D01*
X85336Y37665D01*
X85331Y37775D01*
Y37780D01*
Y37789D01*
Y37803D01*
Y37826D01*
X85336Y37877D01*
X85350Y37942D01*
X85364Y38016D01*
X85387Y38090D01*
X85419Y38159D01*
X85465Y38219D01*
X85470Y38224D01*
X85488Y38242D01*
X85521Y38265D01*
X85558Y38298D01*
X85609Y38325D01*
X85669Y38348D01*
X85738Y38367D01*
X85812Y38372D01*
X85840D01*
X85858Y38367D01*
X85904Y38358D01*
X85969Y38344D01*
X86043Y38316D01*
X86121Y38274D01*
X86163Y38247D01*
X86205Y38214D01*
X86246Y38177D01*
X86288Y38136D01*
X86782Y38205D01*
X86468Y39873D01*
X84846D01*
Y39300D01*
X86006D01*
X86103Y38755D01*
X86098D01*
X86094Y38760D01*
X86066Y38773D01*
X86024Y38787D01*
X85974Y38810D01*
X85909Y38829D01*
X85840Y38843D01*
X85761Y38857D01*
X85682Y38861D01*
X85641D01*
X85613Y38857D01*
X85581Y38852D01*
X85539Y38847D01*
X85493Y38838D01*
X85442Y38824D01*
X85336Y38787D01*
X85276Y38764D01*
X85220Y38737D01*
X85160Y38699D01*
X85100Y38658D01*
X85045Y38612D01*
X84990Y38561D01*
X84985Y38556D01*
X84976Y38547D01*
X84962Y38529D01*
X84943Y38506D01*
X84925Y38478D01*
X84897Y38441D01*
X84874Y38399D01*
X84846Y38353D01*
X84819Y38302D01*
X84795Y38242D01*
X84768Y38177D01*
X84749Y38113D01*
X84731Y38039D01*
X84717Y37960D01*
X84708Y37877D01*
X84703Y37789D01*
Y37752D01*
X84708Y37725D01*
Y37688D01*
X84717Y37646D01*
X84721Y37600D01*
X84731Y37554D01*
X84759Y37443D01*
X84800Y37323D01*
X84828Y37258D01*
X84856Y37198D01*
X84892Y37138D01*
X84934Y37078D01*
X84939Y37073D01*
X84948Y37059D01*
X84966Y37041D01*
X84990Y37013D01*
X85022Y36981D01*
X85063Y36944D01*
X85110Y36907D01*
X85160Y36870D01*
X85220Y36828D01*
X85285Y36792D01*
X85355Y36755D01*
X85433Y36722D01*
X85516Y36694D01*
X85604Y36676D01*
X85701Y36662D01*
X85803Y36658D01*
X79173D01*
X79205Y36662D01*
X79242Y36667D01*
X79284Y36671D01*
X79330Y36681D01*
X79385Y36690D01*
X79496Y36718D01*
X79616Y36764D01*
X79681Y36792D01*
X79737Y36824D01*
X79797Y36865D01*
X79852Y36907D01*
X79857Y36912D01*
X79866Y36921D01*
X79880Y36935D01*
X79898Y36953D01*
X79921Y36976D01*
X79944Y37009D01*
X79972Y37041D01*
X80000Y37082D01*
X80028Y37129D01*
X80060Y37175D01*
X80111Y37286D01*
X80152Y37415D01*
X80171Y37484D01*
X80180Y37558D01*
X79589Y37632D01*
Y37628D01*
Y37623D01*
X79584Y37595D01*
X79575Y37554D01*
X79561Y37503D01*
X79538Y37448D01*
X79515Y37387D01*
X79478Y37332D01*
X79436Y37281D01*
X79432Y37277D01*
X79413Y37263D01*
X79385Y37244D01*
X79353Y37226D01*
X79307Y37203D01*
X79256Y37184D01*
X79201Y37170D01*
X79136Y37166D01*
X79127D01*
X79104Y37170D01*
X79071Y37175D01*
X79025Y37184D01*
X78974Y37203D01*
X78923Y37226D01*
X78868Y37263D01*
X78817Y37309D01*
X78813Y37314D01*
X78794Y37337D01*
X78776Y37369D01*
X78748Y37411D01*
X78725Y37466D01*
X78702Y37535D01*
X78688Y37614D01*
X78683Y37702D01*
Y37706D01*
Y37711D01*
Y37739D01*
X78688Y37780D01*
X78697Y37836D01*
X78715Y37896D01*
X78739Y37956D01*
X78771Y38016D01*
X78813Y38071D01*
X78817Y38076D01*
X78836Y38094D01*
X78863Y38117D01*
X78896Y38140D01*
X78942Y38168D01*
X78993Y38187D01*
X79048Y38205D01*
X79113Y38210D01*
X79159D01*
X79191Y38205D01*
X79233Y38201D01*
X79284Y38191D01*
X79335Y38177D01*
X79395Y38164D01*
X79330Y38658D01*
X79288D01*
X79242Y38663D01*
X79187Y38667D01*
X79127Y38681D01*
X79062Y38699D01*
X79002Y38727D01*
X78947Y38764D01*
X78942Y38769D01*
X78923Y38787D01*
X78905Y38810D01*
X78877Y38847D01*
X78854Y38889D01*
X78831Y38940D01*
X78817Y39000D01*
X78813Y39069D01*
Y39078D01*
Y39097D01*
X78817Y39125D01*
X78826Y39162D01*
X78836Y39203D01*
X78854Y39245D01*
X78877Y39291D01*
X78910Y39328D01*
X78914Y39333D01*
X78928Y39342D01*
X78947Y39360D01*
X78979Y39379D01*
X79016Y39393D01*
X79057Y39411D01*
X79113Y39420D01*
X79168Y39425D01*
X79196D01*
X79224Y39420D01*
X79261Y39411D01*
X79302Y39397D01*
X79348Y39379D01*
X79395Y39351D01*
X79436Y39314D01*
X79441Y39309D01*
X79455Y39296D01*
X79473Y39268D01*
X79496Y39231D01*
X79519Y39189D01*
X79538Y39134D01*
X79556Y39069D01*
X79570Y38995D01*
X80134Y39088D01*
Y39092D01*
X80129Y39101D01*
Y39115D01*
X80125Y39138D01*
X80111Y39189D01*
X80092Y39259D01*
X80065Y39333D01*
X80037Y39411D01*
X80000Y39485D01*
X79958Y39554D01*
X79954Y39564D01*
X79935Y39582D01*
X79908Y39614D01*
X79870Y39656D01*
X79824Y39697D01*
X79769Y39744D01*
X79700Y39790D01*
X79626Y39831D01*
X79621D01*
X79616Y39836D01*
X79589Y39845D01*
X79542Y39864D01*
X79487Y39882D01*
X79418Y39901D01*
X79335Y39919D01*
X79247Y39928D01*
X79150Y39933D01*
X79108D01*
X79076Y39928D01*
X79034Y39924D01*
X78993Y39919D01*
X78942Y39910D01*
X78891Y39896D01*
X78776Y39864D01*
X78715Y39841D01*
X78651Y39808D01*
X78591Y39776D01*
X78535Y39739D01*
X78475Y39693D01*
X78425Y39642D01*
X78420Y39637D01*
X78415Y39633D01*
X78401Y39619D01*
X78387Y39600D01*
X78351Y39554D01*
X78309Y39489D01*
X78267Y39411D01*
X78235Y39319D01*
X78207Y39217D01*
X78203Y39166D01*
X78198Y39111D01*
Y39106D01*
Y39092D01*
X78203Y39069D01*
X78207Y39041D01*
X78212Y39004D01*
X78221Y38963D01*
X78235Y38917D01*
X78254Y38866D01*
X78281Y38815D01*
X78309Y38760D01*
X78346Y38704D01*
X78392Y38649D01*
X78448Y38593D01*
X78508Y38538D01*
X78577Y38487D01*
X78660Y38436D01*
X78655D01*
X78646Y38432D01*
X78632D01*
X78614Y38422D01*
X78563Y38408D01*
X78503Y38381D01*
X78434Y38344D01*
X78360Y38298D01*
X78286Y38238D01*
X78221Y38168D01*
X78212Y38159D01*
X78193Y38131D01*
X78170Y38090D01*
X78138Y38030D01*
X78106Y37960D01*
X78083Y37872D01*
X78064Y37780D01*
X78055Y37674D01*
Y37632D01*
X78060Y37605D01*
X78064Y37568D01*
X78073Y37526D01*
X78083Y37475D01*
X78092Y37424D01*
X78129Y37314D01*
X78157Y37253D01*
X78184Y37189D01*
X78221Y37129D01*
X78263Y37069D01*
X78309Y37009D01*
X78364Y36953D01*
X78369Y36948D01*
X78378Y36939D01*
X78397Y36925D01*
X78420Y36907D01*
X78452Y36884D01*
X78484Y36861D01*
X78531Y36833D01*
X78577Y36805D01*
X78628Y36778D01*
X78688Y36750D01*
X78752Y36727D01*
X78817Y36704D01*
X78891Y36685D01*
X78965Y36671D01*
X79048Y36662D01*
X79131Y36658D01*
X55500D01*
Y46657D01*
X95500D01*
Y39915D01*
D02*
G37*
%LPC*%
G36*
X60157D02*
X59543D01*
Y38732D01*
X59538Y38737D01*
X59529Y38746D01*
X59510Y38764D01*
X59492Y38787D01*
X59459Y38815D01*
X59427Y38843D01*
X59386Y38875D01*
X59344Y38912D01*
X59293Y38944D01*
X59238Y38977D01*
X59118Y39032D01*
X59053Y39055D01*
X58983Y39074D01*
X58910Y39083D01*
X58836Y39088D01*
X58799D01*
X58757Y39083D01*
X58706Y39078D01*
X58646Y39069D01*
X58586Y39051D01*
X58517Y39032D01*
X58452Y39004D01*
X58443Y39000D01*
X58425Y38991D01*
X58392Y38972D01*
X58355Y38949D01*
X58314Y38921D01*
X58272Y38889D01*
X58231Y38847D01*
X58193Y38806D01*
X58189Y38801D01*
X58180Y38783D01*
X58166Y38760D01*
X58147Y38727D01*
X58124Y38686D01*
X58106Y38640D01*
X58087Y38589D01*
X58073Y38533D01*
Y38529D01*
X58069Y38506D01*
X58064Y38469D01*
X58055Y38422D01*
X58050Y38358D01*
X58046Y38279D01*
X58041Y38187D01*
Y36718D01*
X58656D01*
Y37937D01*
Y37942D01*
Y37951D01*
Y37970D01*
Y37997D01*
Y38025D01*
Y38057D01*
X58660Y38131D01*
X58665Y38210D01*
X58669Y38288D01*
X58679Y38353D01*
X58688Y38376D01*
X58693Y38399D01*
Y38404D01*
X58702Y38418D01*
X58711Y38432D01*
X58720Y38455D01*
X58762Y38506D01*
X58785Y38533D01*
X58817Y38556D01*
X58822Y38561D01*
X58831Y38565D01*
X58854Y38575D01*
X58877Y38589D01*
X58910Y38598D01*
X58947Y38607D01*
X58993Y38612D01*
X59039Y38616D01*
X59067D01*
X59094Y38612D01*
X59131Y38607D01*
X59173Y38598D01*
X59219Y38584D01*
X59265Y38565D01*
X59311Y38538D01*
X59316Y38533D01*
X59330Y38524D01*
X59353Y38506D01*
X59376Y38482D01*
X59409Y38450D01*
X59436Y38413D01*
X59464Y38367D01*
X59487Y38316D01*
Y38311D01*
X59496Y38288D01*
X59506Y38256D01*
X59515Y38205D01*
X59524Y38145D01*
X59533Y38067D01*
X59538Y37979D01*
X59543Y37877D01*
Y36718D01*
X60157D01*
Y39915D01*
D02*
G37*
G36*
X66038Y39088D02*
X65886D01*
X65854Y39083D01*
X65816D01*
X65724Y39074D01*
X65627Y39064D01*
X65525Y39046D01*
X65428Y39018D01*
X65387Y39004D01*
X65345Y38986D01*
X65341D01*
X65336Y38981D01*
X65313Y38967D01*
X65276Y38949D01*
X65234Y38921D01*
X65184Y38884D01*
X65137Y38843D01*
X65096Y38792D01*
X65059Y38741D01*
X65054Y38732D01*
X65045Y38713D01*
X65031Y38672D01*
X65026Y38649D01*
X65017Y38616D01*
X65008Y38584D01*
X65003Y38542D01*
X64994Y38496D01*
X64990Y38445D01*
X64985Y38390D01*
X64980Y38330D01*
X64976Y38265D01*
Y38191D01*
X64985Y37475D01*
Y37471D01*
Y37461D01*
Y37448D01*
Y37424D01*
Y37369D01*
X64980Y37304D01*
Y37230D01*
X64971Y37156D01*
X64966Y37082D01*
X64957Y37023D01*
Y37018D01*
X64953Y36999D01*
X64943Y36967D01*
X64934Y36930D01*
X64916Y36884D01*
X64897Y36833D01*
X64874Y36778D01*
X64846Y36718D01*
X65452D01*
Y36722D01*
X65456Y36727D01*
X65461Y36745D01*
X65470Y36764D01*
X65479Y36787D01*
X65488Y36819D01*
X65498Y36856D01*
X65512Y36898D01*
Y36902D01*
X65516Y36907D01*
X65521Y36925D01*
X65530Y36948D01*
X65535Y36967D01*
X65544Y36962D01*
X65562Y36944D01*
X65595Y36916D01*
X65636Y36884D01*
X65687Y36847D01*
X65743Y36805D01*
X65807Y36773D01*
X65872Y36741D01*
X65881Y36736D01*
X65904Y36731D01*
X65941Y36718D01*
X65987Y36704D01*
X66043Y36690D01*
X66108Y36681D01*
X66181Y36671D01*
X66255Y36667D01*
X66288D01*
X66316Y36671D01*
X66343D01*
X66380Y36676D01*
X66459Y36690D01*
X66551Y36713D01*
X66644Y36745D01*
X66736Y36792D01*
X66819Y36856D01*
Y36861D01*
X66828Y36865D01*
X66851Y36893D01*
X66884Y36935D01*
X66921Y36990D01*
X66958Y37059D01*
X66990Y37143D01*
X67013Y37240D01*
X67018Y37290D01*
X67022Y37346D01*
Y37378D01*
X67018Y37415D01*
X67009Y37461D01*
X66999Y37517D01*
X66985Y37572D01*
X66962Y37632D01*
X66930Y37692D01*
X66925Y37702D01*
X66911Y37720D01*
X66893Y37748D01*
X66861Y37780D01*
X66828Y37817D01*
X66782Y37859D01*
X66731Y37896D01*
X66671Y37928D01*
X66662Y37933D01*
X66639Y37942D01*
X66602Y37956D01*
X66546Y37979D01*
X66477Y38002D01*
X66394Y38025D01*
X66292Y38048D01*
X66181Y38071D01*
X66177D01*
X66163Y38076D01*
X66140Y38080D01*
X66112Y38085D01*
X66075Y38090D01*
X66034Y38099D01*
X65941Y38122D01*
X65844Y38145D01*
X65743Y38168D01*
X65655Y38196D01*
X65613Y38210D01*
X65581Y38224D01*
Y38284D01*
Y38293D01*
Y38311D01*
X65586Y38344D01*
X65590Y38385D01*
X65604Y38427D01*
X65618Y38469D01*
X65641Y38506D01*
X65673Y38538D01*
X65678Y38542D01*
X65692Y38552D01*
X65715Y38561D01*
X65747Y38579D01*
X65793Y38593D01*
X65849Y38603D01*
X65918Y38612D01*
X66001Y38616D01*
X66029D01*
X66057Y38612D01*
X66094Y38607D01*
X66135Y38598D01*
X66181Y38589D01*
X66223Y38570D01*
X66260Y38547D01*
X66265Y38542D01*
X66274Y38533D01*
X66292Y38519D01*
X66311Y38496D01*
X66339Y38464D01*
X66362Y38422D01*
X66385Y38376D01*
X66408Y38321D01*
X66958Y38422D01*
Y38427D01*
X66953Y38436D01*
X66948Y38455D01*
X66939Y38478D01*
X66930Y38506D01*
X66916Y38538D01*
X66884Y38612D01*
X66838Y38690D01*
X66782Y38773D01*
X66717Y38852D01*
X66639Y38921D01*
X66634D01*
X66630Y38930D01*
X66616Y38935D01*
X66597Y38949D01*
X66570Y38958D01*
X66542Y38972D01*
X66505Y38991D01*
X66468Y39004D01*
X66422Y39018D01*
X66371Y39037D01*
X66316Y39051D01*
X66251Y39060D01*
X66186Y39074D01*
X66112Y39078D01*
X66038Y39088D01*
D02*
G37*
G36*
X61654D02*
X61612D01*
X61585Y39083D01*
X61548D01*
X61506Y39078D01*
X61460Y39074D01*
X61409Y39064D01*
X61303Y39041D01*
X61192Y39009D01*
X61081Y38963D01*
X60979Y38903D01*
X60975D01*
X60970Y38894D01*
X60956Y38884D01*
X60938Y38870D01*
X60896Y38829D01*
X60841Y38769D01*
X60781Y38690D01*
X60721Y38598D01*
X60665Y38487D01*
X60619Y38358D01*
X61224Y38247D01*
Y38256D01*
X61229Y38274D01*
X61238Y38307D01*
X61252Y38348D01*
X61275Y38390D01*
X61298Y38436D01*
X61330Y38478D01*
X61367Y38515D01*
X61372Y38519D01*
X61386Y38529D01*
X61409Y38542D01*
X61441Y38561D01*
X61483Y38579D01*
X61529Y38593D01*
X61585Y38603D01*
X61645Y38607D01*
X61654D01*
X61682Y38603D01*
X61723Y38598D01*
X61779Y38589D01*
X61834Y38565D01*
X61894Y38538D01*
X61954Y38501D01*
X62010Y38445D01*
X62014Y38436D01*
X62028Y38413D01*
X62051Y38376D01*
X62074Y38321D01*
X62102Y38247D01*
X62111Y38205D01*
X62120Y38159D01*
X62130Y38104D01*
X62139Y38048D01*
X62144Y37983D01*
Y37919D01*
Y37914D01*
Y37900D01*
Y37877D01*
X62139Y37849D01*
Y37817D01*
X62134Y37780D01*
X62125Y37688D01*
X62111Y37591D01*
X62084Y37494D01*
X62051Y37406D01*
X62028Y37369D01*
X62005Y37332D01*
X62000Y37323D01*
X61977Y37304D01*
X61950Y37281D01*
X61908Y37249D01*
X61853Y37216D01*
X61792Y37193D01*
X61719Y37175D01*
X61635Y37166D01*
X61608D01*
X61575Y37170D01*
X61534Y37179D01*
X61488Y37189D01*
X61441Y37207D01*
X61395Y37230D01*
X61349Y37263D01*
X61344Y37267D01*
X61330Y37281D01*
X61312Y37304D01*
X61284Y37341D01*
X61257Y37387D01*
X61234Y37448D01*
X61206Y37521D01*
X61187Y37605D01*
X60587Y37503D01*
Y37498D01*
X60591Y37484D01*
X60596Y37461D01*
X60605Y37434D01*
X60619Y37401D01*
X60633Y37360D01*
X60670Y37267D01*
X60716Y37166D01*
X60781Y37064D01*
X60859Y36962D01*
X60905Y36916D01*
X60952Y36875D01*
X60956D01*
X60966Y36865D01*
X60979Y36856D01*
X60998Y36842D01*
X61026Y36828D01*
X61058Y36810D01*
X61095Y36792D01*
X61141Y36773D01*
X61187Y36750D01*
X61243Y36731D01*
X61298Y36713D01*
X61363Y36699D01*
X61432Y36685D01*
X61506Y36676D01*
X61580Y36671D01*
X61663Y36667D01*
X61714D01*
X61746Y36671D01*
X61788Y36676D01*
X61839Y36685D01*
X61894Y36694D01*
X61954Y36708D01*
X62019Y36722D01*
X62084Y36745D01*
X62153Y36768D01*
X62217Y36801D01*
X62287Y36838D01*
X62352Y36879D01*
X62412Y36930D01*
X62472Y36985D01*
X62476Y36990D01*
X62485Y36999D01*
X62499Y37018D01*
X62518Y37046D01*
X62541Y37078D01*
X62569Y37115D01*
X62592Y37161D01*
X62620Y37216D01*
X62652Y37277D01*
X62675Y37341D01*
X62703Y37415D01*
X62726Y37494D01*
X62744Y37582D01*
X62758Y37669D01*
X62767Y37771D01*
X62772Y37872D01*
Y37928D01*
X62767Y37965D01*
X62763Y38016D01*
X62758Y38071D01*
X62749Y38131D01*
X62735Y38201D01*
X62698Y38344D01*
X62675Y38418D01*
X62647Y38492D01*
X62610Y38565D01*
X62569Y38635D01*
X62522Y38699D01*
X62472Y38764D01*
X62467Y38769D01*
X62458Y38778D01*
X62439Y38792D01*
X62416Y38815D01*
X62384Y38838D01*
X62347Y38866D01*
X62305Y38898D01*
X62255Y38926D01*
X62199Y38958D01*
X62139Y38986D01*
X62070Y39014D01*
X61996Y39037D01*
X61922Y39060D01*
X61834Y39074D01*
X61746Y39083D01*
X61654Y39088D01*
D02*
G37*
G36*
X91319D02*
X91268D01*
X91231Y39083D01*
X91189Y39078D01*
X91139Y39069D01*
X91083Y39060D01*
X91023Y39046D01*
X90958Y39028D01*
X90894Y39004D01*
X90825Y38977D01*
X90755Y38940D01*
X90691Y38903D01*
X90626Y38857D01*
X90561Y38801D01*
X90506Y38741D01*
X90501Y38737D01*
X90492Y38727D01*
X90478Y38704D01*
X90460Y38676D01*
X90437Y38640D01*
X90413Y38598D01*
X90386Y38542D01*
X90358Y38482D01*
X90330Y38413D01*
X90302Y38335D01*
X90279Y38251D01*
X90256Y38154D01*
X90238Y38053D01*
X90224Y37942D01*
X90215Y37826D01*
Y37697D01*
X91749D01*
Y37692D01*
Y37683D01*
Y37669D01*
X91744Y37651D01*
X91739Y37605D01*
X91730Y37540D01*
X91712Y37475D01*
X91684Y37401D01*
X91651Y37332D01*
X91605Y37272D01*
X91601Y37267D01*
X91578Y37249D01*
X91550Y37226D01*
X91508Y37198D01*
X91457Y37170D01*
X91393Y37147D01*
X91324Y37129D01*
X91250Y37124D01*
X91227D01*
X91199Y37129D01*
X91166Y37133D01*
X91129Y37143D01*
X91088Y37156D01*
X91046Y37175D01*
X91009Y37203D01*
X91005Y37207D01*
X90991Y37216D01*
X90972Y37235D01*
X90954Y37263D01*
X90926Y37300D01*
X90903Y37341D01*
X90880Y37397D01*
X90857Y37457D01*
X90247Y37355D01*
Y37350D01*
X90252Y37341D01*
X90261Y37323D01*
X90270Y37300D01*
X90284Y37272D01*
X90298Y37240D01*
X90339Y37166D01*
X90390Y37082D01*
X90455Y36995D01*
X90534Y36916D01*
X90621Y36842D01*
X90626D01*
X90631Y36833D01*
X90649Y36828D01*
X90667Y36815D01*
X90691Y36801D01*
X90723Y36787D01*
X90755Y36773D01*
X90797Y36755D01*
X90889Y36722D01*
X90996Y36694D01*
X91120Y36676D01*
X91254Y36667D01*
X91282D01*
X91310Y36671D01*
X91351D01*
X91402Y36681D01*
X91462Y36690D01*
X91527Y36699D01*
X91592Y36718D01*
X91665Y36736D01*
X91739Y36764D01*
X91813Y36796D01*
X91887Y36833D01*
X91961Y36879D01*
X92030Y36930D01*
X92090Y36990D01*
X92150Y37059D01*
X92155Y37064D01*
X92160Y37073D01*
X92169Y37092D01*
X92188Y37115D01*
X92201Y37147D01*
X92220Y37184D01*
X92243Y37226D01*
X92261Y37277D01*
X92285Y37332D01*
X92303Y37392D01*
X92326Y37457D01*
X92340Y37531D01*
X92354Y37605D01*
X92368Y37683D01*
X92372Y37771D01*
X92377Y37859D01*
Y37914D01*
X92372Y37956D01*
X92368Y38002D01*
X92363Y38057D01*
X92354Y38117D01*
X92340Y38187D01*
X92303Y38330D01*
X92280Y38404D01*
X92252Y38482D01*
X92215Y38556D01*
X92174Y38626D01*
X92127Y38695D01*
X92077Y38760D01*
X92072Y38764D01*
X92063Y38773D01*
X92044Y38792D01*
X92021Y38810D01*
X91993Y38833D01*
X91957Y38861D01*
X91915Y38894D01*
X91869Y38926D01*
X91818Y38954D01*
X91758Y38986D01*
X91698Y39014D01*
X91628Y39037D01*
X91559Y39055D01*
X91481Y39074D01*
X91402Y39083D01*
X91319Y39088D01*
D02*
G37*
G36*
X73435D02*
X73384D01*
X73347Y39083D01*
X73305Y39078D01*
X73255Y39069D01*
X73199Y39060D01*
X73139Y39046D01*
X73075Y39028D01*
X73010Y39004D01*
X72940Y38977D01*
X72871Y38940D01*
X72807Y38903D01*
X72742Y38857D01*
X72677Y38801D01*
X72622Y38741D01*
X72617Y38737D01*
X72608Y38727D01*
X72594Y38704D01*
X72576Y38676D01*
X72553Y38640D01*
X72529Y38598D01*
X72502Y38542D01*
X72474Y38482D01*
X72446Y38413D01*
X72418Y38335D01*
X72395Y38251D01*
X72372Y38154D01*
X72354Y38053D01*
X72340Y37942D01*
X72331Y37826D01*
Y37697D01*
X73865D01*
Y37692D01*
Y37683D01*
Y37669D01*
X73860Y37651D01*
X73855Y37605D01*
X73846Y37540D01*
X73828Y37475D01*
X73800Y37401D01*
X73768Y37332D01*
X73721Y37272D01*
X73717Y37267D01*
X73694Y37249D01*
X73666Y37226D01*
X73624Y37198D01*
X73573Y37170D01*
X73509Y37147D01*
X73440Y37129D01*
X73366Y37124D01*
X73343D01*
X73315Y37129D01*
X73282Y37133D01*
X73246Y37143D01*
X73204Y37156D01*
X73162Y37175D01*
X73125Y37203D01*
X73121Y37207D01*
X73107Y37216D01*
X73088Y37235D01*
X73070Y37263D01*
X73042Y37300D01*
X73019Y37341D01*
X72996Y37397D01*
X72973Y37457D01*
X72363Y37355D01*
Y37350D01*
X72368Y37341D01*
X72377Y37323D01*
X72386Y37300D01*
X72400Y37272D01*
X72414Y37240D01*
X72455Y37166D01*
X72506Y37082D01*
X72571Y36995D01*
X72650Y36916D01*
X72737Y36842D01*
X72742D01*
X72746Y36833D01*
X72765Y36828D01*
X72783Y36815D01*
X72807Y36801D01*
X72839Y36787D01*
X72871Y36773D01*
X72913Y36755D01*
X73005Y36722D01*
X73111Y36694D01*
X73236Y36676D01*
X73370Y36667D01*
X73398D01*
X73426Y36671D01*
X73467D01*
X73518Y36681D01*
X73578Y36690D01*
X73643Y36699D01*
X73707Y36718D01*
X73781Y36736D01*
X73855Y36764D01*
X73929Y36796D01*
X74003Y36833D01*
X74077Y36879D01*
X74146Y36930D01*
X74206Y36990D01*
X74266Y37059D01*
X74271Y37064D01*
X74276Y37073D01*
X74285Y37092D01*
X74303Y37115D01*
X74317Y37147D01*
X74336Y37184D01*
X74359Y37226D01*
X74377Y37277D01*
X74401Y37332D01*
X74419Y37392D01*
X74442Y37457D01*
X74456Y37531D01*
X74470Y37605D01*
X74484Y37683D01*
X74488Y37771D01*
X74493Y37859D01*
Y37914D01*
X74488Y37956D01*
X74484Y38002D01*
X74479Y38057D01*
X74470Y38117D01*
X74456Y38187D01*
X74419Y38330D01*
X74396Y38404D01*
X74368Y38482D01*
X74331Y38556D01*
X74290Y38626D01*
X74243Y38695D01*
X74193Y38760D01*
X74188Y38764D01*
X74179Y38773D01*
X74160Y38792D01*
X74137Y38810D01*
X74109Y38833D01*
X74072Y38861D01*
X74031Y38894D01*
X73985Y38926D01*
X73934Y38954D01*
X73874Y38986D01*
X73814Y39014D01*
X73744Y39037D01*
X73675Y39055D01*
X73597Y39074D01*
X73518Y39083D01*
X73435Y39088D01*
D02*
G37*
G36*
X68464D02*
X68413D01*
X68376Y39083D01*
X68334Y39078D01*
X68284Y39069D01*
X68228Y39060D01*
X68168Y39046D01*
X68103Y39028D01*
X68039Y39004D01*
X67969Y38977D01*
X67900Y38940D01*
X67835Y38903D01*
X67771Y38857D01*
X67706Y38801D01*
X67651Y38741D01*
X67646Y38737D01*
X67637Y38727D01*
X67623Y38704D01*
X67604Y38676D01*
X67581Y38640D01*
X67558Y38598D01*
X67531Y38542D01*
X67503Y38482D01*
X67475Y38413D01*
X67447Y38335D01*
X67424Y38251D01*
X67401Y38154D01*
X67383Y38053D01*
X67369Y37942D01*
X67360Y37826D01*
Y37697D01*
X68893D01*
Y37692D01*
Y37683D01*
Y37669D01*
X68889Y37651D01*
X68884Y37605D01*
X68875Y37540D01*
X68857Y37475D01*
X68829Y37401D01*
X68796Y37332D01*
X68750Y37272D01*
X68746Y37267D01*
X68722Y37249D01*
X68695Y37226D01*
X68653Y37198D01*
X68602Y37170D01*
X68538Y37147D01*
X68468Y37129D01*
X68395Y37124D01*
X68371D01*
X68344Y37129D01*
X68311Y37133D01*
X68274Y37143D01*
X68233Y37156D01*
X68191Y37175D01*
X68154Y37203D01*
X68150Y37207D01*
X68136Y37216D01*
X68117Y37235D01*
X68099Y37263D01*
X68071Y37300D01*
X68048Y37341D01*
X68025Y37397D01*
X68002Y37457D01*
X67392Y37355D01*
Y37350D01*
X67396Y37341D01*
X67406Y37323D01*
X67415Y37300D01*
X67429Y37272D01*
X67443Y37240D01*
X67484Y37166D01*
X67535Y37082D01*
X67600Y36995D01*
X67678Y36916D01*
X67766Y36842D01*
X67771D01*
X67775Y36833D01*
X67794Y36828D01*
X67812Y36815D01*
X67835Y36801D01*
X67868Y36787D01*
X67900Y36773D01*
X67942Y36755D01*
X68034Y36722D01*
X68140Y36694D01*
X68265Y36676D01*
X68399Y36667D01*
X68427D01*
X68454Y36671D01*
X68496D01*
X68547Y36681D01*
X68607Y36690D01*
X68672Y36699D01*
X68736Y36718D01*
X68810Y36736D01*
X68884Y36764D01*
X68958Y36796D01*
X69032Y36833D01*
X69106Y36879D01*
X69175Y36930D01*
X69235Y36990D01*
X69295Y37059D01*
X69300Y37064D01*
X69305Y37073D01*
X69314Y37092D01*
X69332Y37115D01*
X69346Y37147D01*
X69365Y37184D01*
X69388Y37226D01*
X69406Y37277D01*
X69429Y37332D01*
X69448Y37392D01*
X69471Y37457D01*
X69485Y37531D01*
X69499Y37605D01*
X69512Y37683D01*
X69517Y37771D01*
X69522Y37859D01*
Y37914D01*
X69517Y37956D01*
X69512Y38002D01*
X69508Y38057D01*
X69499Y38117D01*
X69485Y38187D01*
X69448Y38330D01*
X69425Y38404D01*
X69397Y38482D01*
X69360Y38556D01*
X69318Y38626D01*
X69272Y38695D01*
X69221Y38760D01*
X69217Y38764D01*
X69208Y38773D01*
X69189Y38792D01*
X69166Y38810D01*
X69138Y38833D01*
X69101Y38861D01*
X69060Y38894D01*
X69014Y38926D01*
X68963Y38954D01*
X68903Y38986D01*
X68843Y39014D01*
X68773Y39037D01*
X68704Y39055D01*
X68625Y39074D01*
X68547Y39083D01*
X68464Y39088D01*
D02*
G37*
G36*
X88648D02*
X88612D01*
X88570Y39083D01*
X88519Y39074D01*
X88455Y39060D01*
X88385Y39037D01*
X88316Y39009D01*
X88242Y38967D01*
X88436Y38436D01*
X88441Y38441D01*
X88464Y38450D01*
X88491Y38469D01*
X88528Y38487D01*
X88575Y38506D01*
X88621Y38524D01*
X88672Y38533D01*
X88722Y38538D01*
X88741D01*
X88769Y38533D01*
X88796Y38529D01*
X88829Y38519D01*
X88866Y38506D01*
X88903Y38487D01*
X88940Y38464D01*
X88944Y38459D01*
X88954Y38450D01*
X88972Y38432D01*
X88990Y38404D01*
X89013Y38372D01*
X89037Y38325D01*
X89060Y38270D01*
X89078Y38205D01*
Y38196D01*
X89083Y38182D01*
X89087Y38168D01*
Y38145D01*
X89092Y38117D01*
X89097Y38080D01*
X89101Y38039D01*
X89106Y37993D01*
X89110Y37933D01*
X89115Y37872D01*
Y37799D01*
X89120Y37720D01*
X89124Y37632D01*
Y37535D01*
Y37429D01*
Y36718D01*
X89739D01*
Y39037D01*
X89171D01*
Y38709D01*
X89166Y38713D01*
X89148Y38741D01*
X89120Y38783D01*
X89083Y38833D01*
X89046Y38884D01*
X89000Y38935D01*
X88958Y38981D01*
X88912Y39014D01*
X88907Y39018D01*
X88893Y39028D01*
X88866Y39037D01*
X88833Y39051D01*
X88796Y39064D01*
X88750Y39078D01*
X88704Y39083D01*
X88648Y39088D01*
D02*
G37*
G36*
X82998Y39915D02*
X80628D01*
Y39374D01*
X82351D01*
Y38667D01*
X80748D01*
Y38127D01*
X82351D01*
Y37258D01*
X80568D01*
Y36718D01*
X82998D01*
Y39915D01*
D02*
G37*
G36*
X77533D02*
X76091D01*
X76050Y39910D01*
X75999D01*
X75948Y39905D01*
X75888D01*
X75768Y39891D01*
X75643Y39878D01*
X75528Y39854D01*
X75477Y39841D01*
X75431Y39827D01*
X75426D01*
X75422Y39822D01*
X75394Y39808D01*
X75352Y39785D01*
X75297Y39757D01*
X75237Y39711D01*
X75177Y39661D01*
X75117Y39596D01*
X75061Y39517D01*
Y39513D01*
X75056Y39508D01*
X75047Y39494D01*
X75038Y39480D01*
X75015Y39434D01*
X74987Y39374D01*
X74964Y39300D01*
X74941Y39217D01*
X74923Y39120D01*
X74918Y39018D01*
Y39014D01*
Y39004D01*
Y38981D01*
X74923Y38958D01*
Y38926D01*
X74927Y38894D01*
X74946Y38810D01*
X74969Y38713D01*
X75006Y38616D01*
X75061Y38515D01*
X75094Y38469D01*
X75130Y38422D01*
X75135Y38418D01*
X75140Y38413D01*
X75153Y38399D01*
X75172Y38385D01*
X75191Y38367D01*
X75218Y38344D01*
X75251Y38321D01*
X75287Y38298D01*
X75329Y38270D01*
X75380Y38247D01*
X75431Y38224D01*
X75486Y38201D01*
X75551Y38177D01*
X75616Y38159D01*
X75685Y38140D01*
X75763Y38127D01*
X75759D01*
X75754Y38122D01*
X75726Y38104D01*
X75689Y38080D01*
X75643Y38048D01*
X75588Y38006D01*
X75532Y37965D01*
X75472Y37914D01*
X75422Y37859D01*
X75417Y37854D01*
X75394Y37831D01*
X75366Y37794D01*
X75324Y37739D01*
X75269Y37669D01*
X75241Y37623D01*
X75209Y37577D01*
X75172Y37526D01*
X75135Y37471D01*
X75094Y37406D01*
X75052Y37341D01*
X74659Y36718D01*
X75435D01*
X75897Y37411D01*
X75902Y37415D01*
X75907Y37429D01*
X75920Y37448D01*
X75939Y37471D01*
X75957Y37498D01*
X75981Y37535D01*
X76031Y37609D01*
X76091Y37692D01*
X76147Y37766D01*
X76198Y37836D01*
X76221Y37859D01*
X76239Y37882D01*
X76244Y37886D01*
X76253Y37896D01*
X76272Y37914D01*
X76295Y37937D01*
X76327Y37956D01*
X76359Y37979D01*
X76396Y37997D01*
X76433Y38016D01*
X76438D01*
X76452Y38020D01*
X76475Y38030D01*
X76512Y38034D01*
X76558Y38043D01*
X76613Y38048D01*
X76678Y38053D01*
X76886D01*
Y36718D01*
X77533D01*
Y39915D01*
D02*
G37*
G36*
X63308Y39088D02*
X63271D01*
X63229Y39083D01*
X63178Y39074D01*
X63114Y39060D01*
X63045Y39037D01*
X62975Y39009D01*
X62901Y38967D01*
X63095Y38436D01*
X63100Y38441D01*
X63123Y38450D01*
X63151Y38469D01*
X63188Y38487D01*
X63234Y38506D01*
X63280Y38524D01*
X63331Y38533D01*
X63382Y38538D01*
X63400D01*
X63428Y38533D01*
X63456Y38529D01*
X63488Y38519D01*
X63525Y38506D01*
X63562Y38487D01*
X63599Y38464D01*
X63604Y38459D01*
X63613Y38450D01*
X63631Y38432D01*
X63650Y38404D01*
X63673Y38372D01*
X63696Y38325D01*
X63719Y38270D01*
X63737Y38205D01*
Y38196D01*
X63742Y38182D01*
X63747Y38168D01*
Y38145D01*
X63751Y38117D01*
X63756Y38080D01*
X63761Y38039D01*
X63765Y37993D01*
X63770Y37933D01*
X63775Y37872D01*
Y37799D01*
X63779Y37720D01*
X63784Y37632D01*
Y37535D01*
Y37429D01*
Y36718D01*
X64398D01*
Y39037D01*
X63830D01*
Y38709D01*
X63825Y38713D01*
X63807Y38741D01*
X63779Y38783D01*
X63742Y38833D01*
X63705Y38884D01*
X63659Y38935D01*
X63617Y38981D01*
X63571Y39014D01*
X63567Y39018D01*
X63553Y39028D01*
X63525Y39037D01*
X63493Y39051D01*
X63456Y39064D01*
X63410Y39078D01*
X63363Y39083D01*
X63308Y39088D01*
D02*
G37*
G36*
X71079D02*
X70908D01*
X70871Y39083D01*
X70825Y39078D01*
X70774Y39074D01*
X70718Y39069D01*
X70603Y39051D01*
X70487Y39023D01*
X70376Y38981D01*
X70326Y38958D01*
X70279Y38930D01*
X70275D01*
X70270Y38921D01*
X70243Y38903D01*
X70201Y38866D01*
X70155Y38815D01*
X70099Y38755D01*
X70048Y38676D01*
X69998Y38584D01*
X69961Y38478D01*
X70538Y38372D01*
Y38376D01*
X70547Y38395D01*
X70557Y38418D01*
X70570Y38445D01*
X70589Y38482D01*
X70617Y38515D01*
X70644Y38547D01*
X70681Y38575D01*
X70686Y38579D01*
X70700Y38589D01*
X70723Y38598D01*
X70755Y38612D01*
X70797Y38626D01*
X70848Y38640D01*
X70908Y38644D01*
X70977Y38649D01*
X71019D01*
X71060Y38644D01*
X71111Y38640D01*
X71171Y38630D01*
X71227Y38621D01*
X71277Y38603D01*
X71324Y38579D01*
X71328D01*
X71333Y38570D01*
X71356Y38547D01*
X71384Y38506D01*
X71388Y38482D01*
X71393Y38455D01*
Y38450D01*
Y38445D01*
X71384Y38418D01*
X71365Y38381D01*
X71351Y38362D01*
X71333Y38344D01*
X71328Y38339D01*
X71310Y38335D01*
X71300Y38325D01*
X71282Y38321D01*
X71259Y38311D01*
X71231Y38298D01*
X71194Y38288D01*
X71157Y38274D01*
X71111Y38261D01*
X71056Y38247D01*
X70995Y38228D01*
X70926Y38210D01*
X70848Y38191D01*
X70760Y38168D01*
X70755D01*
X70737Y38164D01*
X70714Y38159D01*
X70681Y38150D01*
X70640Y38136D01*
X70594Y38127D01*
X70492Y38094D01*
X70376Y38053D01*
X70266Y38006D01*
X70210Y37979D01*
X70159Y37956D01*
X70118Y37923D01*
X70076Y37896D01*
X70067Y37886D01*
X70044Y37868D01*
X70016Y37831D01*
X69979Y37780D01*
X69942Y37716D01*
X69914Y37637D01*
X69891Y37545D01*
X69882Y37443D01*
Y37411D01*
X69887Y37387D01*
X69891Y37364D01*
X69896Y37332D01*
X69914Y37253D01*
X69947Y37170D01*
X69970Y37124D01*
X69993Y37078D01*
X70025Y37032D01*
X70062Y36985D01*
X70104Y36939D01*
X70150Y36893D01*
X70155Y36889D01*
X70164Y36884D01*
X70178Y36875D01*
X70201Y36856D01*
X70229Y36842D01*
X70261Y36824D01*
X70302Y36801D01*
X70349Y36782D01*
X70399Y36759D01*
X70460Y36741D01*
X70524Y36718D01*
X70594Y36704D01*
X70672Y36690D01*
X70755Y36676D01*
X70843Y36671D01*
X70935Y36667D01*
X70982D01*
X71014Y36671D01*
X71056D01*
X71102Y36676D01*
X71153Y36681D01*
X71208Y36690D01*
X71328Y36713D01*
X71453Y36745D01*
X71578Y36792D01*
X71633Y36824D01*
X71688Y36856D01*
X71693Y36861D01*
X71702Y36865D01*
X71716Y36875D01*
X71730Y36893D01*
X71781Y36935D01*
X71836Y36995D01*
X71896Y37069D01*
X71952Y37156D01*
X72003Y37263D01*
X72044Y37378D01*
X71430Y37471D01*
Y37461D01*
X71421Y37443D01*
X71411Y37411D01*
X71398Y37369D01*
X71374Y37323D01*
X71347Y37281D01*
X71314Y37235D01*
X71273Y37198D01*
X71268Y37193D01*
X71250Y37184D01*
X71222Y37170D01*
X71185Y37156D01*
X71139Y37138D01*
X71079Y37124D01*
X71014Y37115D01*
X70935Y37110D01*
X70898D01*
X70852Y37115D01*
X70802Y37119D01*
X70746Y37129D01*
X70686Y37147D01*
X70631Y37166D01*
X70580Y37193D01*
X70575Y37198D01*
X70566Y37207D01*
X70552Y37221D01*
X70538Y37240D01*
X70524Y37263D01*
X70510Y37290D01*
X70501Y37323D01*
X70497Y37360D01*
Y37364D01*
Y37374D01*
X70501Y37401D01*
X70515Y37438D01*
X70543Y37475D01*
X70552Y37484D01*
X70566Y37489D01*
X70584Y37503D01*
X70612Y37512D01*
X70649Y37526D01*
X70691Y37540D01*
X70746Y37554D01*
X70755D01*
X70778Y37563D01*
X70815Y37572D01*
X70866Y37582D01*
X70926Y37595D01*
X70991Y37614D01*
X71065Y37632D01*
X71143Y37655D01*
X71305Y37702D01*
X71384Y37725D01*
X71457Y37752D01*
X71527Y37775D01*
X71592Y37803D01*
X71647Y37831D01*
X71688Y37854D01*
X71693Y37859D01*
X71702Y37863D01*
X71712Y37872D01*
X71730Y37891D01*
X71776Y37933D01*
X71823Y37993D01*
X71873Y38067D01*
X71920Y38154D01*
X71938Y38205D01*
X71947Y38261D01*
X71956Y38316D01*
X71961Y38376D01*
Y38381D01*
Y38390D01*
Y38404D01*
X71956Y38427D01*
X71952Y38450D01*
X71947Y38482D01*
X71933Y38552D01*
X71906Y38630D01*
X71860Y38713D01*
X71836Y38760D01*
X71804Y38801D01*
X71767Y38843D01*
X71725Y38880D01*
X71721Y38884D01*
X71716Y38889D01*
X71702Y38898D01*
X71679Y38912D01*
X71656Y38926D01*
X71624Y38944D01*
X71587Y38963D01*
X71545Y38986D01*
X71495Y39004D01*
X71439Y39023D01*
X71379Y39041D01*
X71314Y39055D01*
X71240Y39069D01*
X71162Y39078D01*
X71079Y39088D01*
D02*
G37*
%LPD*%
G36*
X65604Y37817D02*
X65632Y37813D01*
X65673Y37799D01*
X65724Y37785D01*
X65793Y37766D01*
X65867Y37748D01*
X65960Y37729D01*
X65969D01*
X65983Y37725D01*
X66001Y37720D01*
X66043Y37711D01*
X66098Y37697D01*
X66154Y37683D01*
X66209Y37665D01*
X66255Y37642D01*
X66292Y37623D01*
X66297Y37618D01*
X66311Y37609D01*
X66329Y37591D01*
X66348Y37568D01*
X66371Y37535D01*
X66389Y37498D01*
X66403Y37457D01*
X66408Y37411D01*
Y37406D01*
Y37387D01*
X66403Y37364D01*
X66394Y37337D01*
X66385Y37300D01*
X66371Y37263D01*
X66348Y37226D01*
X66316Y37189D01*
X66311Y37184D01*
X66297Y37175D01*
X66278Y37161D01*
X66246Y37143D01*
X66214Y37124D01*
X66172Y37110D01*
X66121Y37101D01*
X66071Y37096D01*
X66043D01*
X66010Y37101D01*
X65969Y37110D01*
X65918Y37124D01*
X65867Y37143D01*
X65807Y37166D01*
X65752Y37203D01*
X65747Y37207D01*
X65733Y37216D01*
X65715Y37235D01*
X65692Y37258D01*
X65669Y37290D01*
X65646Y37323D01*
X65623Y37364D01*
X65609Y37406D01*
Y37411D01*
X65604Y37420D01*
X65599Y37443D01*
X65595Y37471D01*
X65590Y37512D01*
X65586Y37563D01*
X65581Y37628D01*
Y37702D01*
Y37826D01*
X65586D01*
X65604Y37817D01*
D02*
G37*
G36*
X91351Y38607D02*
X91397Y38598D01*
X91448Y38579D01*
X91504Y38556D01*
X91559Y38519D01*
X91610Y38469D01*
X91615Y38464D01*
X91628Y38441D01*
X91651Y38408D01*
X91675Y38362D01*
X91702Y38307D01*
X91721Y38238D01*
X91735Y38159D01*
X91739Y38071D01*
X90825D01*
Y38076D01*
Y38085D01*
Y38094D01*
X90829Y38113D01*
X90834Y38164D01*
X90843Y38219D01*
X90861Y38284D01*
X90885Y38353D01*
X90922Y38418D01*
X90963Y38473D01*
X90968Y38478D01*
X90986Y38496D01*
X91014Y38519D01*
X91051Y38547D01*
X91097Y38570D01*
X91153Y38593D01*
X91213Y38612D01*
X91282Y38616D01*
X91314D01*
X91351Y38607D01*
D02*
G37*
G36*
X73467D02*
X73513Y38598D01*
X73564Y38579D01*
X73620Y38556D01*
X73675Y38519D01*
X73726Y38469D01*
X73731Y38464D01*
X73744Y38441D01*
X73768Y38408D01*
X73791Y38362D01*
X73818Y38307D01*
X73837Y38238D01*
X73851Y38159D01*
X73855Y38071D01*
X72940D01*
Y38076D01*
Y38085D01*
Y38094D01*
X72945Y38113D01*
X72950Y38164D01*
X72959Y38219D01*
X72978Y38284D01*
X73001Y38353D01*
X73038Y38418D01*
X73079Y38473D01*
X73084Y38478D01*
X73102Y38496D01*
X73130Y38519D01*
X73167Y38547D01*
X73213Y38570D01*
X73269Y38593D01*
X73329Y38612D01*
X73398Y38616D01*
X73430D01*
X73467Y38607D01*
D02*
G37*
G36*
X68496D02*
X68542Y38598D01*
X68593Y38579D01*
X68649Y38556D01*
X68704Y38519D01*
X68755Y38469D01*
X68759Y38464D01*
X68773Y38441D01*
X68796Y38408D01*
X68819Y38362D01*
X68847Y38307D01*
X68866Y38238D01*
X68880Y38159D01*
X68884Y38071D01*
X67969D01*
Y38076D01*
Y38085D01*
Y38094D01*
X67974Y38113D01*
X67979Y38164D01*
X67988Y38219D01*
X68006Y38284D01*
X68029Y38353D01*
X68066Y38418D01*
X68108Y38473D01*
X68113Y38478D01*
X68131Y38496D01*
X68159Y38519D01*
X68196Y38547D01*
X68242Y38570D01*
X68297Y38593D01*
X68357Y38612D01*
X68427Y38616D01*
X68459D01*
X68496Y38607D01*
D02*
G37*
G36*
X76886Y38561D02*
X76258D01*
X76165Y38565D01*
X76068Y38570D01*
X75971Y38575D01*
X75930Y38579D01*
X75893Y38584D01*
X75856Y38593D01*
X75833Y38598D01*
X75828D01*
X75814Y38607D01*
X75791Y38616D01*
X75768Y38630D01*
X75708Y38672D01*
X75680Y38699D01*
X75652Y38732D01*
X75648Y38737D01*
X75643Y38750D01*
X75629Y38769D01*
X75616Y38796D01*
X75606Y38833D01*
X75592Y38875D01*
X75588Y38921D01*
X75583Y38972D01*
Y38981D01*
Y39000D01*
X75588Y39028D01*
X75592Y39064D01*
X75606Y39106D01*
X75620Y39148D01*
X75643Y39194D01*
X75671Y39231D01*
X75676Y39235D01*
X75685Y39249D01*
X75708Y39263D01*
X75736Y39286D01*
X75768Y39309D01*
X75810Y39328D01*
X75860Y39346D01*
X75916Y39360D01*
X75920D01*
X75934Y39365D01*
X75962D01*
X76004Y39369D01*
X76105D01*
X76147Y39374D01*
X76886D01*
Y38561D01*
D02*
G37*
D10*
X138565Y82053D02*
X141043Y84531D01*
X147000Y79500D02*
Y81915D01*
X141916Y87000D02*
X147000Y81915D01*
X133500Y79500D02*
X147000D01*
X147142Y76858D02*
X153500Y70500D01*
X127103Y76858D02*
X147142D01*
X153500Y75984D02*
Y80500D01*
Y75984D02*
X157378Y72106D01*
Y68894D02*
Y72106D01*
X155106Y66622D02*
X157378Y68894D01*
X142374Y66622D02*
X155106D01*
X134500Y74496D02*
X142374Y66622D01*
X124359Y84558D02*
X124389Y84529D01*
X127500Y87000D02*
X141916D01*
X137471Y84529D02*
X137500Y84500D01*
X124389Y84529D02*
X137471D01*
X116500Y92000D02*
Y118000D01*
X118437Y94369D02*
Y97631D01*
X118421Y94353D02*
X118437Y94369D01*
X118421Y97647D02*
X118437Y97631D01*
X118421Y77720D02*
Y94353D01*
Y97647D02*
Y108845D01*
X116500Y118000D02*
X119000Y120500D01*
X120500Y51000D02*
Y65000D01*
X103000Y82500D02*
X120500Y65000D01*
X103000Y82500D02*
Y85500D01*
X104500Y87000D01*
X111500D01*
X116500Y92000D01*
X118421Y108845D02*
X119500Y109924D01*
X99000Y96574D02*
Y97000D01*
X98500Y96074D02*
X99000Y96574D01*
X98500Y96000D02*
Y96074D01*
X94638Y92138D02*
X98500Y96000D01*
X94638Y83797D02*
Y92138D01*
X92978Y82138D02*
X94638Y83797D01*
X47500Y62500D02*
X51362Y66362D01*
X79430D01*
X96699Y83631D01*
Y84699D01*
X97000Y85000D01*
X62055Y73055D02*
X69063Y80063D01*
X60807Y70693D02*
X67534D01*
X66555Y73055D02*
X70638Y77138D01*
X58500Y73000D02*
X60807Y70693D01*
X62000Y73055D02*
X62055D01*
X67534Y70693D02*
X73000Y76159D01*
X66500Y73055D02*
X66555D01*
X73599Y82138D02*
X92978D01*
X73000Y81539D02*
X73599Y82138D01*
X73000Y76159D02*
Y81539D01*
X70638Y77138D02*
Y86478D01*
X72362Y88203D01*
Y115978D01*
X70978Y117362D02*
X72362Y115978D01*
X70725Y117362D02*
X70978D01*
X69971Y118116D02*
X70725Y117362D01*
X69545Y118116D02*
X69971D01*
X69063Y87131D02*
X70000Y88068D01*
X69063Y80063D02*
Y87131D01*
X70000Y88068D02*
Y115000D01*
X119500Y113500D02*
X119691D01*
X121862Y111329D01*
Y109372D02*
Y111329D01*
X120422Y107932D02*
X121862Y109372D01*
X120422Y82928D02*
Y107932D01*
Y82928D02*
X121568Y81782D01*
Y77614D02*
Y81782D01*
X126500Y107328D02*
X126587Y107415D01*
X124359Y113286D02*
Y136290D01*
X126500Y88000D02*
Y107328D01*
X124359Y84558D02*
Y107415D01*
X122784Y112634D02*
X123437Y111981D01*
Y108720D02*
Y111981D01*
X125012Y108067D02*
Y112633D01*
X122784Y108067D02*
X123437Y108720D01*
X122784Y86324D02*
Y108067D01*
X126500Y113372D02*
Y137490D01*
X126587Y107415D02*
Y113286D01*
X122784Y112634D02*
Y135500D01*
X124359Y113286D02*
X125012Y112633D01*
X124359Y107415D02*
X125012Y108067D01*
X126500Y113372D02*
X126587Y113286D01*
X119500Y109924D02*
Y110350D01*
X125497Y75252D02*
X127103Y76858D01*
X114748Y75252D02*
X125497D01*
X105500Y84500D02*
X114748Y75252D01*
X35295Y92063D02*
X40500Y86858D01*
X26947Y92063D02*
X35295D01*
X76142Y85287D02*
X86787D01*
X73000Y85500D02*
X75362Y87862D01*
X77978D01*
X127606Y82053D02*
X138565D01*
X126500Y88000D02*
X127500Y87000D01*
X116628Y147362D02*
X126500Y137490D01*
X123462Y82115D02*
X127545D01*
X127606Y82053D01*
X121997Y83580D02*
X123462Y82115D01*
X121997Y83580D02*
Y85537D01*
X122784Y86324D01*
X115785Y142500D02*
X122784Y135500D01*
X111659Y142500D02*
X115785D01*
X109350Y144809D02*
X111659Y142500D01*
X109350Y144809D02*
Y145000D01*
X114671Y147362D02*
X116628D01*
X112500Y145191D02*
X114671Y147362D01*
X112500Y145000D02*
Y145191D01*
X115650Y145000D02*
X124359Y136290D01*
X87574Y84500D02*
X88000D01*
X86787Y85287D02*
X87574Y84500D01*
X78978Y86862D02*
X89638D01*
X77978Y87862D02*
X78978Y86862D01*
X89638D02*
X92000Y84500D01*
D21*
X25500Y110500D02*
D03*
D56*
X136500Y92000D02*
X140772D01*
X147803Y84969D01*
X151969D01*
X154000Y87000D01*
Y101500D01*
X147444Y91223D02*
X150745Y87921D01*
X146809Y91223D02*
X147444D01*
X137031Y101000D02*
X146809Y91223D01*
X90547Y142547D02*
X107500Y159500D01*
X71559Y142547D02*
X90547D01*
X70606Y143500D02*
X71559Y142547D01*
X70500Y143500D02*
X70606D01*
X126500Y142000D02*
X132500D01*
X137031Y101000D02*
Y101107D01*
X137953Y102028D01*
Y136547D01*
X132500Y142000D02*
X137953Y136547D01*
X107500Y159500D02*
X107575Y159425D01*
X109075D02*
X126500Y142000D01*
X107575Y159425D02*
X109075D01*
X54859Y78859D02*
X57000Y81000D01*
Y126000D01*
Y81000D02*
X61000Y85000D01*
X35057Y100207D02*
X37293D01*
X42000Y95500D01*
X54859Y75534D02*
Y78859D01*
X49550Y68528D02*
X58797D01*
X48816Y67793D02*
X49550Y68528D01*
X38259Y67793D02*
X48816D01*
X58797Y68528D02*
X75028D01*
X54859Y72465D02*
X58797Y68528D01*
X75028D02*
X79500Y73000D01*
X54859Y72465D02*
Y75534D01*
X52000Y78394D02*
Y78500D01*
Y78394D02*
X54859Y75534D01*
X23000Y98273D02*
X23209Y98482D01*
X23000Y89653D02*
Y98273D01*
Y89653D02*
X24153Y88500D01*
X33500D01*
X38500Y83500D01*
Y77606D02*
Y83500D01*
X27713Y110500D02*
X34500D01*
X23209Y105995D02*
X27713Y110500D01*
X23209Y98482D02*
Y105995D01*
Y98482D02*
X25765Y95925D01*
X29792D01*
X30866Y97000D01*
X34999D01*
X35000Y97000D01*
X30729Y104528D02*
X35000Y100256D01*
Y100150D02*
Y100256D01*
X28917Y104528D02*
X30729D01*
D59*
X26988Y98878D02*
D03*
Y76122D02*
D03*
X154000Y101500D02*
D03*
X150745Y87921D02*
D03*
X141043Y84531D02*
D03*
X136500Y92000D02*
D03*
X133394Y116106D02*
D03*
X70500Y143500D02*
D03*
X122088Y150588D02*
D03*
X137031Y101000D02*
D03*
X147000Y79500D02*
D03*
X134500Y74496D02*
D03*
X119500Y133000D02*
D03*
X107500Y159500D02*
D03*
X132500Y142000D02*
D03*
X119500Y116650D02*
D03*
X114000Y96000D02*
D03*
X57000Y126000D02*
D03*
X73000Y145500D02*
D03*
X119000Y120500D02*
D03*
X120500Y51000D02*
D03*
X99000Y97000D02*
D03*
X61000Y85000D02*
D03*
X38259Y67793D02*
D03*
X47500Y62500D02*
D03*
X97000Y85000D02*
D03*
X66500Y73055D02*
D03*
X62000D02*
D03*
X58500Y73000D02*
D03*
X70000Y115000D02*
D03*
X69545Y118116D02*
D03*
X118421Y77720D02*
D03*
X121568Y77614D02*
D03*
X119500Y110350D02*
D03*
Y113500D02*
D03*
X35000Y100150D02*
D03*
X34500Y110500D02*
D03*
X52000Y78500D02*
D03*
X79500Y73000D02*
D03*
X42000Y95500D02*
D03*
X76142Y85287D02*
D03*
X73000Y85500D02*
D03*
X105500Y84500D02*
D03*
X137500D02*
D03*
X124359Y84558D02*
D03*
X127606Y82053D02*
D03*
X115650Y145000D02*
D03*
X109350D02*
D03*
X112500D02*
D03*
X133500Y79500D02*
D03*
X92000Y84500D02*
D03*
X88000D02*
D03*
X38500Y77606D02*
D03*
X40500Y86858D02*
D03*
X26947Y92063D02*
D03*
X35000Y97000D02*
D03*
D60*
X28917Y104528D02*
D03*
Y70472D02*
D03*
D61*
X12500Y104528D02*
D03*
Y70472D02*
D03*
D62*
X68728Y34000D02*
D03*
X95500D02*
D03*
D63*
X128000Y74693D02*
D03*
X141043Y74571D02*
D03*
D64*
X153500Y80500D02*
D03*
D65*
Y70500D02*
D03*
M02*
