G04*
G04 #@! TF.GenerationSoftware,Altium Limited,Altium Designer,25.2.1 (25)*
G04*
G04 Layer_Color=16711935*
%FSLAX25Y25*%
%MOIN*%
G70*
G04*
G04 #@! TF.SameCoordinates,2B78703E-072C-4945-A0C2-5BE418C1B0F6*
G04*
G04*
G04 #@! TF.FilePolarity,Positive*
G04*
G01*
G75*
%ADD10C,0.00787*%
%ADD11C,0.00394*%
%ADD12C,0.00945*%
%ADD13C,0.00500*%
%ADD69C,0.00500*%
G36*
X25000Y47244D02*
Y45276D01*
X20276D01*
Y47244D01*
X25000D01*
D02*
G37*
G36*
Y53150D02*
Y51181D01*
X20276D01*
Y53150D01*
X25000D01*
D02*
G37*
G36*
X40748Y47244D02*
Y45276D01*
X36024D01*
Y47244D01*
X40748D01*
D02*
G37*
G36*
Y53150D02*
Y51181D01*
X36024D01*
Y53150D01*
X40748D01*
D02*
G37*
D10*
X150906Y93976D02*
G03*
X150906Y93976I-394J0D01*
G01*
X22047Y121221D02*
G03*
X22047Y121221I-394J0D01*
G01*
X131339Y86614D02*
G03*
X131339Y86614I-394J0D01*
G01*
X54528Y122803D02*
G03*
X54528Y122803I-394J0D01*
G01*
X31890Y91339D02*
G03*
X31890Y91339I-394J0D01*
G01*
X36024Y45276D02*
Y53150D01*
X40748D01*
Y45276D02*
Y53150D01*
X36024Y45276D02*
X40748D01*
X20276D02*
Y53150D01*
X25000D01*
Y45276D02*
Y53150D01*
X20276Y45276D02*
X25000D01*
D11*
X49016Y6968D02*
X101181D01*
X49016D02*
Y65039D01*
X108268D01*
X101181Y5984D02*
Y6968D01*
Y5984D02*
X105512D01*
Y6968D01*
X108268D01*
Y65039D01*
D12*
X89842Y71850D02*
G03*
X89842Y71850I-472J0D01*
G01*
D13*
X136221Y78937D02*
X149213D01*
X136221Y72638D02*
Y78937D01*
Y72638D02*
X149213D01*
Y78937D01*
X136929Y92008D02*
X146772D01*
X136929D02*
Y104606D01*
X146772Y92008D02*
Y104606D01*
X136929D02*
X146772D01*
X34439Y99400D02*
Y125010D01*
Y99400D02*
X48238D01*
Y125010D01*
X34439D02*
X48238D01*
X66220Y137795D02*
X121339D01*
X66220Y82677D02*
X121339D01*
X66220D02*
Y137795D01*
X121339Y82677D02*
Y137795D01*
X12303Y45276D02*
X17224D01*
X12303Y53150D02*
X17224D01*
X12303Y45276D02*
Y53150D01*
X17224Y45276D02*
Y53150D01*
X35925Y70866D02*
X40846D01*
X35925Y62992D02*
X40846D01*
Y70866D01*
X35925Y62992D02*
Y70866D01*
X36909Y86614D02*
X41831D01*
X36909Y94488D02*
X41831D01*
X36909Y86614D02*
Y94488D01*
X41831Y86614D02*
Y94488D01*
X28051Y53150D02*
X32972D01*
X28051Y45276D02*
X32972D01*
Y53150D01*
X28051Y45276D02*
Y53150D01*
X65945Y146161D02*
Y151083D01*
X58071Y146161D02*
Y151083D01*
Y146161D02*
X65945D01*
X58071Y151083D02*
X65945D01*
X116130Y61713D02*
X129909D01*
X116130D02*
Y72146D01*
X129909D01*
Y61713D02*
Y72146D01*
X49535Y125362D02*
X58732D01*
X49535D02*
Y144165D01*
X58732D01*
Y125362D02*
Y144165D01*
Y125362D02*
Y144165D01*
X-2362Y61142D02*
Y96339D01*
Y61142D02*
X26575D01*
Y96339D01*
X-2362D02*
X26575D01*
X-433Y43307D02*
Y100394D01*
X45669Y127087D02*
Y132756D01*
X37008Y127087D02*
Y132756D01*
Y127087D02*
X45669D01*
X37008Y132756D02*
X45669D01*
X17835Y101969D02*
X23504D01*
X17835Y110630D02*
X23504D01*
X17835Y101969D02*
Y110630D01*
X23504Y101969D02*
Y110630D01*
X134961Y67835D02*
X140630D01*
X134961Y59173D02*
X140630D01*
Y67835D01*
X134961Y59173D02*
Y67835D01*
X144803D02*
X150472D01*
X144803Y59173D02*
X150472D01*
Y67835D01*
X144803Y59173D02*
Y67835D01*
X136890Y108386D02*
Y114055D01*
X145551Y108386D02*
Y114055D01*
X136890D02*
X145551D01*
X136890Y108386D02*
X145551D01*
X146063Y82795D02*
Y88465D01*
X137402Y82795D02*
Y88465D01*
Y82795D02*
X146063D01*
X137402Y88465D02*
X146063D01*
X48346Y86221D02*
X54016D01*
X48346Y94882D02*
X54016D01*
X48346Y86221D02*
Y94882D01*
X54016Y86221D02*
Y94882D01*
X73425Y147756D02*
Y153425D01*
X82087Y147756D02*
Y153425D01*
X73425D02*
X82087D01*
X73425Y147756D02*
X82087D01*
X54528Y72953D02*
Y78622D01*
X45866Y72953D02*
Y78622D01*
Y72953D02*
X54528D01*
X45866Y78622D02*
X54528D01*
X128347Y44409D02*
Y50079D01*
X119685Y44409D02*
Y50079D01*
Y44409D02*
X128347D01*
X119685Y50079D02*
X128347D01*
X9961Y101969D02*
X15630D01*
X9961Y110630D02*
X15630D01*
X9961Y101969D02*
Y110630D01*
X15630Y101969D02*
Y110630D01*
X45669Y134961D02*
Y140630D01*
X37008Y134961D02*
Y140630D01*
Y134961D02*
X45669D01*
X37008Y140630D02*
X45669D01*
X128347Y53268D02*
Y58937D01*
X119685Y53268D02*
Y58937D01*
Y53268D02*
X128347D01*
X119685Y58937D02*
X128347D01*
D69*
X394Y58268D02*
X2793D01*
Y57068D01*
X2393Y56668D01*
X1593D01*
X1193Y57068D01*
Y58268D01*
X2393Y54269D02*
X2793Y54669D01*
Y55469D01*
X2393Y55869D01*
X794D01*
X394Y55469D01*
Y54669D01*
X794Y54269D01*
X2793Y53469D02*
X394D01*
Y52270D01*
X794Y51870D01*
X1193D01*
X1593Y52270D01*
Y53469D01*
Y52270D01*
X1993Y51870D01*
X2393D01*
X2793Y52270D01*
Y53469D01*
Y47071D02*
Y48671D01*
X394D01*
Y47071D01*
X1593Y48671D02*
Y47871D01*
X2793Y46272D02*
X394D01*
Y45072D01*
X794Y44672D01*
X2393D01*
X2793Y45072D01*
Y46272D01*
X2393Y42273D02*
X2793Y42673D01*
Y43472D01*
X2393Y43872D01*
X794D01*
X394Y43472D01*
Y42673D01*
X794Y42273D01*
X1593D01*
Y43073D01*
X2793Y39874D02*
Y41473D01*
X394D01*
Y39874D01*
X1593Y41473D02*
Y40673D01*
M02*
