G04*
G04 #@! TF.GenerationSoftware,Altium Limited,Altium Designer,25.2.1 (25)*
G04*
G04 Layer_Color=16711935*
%FSLAX25Y25*%
%MOIN*%
G70*
G04*
G04 #@! TF.SameCoordinates,1F1F9B38-8F65-4BE3-9C55-B7ADE1E4FF54*
G04*
G04*
G04 #@! TF.FilePolarity,Positive*
G04*
G01*
G75*
%ADD10C,0.00787*%
%ADD11C,0.00394*%
%ADD12C,0.00945*%
%ADD13C,0.00500*%
%ADD66C,0.00500*%
G36*
X36362Y57531D02*
Y55563D01*
X31638D01*
Y57531D01*
X36362D01*
D02*
G37*
G36*
Y63437D02*
Y61468D01*
X31638D01*
Y63437D01*
X36362D01*
D02*
G37*
G36*
X44862Y57531D02*
Y55563D01*
X40138D01*
Y57531D01*
X44862D01*
D02*
G37*
G36*
Y63437D02*
Y61468D01*
X40138D01*
Y63437D01*
X44862D01*
D02*
G37*
D10*
X24209Y130016D02*
G03*
X24209Y130016I-394J0D01*
G01*
X36516Y100098D02*
G03*
X36516Y100098I-394J0D01*
G01*
X147055Y112169D02*
G03*
X147055Y112169I-394J0D01*
G01*
X132323Y97504D02*
G03*
X132323Y97504I-394J0D01*
G01*
X153894Y87461D02*
G03*
X153894Y87461I-394J0D01*
G01*
X40138Y55563D02*
Y63437D01*
X44862D01*
Y55563D02*
Y63437D01*
X40138Y55563D02*
X44862D01*
X31638D02*
Y63437D01*
X36362D01*
Y55563D02*
Y63437D01*
X31638Y55563D02*
X36362D01*
D11*
X54358Y18331D02*
X106524D01*
X54358D02*
Y76402D01*
X113610D01*
X106524Y17346D02*
Y18331D01*
Y17346D02*
X110854D01*
Y18331D01*
X113610D01*
Y76402D01*
D12*
X95185Y83213D02*
G03*
X95185Y83213I-472J0D01*
G01*
D13*
X13165Y109669D02*
X18835D01*
X13165Y118331D02*
X18835D01*
X13165Y109669D02*
Y118331D01*
X18835Y109669D02*
Y118331D01*
X145539Y60937D02*
X150461D01*
X145539Y53063D02*
X150461D01*
Y60937D01*
X145539Y53063D02*
Y60937D01*
X152165Y97331D02*
X157835D01*
X152165Y88669D02*
X157835D01*
Y97331D01*
X152165Y88669D02*
Y97331D01*
X64169Y156165D02*
Y161835D01*
X72831Y156165D02*
Y161835D01*
X64169D02*
X72831D01*
X64169Y156165D02*
X72831D01*
X20165Y109669D02*
X25835D01*
X20165Y118331D02*
X25835D01*
X20165Y109669D02*
Y118331D01*
X25835Y109669D02*
Y118331D01*
X55165Y149169D02*
X60835D01*
X55165Y157831D02*
X60835D01*
X55165Y149169D02*
Y157831D01*
X60835Y149169D02*
Y157831D01*
X36600Y108195D02*
Y133805D01*
Y108195D02*
X50400D01*
Y133805D01*
X36600D02*
X50400D01*
X53331Y80165D02*
Y85835D01*
X44669Y80165D02*
Y85835D01*
Y80165D02*
X53331D01*
X44669Y85835D02*
X53331D01*
X122169Y29165D02*
Y34835D01*
X130831Y29165D02*
Y34835D01*
X122169D02*
X130831D01*
X122169Y29165D02*
X130831D01*
X16039Y62937D02*
X20961D01*
X16039Y55063D02*
X20961D01*
Y62937D01*
X16039Y55063D02*
Y62937D01*
X23539Y63063D02*
X28461D01*
X23539Y55189D02*
X28461D01*
Y63063D01*
X23539Y55189D02*
Y63063D01*
X2264Y69902D02*
Y105098D01*
Y69902D02*
X31201D01*
Y105098D01*
X2264D02*
X31201D01*
X4193Y52067D02*
Y109153D01*
X49331Y143165D02*
Y148835D01*
X40669Y143165D02*
Y148835D01*
Y143165D02*
X49331D01*
X40669Y148835D02*
X49331D01*
Y135165D02*
Y140835D01*
X40669Y135165D02*
Y140835D01*
Y135165D02*
X49331D01*
X40669Y140835D02*
X49331D01*
X122850Y55004D02*
Y67996D01*
Y55004D02*
X129150D01*
Y67996D01*
X122850D02*
X129150D01*
X133079Y110201D02*
X142921D01*
X133079D02*
Y122799D01*
X142921Y110201D02*
Y122799D01*
X133079D02*
X142921D01*
X67205Y148685D02*
X122323D01*
X67205Y93567D02*
X122323D01*
X67205D02*
Y148685D01*
X122323Y93567D02*
Y148685D01*
X36039Y81937D02*
X40961D01*
X36039Y74063D02*
X40961D01*
Y81937D01*
X36039Y74063D02*
Y81937D01*
X40039Y91563D02*
X44961D01*
X40039Y99437D02*
X44961D01*
X40039Y91563D02*
Y99437D01*
X44961Y91563D02*
Y99437D01*
X133217Y70598D02*
Y84378D01*
X122784Y70598D02*
X133217D01*
X122784D02*
Y84378D01*
X133217D01*
X146260Y70476D02*
Y84256D01*
X135827Y70476D02*
X146260D01*
X135827D02*
Y84256D01*
X146260D01*
X148902Y84902D02*
X158098D01*
Y66098D02*
Y84902D01*
X148902Y66098D02*
X158098D01*
X148902D02*
Y84902D01*
Y66098D02*
Y84902D01*
X133831Y87165D02*
Y92835D01*
X125169Y87165D02*
Y92835D01*
Y87165D02*
X133831D01*
X125169Y92835D02*
X133831D01*
X131669Y132665D02*
Y138335D01*
X140331Y132665D02*
Y138335D01*
X131669D02*
X140331D01*
X131669Y132665D02*
X140331D01*
X131669Y125665D02*
Y131335D01*
X140331Y125665D02*
Y131335D01*
X131669D02*
X140331D01*
X131669Y125665D02*
X140331D01*
X101331Y156665D02*
Y162335D01*
X92669Y156665D02*
Y162335D01*
Y156665D02*
X101331D01*
X92669Y162335D02*
X101331D01*
X130165Y104831D02*
X135835D01*
X130165Y96169D02*
X135835D01*
Y104831D01*
X130165Y96169D02*
Y104831D01*
X117831Y80665D02*
Y86335D01*
X109169Y80665D02*
Y86335D01*
Y80665D02*
X117831D01*
X109169Y86335D02*
X117831D01*
X57331Y88665D02*
Y94335D01*
X48669Y88665D02*
Y94335D01*
Y88665D02*
X57331D01*
X48669Y94335D02*
X57331D01*
X133669Y60165D02*
Y65835D01*
X142331Y60165D02*
Y65835D01*
X133669D02*
X142331D01*
X133669Y60165D02*
X142331D01*
X133669Y52165D02*
Y57835D01*
X142331Y52165D02*
Y57835D01*
X133669D02*
X142331D01*
X133669Y52165D02*
X142331D01*
X146665Y112669D02*
X152335D01*
X146665Y121331D02*
X152335D01*
X146665Y112669D02*
Y121331D01*
X152335Y112669D02*
Y121331D01*
X138665Y105331D02*
X144335D01*
X138665Y96669D02*
X144335D01*
Y105331D01*
X138665Y96669D02*
Y105331D01*
X48669Y97665D02*
Y103335D01*
X57331Y97665D02*
Y103335D01*
X48669D02*
X57331D01*
X48669Y97665D02*
X57331D01*
X148331Y87165D02*
Y92835D01*
X139669Y87165D02*
Y92835D01*
Y87165D02*
X148331D01*
X139669Y92835D02*
X148331D01*
X87831Y156665D02*
Y162335D01*
X79169Y156665D02*
Y162335D01*
Y156665D02*
X87831D01*
X79169Y162335D02*
X87831D01*
D66*
X5020Y67028D02*
X7419D01*
Y65828D01*
X7019Y65428D01*
X6219D01*
X5819Y65828D01*
Y67028D01*
X7019Y63029D02*
X7419Y63429D01*
Y64228D01*
X7019Y64628D01*
X5420D01*
X5020Y64228D01*
Y63429D01*
X5420Y63029D01*
X7419Y62229D02*
X5020D01*
Y61029D01*
X5420Y60630D01*
X5819D01*
X6219Y61029D01*
Y62229D01*
Y61029D01*
X6619Y60630D01*
X7019D01*
X7419Y61029D01*
Y62229D01*
Y55831D02*
Y57431D01*
X5020D01*
Y55831D01*
X6219Y57431D02*
Y56631D01*
X7419Y55032D02*
X5020D01*
Y53832D01*
X5420Y53432D01*
X7019D01*
X7419Y53832D01*
Y55032D01*
X7019Y51033D02*
X7419Y51433D01*
Y52232D01*
X7019Y52632D01*
X5420D01*
X5020Y52232D01*
Y51433D01*
X5420Y51033D01*
X6219D01*
Y51832D01*
X7419Y48634D02*
Y50233D01*
X5020D01*
Y48634D01*
X6219Y50233D02*
Y49433D01*
M02*
