G04*
G04 #@! TF.GenerationSoftware,Altium Limited,Altium Designer,25.2.1 (25)*
G04*
G04 Layer_Color=255*
%FSLAX25Y25*%
%MOIN*%
G70*
G04*
G04 #@! TF.SameCoordinates,1F1F9B38-8F65-4BE3-9C55-B7ADE1E4FF54*
G04*
G04*
G04 #@! TF.FilePolarity,Positive*
G04*
G01*
G75*
%ADD15R,0.05906X0.05512*%
%ADD16R,0.05787X0.04567*%
%ADD17R,0.04528X0.04528*%
%ADD18R,0.04567X0.05787*%
G04:AMPARAMS|DCode=19|XSize=51.58mil|YSize=127.56mil|CornerRadius=3.87mil|HoleSize=0mil|Usage=FLASHONLY|Rotation=0.000|XOffset=0mil|YOffset=0mil|HoleType=Round|Shape=RoundedRectangle|*
%AMROUNDEDRECTD19*
21,1,0.05158,0.11982,0,0,0.0*
21,1,0.04384,0.12756,0,0,0.0*
1,1,0.00774,0.02192,-0.05991*
1,1,0.00774,-0.02192,-0.05991*
1,1,0.00774,-0.02192,0.05991*
1,1,0.00774,0.02192,0.05991*
%
%ADD19ROUNDEDRECTD19*%
G04:AMPARAMS|DCode=20|XSize=51.58mil|YSize=36.61mil|CornerRadius=2.75mil|HoleSize=0mil|Usage=FLASHONLY|Rotation=0.000|XOffset=0mil|YOffset=0mil|HoleType=Round|Shape=RoundedRectangle|*
%AMROUNDEDRECTD20*
21,1,0.05158,0.03112,0,0,0.0*
21,1,0.04608,0.03661,0,0,0.0*
1,1,0.00549,0.02304,-0.01556*
1,1,0.00549,-0.02304,-0.01556*
1,1,0.00549,-0.02304,0.01556*
1,1,0.00549,0.02304,0.01556*
%
%ADD20ROUNDEDRECTD20*%
%ADD21C,0.04724*%
%ADD22R,0.05709X0.04331*%
%ADD23R,0.04488X0.02362*%
%ADD24R,0.04488X0.01181*%
%ADD25R,0.07087X0.03937*%
%ADD26R,0.04724X0.05512*%
G04:AMPARAMS|DCode=27|XSize=11.02mil|YSize=61.42mil|CornerRadius=1.38mil|HoleSize=0mil|Usage=FLASHONLY|Rotation=180.000|XOffset=0mil|YOffset=0mil|HoleType=Round|Shape=RoundedRectangle|*
%AMROUNDEDRECTD27*
21,1,0.01102,0.05866,0,0,180.0*
21,1,0.00827,0.06142,0,0,180.0*
1,1,0.00276,-0.00413,0.02933*
1,1,0.00276,0.00413,0.02933*
1,1,0.00276,0.00413,-0.02933*
1,1,0.00276,-0.00413,-0.02933*
%
%ADD27ROUNDEDRECTD27*%
G04:AMPARAMS|DCode=28|XSize=61.42mil|YSize=11.02mil|CornerRadius=1.38mil|HoleSize=0mil|Usage=FLASHONLY|Rotation=180.000|XOffset=0mil|YOffset=0mil|HoleType=Round|Shape=RoundedRectangle|*
%AMROUNDEDRECTD28*
21,1,0.06142,0.00827,0,0,180.0*
21,1,0.05866,0.01102,0,0,180.0*
1,1,0.00276,-0.02933,0.00413*
1,1,0.00276,0.02933,0.00413*
1,1,0.00276,0.02933,-0.00413*
1,1,0.00276,-0.02933,-0.00413*
%
%ADD28ROUNDEDRECTD28*%
%ADD29R,0.02441X0.05512*%
%ADD30R,0.04331X0.09449*%
%ADD57R,0.02362X0.02055*%
%ADD58R,0.00394X0.00394*%
%ADD59C,0.02362*%
%ADD60O,0.07874X0.03543*%
%ADD61O,0.06693X0.03543*%
%ADD62C,0.03740*%
%ADD63C,0.01968*%
%ADD64R,0.05394X0.05394*%
%ADD65C,0.05394*%
D15*
X123500Y43000D02*
D03*
X139000D02*
D03*
D16*
X16000Y117465D02*
D03*
Y110535D02*
D03*
X155000Y89535D02*
D03*
Y96465D02*
D03*
X23000Y117465D02*
D03*
Y110535D02*
D03*
X58000Y156965D02*
D03*
Y150035D02*
D03*
X133000Y97035D02*
D03*
Y103965D02*
D03*
X149500Y120465D02*
D03*
Y113535D02*
D03*
X141500Y97535D02*
D03*
Y104465D02*
D03*
D17*
X148000Y61626D02*
D03*
Y52374D02*
D03*
X18500Y63626D02*
D03*
Y54374D02*
D03*
X26000Y63752D02*
D03*
Y54500D02*
D03*
X38500Y82626D02*
D03*
Y73374D02*
D03*
X42500Y90874D02*
D03*
Y100126D02*
D03*
D18*
X71965Y159000D02*
D03*
X65035D02*
D03*
X45535Y83000D02*
D03*
X52465D02*
D03*
X129965Y32000D02*
D03*
X123035D02*
D03*
X41535Y146000D02*
D03*
X48465D02*
D03*
X41535Y138000D02*
D03*
X48465D02*
D03*
X126035Y90000D02*
D03*
X132965D02*
D03*
X139465Y135500D02*
D03*
X132535D02*
D03*
X139465Y128500D02*
D03*
X132535D02*
D03*
X93535Y159500D02*
D03*
X100465D02*
D03*
X110035Y83500D02*
D03*
X116965D02*
D03*
X49535Y91500D02*
D03*
X56465D02*
D03*
X141465Y63000D02*
D03*
X134535D02*
D03*
X141465Y55000D02*
D03*
X134535D02*
D03*
X56465Y100500D02*
D03*
X49535D02*
D03*
X140535Y90000D02*
D03*
X147465D02*
D03*
X80035Y159500D02*
D03*
X86965D02*
D03*
D19*
X56669Y121000D02*
D03*
D20*
X30331Y111984D02*
D03*
Y121000D02*
D03*
Y130016D02*
D03*
D21*
X56000Y140500D02*
D03*
D22*
X42500Y55957D02*
D03*
Y63043D02*
D03*
X34000Y55957D02*
D03*
Y63043D02*
D03*
D23*
X31201Y100098D02*
D03*
Y96949D02*
D03*
Y78051D02*
D03*
Y74902D02*
D03*
D24*
Y88484D02*
D03*
Y90453D02*
D03*
Y92421D02*
D03*
Y94390D02*
D03*
Y86516D02*
D03*
Y84547D02*
D03*
Y82579D02*
D03*
Y80610D02*
D03*
D25*
X126000Y56579D02*
D03*
Y66421D02*
D03*
D26*
X141347Y112169D02*
D03*
Y120831D02*
D03*
X134653D02*
D03*
Y112169D02*
D03*
D27*
X118386Y151362D02*
D03*
X116417D02*
D03*
X114449D02*
D03*
X112480D02*
D03*
X110512D02*
D03*
X108543D02*
D03*
X106575D02*
D03*
X104606D02*
D03*
X102638D02*
D03*
X100669D02*
D03*
X98701D02*
D03*
X96732D02*
D03*
X94764D02*
D03*
X92795D02*
D03*
X90827D02*
D03*
X88858D02*
D03*
X86890D02*
D03*
X84921D02*
D03*
X82953D02*
D03*
X80984D02*
D03*
X79016D02*
D03*
X77047D02*
D03*
X75079D02*
D03*
X73110D02*
D03*
X71142D02*
D03*
Y90890D02*
D03*
X73110D02*
D03*
X75079D02*
D03*
X77047D02*
D03*
X79016D02*
D03*
X80984D02*
D03*
X82953D02*
D03*
X84921D02*
D03*
X86890D02*
D03*
X88858D02*
D03*
X90827D02*
D03*
X92795D02*
D03*
X94764D02*
D03*
X96732D02*
D03*
X98701D02*
D03*
X100669D02*
D03*
X102638D02*
D03*
X104606D02*
D03*
X106575D02*
D03*
X108543D02*
D03*
X110512D02*
D03*
X112480D02*
D03*
X114449D02*
D03*
X116417D02*
D03*
X118386D02*
D03*
D28*
X125000Y97504D02*
D03*
Y99472D02*
D03*
Y101441D02*
D03*
Y103409D02*
D03*
Y105378D02*
D03*
Y107346D02*
D03*
Y109315D02*
D03*
Y111284D02*
D03*
Y113252D02*
D03*
Y115220D02*
D03*
Y117189D02*
D03*
Y119158D02*
D03*
Y121126D02*
D03*
Y123094D02*
D03*
Y125063D02*
D03*
Y127032D02*
D03*
Y129000D02*
D03*
Y130968D02*
D03*
Y132937D02*
D03*
Y134906D02*
D03*
Y136874D02*
D03*
Y138842D02*
D03*
Y140811D02*
D03*
Y142780D02*
D03*
Y144748D02*
D03*
X64528D02*
D03*
Y142780D02*
D03*
Y140811D02*
D03*
Y138842D02*
D03*
Y136874D02*
D03*
Y134906D02*
D03*
Y132937D02*
D03*
Y130968D02*
D03*
Y129000D02*
D03*
Y127032D02*
D03*
Y125063D02*
D03*
Y123094D02*
D03*
Y121126D02*
D03*
Y119158D02*
D03*
Y117189D02*
D03*
Y115220D02*
D03*
Y113252D02*
D03*
Y111284D02*
D03*
Y109315D02*
D03*
Y107346D02*
D03*
Y105378D02*
D03*
Y103409D02*
D03*
Y101441D02*
D03*
Y99472D02*
D03*
Y97504D02*
D03*
D29*
X92272Y78961D02*
D03*
X87941D02*
D03*
X83610D02*
D03*
X79280D02*
D03*
X74949D02*
D03*
X70618D02*
D03*
X66287D02*
D03*
X61957D02*
D03*
X57626D02*
D03*
D30*
X52193Y35653D02*
D03*
Y71087D02*
D03*
X115776D02*
D03*
Y35653D02*
D03*
D57*
X124457Y82858D02*
D03*
Y79622D02*
D03*
X131543D02*
D03*
Y82858D02*
D03*
X128000D02*
D03*
X137500Y82736D02*
D03*
Y79500D02*
D03*
X144587D02*
D03*
Y82736D02*
D03*
X141043D02*
D03*
D58*
X127939Y72055D02*
D03*
X140982Y71933D02*
D03*
D59*
X26988Y98878D02*
D03*
Y76122D02*
D03*
D60*
X28917Y104528D02*
D03*
Y70472D02*
D03*
D61*
X12500Y104528D02*
D03*
Y70472D02*
D03*
D62*
X68728Y34000D02*
D03*
X95500D02*
D03*
D63*
X128000Y74693D02*
D03*
X141043Y74571D02*
D03*
D64*
X153500Y80500D02*
D03*
D65*
Y70500D02*
D03*
M02*
