G04*
G04 #@! TF.GenerationSoftware,Altium Limited,Altium Designer,25.2.1 (25)*
G04*
G04 Layer_Color=8421504*
%FSLAX25Y25*%
%MOIN*%
G70*
G04*
G04 #@! TF.SameCoordinates,1F1F9B38-8F65-4BE3-9C55-B7ADE1E4FF54*
G04*
G04*
G04 #@! TF.FilePolarity,Positive*
G04*
G01*
G75*
%ADD15R,0.05906X0.05512*%
%ADD16R,0.05787X0.04567*%
%ADD17R,0.04528X0.04528*%
%ADD18R,0.04567X0.05787*%
G04:AMPARAMS|DCode=19|XSize=51.58mil|YSize=127.56mil|CornerRadius=3.87mil|HoleSize=0mil|Usage=FLASHONLY|Rotation=0.000|XOffset=0mil|YOffset=0mil|HoleType=Round|Shape=RoundedRectangle|*
%AMROUNDEDRECTD19*
21,1,0.05158,0.11982,0,0,0.0*
21,1,0.04384,0.12756,0,0,0.0*
1,1,0.00774,0.02192,-0.05991*
1,1,0.00774,-0.02192,-0.05991*
1,1,0.00774,-0.02192,0.05991*
1,1,0.00774,0.02192,0.05991*
%
%ADD19ROUNDEDRECTD19*%
G04:AMPARAMS|DCode=20|XSize=51.58mil|YSize=36.61mil|CornerRadius=2.75mil|HoleSize=0mil|Usage=FLASHONLY|Rotation=0.000|XOffset=0mil|YOffset=0mil|HoleType=Round|Shape=RoundedRectangle|*
%AMROUNDEDRECTD20*
21,1,0.05158,0.03112,0,0,0.0*
21,1,0.04608,0.03661,0,0,0.0*
1,1,0.00549,0.02304,-0.01556*
1,1,0.00549,-0.02304,-0.01556*
1,1,0.00549,-0.02304,0.01556*
1,1,0.00549,0.02304,0.01556*
%
%ADD20ROUNDEDRECTD20*%
%ADD21C,0.04724*%
%ADD22R,0.05709X0.04331*%
%ADD23R,0.04488X0.02362*%
%ADD24R,0.04488X0.01181*%
%ADD25R,0.07087X0.03937*%
%ADD26R,0.04724X0.05512*%
G04:AMPARAMS|DCode=27|XSize=11.02mil|YSize=61.42mil|CornerRadius=1.38mil|HoleSize=0mil|Usage=FLASHONLY|Rotation=180.000|XOffset=0mil|YOffset=0mil|HoleType=Round|Shape=RoundedRectangle|*
%AMROUNDEDRECTD27*
21,1,0.01102,0.05866,0,0,180.0*
21,1,0.00827,0.06142,0,0,180.0*
1,1,0.00276,-0.00413,0.02933*
1,1,0.00276,0.00413,0.02933*
1,1,0.00276,0.00413,-0.02933*
1,1,0.00276,-0.00413,-0.02933*
%
%ADD27ROUNDEDRECTD27*%
G04:AMPARAMS|DCode=28|XSize=61.42mil|YSize=11.02mil|CornerRadius=1.38mil|HoleSize=0mil|Usage=FLASHONLY|Rotation=180.000|XOffset=0mil|YOffset=0mil|HoleType=Round|Shape=RoundedRectangle|*
%AMROUNDEDRECTD28*
21,1,0.06142,0.00827,0,0,180.0*
21,1,0.05866,0.01102,0,0,180.0*
1,1,0.00276,-0.02933,0.00413*
1,1,0.00276,0.02933,0.00413*
1,1,0.00276,0.02933,-0.00413*
1,1,0.00276,-0.02933,-0.00413*
%
%ADD28ROUNDEDRECTD28*%
%ADD29R,0.02441X0.05512*%
%ADD30R,0.04331X0.09449*%
%ADD31R,0.01968X0.01661*%
G36*
X126000Y74413D02*
X126016Y74319D01*
X126035Y74228D01*
X126059Y74138D01*
X126087Y74051D01*
X126118Y73961D01*
X126154Y73874D01*
X126193Y73791D01*
X126236Y73709D01*
X126284Y73630D01*
X126335Y73551D01*
X126386Y73472D01*
X126445Y73402D01*
X126508Y73331D01*
X126571Y73264D01*
X126638Y73201D01*
X126709Y73138D01*
X126779Y73079D01*
X126858Y73028D01*
X126937Y72976D01*
X127016Y72929D01*
X127098Y72886D01*
X127181Y72847D01*
X127268Y72811D01*
X127358Y72780D01*
X127445Y72752D01*
X127535Y72728D01*
X127626Y72709D01*
X127720Y72693D01*
X127803Y72685D01*
Y71504D01*
X127650Y71516D01*
X127500Y71535D01*
X127347Y71563D01*
X127197Y71595D01*
X127047Y71638D01*
X126898Y71685D01*
X126756Y71744D01*
X126614Y71807D01*
X126476Y71874D01*
X126342Y71953D01*
X126213Y72035D01*
X126083Y72122D01*
X125961Y72220D01*
X125847Y72319D01*
X125732Y72425D01*
X125626Y72539D01*
X125528Y72654D01*
X125429Y72776D01*
X125343Y72905D01*
X125260Y73035D01*
X125181Y73169D01*
X125114Y73307D01*
X125051Y73449D01*
X124992Y73590D01*
X124945Y73740D01*
X124902Y73890D01*
X124870Y74039D01*
X124843Y74193D01*
X124823Y74343D01*
X124811Y74496D01*
X125992D01*
X126000Y74413D01*
D02*
G37*
G36*
X127803Y76701D02*
X127720Y76693D01*
X127626Y76677D01*
X127535Y76657D01*
X127445Y76634D01*
X127358Y76606D01*
X127268Y76575D01*
X127181Y76539D01*
X127098Y76500D01*
X127016Y76457D01*
X126937Y76410D01*
X126858Y76358D01*
X126779Y76307D01*
X126709Y76248D01*
X126638Y76185D01*
X126571Y76122D01*
X126508Y76055D01*
X126445Y75984D01*
X126386Y75913D01*
X126335Y75835D01*
X126284Y75756D01*
X126236Y75677D01*
X126193Y75595D01*
X126154Y75512D01*
X126118Y75425D01*
X126087Y75335D01*
X126059Y75248D01*
X126035Y75157D01*
X126016Y75067D01*
X126000Y74972D01*
X125992Y74890D01*
X124811D01*
X124823Y75043D01*
X124843Y75193D01*
X124870Y75346D01*
X124902Y75496D01*
X124945Y75646D01*
X124992Y75795D01*
X125051Y75937D01*
X125114Y76079D01*
X125181Y76217D01*
X125260Y76350D01*
X125343Y76480D01*
X125429Y76610D01*
X125528Y76732D01*
X125626Y76846D01*
X125732Y76961D01*
X125847Y77067D01*
X125961Y77165D01*
X126083Y77264D01*
X126213Y77350D01*
X126342Y77433D01*
X126476Y77512D01*
X126614Y77579D01*
X126756Y77642D01*
X126898Y77701D01*
X127047Y77748D01*
X127197Y77791D01*
X127347Y77823D01*
X127500Y77850D01*
X127650Y77870D01*
X127803Y77882D01*
Y76701D01*
D02*
G37*
G36*
X131177Y74343D02*
X131158Y74193D01*
X131130Y74039D01*
X131098Y73890D01*
X131055Y73740D01*
X131008Y73590D01*
X130949Y73449D01*
X130886Y73307D01*
X130819Y73169D01*
X130740Y73035D01*
X130657Y72905D01*
X130571Y72776D01*
X130472Y72654D01*
X130374Y72539D01*
X130268Y72425D01*
X130154Y72319D01*
X130039Y72220D01*
X129917Y72122D01*
X129787Y72035D01*
X129657Y71953D01*
X129524Y71874D01*
X129386Y71807D01*
X129244Y71744D01*
X129102Y71685D01*
X128953Y71638D01*
X128803Y71595D01*
X128654Y71563D01*
X128500Y71535D01*
X128350Y71516D01*
X128197Y71504D01*
Y72685D01*
X128279Y72693D01*
X128374Y72709D01*
X128465Y72728D01*
X128555Y72752D01*
X128642Y72780D01*
X128732Y72811D01*
X128819Y72847D01*
X128902Y72886D01*
X128984Y72929D01*
X129063Y72976D01*
X129142Y73028D01*
X129220Y73079D01*
X129291Y73138D01*
X129362Y73201D01*
X129429Y73264D01*
X129492Y73331D01*
X129555Y73402D01*
X129614Y73472D01*
X129665Y73551D01*
X129717Y73630D01*
X129764Y73709D01*
X129807Y73791D01*
X129847Y73874D01*
X129882Y73961D01*
X129913Y74051D01*
X129941Y74138D01*
X129965Y74228D01*
X129984Y74319D01*
X130000Y74413D01*
X130008Y74496D01*
X131189D01*
X131177Y74343D01*
D02*
G37*
G36*
X128350Y77870D02*
X128500Y77850D01*
X128654Y77823D01*
X128803Y77791D01*
X128953Y77748D01*
X129102Y77701D01*
X129244Y77642D01*
X129386Y77579D01*
X129524Y77512D01*
X129657Y77433D01*
X129787Y77350D01*
X129917Y77264D01*
X130039Y77165D01*
X130154Y77067D01*
X130268Y76961D01*
X130374Y76846D01*
X130472Y76732D01*
X130571Y76610D01*
X130657Y76480D01*
X130740Y76350D01*
X130819Y76217D01*
X130886Y76079D01*
X130949Y75937D01*
X131008Y75795D01*
X131055Y75646D01*
X131098Y75496D01*
X131130Y75346D01*
X131158Y75193D01*
X131177Y75043D01*
X131189Y74890D01*
X130008D01*
X130000Y74972D01*
X129984Y75067D01*
X129965Y75157D01*
X129941Y75248D01*
X129913Y75335D01*
X129882Y75425D01*
X129847Y75512D01*
X129807Y75595D01*
X129764Y75677D01*
X129717Y75756D01*
X129665Y75835D01*
X129614Y75913D01*
X129555Y75984D01*
X129492Y76055D01*
X129429Y76122D01*
X129362Y76185D01*
X129291Y76248D01*
X129220Y76307D01*
X129142Y76358D01*
X129063Y76410D01*
X128984Y76457D01*
X128902Y76500D01*
X128819Y76539D01*
X128732Y76575D01*
X128642Y76606D01*
X128555Y76634D01*
X128465Y76657D01*
X128374Y76677D01*
X128279Y76693D01*
X128197Y76701D01*
Y77882D01*
X128350Y77870D01*
D02*
G37*
G36*
X139043Y74291D02*
X139059Y74197D01*
X139079Y74106D01*
X139102Y74016D01*
X139130Y73929D01*
X139161Y73839D01*
X139197Y73752D01*
X139236Y73669D01*
X139279Y73587D01*
X139327Y73508D01*
X139378Y73429D01*
X139429Y73350D01*
X139488Y73280D01*
X139551Y73209D01*
X139614Y73142D01*
X139681Y73079D01*
X139752Y73016D01*
X139823Y72957D01*
X139902Y72905D01*
X139980Y72854D01*
X140059Y72807D01*
X140142Y72764D01*
X140224Y72724D01*
X140311Y72689D01*
X140402Y72658D01*
X140488Y72630D01*
X140579Y72606D01*
X140669Y72587D01*
X140764Y72571D01*
X140847Y72563D01*
Y71382D01*
X140693Y71394D01*
X140543Y71413D01*
X140390Y71441D01*
X140240Y71472D01*
X140091Y71516D01*
X139941Y71563D01*
X139799Y71622D01*
X139657Y71685D01*
X139520Y71752D01*
X139386Y71831D01*
X139256Y71913D01*
X139126Y72000D01*
X139004Y72098D01*
X138890Y72197D01*
X138776Y72303D01*
X138669Y72417D01*
X138571Y72531D01*
X138472Y72654D01*
X138386Y72783D01*
X138303Y72913D01*
X138224Y73047D01*
X138157Y73185D01*
X138094Y73327D01*
X138035Y73469D01*
X137988Y73618D01*
X137945Y73768D01*
X137913Y73917D01*
X137886Y74071D01*
X137866Y74221D01*
X137854Y74374D01*
X139035D01*
X139043Y74291D01*
D02*
G37*
G36*
X140847Y76579D02*
X140764Y76571D01*
X140669Y76555D01*
X140579Y76535D01*
X140488Y76512D01*
X140402Y76484D01*
X140311Y76453D01*
X140224Y76417D01*
X140142Y76378D01*
X140059Y76335D01*
X139980Y76287D01*
X139902Y76236D01*
X139823Y76185D01*
X139752Y76126D01*
X139681Y76063D01*
X139614Y76000D01*
X139551Y75933D01*
X139488Y75862D01*
X139429Y75791D01*
X139378Y75713D01*
X139327Y75634D01*
X139279Y75555D01*
X139236Y75472D01*
X139197Y75390D01*
X139161Y75303D01*
X139130Y75213D01*
X139102Y75126D01*
X139079Y75035D01*
X139059Y74945D01*
X139043Y74850D01*
X139035Y74768D01*
X137854D01*
X137866Y74921D01*
X137886Y75071D01*
X137913Y75224D01*
X137945Y75374D01*
X137988Y75524D01*
X138035Y75673D01*
X138094Y75815D01*
X138157Y75957D01*
X138224Y76095D01*
X138303Y76228D01*
X138386Y76358D01*
X138472Y76488D01*
X138571Y76610D01*
X138669Y76724D01*
X138776Y76839D01*
X138890Y76945D01*
X139004Y77043D01*
X139126Y77142D01*
X139256Y77228D01*
X139386Y77311D01*
X139520Y77390D01*
X139657Y77457D01*
X139799Y77520D01*
X139941Y77579D01*
X140091Y77626D01*
X140240Y77669D01*
X140390Y77701D01*
X140543Y77728D01*
X140693Y77748D01*
X140847Y77760D01*
Y76579D01*
D02*
G37*
G36*
X144220Y74221D02*
X144201Y74071D01*
X144173Y73917D01*
X144142Y73768D01*
X144098Y73618D01*
X144051Y73469D01*
X143992Y73327D01*
X143929Y73185D01*
X143862Y73047D01*
X143783Y72913D01*
X143701Y72783D01*
X143614Y72654D01*
X143516Y72531D01*
X143417Y72417D01*
X143311Y72303D01*
X143197Y72197D01*
X143083Y72098D01*
X142961Y72000D01*
X142831Y71913D01*
X142701Y71831D01*
X142567Y71752D01*
X142429Y71685D01*
X142287Y71622D01*
X142146Y71563D01*
X141996Y71516D01*
X141847Y71472D01*
X141697Y71441D01*
X141543Y71413D01*
X141394Y71394D01*
X141240Y71382D01*
Y72563D01*
X141323Y72571D01*
X141417Y72587D01*
X141508Y72606D01*
X141598Y72630D01*
X141685Y72658D01*
X141776Y72689D01*
X141862Y72724D01*
X141945Y72764D01*
X142028Y72807D01*
X142106Y72854D01*
X142185Y72905D01*
X142264Y72957D01*
X142335Y73016D01*
X142405Y73079D01*
X142472Y73142D01*
X142535Y73209D01*
X142598Y73280D01*
X142657Y73350D01*
X142709Y73429D01*
X142760Y73508D01*
X142807Y73587D01*
X142850Y73669D01*
X142890Y73752D01*
X142925Y73839D01*
X142957Y73929D01*
X142984Y74016D01*
X143008Y74106D01*
X143028Y74197D01*
X143043Y74291D01*
X143051Y74374D01*
X144232D01*
X144220Y74221D01*
D02*
G37*
G36*
X141394Y77748D02*
X141543Y77728D01*
X141697Y77701D01*
X141847Y77669D01*
X141996Y77626D01*
X142146Y77579D01*
X142287Y77520D01*
X142429Y77457D01*
X142567Y77390D01*
X142701Y77311D01*
X142831Y77228D01*
X142961Y77142D01*
X143083Y77043D01*
X143197Y76945D01*
X143311Y76839D01*
X143417Y76724D01*
X143516Y76610D01*
X143614Y76488D01*
X143701Y76358D01*
X143783Y76228D01*
X143862Y76095D01*
X143929Y75957D01*
X143992Y75815D01*
X144051Y75673D01*
X144098Y75524D01*
X144142Y75374D01*
X144173Y75224D01*
X144201Y75071D01*
X144220Y74921D01*
X144232Y74768D01*
X143051D01*
X143043Y74850D01*
X143028Y74945D01*
X143008Y75035D01*
X142984Y75126D01*
X142957Y75213D01*
X142925Y75303D01*
X142890Y75390D01*
X142850Y75472D01*
X142807Y75555D01*
X142760Y75634D01*
X142709Y75713D01*
X142657Y75791D01*
X142598Y75862D01*
X142535Y75933D01*
X142472Y76000D01*
X142405Y76063D01*
X142335Y76126D01*
X142264Y76185D01*
X142185Y76236D01*
X142106Y76287D01*
X142028Y76335D01*
X141945Y76378D01*
X141862Y76417D01*
X141776Y76453D01*
X141685Y76484D01*
X141598Y76512D01*
X141508Y76535D01*
X141417Y76555D01*
X141323Y76571D01*
X141240Y76579D01*
Y77760D01*
X141394Y77748D01*
D02*
G37*
D15*
X123500Y43000D02*
D03*
X139000D02*
D03*
D16*
X16000Y117465D02*
D03*
Y110535D02*
D03*
X155000Y89535D02*
D03*
Y96465D02*
D03*
X23000Y117465D02*
D03*
Y110535D02*
D03*
X58000Y156965D02*
D03*
Y150035D02*
D03*
X133000Y97035D02*
D03*
Y103965D02*
D03*
X149500Y120465D02*
D03*
Y113535D02*
D03*
X141500Y97535D02*
D03*
Y104465D02*
D03*
D17*
X148000Y61626D02*
D03*
Y52374D02*
D03*
X18500Y63626D02*
D03*
Y54374D02*
D03*
X26000Y63752D02*
D03*
Y54500D02*
D03*
X38500Y82626D02*
D03*
Y73374D02*
D03*
X42500Y90874D02*
D03*
Y100126D02*
D03*
D18*
X71965Y159000D02*
D03*
X65035D02*
D03*
X45535Y83000D02*
D03*
X52465D02*
D03*
X129965Y32000D02*
D03*
X123035D02*
D03*
X41535Y146000D02*
D03*
X48465D02*
D03*
X41535Y138000D02*
D03*
X48465D02*
D03*
X126035Y90000D02*
D03*
X132965D02*
D03*
X139465Y135500D02*
D03*
X132535D02*
D03*
X139465Y128500D02*
D03*
X132535D02*
D03*
X93535Y159500D02*
D03*
X100465D02*
D03*
X110035Y83500D02*
D03*
X116965D02*
D03*
X49535Y91500D02*
D03*
X56465D02*
D03*
X141465Y63000D02*
D03*
X134535D02*
D03*
X141465Y55000D02*
D03*
X134535D02*
D03*
X56465Y100500D02*
D03*
X49535D02*
D03*
X140535Y90000D02*
D03*
X147465D02*
D03*
X80035Y159500D02*
D03*
X86965D02*
D03*
D19*
X56669Y121000D02*
D03*
D20*
X30331Y111984D02*
D03*
Y121000D02*
D03*
Y130016D02*
D03*
D21*
X56000Y140500D02*
D03*
D22*
X42500Y55957D02*
D03*
Y63043D02*
D03*
X34000Y55957D02*
D03*
Y63043D02*
D03*
D23*
X31201Y100098D02*
D03*
Y96949D02*
D03*
Y78051D02*
D03*
Y74902D02*
D03*
D24*
Y88484D02*
D03*
Y90453D02*
D03*
Y92421D02*
D03*
Y94390D02*
D03*
Y86516D02*
D03*
Y84547D02*
D03*
Y82579D02*
D03*
Y80610D02*
D03*
D25*
X126000Y56579D02*
D03*
Y66421D02*
D03*
D26*
X141347Y112169D02*
D03*
Y120831D02*
D03*
X134653D02*
D03*
Y112169D02*
D03*
D27*
X118386Y151362D02*
D03*
X116417D02*
D03*
X114449D02*
D03*
X112480D02*
D03*
X110512D02*
D03*
X108543D02*
D03*
X106575D02*
D03*
X104606D02*
D03*
X102638D02*
D03*
X100669D02*
D03*
X98701D02*
D03*
X96732D02*
D03*
X94764D02*
D03*
X92795D02*
D03*
X90827D02*
D03*
X88858D02*
D03*
X86890D02*
D03*
X84921D02*
D03*
X82953D02*
D03*
X80984D02*
D03*
X79016D02*
D03*
X77047D02*
D03*
X75079D02*
D03*
X73110D02*
D03*
X71142D02*
D03*
Y90890D02*
D03*
X73110D02*
D03*
X75079D02*
D03*
X77047D02*
D03*
X79016D02*
D03*
X80984D02*
D03*
X82953D02*
D03*
X84921D02*
D03*
X86890D02*
D03*
X88858D02*
D03*
X90827D02*
D03*
X92795D02*
D03*
X94764D02*
D03*
X96732D02*
D03*
X98701D02*
D03*
X100669D02*
D03*
X102638D02*
D03*
X104606D02*
D03*
X106575D02*
D03*
X108543D02*
D03*
X110512D02*
D03*
X112480D02*
D03*
X114449D02*
D03*
X116417D02*
D03*
X118386D02*
D03*
D28*
X125000Y97504D02*
D03*
Y99472D02*
D03*
Y101441D02*
D03*
Y103409D02*
D03*
Y105378D02*
D03*
Y107346D02*
D03*
Y109315D02*
D03*
Y111284D02*
D03*
Y113252D02*
D03*
Y115220D02*
D03*
Y117189D02*
D03*
Y119158D02*
D03*
Y121126D02*
D03*
Y123094D02*
D03*
Y125063D02*
D03*
Y127032D02*
D03*
Y129000D02*
D03*
Y130968D02*
D03*
Y132937D02*
D03*
Y134906D02*
D03*
Y136874D02*
D03*
Y138842D02*
D03*
Y140811D02*
D03*
Y142780D02*
D03*
Y144748D02*
D03*
X64528D02*
D03*
Y142780D02*
D03*
Y140811D02*
D03*
Y138842D02*
D03*
Y136874D02*
D03*
Y134906D02*
D03*
Y132937D02*
D03*
Y130968D02*
D03*
Y129000D02*
D03*
Y127032D02*
D03*
Y125063D02*
D03*
Y123094D02*
D03*
Y121126D02*
D03*
Y119158D02*
D03*
Y117189D02*
D03*
Y115220D02*
D03*
Y113252D02*
D03*
Y111284D02*
D03*
Y109315D02*
D03*
Y107346D02*
D03*
Y105378D02*
D03*
Y103409D02*
D03*
Y101441D02*
D03*
Y99472D02*
D03*
Y97504D02*
D03*
D29*
X92272Y78961D02*
D03*
X87941D02*
D03*
X83610D02*
D03*
X79280D02*
D03*
X74949D02*
D03*
X70618D02*
D03*
X66287D02*
D03*
X61957D02*
D03*
X57626D02*
D03*
D30*
X52193Y35653D02*
D03*
Y71087D02*
D03*
X115776D02*
D03*
Y35653D02*
D03*
D31*
X124457Y82858D02*
D03*
Y79622D02*
D03*
X131543D02*
D03*
Y82858D02*
D03*
X128000D02*
D03*
X137500Y82736D02*
D03*
Y79500D02*
D03*
X144587D02*
D03*
Y82736D02*
D03*
X141043D02*
D03*
M02*
