G04*
G04 #@! TF.GenerationSoftware,Altium Limited,Altium Designer,25.2.1 (25)*
G04*
G04 Layer_Color=32768*
%FSLAX25Y25*%
%MOIN*%
G70*
G04*
G04 #@! TF.SameCoordinates,1F1F9B38-8F65-4BE3-9C55-B7ADE1E4FF54*
G04*
G04*
G04 #@! TF.FilePolarity,Positive*
G04*
G01*
G75*
%ADD67C,0.00197*%
D67*
X12130Y120744D02*
X19870D01*
X12130Y107256D02*
X19870D01*
X12130D02*
Y120744D01*
X19870Y107256D02*
Y120744D01*
X144555Y64874D02*
X151445D01*
X144555Y49126D02*
Y64874D01*
Y49126D02*
X151445D01*
Y64874D01*
X151130Y86256D02*
X158870D01*
X151130Y99744D02*
X158870D01*
Y86256D02*
Y99744D01*
X151130Y86256D02*
Y99744D01*
X75244Y155130D02*
Y162870D01*
X61756Y155130D02*
Y162870D01*
X75244D01*
X61756Y155130D02*
X75244D01*
X19130Y120744D02*
X26870D01*
X19130Y107256D02*
X26870D01*
X19130D02*
Y120744D01*
X26870Y107256D02*
Y120744D01*
X54130Y160244D02*
X61870D01*
X54130Y146756D02*
X61870D01*
X54130D02*
Y160244D01*
X61870Y146756D02*
Y160244D01*
X60232Y107211D02*
Y134789D01*
X26768Y107211D02*
X60232D01*
X26768D02*
Y134789D01*
X60232D01*
X42256Y79130D02*
Y86870D01*
X55744Y79130D02*
Y86870D01*
X42256Y79130D02*
X55744D01*
X42256Y86870D02*
X55744D01*
X133244Y28130D02*
Y35870D01*
X119756Y28130D02*
Y35870D01*
X133244D01*
X119756Y28130D02*
X133244D01*
X15055Y66874D02*
X21945D01*
X15055Y51126D02*
Y66874D01*
Y51126D02*
X21945D01*
Y66874D01*
X38563Y52807D02*
Y66193D01*
X46437Y52807D02*
Y66193D01*
X38563Y52807D02*
X46437D01*
X38563Y66193D02*
X46437D01*
X22555Y67000D02*
X29445D01*
X22555Y51252D02*
Y67000D01*
Y51252D02*
X29445D01*
Y67000D01*
X1280Y107283D02*
X34429D01*
X1280Y67716D02*
Y107283D01*
Y67716D02*
X34429D01*
Y107283D01*
X30063Y52807D02*
Y66193D01*
X37937Y52807D02*
Y66193D01*
X30063Y52807D02*
X37937D01*
X30063Y66193D02*
X37937D01*
X38256Y142130D02*
Y149870D01*
X51744Y142130D02*
Y149870D01*
X38256Y142130D02*
X51744D01*
X38256Y149870D02*
X51744D01*
X38256Y134130D02*
Y141870D01*
X51744Y134130D02*
Y141870D01*
X38256Y134130D02*
X51744D01*
X38256Y141870D02*
X51744D01*
X121472Y53626D02*
X130528D01*
X121472D02*
Y69374D01*
X130528D01*
Y53626D02*
Y69374D01*
X131307Y108429D02*
X144693D01*
Y124571D01*
X131307Y108429D02*
Y124571D01*
X144693D01*
X60472Y155417D02*
X129055D01*
X60472Y86835D02*
X129055D01*
Y155417D01*
X60472Y86835D02*
Y155417D01*
X49043Y82701D02*
X118925D01*
Y17346D02*
Y82701D01*
X49043Y17346D02*
Y82701D01*
Y17346D02*
X105539D01*
Y16362D02*
Y17346D01*
Y16362D02*
X111839D01*
Y17346D01*
X118925D01*
X35055Y85874D02*
X41945D01*
X35055Y70126D02*
Y85874D01*
Y70126D02*
X41945D01*
Y85874D01*
X39055Y87626D02*
X45945D01*
Y103374D01*
X39055D02*
X45945D01*
X39055Y87626D02*
Y103374D01*
X134201Y69614D02*
Y85374D01*
X121799Y69614D02*
X134201D01*
X121799D02*
Y85374D01*
X134201D01*
X147244Y69492D02*
Y85252D01*
X134843Y69492D02*
X147244D01*
X134843D02*
Y85252D01*
X147244D01*
X147917Y85886D02*
X159083D01*
Y65114D02*
Y85886D01*
X147917Y65114D02*
X159083D01*
X147917D02*
Y85886D01*
X122756Y86130D02*
Y93870D01*
X136244Y86130D02*
Y93870D01*
X122756Y86130D02*
X136244D01*
X122756Y93870D02*
X136244D01*
X142744Y131630D02*
Y139370D01*
X129256Y131630D02*
Y139370D01*
X142744D01*
X129256Y131630D02*
X142744D01*
Y124630D02*
Y132370D01*
X129256Y124630D02*
Y132370D01*
X142744D01*
X129256Y124630D02*
X142744D01*
X90256Y155630D02*
Y163370D01*
X103744Y155630D02*
Y163370D01*
X90256Y155630D02*
X103744D01*
X90256Y163370D02*
X103744D01*
X129130Y93756D02*
X136870D01*
X129130Y107244D02*
X136870D01*
Y93756D02*
Y107244D01*
X129130Y93756D02*
Y107244D01*
X106756Y79630D02*
Y87370D01*
X120244Y79630D02*
Y87370D01*
X106756Y79630D02*
X120244D01*
X106756Y87370D02*
X120244D01*
X46256Y87630D02*
Y95370D01*
X59744Y87630D02*
Y95370D01*
X46256Y87630D02*
X59744D01*
X46256Y95370D02*
X59744D01*
X144744Y59130D02*
Y66870D01*
X131256Y59130D02*
Y66870D01*
X144744D01*
X131256Y59130D02*
X144744D01*
Y51130D02*
Y58870D01*
X131256Y51130D02*
Y58870D01*
X144744D01*
X131256Y51130D02*
X144744D01*
X145630Y123744D02*
X153370D01*
X145630Y110256D02*
X153370D01*
X145630D02*
Y123744D01*
X153370Y110256D02*
Y123744D01*
X137630Y94256D02*
X145370D01*
X137630Y107744D02*
X145370D01*
Y94256D02*
Y107744D01*
X137630Y94256D02*
Y107744D01*
X59744Y96630D02*
Y104370D01*
X46256Y96630D02*
Y104370D01*
X59744D01*
X46256Y96630D02*
X59744D01*
X137256Y86130D02*
Y93870D01*
X150744Y86130D02*
Y93870D01*
X137256Y86130D02*
X150744D01*
X137256Y93870D02*
X150744D01*
X76756Y155630D02*
Y163370D01*
X90244Y155630D02*
Y163370D01*
X76756Y155630D02*
X90244D01*
X76756Y163370D02*
X90244D01*
M02*
